<svg width="243" height="99" viewBox="0 0 243 99" fill="none" xmlns="http://www.w3.org/2000/svg">
<g clip-path="url(#clip0)">
<path d="M131.716 15.4727L124.575 18.4482V7.14122H131.716V15.4727Z" fill="url(#paint0_linear)"/>
<path d="M184.482 48.7984H243" stroke="url(#paint1_linear)" stroke-width="3" stroke-miterlimit="10"/>
<path d="M205.707 90.1639H242.207" stroke="url(#paint2_linear)" stroke-width="3" stroke-miterlimit="10"/>
<path d="M242.206 48.6992V90.9514" stroke="url(#paint3_linear)" stroke-width="3" stroke-miterlimit="10"/>
<path d="M58.5184 48.7984H0" stroke="url(#paint4_linear)" stroke-width="3" stroke-miterlimit="10"/>
<path d="M37.293 90.158H0.793427" stroke="url(#paint5_linear)" stroke-width="3" stroke-miterlimit="10"/>
<path d="M0.793427 48.6992V90.9514" stroke="url(#paint6_linear)" stroke-width="3" stroke-miterlimit="10"/>
<path d="M56.003 94.3951C55.53 94.4111 55.0594 94.3203 54.6263 94.1293C54.1933 93.9384 53.8088 93.6522 53.5016 93.2922C52.8655 92.5569 52.5475 91.6232 52.5475 90.4912C52.5475 89.3592 52.8655 88.4255 53.5016 87.6903C53.8088 87.3302 54.1933 87.0441 54.6263 86.8531C55.0594 86.6622 55.53 86.5713 56.003 86.5873C56.4721 86.5896 56.9339 86.7039 57.3499 86.9206C57.7814 87.1373 58.1466 87.4662 58.4072 87.8728L57.6753 88.4679C57.5129 88.1766 57.2769 87.9331 56.9909 87.7617C56.699 87.579 56.3613 87.4827 56.0169 87.484C55.6735 87.475 55.3328 87.5472 55.0226 87.6947C54.7124 87.8422 54.4413 88.0609 54.2316 88.333C53.7887 88.9596 53.5508 89.708 53.5508 90.4753C53.5508 91.2427 53.7887 91.9911 54.2316 92.6177C54.4407 92.8905 54.7116 93.1097 55.022 93.2573C55.3323 93.4049 55.6734 93.4767 56.0169 93.4667C56.3691 93.4758 56.7174 93.3909 57.026 93.2208C57.3345 93.0507 57.5922 92.8014 57.7724 92.4987L58.4767 93.0938C58.2097 93.5038 57.8422 93.8386 57.4092 94.0664C56.9762 94.2942 56.4921 94.4073 56.003 94.3951Z" fill="white"/>
<path d="M61.3808 94.2046V87.6784H59.044V86.7738H64.6559V87.6784H62.3211V94.2046H61.3808Z" fill="white"/>
<path d="M66.0107 98.0133V86.7778H66.9509V88.0632H66.9926C67.2372 87.6117 67.6008 87.2357 68.0439 86.9761C68.4622 86.7202 68.9422 86.583 69.4325 86.5794C69.8946 86.5664 70.3535 86.6606 70.773 86.8547C71.1926 87.0488 71.5614 87.3376 71.8506 87.6982C72.4517 88.5023 72.7765 89.4793 72.7765 90.4833C72.7765 91.4872 72.4517 92.4642 71.8506 93.2684C71.5619 93.6311 71.1928 93.9218 70.7724 94.1173C70.3521 94.3129 69.892 94.4079 69.4286 94.3951C68.9466 94.3919 68.4741 94.2605 68.0598 94.0142C67.6169 93.7603 67.2493 93.3934 66.9946 92.951H66.9529V98.0133H66.0107ZM69.3274 93.4747C69.6713 93.4871 70.0131 93.4164 70.3239 93.2686C70.6347 93.1208 70.9053 92.9003 71.1127 92.6256C71.5405 91.9946 71.7693 91.2497 71.7693 90.4872C71.7693 89.7248 71.5405 88.9799 71.1127 88.3488C70.9065 88.0724 70.6364 87.85 70.3254 87.7008C70.0145 87.5516 69.6721 87.4799 69.3274 87.4919C68.9837 87.4862 68.6434 87.5606 68.3335 87.7094C68.0236 87.8582 67.7526 88.0771 67.5421 88.3488C67.0843 88.9678 66.8373 89.7174 66.8373 90.4872C66.8373 91.2571 67.0843 92.0067 67.5421 92.6256C67.7538 92.8955 68.0252 93.1126 68.335 93.2599C68.6448 93.4072 68.9844 93.4807 69.3274 93.4747Z" fill="white"/>
<path d="M77.5933 94.3951C77.1252 94.4056 76.6606 94.3113 76.2337 94.1191C75.8067 93.9269 75.4281 93.6417 75.1256 93.2842C74.4948 92.4899 74.1515 91.5055 74.1515 90.4912C74.1515 89.4769 74.4948 88.4925 75.1256 87.6982C75.4363 87.3487 75.8174 87.069 76.2439 86.8774C76.6704 86.6859 77.1327 86.5868 77.6003 86.5868C78.0678 86.5868 78.5301 86.6859 78.9566 86.8774C79.3832 87.069 79.7643 87.3487 80.0749 87.6982C80.706 88.4923 81.0496 89.4768 81.0496 90.4912C81.0496 91.5056 80.706 92.4901 80.0749 93.2842C79.7703 93.6427 79.3893 93.9286 78.96 94.1208C78.5306 94.313 78.0636 94.4067 77.5933 94.3951ZM77.5933 93.4747C77.9369 93.4846 78.2779 93.4128 78.5883 93.2652C78.8987 93.1176 79.1695 92.8984 79.3786 92.6256C79.8192 91.9996 80.0557 91.2528 80.0557 90.4872C80.0557 89.7217 79.8192 88.9749 79.3786 88.3488C79.1661 88.0815 78.896 87.8656 78.5884 87.7172C78.2809 87.5688 77.9438 87.4917 77.6023 87.4917C77.2607 87.4917 76.9236 87.5688 76.6161 87.7172C76.3085 87.8656 76.0384 88.0815 75.8259 88.3488C75.3851 88.9733 75.1485 89.7189 75.1485 90.4833C75.1485 91.2476 75.3851 91.9932 75.8259 92.6177C76.0311 92.8908 76.2985 93.111 76.6059 93.26C76.9133 93.409 77.2518 93.4826 77.5933 93.4747Z" fill="white"/>
<path d="M82.9016 94.2046V86.7778H83.8419V92.7129H83.8558L87.6783 86.7778H88.7019V94.2046H87.7755V88.206H87.7478L83.9193 94.2046H82.9016Z" fill="white"/>
<path d="M92.3975 94.2046V87.6784H90.0587V86.7738H95.6725V87.6784H93.3378V94.2046H92.3975Z" fill="white"/>
<path d="M99.7371 94.3951C99.2806 94.4026 98.8284 94.3065 98.4144 94.1141C98.0004 93.9217 97.6354 93.638 97.3468 93.2842C96.7107 92.5437 96.3926 91.6126 96.3926 90.4912C96.3606 89.4824 96.6946 88.496 97.3329 87.7141C97.6085 87.3621 97.9613 87.0782 98.3641 86.8842C98.7668 86.6902 99.2088 86.5914 99.6558 86.5953C100.633 86.5953 101.393 86.9418 101.937 87.6347C102.481 88.3277 102.753 89.2058 102.754 90.269C102.754 90.4806 102.75 90.6499 102.74 90.7769H97.3845C97.3839 91.4778 97.6336 92.156 98.0887 92.6891C98.2873 92.938 98.5396 93.1387 98.8268 93.2761C99.114 93.4135 99.4286 93.4841 99.747 93.4826C100.185 93.4864 100.615 93.3563 100.977 93.1097C101.329 92.8794 101.618 92.566 101.82 92.1972L102.524 92.832C101.799 93.874 100.87 94.3951 99.7371 94.3951ZM97.3865 89.9199H101.796C101.8 89.2853 101.59 88.6678 101.201 88.1663C101.013 87.9429 100.777 87.7658 100.509 87.6488C100.242 87.5319 99.9512 87.4782 99.6598 87.4919C99.3633 87.4901 99.0701 87.5539 98.8013 87.6787C98.5324 87.8036 98.2945 87.9863 98.1046 88.214C97.6781 88.6844 97.4248 89.2861 97.3865 89.9199Z" fill="white"/>
<path d="M104.188 94.284C103.95 94.288 103.713 94.2559 103.484 94.1888L103.595 93.2525C103.737 93.3061 103.887 93.333 104.038 93.3318C104.544 93.3318 104.92 93.0224 105.164 92.4035C105.409 91.7846 105.531 90.7451 105.531 89.2851V86.7778H110.161V94.2046H109.221V87.6784H106.444V89.662C106.444 91.1538 106.271 92.2964 105.926 93.0898C105.581 93.8833 105.002 94.2813 104.188 94.284Z" fill="white"/>
<path d="M112.474 94.2046V86.7778H113.415V89.5708H114.976C115.777 89.5708 116.401 89.7692 116.848 90.1659C117.295 90.5626 117.519 91.1392 117.519 91.8957C117.519 92.6362 117.3 93.2049 116.862 93.6016C116.424 93.9983 115.8 94.1967 114.99 94.1967L112.474 94.2046ZM113.415 93.2684H115.087C116.064 93.2684 116.553 92.8134 116.553 91.9036C116.553 90.9514 116.064 90.4753 115.087 90.4753H113.415V93.2684Z" fill="white"/>
<path d="M122.212 94.3951C121.739 94.4111 121.269 94.3203 120.835 94.1293C120.402 93.9384 120.018 93.6522 119.711 93.2922C119.075 92.5569 118.757 91.6232 118.757 90.4912C118.757 89.3592 119.075 88.4255 119.711 87.6903C120.018 87.3302 120.402 87.0441 120.835 86.8531C121.269 86.6622 121.739 86.5713 122.212 86.5873C122.681 86.5896 123.143 86.7039 123.559 86.9206C123.991 87.1373 124.356 87.4662 124.616 87.8728L123.884 88.4679C123.722 88.1766 123.486 87.9331 123.2 87.7617C122.908 87.579 122.57 87.4827 122.226 87.484C121.883 87.475 121.542 87.5472 121.232 87.6947C120.921 87.8422 120.65 88.0609 120.441 88.333C119.998 88.9596 119.76 89.708 119.76 90.4753C119.76 91.2427 119.998 91.9911 120.441 92.6177C120.65 92.8905 120.921 93.1097 121.231 93.2573C121.541 93.4049 121.882 93.4767 122.226 93.4667C122.578 93.4758 122.927 93.3909 123.235 93.2208C123.544 93.0507 123.801 92.8014 123.982 92.4987L124.686 93.0938C124.419 93.5038 124.051 93.8386 123.618 94.0664C123.185 94.2942 122.701 94.4073 122.212 94.3951Z" fill="white"/>
<path d="M127.59 94.2046V87.6784H125.253V86.7738H130.865V87.6784H128.528V94.2046H127.59Z" fill="white"/>
<path d="M132.22 94.2046V86.7778H135.247C135.777 86.7598 136.299 86.9158 136.733 87.2221C137.129 87.5183 137.328 88.005 137.328 88.6821C137.335 89.0477 137.226 89.4063 137.016 89.7057C136.821 89.9889 136.528 90.1897 136.193 90.269V90.2849C136.397 90.3056 136.596 90.3667 136.776 90.4648C136.957 90.5629 137.116 90.6959 137.244 90.8562C137.523 91.2249 137.664 91.6799 137.641 92.1416C137.652 92.4242 137.6 92.7057 137.488 92.9653C137.375 93.2249 137.206 93.4559 136.992 93.6413C136.559 94.0169 135.974 94.2046 135.237 94.2046H132.22ZM133.16 89.904H135.219C135.521 89.9112 135.816 89.8162 136.056 89.6343C136.178 89.5325 136.274 89.4031 136.335 89.2567C136.397 89.1104 136.422 88.9514 136.409 88.7932C136.409 88.042 135.958 87.6665 135.054 87.6665H133.162L133.16 89.904ZM133.16 93.2763H135.144C135.537 93.2928 135.925 93.1875 136.257 92.9748C136.399 92.8673 136.512 92.7254 136.586 92.5624C136.659 92.3994 136.69 92.2205 136.675 92.0424C136.675 91.2066 136.196 90.7888 135.237 90.7888H133.16V93.2763Z" fill="white"/>
<path d="M142.475 94.3951C142.007 94.4056 141.543 94.3113 141.116 94.1191C140.689 93.9269 140.31 93.6417 140.008 93.2842C139.377 92.4899 139.033 91.5055 139.033 90.4912C139.033 89.4769 139.377 88.4925 140.008 87.6982C140.318 87.3487 140.699 87.069 141.126 86.8774C141.552 86.6859 142.015 86.5868 142.482 86.5868C142.95 86.5868 143.412 86.6859 143.839 86.8774C144.265 87.069 144.646 87.3487 144.957 87.6982C145.588 88.4925 145.931 89.4769 145.931 90.4912C145.931 91.5055 145.588 92.4899 144.957 93.2842C144.652 93.6427 144.271 93.9286 143.842 94.1208C143.413 94.313 142.946 94.4067 142.475 94.3951ZM142.475 93.4747C142.819 93.4846 143.16 93.4128 143.47 93.2652C143.781 93.1176 144.052 92.8984 144.261 92.6256C144.701 91.9996 144.938 91.2528 144.938 90.4872C144.938 89.7217 144.701 88.9749 144.261 88.3488C144.048 88.0815 143.778 87.8656 143.47 87.7172C143.163 87.5688 142.826 87.4917 142.484 87.4917C142.143 87.4917 141.806 87.5688 141.498 87.7172C141.19 87.8656 140.92 88.0815 140.708 88.3488C140.267 88.9733 140.03 89.7189 140.03 90.4833C140.03 91.2476 140.267 91.9932 140.708 92.6177C140.913 92.8908 141.181 93.111 141.488 93.26C141.795 93.409 142.134 93.4826 142.475 93.4747Z" fill="white"/>
<path d="M150.164 96.6168V93.2684H150.91C151.602 92.2527 151.947 90.7451 151.947 88.7456V86.7778H156.647V93.2684H157.684V96.6168H156.809V94.2046H151.031V96.6168H150.164ZM151.975 93.2684H155.718V87.6784H152.856V89.0431C152.887 90.5005 152.584 91.9457 151.971 93.2684H151.975Z" fill="white"/>
<path d="M162.213 94.3951C161.745 94.4056 161.28 94.3113 160.853 94.1191C160.426 93.9269 160.048 93.6417 159.745 93.2842C159.114 92.4899 158.771 91.5055 158.771 90.4912C158.771 89.4769 159.114 88.4925 159.745 87.6982C160.056 87.3487 160.437 87.069 160.863 86.8774C161.29 86.6859 161.752 86.5868 162.22 86.5868C162.687 86.5868 163.15 86.6859 163.576 86.8774C164.003 87.069 164.384 87.3487 164.694 87.6982C165.325 88.4925 165.669 89.4769 165.669 90.4912C165.669 91.5055 165.325 92.4899 164.694 93.2842C164.39 93.6427 164.009 93.9286 163.58 94.1208C163.15 94.313 162.683 94.4067 162.213 94.3951ZM162.213 93.4747C162.556 93.4846 162.897 93.4128 163.208 93.2652C163.518 93.1176 163.789 92.8984 163.998 92.6256C164.439 91.9996 164.675 91.2528 164.675 90.4872C164.675 89.7217 164.439 88.9749 163.998 88.3488C163.786 88.0815 163.516 87.8656 163.208 87.7172C162.9 87.5688 162.563 87.4917 162.222 87.4917C161.88 87.4917 161.543 87.5688 161.236 87.7172C160.928 87.8656 160.658 88.0815 160.445 88.3488C160.005 88.9733 159.768 89.7189 159.768 90.4833C159.768 91.2476 160.005 91.9932 160.445 92.6177C160.651 92.8908 160.918 93.111 161.226 93.26C161.533 93.409 161.871 93.4826 162.213 93.4747Z" fill="white"/>
<path d="M167.521 94.2046V86.7778H168.876L171.266 92.6018H171.28L173.661 86.7778H175.016V94.2046H174.075V88.0553H174.048L171.504 94.2046H171.02L168.477 88.0553H168.463V94.2046H167.521Z" fill="white"/>
<path d="M180.316 94.3951C179.848 94.4056 179.383 94.3113 178.956 94.1191C178.529 93.9269 178.151 93.6417 177.848 93.2842C177.217 92.4899 176.874 91.5055 176.874 90.4912C176.874 89.4769 177.217 88.4925 177.848 87.6982C178.159 87.3487 178.54 87.069 178.966 86.8774C179.393 86.6859 179.855 86.5868 180.323 86.5868C180.79 86.5868 181.253 86.6859 181.679 86.8774C182.106 87.069 182.487 87.3487 182.797 87.6982C183.428 88.4925 183.772 89.4769 183.772 90.4912C183.772 91.5055 183.428 92.4899 182.797 93.2842C182.493 93.6427 182.112 93.9286 181.682 94.1208C181.253 94.313 180.786 94.4067 180.316 94.3951ZM180.316 93.4747C180.659 93.4846 181 93.4128 181.311 93.2652C181.621 93.1176 181.892 92.8984 182.101 92.6256C182.542 91.9996 182.778 91.2528 182.778 90.4872C182.778 89.7217 182.542 88.9749 182.101 88.3488C181.889 88.0815 181.619 87.8656 181.311 87.7172C181.003 87.5688 180.666 87.4917 180.325 87.4917C179.983 87.4917 179.646 87.5688 179.339 87.7172C179.031 87.8656 178.761 88.0815 178.548 88.3488C178.108 88.9733 177.871 89.7189 177.871 90.4833C177.871 91.2476 178.108 91.9932 178.548 92.6177C178.754 92.8908 179.021 93.111 179.328 93.26C179.636 93.409 179.974 93.4826 180.316 93.4747Z" fill="white"/>
<path d="M185.614 94.2046V86.7778H188.647C189.178 86.7599 189.699 86.916 190.133 87.2221C190.53 87.5183 190.728 88.005 190.728 88.6821C190.736 89.0477 190.627 89.4063 190.417 89.7057C190.222 89.989 189.928 90.1897 189.594 90.269V90.2849C189.798 90.3056 189.996 90.3667 190.177 90.4648C190.357 90.5629 190.516 90.696 190.645 90.8562C190.924 91.2249 191.064 91.6799 191.042 92.1416C191.053 92.4242 191 92.7057 190.888 92.9653C190.776 93.2249 190.607 93.4559 190.393 93.6413C189.959 94.0169 189.374 94.2046 188.637 94.2046H185.614ZM186.555 89.904H188.614C188.915 89.9111 189.21 89.816 189.451 89.6343C189.573 89.5326 189.668 89.4031 189.73 89.2567C189.791 89.1104 189.817 88.9514 189.804 88.7932C189.804 88.042 189.352 87.6665 188.449 87.6665H186.555V89.904ZM186.555 93.2763H188.538C188.931 93.2927 189.32 93.1874 189.651 92.9748C189.798 92.8689 189.915 92.7273 189.991 92.5634C190.067 92.3995 190.101 92.2188 190.087 92.0385C190.087 91.2027 189.608 90.7848 188.649 90.7848H186.555V93.2763Z" fill="white"/>
<path d="M93.8277 48.7984H82.9175L72.4041 23.8041L105.333 26.5812L93.8277 48.7984Z" fill="url(#paint7_linear)"/>
<path d="M161.471 0L133.501 48.7984H97.9935L109.499 24.2008C118.029 20.7869 126.913 16.9703 136.08 12.6955C145.056 8.50996 153.522 4.24903 161.471 0Z" fill="url(#paint8_linear)"/>
<path d="M191.424 49.5918H184.482L159.884 7.73633L162.86 1.58694L191.424 49.5918Z" fill="url(#paint9_linear)"/>
<path d="M72.6024 27.9698L71.6106 24.9943L51.1787 49.5918H58.9151L72.6024 27.9698Z" fill="url(#paint10_linear)"/>
<path d="M70.4204 39.8718H67.6433V42.8473H70.4204V39.8718Z" fill="white"/>
<path d="M74.1893 39.8718H71.4122V42.8473H74.1893V39.8718Z" fill="white"/>
<path d="M74.1893 43.6408H71.4122V46.6163H74.1893V43.6408Z" fill="white"/>
<path d="M70.4204 43.6408H67.6433V46.6163H70.4204V43.6408Z" fill="white"/>
<path d="M157.305 30.1518H151.156V36.3012H157.305V30.1518Z" fill="white"/>
<path d="M164.645 30.1518H158.495V36.3012H164.645V30.1518Z" fill="white"/>
<path d="M164.645 37.2931H158.495V43.4425H164.645V37.2931Z" fill="white"/>
<path d="M157.305 37.2931H151.156V43.4425H157.305V37.2931Z" fill="white"/>
<path d="M43.3294 79.3469H34.3731V78.1091C35.0401 78.0732 35.7003 77.956 36.3389 77.76C36.8599 77.5854 37.1205 77.3705 37.1205 77.1153C37.1188 76.9872 37.1089 76.8593 37.0907 76.7324C37.0733 76.5975 37.0427 76.4647 36.9995 76.3357L35.2141 70.7913H27.6504C27.3661 71.6047 27.1353 72.3135 26.9581 72.9178C26.7809 73.5222 26.6215 74.0783 26.48 74.5861C26.3478 75.086 26.2565 75.4927 26.2063 75.8061C26.1615 76.0596 26.1363 76.3163 26.1309 76.5738C26.1309 77.0393 26.4496 77.3996 27.087 77.6549C27.7765 77.922 28.5047 78.0754 29.2433 78.1091V79.3469H21.1281V78.1091C21.464 78.0729 21.7959 78.0065 22.1199 77.9108C22.468 77.8221 22.7972 77.6716 23.0919 77.4664C23.4594 77.1909 23.7779 76.8557 24.0342 76.4746C24.3054 76.0277 24.5244 75.5511 24.6868 75.0543C25.7699 71.9505 26.9647 68.4638 28.2713 64.5944C29.5779 60.7249 30.7423 57.2786 31.7645 54.2554H32.9785L40.1555 75.5978C40.2759 75.9861 40.4495 76.3559 40.6712 76.6967C40.8962 77.0094 41.1679 77.2857 41.4766 77.516C41.7562 77.7006 42.0636 77.8393 42.3871 77.9266C42.693 78.0241 43.0092 78.0854 43.3294 78.1091V79.3469ZM34.6607 69.2302L31.3976 59.6292L28.1781 69.2302H34.6607Z" fill="white"/>
<path d="M68.3316 79.3469H61.0118V78.1964L61.726 78.127C61.9435 78.1094 62.1576 78.0627 62.3627 77.9881C62.6391 77.8892 62.8708 77.6941 63.0154 77.4386C63.1797 77.1247 63.2584 76.773 63.2435 76.419V63.5866H59.0778C59.1062 66.0372 58.9337 68.486 58.562 70.9084C58.2182 72.9542 57.7725 74.6218 57.225 75.9112C56.6881 77.1781 56.0804 78.1257 55.402 78.7538C54.7236 79.382 54.03 79.6961 53.3211 79.6961C52.5925 79.6961 52.041 79.4779 51.6668 79.0414C51.2977 78.6197 51.0977 78.0764 51.1054 77.516C51.1056 77.0929 51.2297 76.6791 51.4624 76.3258C51.5714 76.1489 51.7259 76.0045 51.9099 75.9078C52.0938 75.8112 52.3003 75.7657 52.5078 75.7763C52.9301 75.7749 53.3391 75.9232 53.6623 76.1949C54.0548 76.53 54.3928 76.9242 54.6641 77.3633C55.0162 76.9329 55.3054 76.4547 55.523 75.9429C55.9014 75.1123 56.2041 74.2492 56.4276 73.3642C56.7368 72.2337 56.9852 71.0875 57.1714 69.9304C57.3751 68.5827 57.4713 67.2209 57.4591 65.858C57.4829 65.4016 57.4154 64.945 57.2607 64.515C57.1316 64.2272 56.9132 63.9886 56.6378 63.8346C56.3414 63.6811 56.0239 63.5721 55.6956 63.5113C55.2605 63.4121 54.9061 63.346 54.6323 63.3129V62.1624H68.2701V63.3129C67.9765 63.3367 67.7206 63.3658 67.5024 63.4002C67.2842 63.4346 67.0858 63.4756 66.9073 63.5232C66.7697 63.5663 66.6425 63.6373 66.5336 63.7319C66.4247 63.8264 66.3365 63.9424 66.2745 64.0726C66.1304 64.3926 66.0625 64.7416 66.0762 65.0923V76.2504C66.0617 76.5905 66.1241 76.9296 66.2587 77.2423C66.392 77.5033 66.6123 77.7096 66.8815 77.8255C67.0987 77.9436 67.3309 78.0317 67.5718 78.0873C67.8245 78.1466 68.081 78.1877 68.3395 78.2103L68.3316 79.3469Z" fill="white"/>
<path d="M92.8934 74.0644C92.9148 74.8877 92.7379 75.7042 92.3776 76.4448C92.0569 77.0848 91.6006 77.6473 91.0407 78.0932C90.4933 78.5123 89.8761 78.8313 89.2177 79.0355C88.5393 79.2454 87.8329 79.3504 87.1229 79.3469H79.2259V78.1964L79.9479 78.127C80.1681 78.1099 80.385 78.0632 80.5926 77.9881C80.8657 77.8929 81.0916 77.6961 81.2234 77.4386C81.37 77.1195 81.438 76.7699 81.4218 76.419V65.2628C81.433 64.9275 81.36 64.5947 81.2096 64.2948C81.0648 64.034 80.8412 63.8256 80.5708 63.6997C80.3305 63.5683 80.0717 63.474 79.8031 63.42C79.5545 63.3737 79.3244 63.3387 79.1128 63.3149V62.1644H86.6508V63.3149C86.3466 63.3387 86.0504 63.3651 85.7621 63.3942C85.5178 63.415 85.2761 63.4588 85.04 63.5251C84.8937 63.5692 84.759 63.6455 84.6461 63.7485C84.5331 63.8515 84.4447 63.9786 84.3874 64.1203C84.2622 64.4302 84.2001 64.762 84.2049 65.0962V69.1925C84.6096 69.1806 84.9561 69.1661 85.2444 69.1489C85.5327 69.1317 85.9505 69.1231 86.498 69.1231C87.3685 69.1109 88.2374 69.2015 89.0867 69.3929C89.7767 69.5495 90.4326 69.8298 91.0228 70.22C91.5987 70.6029 92.0688 71.1248 92.3895 71.7376C92.7427 72.4612 92.9155 73.2595 92.8934 74.0644ZM89.8266 73.9771C89.8469 73.0559 89.5157 72.1615 88.9003 71.4757C88.2827 70.7841 87.3814 70.4383 86.1965 70.4383C85.7857 70.4339 85.375 70.4545 84.9666 70.4997C84.7201 70.5347 84.4717 70.5552 84.2228 70.5612V76.6987C84.2078 76.9054 84.2419 77.1126 84.3222 77.3036C84.4025 77.4946 84.5268 77.6639 84.685 77.7977C84.9931 78.0423 85.5525 78.1647 86.3631 78.1647C86.961 78.1858 87.5543 78.054 88.087 77.7818C88.5177 77.554 88.8815 77.2175 89.1423 76.8058C89.3987 76.3929 89.5813 75.9385 89.6818 75.4629C89.7807 74.9739 89.8292 74.476 89.8266 73.9771Z" fill="white"/>
<path d="M119.249 79.3469H114.091C113.836 78.3961 113.606 77.5815 113.403 76.9031C113.152 76.0996 112.851 75.3126 112.502 74.5464C112.023 73.4567 111.5 72.6679 110.931 72.1799C110.313 71.6759 109.532 71.4161 108.735 71.4499H108.388V76.2484C108.375 76.5859 108.448 76.9211 108.6 77.2224C108.745 77.4828 108.969 77.691 109.239 77.8175C109.456 77.9351 109.688 78.0225 109.929 78.0774C110.182 78.1359 110.438 78.1763 110.697 78.1984V79.3469H103.393V78.1964L104.115 78.127C104.335 78.1099 104.552 78.0632 104.76 77.9881C105.033 77.8929 105.259 77.6961 105.391 77.4386C105.537 77.1195 105.605 76.7699 105.589 76.419V65.2629C105.6 64.9275 105.527 64.5947 105.377 64.2948C105.232 64.034 105.008 63.8257 104.738 63.6997C104.498 63.5683 104.239 63.474 103.97 63.42C103.722 63.3737 103.492 63.3387 103.28 63.3149V62.1644H110.584V63.3149C110.29 63.3387 110.034 63.3678 109.816 63.4022C109.598 63.4366 109.4 63.4776 109.221 63.5252C109.084 63.5685 108.957 63.6396 108.848 63.7342C108.74 63.8287 108.652 63.9446 108.59 64.0746C108.446 64.3946 108.378 64.7436 108.392 65.0942V70.1328H109.352C109.7 70.1302 110.042 70.0531 110.358 69.9066C110.681 69.7644 110.967 69.55 111.195 69.2798C111.517 68.8627 111.774 68.3983 111.955 67.9031C112.177 67.3332 112.364 66.7982 112.516 66.2983C112.677 65.7694 112.862 65.2291 113.069 64.6777C113.225 64.2236 113.436 63.7905 113.698 63.3883C114.004 62.9268 114.418 62.5469 114.904 62.2814C115.345 62.0635 115.831 61.9527 116.323 61.9581C117.102 61.9581 117.673 62.1498 118.036 62.5333C118.368 62.9067 118.56 63.3831 118.581 63.8819C118.601 64.3807 118.449 64.8714 118.15 65.2708C118.015 65.4452 117.841 65.5852 117.641 65.679C117.442 65.7728 117.223 65.8178 117.003 65.8104C116.807 65.8221 116.61 65.7929 116.426 65.7246C116.241 65.6563 116.073 65.5504 115.932 65.4136C115.547 64.989 115.189 64.5405 114.861 64.0707C114.668 64.269 114.483 64.6843 114.307 65.3164C114.131 65.9485 113.962 66.5033 113.799 66.9807C113.574 67.7421 113.261 68.4745 112.865 69.1628C112.575 69.6438 112.196 70.0652 111.748 70.4045V70.6188C112.577 70.7802 113.34 71.1825 113.942 71.7753C114.521 72.3924 114.986 73.1069 115.317 73.8859C115.499 74.2919 115.704 74.7878 115.932 75.3736C116.159 75.9595 116.309 76.345 116.38 76.5301C116.582 77.0525 116.825 77.4089 117.108 77.5993C117.346 77.77 117.616 77.8908 117.902 77.9544C118.134 78.0126 118.37 78.0615 118.608 78.1012C118.846 78.1409 119.061 78.1726 119.252 78.1964L119.249 79.3469Z" fill="white"/>
<path d="M143.4 79.0335C142.924 79.2319 142.506 79.3919 142.146 79.5136C141.751 79.6408 141.339 79.7025 140.924 79.6961C140.131 79.6961 139.5 79.4838 139.034 79.0593C138.567 78.6348 138.266 78.0159 138.131 77.2026H138.04C137.46 77.9692 136.741 78.6199 135.921 79.1208C135.089 79.5822 134.147 79.8111 133.196 79.7833C132.674 79.7986 132.156 79.7 131.676 79.4944C131.196 79.2889 130.767 78.9813 130.419 78.5931C129.695 77.7997 129.333 76.7655 129.333 75.4907C129.324 74.8868 129.406 74.2849 129.575 73.7054C129.731 73.1945 129.978 72.7159 130.304 72.293C130.578 71.924 130.918 71.6081 131.305 71.3607C131.677 71.1117 132.067 70.8928 132.474 70.7061C132.93 70.509 133.856 70.1427 135.251 69.6071C136.646 69.0715 137.585 68.653 138.068 68.3514V66.6256C138.055 66.3341 138.027 66.0434 137.984 65.7548C137.93 65.3318 137.81 64.9201 137.627 64.5348C137.423 64.1036 137.131 63.7203 136.768 63.4101C136.399 63.0901 135.876 62.9301 135.197 62.9301C134.75 62.9262 134.308 63.0182 133.9 63.1998C133.58 63.3242 133.292 63.518 133.057 63.7672C133.072 64.1142 133.12 64.459 133.202 64.7967C133.293 65.2091 133.342 65.6299 133.346 66.0524C133.344 66.2608 133.301 66.4667 133.219 66.6583C133.136 66.8499 133.018 67.0235 132.868 67.1692C132.695 67.3422 132.487 67.4768 132.258 67.5639C132.029 67.6511 131.784 67.6889 131.539 67.675C131.314 67.6886 131.089 67.6376 130.891 67.528C130.693 67.4184 130.531 67.2547 130.423 67.0561C130.167 66.6062 130.044 66.0931 130.069 65.5763C130.093 65.0595 130.263 64.5602 130.559 64.1361C130.907 63.6286 131.342 63.1862 131.843 62.8289C132.353 62.4765 132.909 62.198 133.497 62.0017C134.106 61.7822 134.748 61.6675 135.396 61.6625C136.142 61.6522 136.887 61.7187 137.619 61.8609C138.258 61.9974 138.851 62.2944 139.343 62.7238C139.885 63.1917 140.291 63.7967 140.519 64.4753C140.813 65.396 140.947 66.36 140.916 67.3259C140.916 68.9882 140.901 70.4614 140.871 71.7455C140.84 73.0296 140.83 74.436 140.841 75.9648C140.822 76.3357 140.89 76.7058 141.039 77.0459C141.186 77.3243 141.403 77.559 141.67 77.7263C141.89 77.849 142.14 77.9093 142.392 77.9008C142.721 77.9127 143.058 77.9187 143.402 77.9187L143.4 79.0335ZM138.099 69.8253C137.238 70.1162 136.484 70.4019 135.836 70.6823C135.194 70.9581 134.587 71.3097 134.029 71.7296C133.539 72.1112 133.134 72.59 132.839 73.1361C132.532 73.7323 132.381 74.396 132.398 75.0662C132.398 76.0329 132.618 76.7437 133.059 77.1986C133.276 77.4228 133.537 77.5992 133.826 77.7163C134.115 77.8335 134.425 77.8889 134.737 77.879C135.418 77.8932 136.085 77.6842 136.635 77.2839C137.176 76.8915 137.645 76.4099 138.024 75.8596L138.099 69.8253Z" fill="white"/>
<path d="M160.521 79.8012C158.355 79.8012 156.659 78.976 155.435 77.3256C154.21 75.6752 153.598 73.4607 153.598 70.6823C153.589 69.5337 153.756 68.3905 154.092 67.2922C154.407 66.264 154.889 65.2948 155.52 64.4238C156.114 63.6018 156.881 62.9205 157.768 62.4282C158.667 61.9232 159.682 61.662 160.713 61.6704C162.181 61.6704 163.376 62.0744 164.298 62.8824C165.22 63.6905 165.682 64.7921 165.686 66.1872C165.697 66.7243 165.572 67.2553 165.321 67.7305C165.208 67.9449 165.036 68.1222 164.825 68.2411C164.614 68.3601 164.373 68.4156 164.131 68.401C163.876 68.4164 163.621 68.3779 163.381 68.288C163.142 68.1981 162.924 68.0588 162.743 67.8793C162.43 67.5719 162.253 67.1531 162.249 66.7149C162.251 66.1743 162.312 65.6355 162.431 65.1081C162.527 64.7102 162.597 64.3067 162.643 63.9001C162.564 63.7314 162.451 63.5805 162.311 63.4564C162.172 63.3324 162.009 63.2377 161.832 63.178C161.459 63.054 161.067 62.9924 160.674 62.9955C160.188 62.9951 159.71 63.1179 159.285 63.3526C158.846 63.5906 158.419 64.0297 158.006 64.6697C157.574 65.3985 157.267 66.1943 157.097 67.0244C156.847 68.1869 156.729 69.3742 156.748 70.5632C156.748 72.7254 157.165 74.4889 158 75.8537C158.834 77.2185 159.925 77.9008 161.273 77.9008C162.166 77.9304 163.04 77.6383 163.736 77.0776C164.398 76.5288 165.012 75.7049 165.579 74.606L166.549 75.3379C165.95 76.6255 165.042 77.7456 163.907 78.5991C162.812 79.4005 161.683 79.8012 160.521 79.8012Z" fill="white"/>
<path d="M190.611 79.0335C190.135 79.2319 189.717 79.3919 189.358 79.5136C188.963 79.6408 188.55 79.7025 188.136 79.6961C187.342 79.6961 186.712 79.4838 186.245 79.0593C185.778 78.6348 185.477 78.0159 185.343 77.2026H185.251C184.672 77.9691 183.953 78.6198 183.133 79.1208C182.3 79.5822 181.359 79.8111 180.407 79.7833C179.886 79.7987 179.367 79.7001 178.887 79.4946C178.408 79.289 177.979 78.9814 177.63 78.5931C176.907 77.7997 176.545 76.7655 176.545 75.4907C176.535 74.8868 176.617 74.2849 176.787 73.7054C176.942 73.1944 177.189 72.7159 177.515 72.293C177.79 71.9241 178.129 71.6081 178.517 71.3607C178.888 71.1116 179.279 70.8927 179.685 70.7061C180.141 70.509 181.067 70.1427 182.462 69.6071C183.857 69.0715 184.796 68.653 185.279 68.3514V66.6256C185.266 66.3341 185.239 66.0434 185.196 65.7548C185.142 65.3318 185.022 64.92 184.839 64.5348C184.635 64.1038 184.343 63.7205 183.982 63.4101C183.613 63.0901 183.089 62.9301 182.411 62.9301C181.964 62.9262 181.522 63.0182 181.113 63.1998C180.794 63.3242 180.506 63.518 180.27 63.7672C180.285 64.1142 180.334 64.459 180.415 64.7967C180.507 65.2091 180.555 65.6299 180.56 66.0524C180.557 66.2608 180.514 66.4667 180.432 66.6583C180.35 66.8499 180.231 67.0235 180.082 67.1692C179.908 67.3423 179.7 67.4769 179.471 67.5641C179.242 67.6513 178.997 67.6891 178.753 67.675C178.527 67.6886 178.302 67.6376 178.104 67.528C177.907 67.4184 177.744 67.2547 177.636 67.0561C177.381 66.6062 177.258 66.0931 177.282 65.5763C177.306 65.0595 177.476 64.5602 177.773 64.1361C178.121 63.6286 178.555 63.1862 179.056 62.8289C179.566 62.4765 180.123 62.198 180.711 62.0017C181.32 61.7822 181.962 61.6675 182.609 61.6625C183.356 61.6521 184.102 61.7186 184.835 61.8609C185.473 61.9973 186.067 62.2943 186.559 62.7238C187.1 63.1917 187.507 63.7967 187.735 64.4753C188.028 65.396 188.163 66.36 188.132 67.3259C188.132 68.9882 188.116 70.4614 188.086 71.7455C188.056 73.0296 188.044 74.436 188.052 75.9648C188.034 76.3357 188.101 76.7058 188.251 77.0459C188.397 77.3243 188.615 77.559 188.881 77.7263C189.102 77.849 189.351 77.9093 189.603 77.9008C189.933 77.9127 190.269 77.9187 190.613 77.9187L190.611 79.0335ZM185.311 69.8253C184.45 70.1162 183.695 70.4019 183.047 70.6823C182.405 70.9581 181.799 71.3097 181.24 71.7296C180.751 72.1111 180.345 72.59 180.05 73.1361C179.744 73.7323 179.592 74.396 179.61 75.0662C179.61 76.0329 179.83 76.7437 180.27 77.1986C180.487 77.4228 180.748 77.5992 181.037 77.7163C181.326 77.8335 181.637 77.8889 181.948 77.879C182.629 77.8932 183.296 77.6842 183.847 77.2839C184.387 76.8915 184.857 76.4099 185.235 75.8596L185.311 69.8253Z" fill="white"/>
<path d="M214.489 64.1956C215.108 65.0547 215.578 66.0125 215.877 67.0283C216.223 68.2263 216.39 69.4691 216.371 70.716C216.385 71.9812 216.184 73.2396 215.776 74.4373C215.426 75.4774 214.897 76.4481 214.213 77.3057C213.587 78.065 212.818 78.6932 211.95 79.1545C211.134 79.5807 210.227 79.802 209.307 79.7992C208.553 79.8235 207.8 79.705 207.09 79.4501C206.577 79.2558 206.1 78.979 205.677 78.6308H205.556V83.8042C205.544 84.1658 205.616 84.5253 205.768 84.8536C205.906 85.1288 206.137 85.3456 206.421 85.4646C206.758 85.5972 207.106 85.6994 207.46 85.7701C207.827 85.8572 208.201 85.9129 208.577 85.9367V87.0833H200.21V85.9327C200.524 85.9089 200.827 85.8798 201.121 85.8454C201.391 85.8163 201.657 85.7577 201.914 85.6709C202.058 85.6199 202.189 85.5391 202.299 85.4338C202.409 85.3285 202.496 85.2011 202.553 85.0599C202.681 84.7322 202.743 84.3823 202.735 84.0304V65.7409C202.735 65.391 202.657 65.0454 202.507 64.7292C202.372 64.4226 202.169 64.1511 201.912 63.9358C201.684 63.7759 201.426 63.6657 201.152 63.6124C200.843 63.539 200.528 63.4893 200.21 63.4637V62.3131L205.312 61.9303L205.524 62.1386V64.0746L205.645 64.1103C206.179 63.4068 206.844 62.8144 207.605 62.3667C208.301 61.9261 209.105 61.6846 209.928 61.6684C210.827 61.6599 211.711 61.895 212.487 62.3488C213.277 62.817 213.959 63.4462 214.489 64.1956ZM212.013 76.5559C212.441 75.7708 212.744 74.9234 212.91 74.0446C213.111 72.9934 213.207 71.925 213.197 70.8548C213.195 69.9719 213.114 69.091 212.955 68.2225C212.82 67.41 212.564 66.6223 212.195 65.8857C211.877 65.243 211.415 64.6823 210.845 64.2472C210.265 63.8218 209.56 63.6013 208.841 63.6204C208.159 63.6002 207.488 63.799 206.927 64.1877C206.403 64.563 205.942 65.0189 205.56 65.5386V75.7029C205.665 76.0468 205.816 76.3751 206.008 76.6789C206.201 76.9971 206.433 77.2897 206.699 77.5497C207.002 77.8331 207.345 78.071 207.716 78.2559C208.193 78.4695 208.715 78.5591 209.235 78.5165C209.756 78.4738 210.257 78.3002 210.692 78.0119C211.244 77.6416 211.697 77.1426 212.013 76.5579V76.5559Z" fill="white"/>
</g>
<defs>
<linearGradient id="paint0_linear" x1="124.575" y1="12.7947" x2="131.716" y2="12.7947" gradientUnits="userSpaceOnUse">
<stop stop-color="#D1E332"/>
<stop offset="1" stop-color="#AEB500"/>
</linearGradient>
<linearGradient id="paint1_linear" x1="29092.6" y1="171.798" x2="47818.4" y2="171.798" gradientUnits="userSpaceOnUse">
<stop stop-color="#D1E332"/>
<stop offset="1" stop-color="#AEB500"/>
</linearGradient>
<linearGradient id="paint2_linear" x1="18236.5" y1="213.164" x2="29916.4" y2="213.164" gradientUnits="userSpaceOnUse">
<stop stop-color="#D1E332"/>
<stop offset="1" stop-color="#AEB500"/>
</linearGradient>
<linearGradient id="paint3_linear" x1="736.206" y1="5245.72" x2="1056.21" y2="5245.72" gradientUnits="userSpaceOnUse">
<stop stop-color="#D1E332"/>
<stop offset="1" stop-color="#AEB500"/>
</linearGradient>
<linearGradient id="paint4_linear" x1="28908.1" y1="171.798" x2="47633.9" y2="171.798" gradientUnits="userSpaceOnUse">
<stop stop-color="#D1E332"/>
<stop offset="1" stop-color="#AEB500"/>
</linearGradient>
<linearGradient id="paint5_linear" x1="18031.6" y1="213.158" x2="29711.5" y2="213.158" gradientUnits="userSpaceOnUse">
<stop stop-color="#D1E332"/>
<stop offset="1" stop-color="#AEB500"/>
</linearGradient>
<linearGradient id="paint6_linear" x1="494.793" y1="5245.72" x2="814.793" y2="5245.72" gradientUnits="userSpaceOnUse">
<stop stop-color="#D1E332"/>
<stop offset="1" stop-color="#AEB500"/>
</linearGradient>
<linearGradient id="paint7_linear" x1="12091.5" y1="4597.76" x2="17557.7" y2="4597.76" gradientUnits="userSpaceOnUse">
<stop stop-color="#D1E332"/>
<stop offset="1" stop-color="#AEB500"/>
</linearGradient>
<linearGradient id="paint8_linear" x1="31455.9" y1="6002.2" x2="51768.7" y2="6002.2" gradientUnits="userSpaceOnUse">
<stop stop-color="#D1E332"/>
<stop offset="1" stop-color="#AEB500"/>
</linearGradient>
<linearGradient id="paint9_linear" x1="25581.5" y1="6194.22" x2="30596.4" y2="6194.22" gradientUnits="userSpaceOnUse">
<stop stop-color="#D1E332"/>
<stop offset="1" stop-color="#AEB500"/>
</linearGradient>
<linearGradient id="paint10_linear" x1="5578.49" y1="4649.33" x2="7892.24" y2="4649.33" gradientUnits="userSpaceOnUse">
<stop stop-color="#D1E332"/>
<stop offset="1" stop-color="#AEB500"/>
</linearGradient>
<clipPath id="clip0">
<rect width="243" height="98.0133" fill="white"/>
</clipPath>
</defs>
</svg>
