<svg width="41" height="47" viewBox="0 0 41 47" fill="none" xmlns="http://www.w3.org/2000/svg">
<path d="M29.7791 20.5V18.5H10.7791V20.5H29.7791Z" fill="url(#paint0_linear)"/>
<path d="M20.2791 39C30.7725 39 39.2791 30.4934 39.2791 20C39.2791 9.50659 30.7725 1 20.2791 1C9.7857 1 1.27911 9.50659 1.27911 20C1.27911 30.4934 9.7857 39 20.2791 39Z" stroke="url(#paint1_linear)" stroke-width="2"/>
<g filter="url(#filter0_f)">
<path d="M16.2791 35C16.2791 37.7614 14.0405 40 11.2791 40C8.51763 40 6.27905 37.7614 6.27905 35C6.27905 32.2386 8.51763 30 11.2791 30C14.0405 30 16.2791 32.2386 16.2791 35Z" fill="url(#paint2_linear)"/>
</g>
<path d="M11.9529 39.4238C14.0239 39.4238 15.7029 37.7449 15.7029 35.6738C15.7029 33.6028 14.0239 31.9238 11.9529 31.9238C9.88181 31.9238 8.20288 33.6028 8.20288 35.6738C8.20288 37.7449 9.88181 39.4238 11.9529 39.4238Z" fill="url(#paint3_linear)"/>
<defs>
<filter id="filter0_f" x="0.0290527" y="23.75" width="22.5001" height="22.5" filterUnits="userSpaceOnUse" color-interpolation-filters="sRGB">
<feFlood flood-opacity="0" result="BackgroundImageFix"/>
<feBlend mode="normal" in="SourceGraphic" in2="BackgroundImageFix" result="shape"/>
<feGaussianBlur stdDeviation="3.125" result="effect1_foregroundBlur"/>
</filter>
<linearGradient id="paint0_linear" x1="-2307.22" y1="1006.5" x2="-2307.22" y2="1646.5" gradientUnits="userSpaceOnUse">
<stop stop-color="#D1E332"/>
<stop offset="1" stop-color="#AEB500"/>
</linearGradient>
<linearGradient id="paint1_linear" x1="19760.3" y1="4920" x2="32560.3" y2="4920" gradientUnits="userSpaceOnUse">
<stop stop-color="#D1E332"/>
<stop offset="1" stop-color="#AEB500"/>
</linearGradient>
<linearGradient id="paint2_linear" x1="4946.28" y1="1260" x2="8146.28" y2="1260" gradientUnits="userSpaceOnUse">
<stop stop-color="#D1E332"/>
<stop offset="1" stop-color="#AEB500"/>
</linearGradient>
<linearGradient id="paint3_linear" x1="3713.2" y1="954.424" x2="6113.2" y2="954.424" gradientUnits="userSpaceOnUse">
<stop stop-color="#D1E332"/>
<stop offset="1" stop-color="#AEB500"/>
</linearGradient>
</defs>
</svg>
