<svg width="47" height="42" viewBox="0 0 47 42" fill="none" xmlns="http://www.w3.org/2000/svg">
<rect x="19.5424" y="12" width="2" height="19" fill="url(#paint0_linear)"/>
<rect x="30.0424" y="20.5" width="2" height="19" transform="rotate(90 30.0424 20.5)" fill="url(#paint1_linear)"/>
<circle cx="20.5424" cy="22" r="19" stroke="url(#paint2_linear)" stroke-width="2"/>
<g filter="url(#filter0_f)">
<path d="M40.5424 12C40.5424 14.7614 38.3038 17 35.5424 17C32.7809 17 30.5424 14.7614 30.5424 12C30.5424 9.23858 32.7809 7 35.5424 7C38.3038 7 40.5424 9.23858 40.5424 12Z" fill="url(#paint3_linear)"/>
</g>
<circle cx="36.2161" cy="12.6738" r="3.75" fill="url(#paint4_linear)"/>
<defs>
<filter id="filter0_f" x="24.2924" y="0.75" width="22.5" height="22.5" filterUnits="userSpaceOnUse" color-interpolation-filters="sRGB">
<feFlood flood-opacity="0" result="BackgroundImageFix"/>
<feBlend mode="normal" in="SourceGraphic" in2="BackgroundImageFix" result="shape"/>
<feGaussianBlur stdDeviation="3.125" result="effect1_foregroundBlur"/>
</filter>
<linearGradient id="paint0_linear" x1="1007.54" y1="2349" x2="1647.54" y2="2349" gradientUnits="userSpaceOnUse">
<stop stop-color="#D1E332"/>
<stop offset="1" stop-color="#AEB500"/>
</linearGradient>
<linearGradient id="paint1_linear" x1="1018.04" y1="2357.5" x2="1658.04" y2="2357.5" gradientUnits="userSpaceOnUse">
<stop stop-color="#D1E332"/>
<stop offset="1" stop-color="#AEB500"/>
</linearGradient>
<linearGradient id="paint2_linear" x1="19760.5" y1="4922" x2="32560.5" y2="4922" gradientUnits="userSpaceOnUse">
<stop stop-color="#D1E332"/>
<stop offset="1" stop-color="#AEB500"/>
</linearGradient>
<linearGradient id="paint3_linear" x1="4970.54" y1="1237" x2="8170.54" y2="1237" gradientUnits="userSpaceOnUse">
<stop stop-color="#D1E332"/>
<stop offset="1" stop-color="#AEB500"/>
</linearGradient>
<linearGradient id="paint4_linear" x1="3737.47" y1="931.424" x2="6137.47" y2="931.424" gradientUnits="userSpaceOnUse">
<stop stop-color="#D1E332"/>
<stop offset="1" stop-color="#AEB500"/>
</linearGradient>
</defs>
</svg>
