<svg width="23" height="23" viewBox="0 0 23 23" fill="none" xmlns="http://www.w3.org/2000/svg">
<g clip-path="url(#clip0)">
<path d="M1.7364 19.9243H5.27526V22.9579C5.27526 23.1055 5.32248 23.2263 5.4175 23.3208C5.51225 23.4159 5.63339 23.4634 5.78094 23.4634H8.41911C8.55603 23.4634 8.6745 23.4159 8.77458 23.3208C8.87465 23.2263 8.92453 23.1055 8.92453 22.9579V19.9243H16.9026C17.0499 19.9243 17.171 19.8773 17.266 19.7823C17.3611 19.6873 17.4083 19.5664 17.4083 19.4188V17.3965C17.4083 17.2498 17.3611 17.1281 17.266 17.0337C17.1713 16.9386 17.0499 16.8911 16.9026 16.8911H8.92427V15.0268H14.2957C16.402 15.0268 18.1211 14.385 19.4538 13.0995C20.786 11.8154 21.4524 10.1566 21.4524 8.12314C21.4524 6.09099 20.786 4.43218 19.4538 3.14676C18.1214 1.86261 16.4019 1.21948 14.2957 1.21948H5.78068C5.63308 1.21948 5.51221 1.26697 5.41724 1.36146C5.32248 1.45647 5.275 1.57813 5.275 1.7249V11.6622H1.7364C1.58884 11.6622 1.46792 11.7122 1.37295 11.8122C1.27824 11.9123 1.23071 12.0307 1.23071 12.1676V14.5213C1.23071 14.6689 1.27794 14.7898 1.37295 14.8848C1.46797 14.9798 1.58858 15.0268 1.7364 15.0268H5.27526V16.891H1.7364C1.58884 16.891 1.46792 16.9386 1.37295 17.0336C1.27824 17.1281 1.23071 17.2495 1.23071 17.3965V19.4187C1.23071 19.5664 1.27794 19.6873 1.37295 19.7822C1.46792 19.8773 1.58879 19.9243 1.7364 19.9243ZM8.92427 4.58484H13.9797C15.096 4.58484 15.9963 4.91123 16.6811 5.5642C17.3656 6.21723 17.708 7.07061 17.708 8.1234C17.708 9.17672 17.3656 10.0304 16.6811 10.6826C15.9963 11.3362 15.0959 11.6625 13.9797 11.6625H8.92427V4.58484Z" fill="#1B2B47"/>
</g>
<defs>
<clipPath id="clip0">
<rect width="22.2439" height="22.2439" fill="white" transform="translate(0.219482 0.292725)"/>
</clipPath>
</defs>
</svg>
