<svg width="94" height="100" viewBox="0 0 94 100" fill="none" xmlns="http://www.w3.org/2000/svg">
<path d="M83.0721 91.4119H14.9918C6.36191 91.4119 -2.28027 65.1772 8.21116 54.0077C18.7026 42.8382 2.23807 19.0737 19.0555 5.33992C35.8729 -8.39389 51.1093 8.67936 60.918 8.85504C70.7268 9.03072 78.5491 11.2498 82.2492 21.0632C87.1035 33.9356 80.0039 45.7523 86.1018 52.6993C96.7011 64.7781 83.0721 91.4119 83.0721 91.4119Z" fill="url(#paint0_linear)"/>
<path d="M25.8685 8.36192C26.6005 8.31723 27.5297 7.20922 27.5297 7.20922C27.5297 7.20922 26.6683 6.21216 25.9363 6.2584C25.2043 6.30463 24.722 6.80392 24.7035 7.3849C24.685 7.96587 25.1365 8.40661 25.8685 8.36192Z" fill="white"/>
<path d="M30.0387 4.42615C30.1034 5.49564 31.1082 6.60365 31.1082 6.60365C31.1082 6.60365 31.9542 5.09805 31.8895 4.02856C31.8248 2.95907 31.3686 2.36577 30.8585 2.47673C30.3484 2.58768 29.974 3.35512 30.0387 4.42615Z" fill="white"/>
<path d="M34.5953 6.10889C34.2162 7.63606 35.0253 9.89678 35.0253 9.89678C35.0253 9.89678 36.7636 8.42816 37.1381 6.90253C37.5125 5.37689 37.1889 4.22573 36.4862 4.0069C35.7835 3.78807 34.9806 4.58171 34.5953 6.10889Z" fill="white"/>
<path d="M39.1847 9.11393C38.1198 10.5933 37.9842 13.7895 37.9842 13.7895C37.9842 13.7895 40.4499 13.3718 41.5147 11.8924C42.5796 10.413 42.7368 8.84732 42.0926 8.07988C41.4484 7.31244 40.2495 7.63298 39.1847 9.11393Z" fill="white"/>
<path d="M42.8617 15.2211C41.5564 15.6926 40.2419 18.1044 40.2419 18.1044C40.2419 18.1044 42.1112 19.3634 43.4165 18.8903C44.7217 18.4172 45.4291 17.2969 45.2765 16.2829C45.124 15.2689 44.1654 14.7495 42.8617 15.2211Z" fill="white"/>
<path d="M44.2271 22.0648C43.2701 21.846 41.8539 22.7999 41.8539 22.7999C41.8539 22.7999 42.7785 24.2901 43.734 24.5105C44.6894 24.7309 45.4122 24.3225 45.5493 23.6475C45.6865 22.9725 45.1903 22.2837 44.2271 22.0648Z" fill="white"/>
<path d="M28.3542 11.7723C29.231 11.5458 30.1942 10.0263 30.1942 10.0263C30.1942 10.0263 29.0153 9.06158 28.1384 9.28812C27.2616 9.51465 26.7515 10.2127 26.8101 10.9016C26.8686 11.5904 27.4696 11.9988 28.3542 11.7723Z" fill="white"/>
<path d="M31.3837 15.7682C32.4532 15.03 33.233 12.6599 33.233 12.6599C33.233 12.6599 31.3991 12.0912 30.3281 12.8279C29.2571 13.5645 28.8132 14.6941 29.1045 15.5047C29.3958 16.3152 30.3127 16.5063 31.3837 15.7682Z" fill="white"/>
<path d="M35.3706 21.2112C36.323 19.9629 36.5079 17.1875 36.5079 17.1875C36.5079 17.1875 34.3658 17.4633 33.4135 18.7116C32.4611 19.9598 32.2916 21.316 32.8325 22.0063C33.3734 22.6967 34.4182 22.4594 35.3706 21.2112Z" fill="white"/>
<path d="M38.6146 24.8249C38.9644 23.8556 38.593 22.2637 38.593 22.2637C38.593 22.2637 37.3679 23.0342 37.0181 24.0081C36.6683 24.9821 36.8023 25.7788 37.2431 26.0038C37.6838 26.2288 38.2648 25.7942 38.6146 24.8249Z" fill="white"/>
<path d="M43.168 51.0781L43.4469 51.038C43.6834 47.2371 43.7153 43.4263 43.5425 39.622C43.2759 33.6566 42.3574 25.224 39.5003 18.9273C36.6432 12.6305 33.8216 9.70872 31.96 8.36493C29.9274 6.90093 28.5081 7.30006 28.5081 7.30006C28.5081 7.30006 29.8503 7.26616 31.8275 8.69779C33.6567 10.0231 36.4306 12.9079 39.2522 19.1276C42.0739 25.3472 42.9939 33.749 43.2651 39.6744C43.4387 43.4746 43.4063 47.2814 43.168 51.0781Z" fill="white"/>
<path d="M83.6778 91.412C83.6778 91.412 98.2746 75.7627 91.0147 64.4791C83.7549 53.1956 74.4531 69.8096 71.9566 60.8715C69.4601 51.9335 96.2019 11.2499 67.6124 3.6448C39.0229 -3.96026 53.9849 32.4778 49.6453 38.229C44.7664 44.7013 29.3374 27.4956 35.5771 54.9015C40.473 76.4053 32.7786 65.9971 29.9045 72.7992C26.3123 81.2981 33.2332 91.412 33.2332 91.412H83.6778Z" fill="url(#paint1_linear)"/>
<path d="M28.8767 77.9031C28.8767 77.7336 28.8859 77.5626 28.8936 77.393C31.8016 78.4517 34.7018 77.635 35.5741 77.3376C34.3412 74.9721 32.925 72.7406 31.3054 70.8544C31.421 70.7641 31.5419 70.6807 31.6675 70.6047C34.4214 73.8517 36.5989 78.0726 38.2586 82.2365C38.163 79.925 37.6421 74.3032 34.9638 69.6477C35.102 69.6065 35.2378 69.5576 35.3706 69.5013C38.8149 75.6008 38.6839 83.2167 38.6808 83.3168C39.7826 86.2094 40.6395 89.0187 41.2821 91.4119H40.8598C39.7965 87.4776 38.1476 82.403 35.799 77.7737C34.5791 78.1937 33.2983 78.4097 32.0081 78.4132C30.943 78.4202 29.8844 78.2478 28.8767 77.9031Z" fill="#AEB500"/>
<path d="M46.7126 71.4492C45.8095 71.3968 41.8136 70.9791 36.8807 67.7229C36.9269 67.5688 36.967 67.4147 37.004 67.2406C41.7627 70.4028 45.6338 70.8774 46.6463 70.9468C46.3242 68.5936 45.9359 66.2343 45.4674 63.9335C44.5674 63.8087 40.2818 63.0982 36.6942 60.4939C36.6583 60.273 36.6203 60.0464 36.5802 59.8143C39.9705 62.4078 44.2068 63.2308 45.3642 63.4141C44.0188 56.9972 42.0417 51.0858 39.1414 47.1761C37.6004 45.1158 36.2612 42.7503 35.0746 40.2214C35.1619 40.0896 35.2582 39.9639 35.3628 39.8454C36.5494 42.3912 37.8993 44.7767 39.4327 46.8402C41.3883 49.4785 42.9278 53.0044 44.1406 56.9818C44.3579 53.855 44.8063 44.393 42.7675 39.4L43.2529 39.4956C45.5922 45.6967 44.5166 57.4719 44.4596 58.0667C47.6172 69.153 48.3877 83.2813 48.5418 91.4119H48.1396C48.0471 86.3511 47.7127 78.9648 46.7126 71.4492Z" fill="#AEB500"/>
<path d="M71.9859 85.0983C71.9859 84.1182 72.0075 71.1426 75.0896 63.6053C75.2554 63.5842 75.42 63.5544 75.5827 63.5159C72.8335 69.9421 72.4498 81.0484 72.3974 84.2492C74.8631 79.304 78.0746 74.8919 81.3463 71.1503C81.2445 70.4322 80.642 65.7273 81.5404 61.0272C81.6863 60.9748 81.8332 60.9234 81.9812 60.873C81.1182 65.1048 81.5389 69.4289 81.7022 70.7434C84.2138 67.9275 86.911 65.2828 89.7758 62.8271C89.876 62.938 89.9761 63.0536 90.0748 63.1754C86.4551 66.264 83.1103 69.6608 80.078 73.3278C81.0935 74.1646 85.746 77.6304 92.2523 76.7782C92.203 76.9508 92.1516 77.1223 92.0982 77.2929C91.4717 77.369 90.8414 77.4081 90.2104 77.41C84.5424 77.41 80.6065 74.3757 79.7836 73.6853C79.1364 74.4846 78.4989 75.3106 77.8712 76.1633C78.5076 77.2066 82.1476 82.6449 89.2965 83.5927C89.2082 83.7478 89.1193 83.9019 89.0299 84.055C82.0443 83.0271 78.3797 77.7922 77.5953 76.5378C74.4316 80.9051 71.6453 85.9166 69.981 91.412H69.5511C70.201 89.2486 71.015 87.1379 71.9859 85.0983Z" fill="#AEB500"/>
<path d="M58.4554 91.4119C58.4554 88.3545 58.5047 84.9272 58.6481 81.2318H58.6388C58.6034 80.9236 55.3286 53.0753 46.1163 39.8162C46.2873 39.8162 46.4568 39.8054 46.6233 39.7915C54.253 51.0704 57.7727 72.1319 58.7467 78.9618C59.0888 71.7621 59.7853 63.7055 61.0906 55.5379C61.0382 55.4501 60.9704 55.3253 60.8733 55.148C58.2212 50.3246 53.954 42.9614 49.9319 37.7419C50.0045 37.5889 50.0673 37.4314 50.1199 37.2704C54.196 42.533 58.5202 49.984 61.2 54.8614C61.5082 52.97 61.8519 51.0776 62.231 49.1842C63.7428 41.6469 64.3962 34.1328 64.5426 27.1888C63.1926 27.1888 55.8588 26.9808 49.7608 23.6645C49.7454 23.4765 49.7316 23.2869 49.7177 23.0989C55.7894 26.4892 63.2373 26.6834 64.5518 26.6926C64.6181 23.139 64.5518 19.7425 64.3977 16.571C63.1772 16.0671 55.2084 12.6891 50.8673 8.7117C50.929 8.55759 50.9906 8.40349 51.0584 8.26325C55.1684 12.0203 62.7873 15.3567 64.3869 16.027C64.1311 10.8738 63.6611 6.34619 63.1911 2.77405C63.3282 2.791 63.4654 2.80641 63.6056 2.82644C64.393 8.87522 64.8452 14.9629 64.9602 21.0616C70.4371 20.194 76.0095 16.1303 79.4876 13.1253C79.5493 13.2794 79.614 13.4211 79.671 13.5737C76.1436 16.6096 70.5126 20.701 64.9694 21.564C65.0804 28.9395 64.6874 37.2149 63.2943 45.6321C64.9617 44.9787 72.6947 41.8149 78.1068 37.3104C78.0267 37.5837 77.9456 37.8565 77.8634 38.1287C72.1476 42.7149 64.316 45.7661 63.2003 46.1869C63.0236 47.2245 62.8315 48.2632 62.624 49.3028C61.1908 56.4441 60.2769 63.6592 59.7083 70.4368C60.7778 68.6029 63.9184 64.3758 71.8255 60.101C71.8418 60.2701 71.867 60.4384 71.9011 60.6049C62.3974 65.7797 59.8809 70.9391 59.6189 71.5324C59.0318 78.9587 58.8561 85.8148 58.8592 91.4119H58.4554Z" fill="#AEB500"/>
<g clip-path="url(#clip0)">
<path d="M22.3613 34.8188C22.3613 34.8188 25.4334 33.6439 27.3884 34.8963C27.3737 34.8963 25.3342 37.3643 22.3613 34.8188Z" fill="#CE6F1A"/>
<path d="M27.9873 33.9948C26.3264 34.5637 24.4045 33.6253 23.1734 32.4209C23.0963 33.4849 22.8317 36.2263 21.9644 36.8063C20.8069 37.5821 24.2024 39.023 29.2588 36.5994C29.2588 36.5994 28.3585 36.1154 27.9873 33.9948Z" fill="#E3956F"/>
<path d="M20.84 22.0947C20.84 22.0947 25.5363 20.4987 26.8372 22.2166C27.697 23.2413 28.1946 24.5238 28.2519 25.8631C28.3291 26.602 28.6194 28.5417 28.8913 30.2966C29.1633 32.0515 28.0976 33.5773 25.9883 33.0083C23.879 32.4394 22.1298 31.2756 21.7183 30.0084C21.3067 28.7412 19.5502 22.4494 20.84 22.0947Z" fill="#FFC2A5"/>
<path opacity="0.55" d="M24.1342 29.2585C24.1568 28.8429 23.7627 28.4834 23.2541 28.4555C22.7454 28.4276 22.3148 28.742 22.2923 29.1576C22.2697 29.5732 22.6638 29.9328 23.1725 29.9606C23.6811 29.9885 24.1117 29.6742 24.1342 29.2585Z" fill="#FFB299"/>
<path opacity="0.55" d="M27.8628 29.2308C28.3 29.1626 28.6098 28.818 28.5547 28.4611C28.4996 28.1042 28.1005 27.8702 27.6633 27.9384C27.2261 28.0066 26.9164 28.3512 26.9714 28.7081C27.0265 29.065 27.4256 29.299 27.8628 29.2308Z" fill="#FFB299"/>
<path d="M21.9535 25.5418C21.9535 25.5418 21.8689 26.2807 22.1703 26.2807C22.4716 26.2807 24.8087 26.1846 24.772 25.2425C24.7352 24.3004 24.1473 24.5923 23.7394 24.8103C23.3315 25.0282 22.1997 25.3866 21.9535 25.5418Z" fill="#702530"/>
<path d="M28.0388 25.8484C28.0722 25.8521 28.106 25.8477 28.1374 25.8354C28.1687 25.8232 28.1966 25.8036 28.2189 25.7782C28.2784 25.6745 28.3148 25.559 28.3256 25.4397C28.3364 25.3204 28.3213 25.2002 28.2813 25.0874C27.9947 24.6034 26.5579 24.4925 26.4807 24.7179C26.4035 24.9433 26.4035 25.6711 26.7563 25.708C27.1808 25.7796 27.609 25.8265 28.0388 25.8484Z" fill="#702530"/>
<path d="M21.7109 29.4579C21.7073 29.413 21.6999 29.3685 21.6888 29.3249C21.6595 29.2252 21.6264 29.1291 21.5896 29.033C21.508 28.8316 21.4381 28.6256 21.3802 28.4161C21.318 28.1647 21.2871 27.9066 21.2883 27.6476C21.0458 27.2782 20.2925 26.3176 19.348 27.57C18.1868 29.1032 21.156 30.7141 21.6595 29.6057C21.6778 29.5614 21.6925 29.5207 21.7109 29.4764V29.4579Z" fill="#FFC2A5"/>
<path d="M19.5575 27.836C19.5575 27.836 20.6232 27.5811 20.9135 28.4641C21.0972 29.0294 20.8437 29.6944 20.4211 29.4653C19.9985 29.2363 20.4211 28.7818 20.3072 28.4974C20.1933 28.2129 20.0242 28.0208 19.5575 27.836Z" fill="#DC8A64"/>
<path d="M28.8252 29.8052C28.1037 29.6782 27.3698 29.6372 26.6387 29.6833C26.2529 29.7609 25.4775 29.8052 25.2864 29.5134C25.0953 29.2215 23.5005 30.2116 23.0816 30.4222C22.6627 30.6328 21.9792 29.6501 21.9792 29.5134C21.9792 29.3767 21.6301 27.0269 21.2846 26.7942C21.2416 26.7634 21.1925 26.7424 21.1407 26.7324C21.0889 26.7224 21.0355 26.7238 20.9843 26.7364C20.933 26.7491 20.8851 26.7726 20.8437 26.8055C20.8023 26.8385 20.7685 26.8799 20.7444 26.9272C20.7444 26.9272 21.2111 29.0257 21.1119 29.9752C21.0127 30.9247 22.2143 33.2153 23.4638 34.1685C24.1215 34.6635 25.7605 35.6056 27.2671 35.3987C28.2703 35.262 28.8252 34.3901 29.0861 33.4406C29.2671 32.7308 29.2822 31.9886 29.1302 31.2719L28.8252 29.8052Z" fill="#702530"/>
<path d="M25.72 29.9752C25.5564 29.9755 25.3973 29.9209 25.268 29.82C25.1321 29.7018 25.0071 29.4506 25.1872 29.0073C25.2038 28.9661 25.2359 28.9332 25.2766 28.9159C25.3172 28.8986 25.3631 28.8982 25.404 28.9149C25.4449 28.9315 25.4776 28.9639 25.4948 29.0047C25.5121 29.0456 25.5124 29.0917 25.4959 29.1329C25.4371 29.2843 25.3856 29.4801 25.4959 29.5651C25.698 29.7388 26.4072 29.5651 26.6681 29.421C26.7416 29.2437 26.3227 28.0319 25.8744 27.027C25.8654 27.0069 25.8606 26.9851 25.86 26.9631C25.8594 26.9411 25.8631 26.9191 25.871 26.8986C25.8868 26.857 25.9185 26.8234 25.9589 26.8053C25.9993 26.7872 26.0453 26.786 26.0866 26.8019C26.128 26.8178 26.1613 26.8496 26.1794 26.8903C26.9364 28.575 27.1569 29.5245 26.8372 29.7129C26.4919 29.8914 26.1082 29.9815 25.72 29.9752Z" fill="#DF9378"/>
<path d="M26.0324 31.5934C26.2357 31.5701 26.4303 31.4978 26.5998 31.3826C26.7694 31.2675 26.9088 31.113 27.0062 30.9321C27.0723 30.836 27.1642 30.4777 27.2487 30.4222C26.8803 30.64 26.4632 30.7607 26.0361 30.7732C25.5119 30.7445 24.9945 30.64 24.5 30.4629C24.8271 31.2313 25.2901 31.6008 26.0324 31.5934Z" fill="white"/>
<path d="M24.7756 27.5516C24.7756 27.5516 23.9415 26.3804 22.6443 27.6218C22.7833 27.8522 22.9941 28.03 23.244 28.1275C23.4938 28.2251 23.7687 28.2369 24.026 28.1612C24.1937 28.1363 24.3518 28.0666 24.4836 27.9594C24.6155 27.8521 24.7163 27.7113 24.7756 27.5516Z" fill="white"/>
<path d="M23.9231 28.2573C24.2742 28.2573 24.5588 27.9712 24.5588 27.6182C24.5588 27.2652 24.2742 26.979 23.9231 26.979C23.572 26.979 23.2874 27.2652 23.2874 27.6182C23.2874 27.9712 23.572 28.2573 23.9231 28.2573Z" fill="#654745"/>
<path d="M23.9231 27.6366C24.0144 27.6366 24.0884 27.5621 24.0884 27.4703C24.0884 27.3785 24.0144 27.3041 23.9231 27.3041C23.8318 27.3041 23.7577 27.3785 23.7577 27.4703C23.7577 27.5621 23.8318 27.6366 23.9231 27.6366Z" fill="white"/>
<path d="M24.8712 27.3632C24.8712 27.3632 24.9741 28.2351 23.89 28.3163C23.5999 28.3534 23.3059 28.2902 23.0561 28.1372C22.8064 27.9841 22.6158 27.7503 22.5157 27.474L22.7545 27.5516C22.8389 27.7552 22.9864 27.926 23.1751 28.0386C23.3638 28.1511 23.5837 28.1993 23.8018 28.176C24.0204 28.1959 24.2387 28.1343 24.4149 28.0027C24.5911 27.8712 24.713 27.679 24.7573 27.4629L24.8712 27.3632Z" fill="#E59A72"/>
<path d="M22.5157 27.5221C22.5157 27.5221 23.1367 26.628 23.8827 26.713C24.0899 26.7289 24.2912 26.7905 24.4722 26.8932C24.6531 26.996 24.8094 27.1375 24.93 27.3078L24.8491 27.6144C24.7206 27.4531 24.5563 27.3242 24.3693 27.2382C24.1823 27.1523 23.9779 27.1116 23.7724 27.1194C23.3792 27.1406 23.007 27.3047 22.7251 27.5812C22.6443 27.6218 22.5157 27.5221 22.5157 27.5221Z" fill="#E59A72"/>
<path d="M26.6387 27.2856C26.6387 27.2856 27.1716 26.1255 28.4136 27.038C28.3445 27.2607 28.1992 27.4515 28.0034 27.5766C27.8077 27.7017 27.5741 27.7531 27.3443 27.7215C27.1987 27.7188 27.0565 27.6769 26.9324 27.6002C26.8083 27.5236 26.7069 27.4149 26.6387 27.2856Z" fill="white"/>
<path d="M28.089 27.237C28.096 26.933 27.8565 26.681 27.5542 26.674C27.2519 26.667 27.0012 26.9077 26.9942 27.2116C26.9872 27.5156 27.2267 27.7676 27.529 27.7746C27.8313 27.7816 28.082 27.5409 28.089 27.237Z" fill="#654745"/>
<path d="M27.8016 27.0989C27.8034 27.0214 27.7423 26.9571 27.6652 26.9553C27.5881 26.9535 27.5242 27.0149 27.5224 27.0924C27.5206 27.17 27.5817 27.2342 27.6588 27.236C27.7359 27.2378 27.7998 27.1764 27.8016 27.0989Z" fill="white"/>
<path d="M28.4026 27.0195L28.3475 27.0454C28.2977 27.2279 28.1908 27.3893 28.0425 27.5058C27.8942 27.6223 27.7125 27.6875 27.5243 27.6919C27.3435 27.7322 27.1543 27.7054 26.9915 27.6164C26.8288 27.5275 26.7035 27.3824 26.6387 27.208L26.5322 27.1341C26.5322 27.1341 26.5322 27.873 27.4729 27.836C27.6723 27.8355 27.8679 27.7806 28.0387 27.6771C28.2096 27.5737 28.3493 27.4256 28.443 27.2486L28.4026 27.0195Z" fill="#E59A72"/>
<path d="M28.3695 26.846C28.2294 26.7078 28.0603 26.6029 27.8746 26.539C27.689 26.4751 27.4914 26.4537 27.2965 26.4765C27.1218 26.5127 26.9572 26.5871 26.8144 26.6943C26.6715 26.8016 26.5538 26.9391 26.4697 27.0972L26.5726 27.3484C26.6647 27.197 26.7908 27.0694 26.9407 26.9757C27.0907 26.8821 27.2603 26.825 27.4361 26.809C27.7739 26.7831 28.1096 26.8816 28.3805 27.0861H28.4136L28.3695 26.846Z" fill="#E59A72"/>
<path d="M20.6379 22.2167C20.5715 22.1434 20.4902 22.0853 20.3996 22.0465C20.3089 22.0076 20.211 21.9888 20.1124 21.9913C19.6989 21.9662 19.2866 22.0564 18.9209 22.252C18.5552 22.4476 18.2503 22.7409 18.0399 23.0996C17.8418 23.4672 17.749 23.8828 17.7717 24.3002C17.7944 24.7176 17.9317 25.1205 18.1685 25.4641C18.3745 25.6803 18.5268 25.9424 18.6131 26.2289C18.6185 26.4652 18.5812 26.7006 18.5029 26.9235C18.4647 27.0355 18.4558 27.1555 18.4771 27.2719C18.4983 27.3884 18.549 27.4974 18.6241 27.5885C18.7242 27.6599 18.8426 27.7007 18.9652 27.706C19.0878 27.7112 19.2093 27.6807 19.315 27.618C19.523 27.4897 19.7377 27.3726 19.9581 27.2671C20.3888 27.1715 20.8389 27.2235 21.2369 27.4148C21.538 26.8435 21.7007 26.2087 21.7115 25.5622C21.7224 24.9157 21.5811 24.2757 21.2994 23.6945C21.0813 23.345 20.9003 22.9735 20.7592 22.5861C20.742 22.4564 20.7009 22.3311 20.6379 22.2167Z" fill="#702530"/>
<path d="M20.0499 23.7462C19.9108 23.7271 19.7769 23.68 19.6563 23.6076C19.5357 23.5352 19.4308 23.4391 19.3481 23.3251C19.8478 22.2426 20.3917 21.1083 21.4206 20.5209C21.9007 20.2619 22.4237 20.0929 22.964 20.0222C23.6665 19.97 24.3717 20.0799 25.0255 20.3436C26.6755 21.064 27.7081 22.5862 28.1895 21.7807C28.3364 21.5332 27.6603 21.4113 27.4986 21.6588C27.5695 21.5295 27.6672 21.417 27.7852 21.3291C27.9032 21.2412 28.0387 21.1799 28.1824 21.1494C28.3261 21.1189 28.4746 21.1199 28.6179 21.1524C28.7612 21.1848 28.8958 21.2479 29.0126 21.3374C29.2317 21.5367 29.3827 21.8003 29.444 22.0909C29.5054 22.3814 29.474 22.684 29.3543 22.9556C29.0939 23.501 28.6307 23.9217 28.0645 24.1268C27.7492 24.2747 27.3951 24.3174 27.054 24.2487C26.6639 24.0924 26.3144 23.8485 26.0324 23.5356C25.8889 23.3836 25.7112 23.2684 25.5143 23.1996C25.3174 23.1308 25.1069 23.1105 24.9006 23.1403C24.4192 23.2733 24.1987 23.8349 23.7982 24.1046C23.4708 24.2808 23.0972 24.3505 22.7288 24.3041C21.8175 24.222 20.9187 24.0348 20.0499 23.7462Z" fill="#702530"/>
<path d="M53.3761 52.9514L53.2548 53.0068C53.2961 52.9838 53.3319 52.9521 53.3598 52.9138C53.3877 52.8755 53.4071 52.8317 53.4165 52.7852C53.4385 52.5524 53.2475 52.5487 52.9388 52.6041C52.9892 52.582 53.0329 52.5467 53.0652 52.5018C53.0975 52.457 53.1173 52.4043 53.1225 52.3492C53.1225 51.8505 52.6779 52.0537 51.9393 52.2458C51.4062 52.3697 50.8512 52.3608 50.3224 52.2199C50.3224 52.2199 51.1382 51.9243 51.0573 51.4515C50.9765 50.9786 50.6494 50.7495 50.3959 50.8492C50.1423 50.949 50.3591 51.2852 50.2819 51.3997C50.2048 51.5143 49.6572 51.6029 49.3522 52.1941C49.3522 52.1941 43.5903 50.3135 41.6353 50.1805C40.9004 50.1288 40.5586 50.018 40.4153 49.8333C39.8127 50.4005 39.1718 50.9252 38.4971 51.4034C38.1039 51.7027 37.7915 52.0647 37.4277 52.3381C39.368 52.944 47.717 53.1177 48.9039 53.428C50.0909 53.7384 50.6421 54.3517 51.7482 54.3886C52.733 54.4218 52.9131 53.912 52.9204 53.7531C53.1223 53.7281 53.3145 53.6518 53.479 53.5315C53.9236 53.1177 53.3761 52.9514 53.3761 52.9514ZM51.5387 53.7827C51.8178 53.7989 52.0975 53.7989 52.3765 53.7827C52.0973 53.8361 51.8106 53.8361 51.5314 53.7827H51.5387ZM51.7555 53.3874C52.0636 53.3597 52.3693 53.3103 52.6705 53.2396C52.3771 53.3545 52.0626 53.4049 51.7482 53.3874H51.7555Z" fill="#FFC2A5"/>
<path d="M37.2661 51.034C37.1184 51.1298 37.0097 51.2757 36.9598 51.4452C36.9099 51.6146 36.9221 51.7964 36.9941 51.9576C37.1013 52.2059 37.2984 52.404 37.5453 52.5118C38.2252 52.7926 40.8269 50.5057 40.5439 49.9774C40.261 49.4491 40.0515 48.906 39.515 49.3382C39.0924 49.6855 37.9385 50.5759 37.2661 51.034Z" fill="#FFE341"/>
<path d="M28.7076 36.8064C28.7076 36.8064 35.278 37.0909 39.9853 48.4885C40.0402 48.6247 40.0562 48.7736 40.0315 48.9185C40.0069 49.0634 39.9425 49.1985 39.8457 49.3087C39.026 50.2203 38.0243 50.948 36.9059 51.4441C36.7542 51.5128 36.5846 51.5309 36.4219 51.4956C36.2592 51.4604 36.112 51.3737 36.0019 51.2483C34.973 50.0771 32.1288 46.7188 31.471 44.6573C30.6442 42.1302 28.7076 36.8064 28.7076 36.8064Z" fill="#FCEDF0"/>
<path d="M35.3956 45.1228C33.9124 42.3774 31.7999 40.0268 29.2331 38.2657C29.8651 40.028 30.9124 42.9652 31.4379 44.6573C32.0957 46.7188 34.94 50.0734 35.9689 51.2483C36.079 51.3737 36.2262 51.4604 36.3889 51.4956C36.5515 51.5309 36.7211 51.5128 36.8729 51.4441C37.225 51.2837 37.5674 51.1023 37.8981 50.901C35.9983 50.3616 36.193 46.6597 35.3956 45.1228Z" fill="#E7CED2"/>
<path d="M67.7516 69.7837C67.3369 69.7529 66.9206 69.7529 66.5059 69.7837C65.8077 69.8355 63.4742 68.1434 63.0112 67.6963C62.144 66.8651 60.3507 63.9058 60.2882 63.5622C60.2712 63.5213 60.2489 63.4828 60.2221 63.4476C60.1266 63.226 60.2221 63.1336 60.1339 62.3393C60.042 61.3824 59.5423 61.0758 59.3732 61.1903C59.2997 61.2383 59.3732 61.3787 59.4394 61.5154C59.1932 61.2753 58.8551 61.0868 58.7044 61.1792C58.6089 61.2383 58.7044 61.3824 58.8184 61.5487C58.7153 61.4686 58.5929 61.4175 58.4638 61.4007C58.3347 61.3838 58.2034 61.4017 58.0834 61.4526C57.9915 61.5339 58.1642 61.6927 58.3664 61.822C57.7784 61.6004 57.3191 61.9181 57.9621 62.2691C58.7706 62.7087 59.0315 63.2334 58.9249 63.2518C58.8183 63.2703 58.4876 62.9858 58.2267 63.1853C57.6571 63.6213 58.789 63.9242 59.7334 64.2457C59.9024 64.508 61.2216 68.2579 62.0007 69.067C62.8973 70.0017 66.0061 72.8095 66.0061 72.8095C66.0061 72.8095 68.2771 71.7529 67.7516 69.7837Z" fill="#FFC2A5"/>
<path d="M74.5867 66.4106C74.5867 66.4106 77.7322 65.4648 76.0565 62.4575C74.3809 59.4501 72.1981 58.6558 70.2799 59.7087C68.3617 60.7617 71.9004 66.9722 74.5867 66.4106Z" fill="#9E3724"/>
<path d="M73.1021 70.0608C73.3424 70.3888 73.6117 70.6942 73.9068 70.9734C74.1067 71.2064 74.2647 71.4727 74.3735 71.7603C74.4491 72.0145 74.5462 72.2617 74.6638 72.4992C74.7935 72.6953 74.9643 72.8605 75.1643 72.983C75.3643 73.1056 75.5886 73.1826 75.8214 73.2086C76.1431 73.2655 76.4744 73.2203 76.7695 73.0792C76.9155 73.0074 77.042 72.9009 77.138 72.7689C77.234 72.637 77.2967 72.4836 77.3207 72.3219C77.3399 72.1592 77.3049 71.9948 77.2211 71.8544C77.1373 71.7139 77.0094 71.6055 76.8576 71.546C76.9197 71.657 76.9456 71.7848 76.9318 71.9113C76.9179 72.0379 76.865 72.1569 76.7805 72.2517C76.7355 72.2955 76.6819 72.3292 76.623 72.3507C76.5642 72.3722 76.5015 72.381 76.4391 72.3765C76.3766 72.3719 76.3158 72.3542 76.2607 72.3244C76.2055 72.2946 76.1573 72.2535 76.119 72.2036C76.0772 72.1259 76.0553 72.0389 76.0553 71.9506C76.0553 71.8622 76.0772 71.7752 76.119 71.6975C76.2052 71.5441 76.3075 71.4005 76.424 71.2689C76.7525 70.8178 76.9607 70.2898 77.0289 69.7349C77.0971 69.1801 77.023 68.6169 76.8135 68.099C76.5956 67.585 76.2785 67.1195 75.8805 66.7295C75.4825 66.3395 75.0115 66.0327 74.4948 65.8269C74.1326 66.2745 73.8115 66.7543 73.5357 67.2604C73.2729 67.6788 73.0712 68.1329 72.9367 68.6089C72.8038 69.0962 72.863 69.6163 73.1021 70.0608Z" fill="#9E3724"/>
<path d="M70.4673 68.099L70.3276 68.1544C69.9107 68.2933 69.4654 68.3225 69.0341 68.2394C68.947 68.6708 68.7312 69.0653 68.4154 69.3703C68.0996 69.6752 67.6989 69.8762 67.2666 69.9463C67.2666 69.9463 67.4724 72.6913 69.3354 72.2332C71.1985 71.775 71.4631 70.445 71.4631 70.445C71.4631 70.445 70.1843 69.5066 70.4673 68.099Z" fill="#F6A26C"/>
<path d="M71.1691 60.0449C71.1691 60.0449 67.9758 58.5117 66.0466 61.9845C66.0306 62.3354 65.9663 62.6823 65.8555 63.0153C65.6828 63.4771 64.7824 64.7887 65.0103 65.4463C65.2381 66.1039 66.4802 68.3022 67.3143 68.5128C68.1485 68.7233 70.7282 68.8009 71.3051 68.5128C71.9897 68.2521 72.5792 67.7882 72.9955 67.1827C73.4548 66.429 76.6592 61.1237 71.1691 60.0449Z" fill="#FFC2A5"/>
<path d="M72.764 66.551C72.764 66.551 73.8664 64.8146 74.7006 65.8934C75.5347 66.9722 73.7231 68.6532 72.4957 67.4377L72.764 66.551Z" fill="#FFC2A5"/>
<path d="M74.2633 66.1261C74.2633 66.1261 73.5283 65.945 73.3115 66.562C73.1792 66.9536 73.3519 67.4192 73.6459 67.2603C73.9399 67.1014 73.6459 66.7837 73.7341 66.5879C73.8223 66.3921 73.9399 66.2517 74.2633 66.1261Z" fill="#DC8A64"/>
<path d="M71.1691 59.2358C71.1691 59.2358 69.4714 57.2962 66.6198 59.2358C63.7682 61.1755 65.9326 62.7567 65.9326 62.7567C65.9326 62.7567 66.3699 61.3565 66.8146 60.9095C67.2592 60.4624 68.369 60.1706 69.0598 60.1004C68.8891 60.2661 68.788 60.4913 68.777 60.7296C68.7661 60.968 68.8462 61.2015 69.001 61.3824C69.5376 62.1213 70.199 61.604 70.4195 61.4415C70.4195 61.4415 69.4935 61.2309 69.6552 60.7654C69.812 60.4466 70.0821 60.1988 70.4121 60.0708C70.4121 60.0708 69.8315 62.3282 73.3997 62.8491C73.3914 63.5795 73.214 64.298 72.8816 64.9476C72.3671 65.7862 71.8049 66.6397 72.4957 66.9574C72.5846 66.6367 72.7514 66.3432 72.981 66.1033C73.2106 65.8634 73.4959 65.6846 73.8113 65.583C74.8402 65.3244 77.0267 60.4772 71.1691 59.2358Z" fill="#9E3724"/>
<path d="M66.9726 62.1545C66.978 62.1852 66.9896 62.2145 67.0067 62.2406C67.0238 62.2666 67.0459 62.2889 67.0718 62.306C67.167 62.3682 67.2752 62.4074 67.3879 62.4205C67.8925 62.5166 68.4009 62.5954 68.9129 62.657C68.9514 62.6672 68.9919 62.6672 69.0305 62.657C69.0579 62.6398 69.0815 62.6172 69.0998 62.5905C69.1181 62.5638 69.1308 62.5336 69.137 62.5018C69.1958 62.3282 69.2473 62.1102 69.137 61.9809C69.0724 61.9247 68.9935 61.8876 68.9092 61.8737C68.3768 61.7433 67.821 61.7433 67.2887 61.8737C67.2164 61.8886 67.1478 61.9174 67.0866 61.9587C67.0515 61.9777 67.0224 62.006 67.0023 62.0405C66.9822 62.0751 66.9719 62.1145 66.9726 62.1545Z" fill="#9E3724"/>
<path d="M70.6253 63.1888C71.0206 63.4007 71.4369 63.5704 71.8674 63.695C72.007 63.7467 72.1871 63.7837 72.2826 63.6691C72.3782 63.5546 72.3378 63.6026 72.3047 63.5177C72.267 63.4351 72.2133 63.361 72.1467 63.2997C71.8844 63.0323 71.595 62.7933 71.2831 62.5866C71.1155 62.4557 70.9139 62.3761 70.7025 62.3576C70.5968 62.353 70.4933 62.3884 70.4124 62.4568C70.3314 62.5252 70.2789 62.6216 70.2652 62.727C70.2652 62.9302 70.4526 63.0817 70.6253 63.1888Z" fill="#9E3724"/>
<path d="M68.4939 64.0202C68.4605 64.02 68.4278 64.0105 68.3993 63.993C68.3708 63.9754 68.3476 63.9503 68.3323 63.9205C68.2687 63.776 68.1752 63.6469 68.0579 63.5418C67.9407 63.4366 67.8024 63.3579 67.6524 63.3109C67.3343 63.2627 67.0098 63.338 66.7448 63.5215C66.7048 63.5499 66.6553 63.5612 66.607 63.5529C66.5588 63.5445 66.5158 63.5173 66.4876 63.4771C66.4593 63.437 66.4481 63.3871 66.4563 63.3386C66.4646 63.2901 66.4917 63.2469 66.5316 63.2185C66.8828 62.9733 67.3156 62.8765 67.737 62.9488C67.9393 63.005 68.1268 63.1053 68.2862 63.2426C68.4456 63.3799 68.573 63.5508 68.6593 63.7431C68.6746 63.7713 68.6824 63.803 68.6818 63.8351C68.6813 63.8672 68.6724 63.8986 68.6561 63.9262C68.6397 63.9538 68.6165 63.9767 68.5888 63.9925C68.561 64.0083 68.5296 64.0166 68.4976 64.0165L68.4939 64.0202Z" fill="#9E3724"/>
<path d="M71.702 65.3096C71.6686 65.3093 71.6358 65.2999 71.6074 65.2823C71.5789 65.2647 71.5557 65.2397 71.5403 65.2098C71.239 64.6261 70.8972 64.2973 70.5628 64.2493C70.4483 64.2421 70.3336 64.2592 70.226 64.2992C70.1184 64.3393 70.0204 64.4016 69.9381 64.482C69.9217 64.5 69.9019 64.5145 69.88 64.5248C69.858 64.535 69.8342 64.5408 69.8099 64.5419C69.7857 64.5429 69.7615 64.5391 69.7388 64.5308C69.716 64.5224 69.6951 64.5096 69.6772 64.4931C69.6594 64.4766 69.6449 64.4567 69.6347 64.4346C69.6245 64.4125 69.6187 64.3886 69.6177 64.3642C69.6166 64.3399 69.6204 64.3156 69.6287 64.2927C69.637 64.2698 69.6498 64.2487 69.6662 64.2308C69.7867 64.106 69.9333 64.0098 70.0953 63.9491C70.2574 63.8883 70.4309 63.8647 70.6032 63.8798C71.0699 63.9426 71.4962 64.3305 71.8637 65.0362C71.8781 65.0642 71.8852 65.0955 71.8842 65.1271C71.8832 65.1587 71.8741 65.1895 71.8579 65.2165C71.8417 65.2436 71.8188 65.266 71.7915 65.2816C71.7642 65.2973 71.7334 65.3056 71.702 65.3059V65.3096Z" fill="#9E3724"/>
<path d="M68.2073 65.6531C68.0399 65.6136 67.8807 65.5448 67.737 65.4499C67.6641 65.4042 67.6081 65.3357 67.5776 65.255C67.547 65.1743 67.5437 65.0857 67.5679 65.0029C67.6077 64.9177 67.6742 64.8481 67.7572 64.8047C67.8402 64.7613 67.9351 64.7465 68.0273 64.7627C68.1249 64.7599 68.221 64.7376 68.31 64.697C68.399 64.6564 68.479 64.5983 68.5454 64.5263C68.568 64.5063 68.5971 64.4951 68.6273 64.495C68.6575 64.4949 68.6867 64.5057 68.7095 64.5255C68.7324 64.5453 68.7473 64.5728 68.7516 64.6028C68.7559 64.6328 68.7492 64.6634 68.7328 64.6888C68.6408 64.793 68.5275 64.876 68.4007 64.9321C68.2738 64.9882 68.1364 65.0161 67.9979 65.014C67.8656 65.014 67.7994 65.0509 67.7847 65.0915C67.77 65.1322 67.7847 65.2024 67.8692 65.2541C67.982 65.3274 68.1062 65.3811 68.2367 65.413C68.2655 65.423 68.2896 65.4432 68.3046 65.4699C68.3195 65.4965 68.3243 65.5278 68.318 65.5577C68.3117 65.5876 68.2947 65.6142 68.2702 65.6325C68.2458 65.6507 68.2156 65.6594 68.1853 65.6568L68.2073 65.6531Z" fill="#DF9378"/>
<path d="M67.1563 65.2837C67.1563 65.2837 67.5679 66.0411 68.1522 66.1039C68.6538 66.1379 69.1572 66.1379 69.6588 66.1039C69.6588 66.1039 68.9716 67.0792 68.0346 66.961C67.0975 66.8428 67.2849 66.1815 67.1563 65.2837Z" fill="white"/>
<path d="M67.3962 65.3103C67.5662 65.0363 67.3795 64.6108 66.9793 64.3599C66.579 64.109 66.1168 64.1277 65.9469 64.4018C65.7769 64.6758 65.9636 65.1013 66.3638 65.3522C66.764 65.6031 67.2263 65.5844 67.3962 65.3103Z" fill="#FFB299"/>
<path d="M72.0192 66.1481C72.0569 65.8074 71.6934 65.4871 71.2073 65.4327C70.7212 65.3783 70.2966 65.6104 70.2589 65.9511C70.2212 66.2918 70.5847 66.6121 71.0708 66.6665C71.5569 66.7209 71.9815 66.4888 72.0192 66.1481Z" fill="#FFB299"/>
<path d="M68.7696 85.8105C68.2557 85.7483 67.7533 85.6127 67.2776 85.4078C67.0804 85.3453 66.8867 85.2725 66.697 85.1898C66.087 86.2206 64.5877 88.9989 67.9023 93.6614H68.5748C68.5748 93.6614 67.1637 88.2489 68.7696 85.8105Z" fill="#FFC2A5"/>
<path d="M65.7306 93.8904C65.6667 93.8833 65.6058 93.8594 65.5539 93.8213C65.5021 93.7831 65.4611 93.7319 65.4351 93.6728C65.4091 93.6138 65.3989 93.5489 65.4056 93.4846C65.4123 93.4204 65.4357 93.359 65.4733 93.3067C65.951 92.7673 66.7742 92.0801 67.7149 92.3904C67.9884 92.4575 68.2455 92.5799 68.4704 92.7501C68.6953 92.9203 68.8834 93.1348 69.0231 93.3805C69.0439 93.4339 69.052 93.4914 69.0469 93.5484C69.0417 93.6054 69.0235 93.6605 68.9935 93.7092C68.9636 93.758 68.9228 93.799 68.8744 93.8292C68.8259 93.8593 68.7712 93.8778 68.7144 93.883C68.1118 93.8904 66.9506 93.8904 65.7306 93.8904Z" fill="#E7CED2"/>
<path d="M70.0447 85.8105C70.5585 85.7483 71.0609 85.6127 71.5366 85.4078C71.7338 85.3453 71.9276 85.2726 72.1172 85.1898C72.7272 86.2206 74.2265 88.9989 70.9119 93.6614H70.2394C70.2394 93.6614 71.6542 88.2489 70.0447 85.8105Z" fill="#FFC2A5"/>
<path d="M73.0837 93.8904C73.1476 93.8833 73.2085 93.8594 73.2603 93.8213C73.3122 93.7831 73.3531 93.7319 73.3792 93.6728C73.4052 93.6138 73.4154 93.5489 73.4087 93.4846C73.4019 93.4204 73.3786 93.359 73.3409 93.3067C72.8632 92.7673 72.0401 92.0801 71.0993 92.3904C70.8258 92.4575 70.5688 92.5799 70.3439 92.7501C70.1189 92.9203 69.9309 93.1348 69.7911 93.3805C69.7704 93.4339 69.7623 93.4914 69.7674 93.5484C69.7725 93.6054 69.7908 93.6605 69.8207 93.7092C69.8507 93.758 69.8915 93.799 69.9399 93.8292C69.9883 93.8593 70.0431 93.8778 70.0998 93.883C70.7061 93.8904 71.8637 93.8904 73.0837 93.8904Z" fill="#E7CED2"/>
<path d="M77.0965 80.664C77.0965 80.664 74.8292 73.7072 74.12 72.004C73.4107 70.3009 71.2537 72.7836 72.4259 74.6863C73.5982 76.5889 76.3542 79.829 76.2917 80.8598C76.2293 81.8906 76.0014 83.1393 76.6592 82.7773C76.9458 82.6184 76.8135 82.2009 76.876 82.1085C76.9385 82.0162 77.3096 82.478 77.3868 83.3869C77.464 84.2957 78.1916 83.6048 77.8829 82.648C77.8829 82.648 77.9601 83.7083 78.1916 83.5974C78.4231 83.4866 78.559 82.8327 78.1916 82.3044C78.1916 82.3044 78.4598 83.276 78.6766 83.1209C78.8934 82.9657 78.7024 82.164 78.4378 81.9164C78.4378 81.9164 78.7648 82.6073 78.9339 82.5002C79.1029 82.393 79.0257 81.8093 78.1989 81.3401C77.3721 80.8709 77.3501 81.0445 77.0965 80.664Z" fill="#FFC2A5"/>
<path d="M67.8325 69.7504C67.3456 69.6583 66.8449 69.6697 66.3626 69.7836C66.4137 70.7059 66.1815 71.6216 65.6975 72.4068C65.2833 73.002 65.0013 73.6799 64.8706 74.3944C64.6583 75.5891 64.5354 76.7981 64.5032 78.0113C64.5215 79.7995 64.5032 82.8142 63.3236 84.4324C63.3236 84.4324 66.109 85.1713 68.5821 86.1504C71.0552 87.1294 75.0864 85.6775 76.5526 84.1627C76.5526 84.1627 73.5834 80.3906 73.4364 77.8008C73.396 77.0988 73.363 76.068 73.1608 75.7762C72.8147 75.3137 72.5074 74.8231 72.2422 74.3094C72.2422 74.3094 72.2422 71.8637 73.9325 71.6715C73.056 71.1054 72.1356 70.6112 71.1802 70.1937C71.1802 70.1937 70.4452 71.3501 69.2803 71.1321C68.9354 71.0592 68.6174 70.8914 68.3618 70.6474C68.1061 70.4034 67.9229 70.0929 67.8325 69.7504Z" fill="#FFE341"/>
<path d="M64.9956 84.9239C64.9423 84.714 64.9286 84.496 64.9552 84.281C65.0764 83.4054 65.613 82.7257 65.7563 81.8833C65.9694 80.6124 65.7563 79.3747 65.5358 78.126C65.2345 76.4228 65.9657 75.3255 66.2487 73.6925C66.4315 72.3871 66.4906 71.0672 66.4251 69.7505H66.3589C66.41 70.6727 66.1778 71.5885 65.6938 72.3736C65.2796 72.9689 64.9976 73.6468 64.867 74.3613C64.6548 75.5547 64.532 76.7625 64.4995 77.9745C64.5179 79.7626 64.4995 82.7774 63.3199 84.3956C63.3163 84.4325 64.0034 84.6172 64.9956 84.9239Z" fill="#FFCA40"/>
<path d="M65.5909 72.5656C67.7664 73.5188 68.0861 74.1616 72.2642 74.1321C72.301 73.5557 72.5325 71.8452 73.9473 71.6826C73.0708 71.1165 72.1503 70.6223 71.1949 70.2048C71.1949 70.2048 70.4599 71.3612 69.295 71.1432C68.9506 71.0705 68.6329 70.9033 68.3773 70.66C68.1217 70.4167 67.9382 70.107 67.8472 69.7652C67.3603 69.6731 66.8596 69.6844 66.3773 69.7984C66.4285 70.7831 66.1518 71.7568 65.5909 72.5656Z" fill="#FFF2AD"/>
<path d="M66.2928 72.8982C66.32 72.498 66.4118 72.1049 66.5647 71.7344C66.7632 71.2098 67.3438 70.3083 67.0939 69.6839C66.8452 69.6784 66.5972 69.7121 66.3589 69.7837C66.4156 70.7725 66.1414 71.7519 65.5799 72.5657C65.8371 72.6802 66.0723 72.791 66.2928 72.8982Z" fill="#F7DF95"/>
<path d="M66.675 75.6801C66.9205 75.6801 67.1196 75.4518 67.1196 75.1702C67.1196 74.8887 66.9205 74.6604 66.675 74.6604C66.4294 74.6604 66.2303 74.8887 66.2303 75.1702C66.2303 75.4518 66.4294 75.6801 66.675 75.6801Z" fill="#FFF2AD"/>
<path d="M69.0194 76.8033C69.265 76.8033 69.4641 76.575 69.4641 76.2934C69.4641 76.0118 69.265 75.7836 69.0194 75.7836C68.7739 75.7836 68.5748 76.0118 68.5748 76.2934C68.5748 76.575 68.7739 76.8033 69.0194 76.8033Z" fill="#FFF2AD"/>
<path d="M71.4631 76.0569C71.7087 76.0569 71.9077 75.8287 71.9077 75.5471C71.9077 75.2655 71.7087 75.0372 71.4631 75.0372C71.2175 75.0372 71.0185 75.2655 71.0185 75.5471C71.0185 75.8287 71.2175 76.0569 71.4631 76.0569Z" fill="#FFF2AD"/>
<path d="M70.7245 79.1714C70.9701 79.1714 71.1691 78.9432 71.1691 78.6616C71.1691 78.38 70.9701 78.1517 70.7245 78.1517C70.4789 78.1517 70.2798 78.38 70.2798 78.6616C70.2798 78.9432 70.4789 79.1714 70.7245 79.1714Z" fill="#FFF2AD"/>
<path d="M67.2666 79.2675C67.5122 79.2675 67.7112 79.0392 67.7112 78.7576C67.7112 78.4761 67.5122 78.2478 67.2666 78.2478C67.021 78.2478 66.822 78.4761 66.822 78.7576C66.822 79.0392 67.021 79.2675 67.2666 79.2675Z" fill="#FFF2AD"/>
<path d="M68.5748 82.3636C68.8203 82.3636 69.0194 82.1353 69.0194 81.8537C69.0194 81.5721 68.8203 81.3439 68.5748 81.3439C68.3292 81.3439 68.1301 81.5721 68.1301 81.8537C68.1301 82.1353 68.3292 82.3636 68.5748 82.3636Z" fill="#FFF2AD"/>
<path d="M71.0185 83.1947C71.2641 83.1947 71.4631 82.9665 71.4631 82.6849C71.4631 82.4033 71.2641 82.175 71.0185 82.175C70.7729 82.175 70.5739 82.4033 70.5739 82.6849C70.5739 82.9665 70.7729 83.1947 71.0185 83.1947Z" fill="#FFF2AD"/>
<path d="M69.5413 85.5445C69.7868 85.5445 69.9859 85.3162 69.9859 85.0346C69.9859 84.753 69.7868 84.5248 69.5413 84.5248C69.2957 84.5248 69.0966 84.753 69.0966 85.0346C69.0966 85.3162 69.2957 85.5445 69.5413 85.5445Z" fill="#FFF2AD"/>
<path d="M73.6937 84.3216C73.9393 84.3216 74.1383 84.0933 74.1383 83.8117C74.1383 83.5301 73.9393 83.3019 73.6937 83.3019C73.4481 83.3019 73.2491 83.5301 73.2491 83.8117C73.2491 84.0933 73.4481 84.3216 73.6937 84.3216Z" fill="#FFF2AD"/>
<path d="M65.9106 83.7046C66.1562 83.7046 66.3552 83.4764 66.3552 83.1948C66.3552 82.9132 66.1562 82.6849 65.9106 82.6849C65.665 82.6849 65.4659 82.9132 65.4659 83.1948C65.4659 83.4764 65.665 83.7046 65.9106 83.7046Z" fill="#FFF2AD"/>
<path d="M72.9036 81.3439C73.1492 81.3439 73.3483 81.1156 73.3483 80.8341C73.3483 80.5525 73.1492 80.3242 72.9036 80.3242C72.6581 80.3242 72.459 80.5525 72.459 80.8341C72.459 81.1156 72.6581 81.3439 72.9036 81.3439Z" fill="#FFF2AD"/>
<path d="M57.3228 60.3145C57.5374 60.4902 57.6917 60.7293 57.7637 60.998C57.8556 61.4155 57.7196 62.1064 57.9438 62.3982C58.1679 62.6901 58.7375 63.4216 58.9801 63.8059C59.2226 64.1901 59.4909 63.4807 59.0131 62.9894C58.5354 62.498 58.5538 62.051 58.6457 62.062C58.9544 62.2462 59.2171 62.4989 59.4137 62.8009C59.4945 63.0337 59.6856 64.1347 59.8363 64.2788C59.9869 64.4228 60.2038 64.4302 60.0825 63.78C60.0466 63.4524 59.9827 63.1286 59.8914 62.812C59.7819 62.5711 59.6423 62.3452 59.4762 62.1396C59.6894 62.3668 59.86 62.6309 59.9796 62.9192C60.0531 63.2258 60.1523 64.2344 60.2148 64.2603C60.2772 64.2861 60.8027 64.5521 60.2552 62.6569C60.1631 62.4026 60.0149 62.1727 59.8216 61.9845C60.0345 62.2041 60.2018 62.464 60.314 62.7492C60.4977 63.2923 60.5014 63.9721 60.5676 64.0091C60.6337 64.046 60.8579 63.9906 60.8101 63.5177C60.7656 63.2001 60.6803 62.8896 60.5565 62.5941C60.4603 62.3471 60.337 62.1117 60.1891 61.8921C60.3581 62.1237 60.5046 62.3711 60.6263 62.631C60.7109 62.8748 60.8027 63.3699 60.8909 63.3699C60.9791 63.3699 61.0453 63.1593 60.9571 62.7529C60.9088 62.5356 60.8322 62.3257 60.7292 62.1285C60.3434 61.3896 60.2956 61.5559 60.1854 61.3268C60.0751 61.0978 59.4798 60.9574 59.1601 60.8318C58.8404 60.7061 58.3149 60.0929 58.0761 59.6902C57.8372 59.2875 56.812 60.0929 57.3228 60.3145Z" fill="#FFC2A5"/>
<path d="M42.5319 26.9383C41.3781 27.2856 40.5292 28.2573 39.8273 29.24C38.3868 31.2535 37.2771 33.5626 37.0272 36.0305C36.9011 36.8059 37.01 37.6014 37.3395 38.3138C37.9201 39.3778 39.2908 39.98 39.5076 41.1733C39.5629 41.5197 39.5115 41.8749 39.3605 42.1911C39.2094 42.5074 38.9659 42.7697 38.6624 42.943C38.5018 43.0377 38.3222 43.0955 38.1366 43.1121C37.9511 43.1287 37.7642 43.1038 37.5894 43.0391C37.4169 42.9691 37.272 42.844 37.177 42.6831C37.0821 42.5223 37.0424 42.3345 37.0639 42.1487C36.7266 42.4941 36.5149 42.9437 36.4629 43.425C36.4108 43.9063 36.5216 44.3911 36.7773 44.8013C37.23 45.3971 37.8698 45.8215 38.5926 46.0058C41.1172 46.8222 43.8953 46.305 46.3537 45.3149C47.5149 44.8494 48.7312 44.1733 49.1648 42.9947C49.5102 42.0563 49.2787 40.9886 49.5543 40.0391C49.8068 39.3643 50.1466 38.7258 50.5649 38.1401C51.6316 36.4062 52.0583 34.3505 51.7702 32.3323C51.6166 31.3314 51.2473 30.3763 50.6881 29.5339C50.1289 28.6915 49.3933 27.9822 48.5328 27.4556C46.4859 26.2659 43.8916 26.3472 41.6684 27.1674L42.5319 26.9383Z" fill="#9E3724"/>
<path d="M47.7758 41.188C47.6435 39.64 48.033 38.1844 48.5107 36.7214C49.3559 34.1352 49.5397 31.4825 46.361 30.8101C43.91 30.267 42.4401 31.9517 41.8227 34.1056C41.3156 35.8276 41.1165 37.6264 41.2348 39.4184C41.3377 40.6191 41.6022 42.2373 41.2017 43.4195C40.8117 44.5692 40.0028 45.5277 38.938 46.1018C41.3707 46.7705 44.0092 46.2606 46.361 45.3148C47.2857 45.0003 48.1136 44.4504 48.7643 43.7188C48.3527 42.906 47.8603 42.1671 47.7758 41.188Z" fill="#5F1500"/>
<path d="M50.0835 72.4622C50.0835 72.4622 48.0588 84.51 48.5842 90.4397C49.1429 91.4228 49.8192 92.3335 50.598 93.1515C50.598 93.1515 48.9186 93.5616 48.6247 93.1515C48.3307 92.7414 47.3642 90.9606 47.3642 90.9606C47.5157 90.691 47.6389 90.4062 47.7317 90.1109C47.7317 89.9631 46.3757 82.2822 45.6812 79.1751C45.5011 78.3734 46.0487 76.7109 46.2802 75.9239C46.3426 75.717 46.4198 75.4954 46.5154 75.2589C46.9346 74.1339 47.1379 72.9392 47.1143 71.738L50.0835 72.4622Z" fill="#FFC2A5"/>
<path d="M47.118 72.7466C47.118 72.7466 41.0106 89.8818 40.5035 92.128C40.5035 92.128 39.7686 95.2758 38.7764 94.6884C37.5821 93.9716 39.9964 91.5148 39.9964 91.5148C39.9964 91.5148 40.9702 78.1221 41.4112 77.265C41.9293 76.2084 44.1342 73.6517 44.0974 72.9313C44.0607 72.2109 47.118 72.7466 47.118 72.7466Z" fill="#FFC2A5"/>
<path d="M39.4158 92.2538C39.4158 92.2538 38.4273 92.9927 38.3134 93.4102C38.1994 93.8276 37.9165 95.601 38.2215 95.6786C38.5265 95.7562 39.6142 94.9397 39.7539 94.6072C40.0618 93.9653 40.2475 93.271 40.3014 92.5604C40.3014 92.5604 39.6987 94.4927 39.1732 94.4077C37.9385 94.2045 39.041 92.5383 39.4158 92.2538Z" fill="#654745"/>
<path d="M47.3752 90.9348C47.7753 91.3773 48.201 91.7955 48.6504 92.1873C48.9496 92.375 49.2832 92.5006 49.6315 92.5567C49.7646 92.5714 49.899 92.5714 50.0321 92.5567C50.4574 92.937 50.9415 93.2452 51.4652 93.4693C52.1083 93.7094 51.8106 93.968 51.8106 93.968L48.169 93.5247C48.169 93.5247 47.8787 92.3868 47.6398 92.3018L47.3752 93.4397H47.2282C47.2366 93.0274 47.2157 92.615 47.1658 92.2057C47.0519 92.0015 47.0106 91.7643 47.0487 91.5333C47.0868 91.3023 47.2019 91.0912 47.3752 90.9348Z" fill="#654745"/>
<path d="M46.5742 38.3138C46.3809 38.4403 46.1669 38.5316 45.9421 38.5835C45.7019 38.6362 45.4536 38.6392 45.2122 38.5922C44.9708 38.5452 44.7416 38.4492 44.5384 38.3101C44.5567 39.2706 44.4134 41.1881 42.9068 41.0366C42.9068 41.0366 43.91 43.7816 45.876 43.5046C47.8419 43.2275 48.1763 41.0366 48.1763 41.0366C48.1763 41.0366 46.4823 40.8888 46.5742 38.3138Z" fill="#F6A26C"/>
<path d="M45.1667 29.2362C45.1667 29.2362 41.7272 29.4542 41.6868 30.8175C41.6463 32.1807 41.9624 32.9529 41.8448 33.7731C41.7272 34.5933 40.6799 37.1388 45.6187 39.0636C45.7811 39.1186 45.9532 39.1381 46.1237 39.1209C46.2941 39.1037 46.459 39.0502 46.6072 38.9639C47.4304 38.5279 49.0766 37.2866 49.3963 36.0083C49.8851 34.0428 49.0289 33.3408 49.3339 31.1463C49.6389 28.9517 46.4419 28.767 45.1667 29.2362Z" fill="#FFC2A5"/>
<path d="M51.3182 67.5336C51.6379 65.4942 52.7183 59.6532 49.8741 55.0905C49.1796 53.9821 48.4262 52.822 48.5071 51.5068C48.6874 49.8286 49.0383 48.1734 49.5544 46.5672C50.0799 44.8677 50.3555 41.8641 50.3555 41.8641C50.3555 41.8641 48.3601 41.0919 47.5994 40.8259C47.5994 40.8259 46.7395 43.0426 45.9531 43.1461C44.9316 43.2643 43.7703 40.8259 43.7703 40.8259C43.7703 40.8259 41.4185 41.2323 40.7901 41.6055C40.7901 41.6055 41.9367 46.6448 42.4327 48.6251C42.6617 49.6582 42.7064 50.7239 42.565 51.7728C42.4498 52.7011 42.1391 53.5941 41.6537 54.3922C40.7828 55.8442 39.2467 58.9069 39.7612 61.7147C40.4704 65.5681 41.2752 70.1309 39.662 73.0939C39.662 73.0939 46.1846 76.7699 52.259 73.0939C52.259 73.105 50.9618 69.7873 51.3182 67.5336Z" fill="#585C5A"/>
<path d="M48.5402 52.1608C48.5072 51.9458 48.4961 51.7279 48.5071 51.5106C48.6874 49.8324 49.0383 48.1772 49.5544 46.571C49.8042 45.6815 49.9909 44.7753 50.1129 43.8593C49.6969 44.4881 49.3727 45.1736 49.1502 45.8949C48.9958 46.4528 48.9076 47.2693 48.4152 47.6683C48.2606 47.8177 48.0771 47.9336 47.8761 48.0086C47.675 48.0836 47.4608 48.1161 47.2466 48.1043C46.6644 48.0498 46.1264 47.7687 45.7474 47.321C45.531 47.5583 45.2683 47.7482 44.9757 47.8789C44.2628 48.1929 43.2963 48.3961 42.701 47.6979C41.8999 46.7595 41.786 45.4922 41.2972 44.3839C41.7051 45.8986 42.1829 47.6424 42.4401 48.6252C42.6666 49.6587 42.7089 50.7245 42.565 51.7729C42.4498 52.7012 42.1391 53.5942 41.6537 54.3923C40.7828 55.8443 39.2467 58.907 39.7612 61.7149C40.4704 65.5683 41.2752 70.131 39.662 73.094C40.2401 73.398 40.8409 73.6561 41.4589 73.8662C43.7263 70.6298 42.1939 66.503 41.8264 62.8713C41.6537 61.1459 41.3818 59.2026 41.7676 57.4883C42.1535 55.7741 42.9068 54.1928 43.3918 52.5118C43.3918 52.3862 43.3918 52.2569 43.4212 52.1424C43.6381 50.5094 43.8255 49.2274 45.4424 48.6474C45.8613 48.5254 46.813 48.5772 47.2503 49.0574C47.6189 49.4436 47.8512 49.9407 47.9118 50.4724C48.0808 50.8419 48.3123 51.5328 48.5144 52.1645L48.5402 52.1608Z" fill="#7B7B7B"/>
<path d="M48.5034 51.8356C47.5754 52.2682 46.5645 52.4914 45.5416 52.4896C44.4858 52.4968 43.4523 52.184 42.5761 51.5918C42.5761 51.6546 42.5761 51.7211 42.5761 51.7802C42.5358 52.0937 42.4719 52.4037 42.385 52.7075C43.2892 53.3606 44.3768 53.7074 45.4901 53.6977C46.6166 53.7023 47.7278 53.4363 48.7312 52.9218C48.6025 52.573 48.5258 52.207 48.5034 51.8356Z" fill="#89DAA4"/>
<path d="M43.447 52.0611C43.1438 51.9341 42.8534 51.7782 42.5797 51.5956C42.5797 51.6584 42.5797 51.7249 42.5797 51.784C42.5394 52.0975 42.4755 52.4075 42.3886 52.7113C42.6531 52.8993 42.9349 53.0614 43.2302 53.1953C43.185 52.8038 43.2607 52.4079 43.447 52.0611Z" fill="#338D4B"/>
<path d="M50.3555 41.8679C50.3555 41.8679 51.524 42.4184 52.8616 51.7397C52.8616 51.7397 57.1758 58.2383 58.5905 59.8898L57.2346 61.242C57.2346 61.242 51.1896 55.6115 50.892 54.7027C50.5943 53.7938 50.3408 53.0808 50.157 52.449C49.9733 51.8173 49.1648 47.9676 49.1648 47.9676C49.1648 47.9676 48.7827 43.2127 50.3555 41.8679Z" fill="#585C5A"/>
<path d="M51.0977 54.1115C50.8589 53.5721 50.8773 52.9625 50.6641 52.4194C50.2562 51.3776 50.0798 47.7791 49.8226 46.7373C49.5399 45.7022 49.4233 44.6283 49.4772 43.5563C48.7202 45.4848 49.1097 47.8936 49.1097 47.8936C49.1097 47.8936 49.9659 51.9096 50.1423 52.5413C50.3187 53.1731 50.5539 53.8862 50.8773 54.795C51.2006 55.7039 57.2346 61.3343 57.2346 61.3343L57.4771 61.0905C57.0288 60.854 51.7482 55.5856 51.0977 54.1115Z" fill="#7B7B7B"/>
<path d="M27.6236 47.8235C27.3543 47.7609 27.1113 47.6149 26.929 47.406C26.6645 47.0735 26.477 46.3826 26.1537 46.2311C25.8303 46.0797 24.9925 45.6659 24.6066 45.4257C24.2208 45.1856 24.2906 45.9466 24.9337 46.1646C25.5767 46.3826 25.7568 46.8038 25.6686 46.8259C25.3127 46.801 24.9671 46.6949 24.6581 46.5156C24.4853 46.342 23.8312 45.4405 23.6291 45.3703C23.427 45.3001 23.2359 45.3962 23.6291 45.9245C23.806 46.2024 24.0064 46.4645 24.2281 46.7077C24.4323 46.8761 24.6571 47.0176 24.8969 47.1289C24.6059 47.0195 24.337 46.8581 24.1032 46.6523C23.9047 46.4085 23.3682 45.5439 23.3058 45.5439C23.2433 45.5439 22.6517 45.5439 23.9746 46.9996C24.1693 47.1883 24.4044 47.3298 24.6617 47.4134C24.377 47.3178 24.1136 47.1672 23.8864 46.97C23.4821 46.5636 23.1808 45.954 23.1036 45.9503C23.0265 45.9466 22.8501 46.0944 23.1036 46.4971C23.2838 46.7627 23.4975 47.0036 23.7394 47.2139C23.9395 47.392 24.1589 47.5469 24.3935 47.6757C24.1338 47.5439 23.8876 47.3867 23.6585 47.2065C23.4785 47.0255 23.1808 46.6301 23.1036 46.6745C23.0265 46.7188 23.0595 46.9294 23.3131 47.2582C23.4566 47.4298 23.6222 47.5814 23.8055 47.7089C24.4817 48.2077 24.4449 48.0304 24.6434 48.1855C24.8418 48.3407 25.4408 48.2077 25.7825 48.1855C26.1243 48.1634 26.8849 48.4885 27.2524 48.7323C27.6199 48.9762 28.1821 47.7939 27.6236 47.8235Z" fill="#FFC2A5"/>
<path d="M26.5027 48.6657L27.0503 47.1177C27.0503 47.1177 33.459 49.5118 34.1866 48.699C34.9142 47.8862 38.5926 44.3838 40.757 41.6572C40.757 41.6572 43.4396 43.039 41.8374 46.5451C41.8374 46.5451 36.77 49.9034 35.8513 51.0598C34.9326 52.2162 26.5027 48.6657 26.5027 48.6657Z" fill="#585C5A"/>
<path d="M41.628 44.7901C41.0946 45.3019 40.5166 45.7643 39.9008 46.1719C39.7685 46.316 35.5499 50.1287 35.3993 50.2691C34.0617 51.5253 28.7223 49.0721 26.6167 48.3849L26.4917 48.6472C26.4917 48.6472 34.4512 52.1422 35.6124 51.2186C36.8508 50.2543 41.8374 46.545 41.8374 46.545C42.1699 45.7799 42.2807 44.936 42.1571 44.1104C42.0073 44.3566 41.8297 44.5847 41.628 44.7901Z" fill="#7B7B7B"/>
<path d="M46.4823 32.1919C46.4526 32.0919 46.4526 31.9853 46.4823 31.8853C46.5587 31.7359 46.6908 31.623 46.8498 31.5712C47.2127 31.4285 47.6059 31.3817 47.992 31.4354C48.378 31.4891 48.7438 31.6415 49.0546 31.8779C49.1945 31.9763 49.306 32.1101 49.378 32.2658C49.0118 32.0408 48.5724 31.9692 48.1543 32.0663C47.7354 32.1402 47.3422 32.3064 46.9306 32.4136C46.8713 32.4377 46.8072 32.4476 46.7434 32.4425C46.6796 32.4374 46.6179 32.4173 46.5631 32.384C46.5184 32.3291 46.4903 32.2624 46.4823 32.1919Z" fill="#64281A"/>
<path d="M43.1052 32.4432C43.4957 32.431 43.8865 32.4508 44.2738 32.5023C44.4331 32.5297 44.5959 32.5297 44.7552 32.5023C44.8378 32.491 44.9157 32.4571 44.9805 32.4043C45.0453 32.3516 45.0945 32.2819 45.1226 32.203C45.1371 32.1266 45.1311 32.0477 45.1052 31.9743C45.0794 31.901 45.0347 31.8358 44.9756 31.7856C44.8553 31.6861 44.7149 31.6142 44.5641 31.575C43.9403 31.4266 43.2868 31.4678 42.6863 31.6932C42.4218 31.7528 42.1789 31.8847 41.9843 32.0745C41.7897 32.2642 41.6512 32.5043 41.5839 32.7683C42.0701 32.5776 42.5839 32.4678 43.1052 32.4432Z" fill="#64281A"/>
<path d="M46.0744 36.1968C45.8674 36.1968 45.6626 36.1553 45.4717 36.0748C45.4331 36.0559 45.4033 36.0226 45.3886 35.9819C45.374 35.9412 45.3757 35.8964 45.3934 35.857C45.4111 35.8176 45.4434 35.7866 45.4834 35.7708C45.5234 35.7549 45.568 35.7553 45.6077 35.7719C45.8613 35.8864 46.2765 35.8975 46.372 35.7904C46.4161 35.7423 46.3426 35.6093 46.3206 35.5687C46.0385 35.0096 45.8345 34.4141 45.7143 33.799C45.7102 33.7578 45.7215 33.7164 45.7462 33.6832C45.7708 33.6499 45.8069 33.6271 45.8474 33.6192C45.8879 33.6114 45.9299 33.619 45.9651 33.6406C46.0003 33.6623 46.0262 33.6964 46.0376 33.7362C46.1515 34.3145 46.3418 34.8749 46.6035 35.4024C46.7983 35.7313 46.6954 35.9271 46.6035 36.0157C46.4578 36.1438 46.2676 36.2088 46.0744 36.1968Z" fill="#CF886F"/>
<path d="M44.5016 36.6253C44.5016 36.6253 45.0455 37.5341 45.8466 37.7336C46.1247 37.8011 46.4178 37.7629 46.6697 37.6265C47.0614 37.338 47.3768 36.9575 47.5884 36.5181C47.3516 36.6081 47.0903 36.6081 46.8534 36.5181C46.5521 36.3334 46.3133 36.411 46.1993 36.6437C46.1433 36.5503 46.0542 36.4816 45.95 36.4515C45.8457 36.4213 45.7339 36.4319 45.6371 36.4812C45.4757 36.6004 45.2867 36.6763 45.088 36.7015C44.8893 36.7267 44.6874 36.7005 44.5016 36.6253Z" fill="#EB6058"/>
<path d="M44.6192 36.799C45.0238 37.0443 45.4924 37.1615 45.9642 37.1352C46.491 37.1648 47.0136 37.0251 47.4561 36.7362L47.5369 36.6031C47.0844 36.9284 46.534 37.0864 45.9789 37.0502C45.4616 37.0841 44.9489 36.9337 44.531 36.6253H44.5016C44.5016 36.6253 44.542 36.6955 44.6192 36.799Z" fill="#B42C22"/>
<path opacity="0.55" d="M49.2126 35.1697C49.2126 35.5392 48.79 35.868 48.2829 35.9086C47.7758 35.9493 47.3642 35.6944 47.3679 35.3286C47.3716 34.9628 47.7905 34.6303 48.2976 34.5897C48.8047 34.5491 49.2163 34.804 49.2126 35.1697Z" fill="#FFB299"/>
<path opacity="0.55" d="M44.2444 35.8347C44.1231 36.1783 43.6234 36.3593 43.142 36.2374C42.6606 36.1155 42.3262 35.7387 42.4401 35.3951C42.554 35.0515 43.0611 34.8705 43.5425 34.9924C44.0239 35.1143 44.3657 35.4911 44.2444 35.8347Z" fill="#FFB299"/>
<path d="M46.8314 33.9062C46.8314 33.9062 47.8199 32.7424 48.8709 33.7732C48.8482 33.9056 48.7998 34.0323 48.7284 34.1459C48.6571 34.2596 48.5641 34.358 48.4549 34.4355C48.3457 34.5131 48.2224 34.5682 48.092 34.5978C47.9616 34.6274 47.8267 34.631 47.695 34.6081C47.4964 34.5956 47.3066 34.5214 47.1518 34.3956C46.9971 34.2698 46.8851 34.0988 46.8314 33.9062Z" fill="white"/>
<path d="M47.9265 34.3457C48.241 34.3457 48.496 34.0894 48.496 33.7731C48.496 33.4568 48.241 33.2004 47.9265 33.2004C47.6119 33.2004 47.3569 33.4568 47.3569 33.7731C47.3569 34.0894 47.6119 34.3457 47.9265 34.3457Z" fill="#654745"/>
<path d="M48.1433 33.8766C48.2244 33.8766 48.2903 33.8105 48.2903 33.7288C48.2903 33.6472 48.2244 33.5811 48.1433 33.5811C48.0621 33.5811 47.9963 33.6472 47.9963 33.7288C47.9963 33.8105 48.0621 33.8766 48.1433 33.8766Z" fill="white"/>
<path d="M47.7427 34.4086C47.5619 34.4005 47.3858 34.3477 47.2301 34.2549C47.0743 34.1621 46.9437 34.0322 46.8498 33.8766L46.8204 33.9061C46.8741 34.0988 46.9861 34.2698 47.1408 34.3956C47.2956 34.5213 47.4854 34.5956 47.6839 34.6081C47.8157 34.6309 47.9506 34.6274 48.081 34.5978C48.2114 34.5682 48.3347 34.513 48.4439 34.4355C48.5531 34.358 48.646 34.2596 48.7174 34.1459C48.7888 34.0323 48.8372 33.9056 48.8599 33.7731L48.8341 33.751C48.7622 33.9749 48.612 34.1649 48.4113 34.2858C48.2105 34.4068 47.973 34.4504 47.7427 34.4086Z" fill="#D28E69"/>
<path d="M46.8314 33.9061L46.7689 33.6808C46.8886 33.4716 47.0675 33.303 47.2828 33.1964C47.4981 33.0899 47.7401 33.0501 47.9779 33.0822C48.3224 33.1305 48.6603 33.2185 48.9848 33.3446C49.0448 33.352 49.1057 33.3444 49.1621 33.3225C49.2185 33.3006 49.2687 33.265 49.3082 33.2189C49.3082 33.2189 49.3559 33.8581 48.8709 33.7694C48.7458 33.6604 48.5995 33.5788 48.4414 33.5298C48.2832 33.4808 48.1166 33.4656 47.9522 33.4849C47.539 33.4776 47.1385 33.6281 46.8314 33.9061Z" fill="#64281A"/>
<path d="M44.8176 34.176C44.8176 34.176 43.8291 33.0122 42.7782 34.043C42.8008 34.1754 42.8492 34.3021 42.9206 34.4157C42.992 34.5294 43.0849 34.6278 43.1941 34.7053C43.3033 34.7828 43.4266 34.838 43.557 34.8676C43.6874 34.8972 43.8223 34.9007 43.9541 34.8779C44.1527 34.8654 44.3425 34.7911 44.4972 34.6654C44.6519 34.5396 44.7639 34.3686 44.8176 34.176Z" fill="white"/>
<path d="M43.8843 34.6414C44.1988 34.6414 44.4538 34.385 44.4538 34.0687C44.4538 33.7525 44.1988 33.4961 43.8843 33.4961C43.5697 33.4961 43.3147 33.7525 43.3147 34.0687C43.3147 34.385 43.5697 34.6414 43.8843 34.6414Z" fill="#654745"/>
<path d="M44.1011 34.1721C44.1822 34.1721 44.248 34.106 44.248 34.0244C44.248 33.9427 44.1822 33.8766 44.1011 33.8766C44.0199 33.8766 43.9541 33.9427 43.9541 34.0244C43.9541 34.106 44.0199 34.1721 44.1011 34.1721Z" fill="white"/>
<path d="M43.91 34.6672C44.0889 34.6587 44.263 34.6064 44.4173 34.515C44.5716 34.4236 44.7015 34.2958 44.7956 34.1426L44.825 34.1721C44.7713 34.3647 44.6593 34.5358 44.5045 34.6616C44.3498 34.7873 44.16 34.8616 43.9614 34.8741C43.8292 34.898 43.6935 34.8953 43.5622 34.8662C43.431 34.8371 43.3068 34.7821 43.1968 34.7045C43.0868 34.6268 42.9931 34.5281 42.9213 34.4139C42.8494 34.2997 42.8008 34.1723 42.7782 34.0391L42.8039 34.017C42.8775 34.2425 43.0306 34.4331 43.2344 34.5529C43.4381 34.6726 43.6784 34.7133 43.91 34.6672Z" fill="#D28E69"/>
<path d="M44.8176 34.1759L44.8801 33.9505C44.7604 33.7414 44.5815 33.5728 44.3662 33.4662C44.1509 33.3596 43.909 33.3199 43.6711 33.352C43.3266 33.4003 42.9887 33.4883 42.6642 33.6143C42.6042 33.6218 42.5433 33.6142 42.4869 33.5923C42.4305 33.5704 42.3803 33.5348 42.3409 33.4887C42.3409 33.4887 42.2931 34.1279 42.7782 34.0392C42.9054 33.9277 43.0547 33.8447 43.2163 33.7957C43.3778 33.7466 43.5479 33.7327 43.7152 33.7547C44.1221 33.752 44.5152 33.9022 44.8176 34.1759Z" fill="#64281A"/>
<path d="M44.1635 28.1279C44.1635 28.1279 44.5751 31.8631 41.176 33.1673C41.176 33.1562 38.8793 28.4715 44.1635 28.1279Z" fill="#9E3724"/>
<path d="M49.5544 32.1291C49.5544 32.1291 44.6743 31.8225 43.7703 28.1538C43.7703 28.1538 50.5245 26.8201 49.5544 32.1291Z" fill="#9E3724"/>
<path d="M31.313 92.6122C31.313 92.6122 31.1403 94.3781 31.7613 94.4114C32.3823 94.4446 36.487 94.7808 36.5385 94.4114C36.5899 94.0419 34.8444 93.0555 33.6795 92.7858C33.2385 92.6823 33.0805 92.5087 32.9115 92.4865C32.3764 92.3988 31.8281 92.4419 31.313 92.6122Z" fill="#654745"/>
<path d="M21.8248 93.1256C21.8248 93.1256 19.7523 94.2783 19.7376 95.0837C19.7376 95.516 19.9507 95.9446 20.3219 95.9889C20.5911 96.0155 20.8627 95.9774 21.1144 95.8779C21.3661 95.7783 21.5907 95.6201 21.7697 95.4163C22.2364 94.7845 22.8721 94.016 23.1918 93.6577C24.1877 92.5087 21.8248 93.1256 21.8248 93.1256Z" fill="#654745"/>
<path d="M31.1182 55.8369C30.7148 55.9822 30.2929 56.0693 29.8651 56.0955C29.02 56.1509 28.1564 56.0955 27.2928 56.0955C25.4967 56.0338 23.7061 55.8598 21.9314 55.5746C21.9314 55.5746 21.156 56.5536 19.9654 61.1164C19.5538 62.6902 20.8841 69.9832 20.5203 75.8464C20.4321 77.243 19.1092 79.4523 21.2736 93.2698L23.8459 93.2218C23.8068 89.438 23.9786 85.6551 24.3604 81.8907C24.6029 79.2786 24.8528 77.4979 25.0439 75.7947C25.2717 73.7738 26.2639 66.7764 26.4697 64.3417C26.4697 64.3172 26.4794 64.2937 26.4966 64.2764C26.5138 64.2591 26.5372 64.2493 26.5616 64.2493C26.5859 64.2493 26.6093 64.2591 26.6265 64.2764C26.6438 64.2937 26.6534 64.3172 26.6534 64.3417C26.9401 66.8022 27.7558 72.8391 27.5795 75.4253C27.4949 76.7368 26.9658 77.8304 27.3259 80.7528C27.8624 85.0938 31.1476 92.8449 31.1476 92.8449H33.753C33.753 92.8449 31.7503 80.7121 31.7834 75.5619C31.8752 66.865 34.7489 60.3147 31.1182 55.8369Z" fill="#654745"/>
<g style="mix-blend-mode:multiply" opacity="0.32">
<path d="M23.1441 63.1151C24.6654 62.5942 22.964 60.7617 23.4821 59.79C24.0627 58.6817 25.8854 58.774 26.9143 58.726C28.7134 58.6876 30.4744 58.1973 32.0369 57.2999C31.7879 56.7782 31.4796 56.2873 31.1182 55.8369C30.7148 55.9822 30.2929 56.0693 29.8652 56.0955C29.02 56.1509 28.1564 56.0955 27.2928 56.0955C25.4967 56.0337 23.7061 55.8598 21.9314 55.5746C21.9314 55.5746 21.156 56.5536 19.9654 61.1164C19.8578 61.9664 19.8578 62.8267 19.9654 63.6767C21.0412 63.5989 22.1063 63.4107 23.1441 63.1151Z" fill="#573A30"/>
</g>
<g style="mix-blend-mode:multiply" opacity="0.32">
<path d="M28.5533 78.3328C28.5202 75.259 28.6892 72.1851 28.3953 69.1187C28.2005 67.1199 27.6603 65.3687 27.5207 63.37C26.9797 63.5206 26.4081 63.5206 25.8671 63.37C24.9447 67.4672 24.5368 71.6199 24.2097 75.7799C24.3457 77.0619 24.4964 78.3217 24.6176 79.5853C24.7793 78.1259 24.9373 76.9289 25.066 75.7799C25.2938 73.759 26.286 66.7616 26.4918 64.3269C26.4918 64.3024 26.5014 64.2789 26.5187 64.2616C26.5359 64.2442 26.5593 64.2345 26.5836 64.2345C26.608 64.2345 26.6314 64.2442 26.6486 64.2616C26.6658 64.2789 26.6755 64.3024 26.6755 64.3269C26.9621 66.7874 27.7779 72.8243 27.6015 75.4104C27.517 76.722 26.9878 77.8156 27.348 80.7379C27.8845 85.079 31.1697 92.8301 31.1697 92.8301H32.0516C30.3686 88.1344 28.6121 83.3167 28.5533 78.3328Z" fill="#573A30"/>
</g>
<g style="mix-blend-mode:multiply" opacity="0.32">
<path d="M21.9093 75.6949C22.7766 71.7233 21.8616 67.7369 22.3246 63.7431C22.6222 61.2382 23.4049 58.3233 22.9089 55.7408C22.5414 55.6891 22.2033 55.641 21.9461 55.593C21.9461 55.593 21.1707 56.5721 19.9801 61.1348C19.5685 62.7087 20.8988 70.0017 20.535 75.8649C20.4468 77.2614 19.1239 79.4707 21.2883 93.2882H22.1445C21.0311 87.4546 20.6379 81.499 21.9093 75.6949Z" fill="#573A30"/>
</g>
<path d="M22.3356 35.953C22.3356 35.953 17.2388 37.5786 16.0886 39.1709C16.0886 39.1709 22.4201 50.0772 21.9681 55.5894C21.9681 55.5894 26.1537 59.0622 31.2505 56.2655C31.2505 56.2655 36.0975 48.0599 31.0778 37.5823C31.0778 37.5823 28.7223 36.5737 28.1821 36.2227C27.5297 36.6491 26.8047 36.9509 26.0434 37.1131C24.9888 37.3348 23.6989 37.4049 22.3356 35.953Z" fill="#FCEDF0"/>
<path d="M21.2111 50.5241C22.2548 50.8012 23.0889 48.8911 23.8349 48.4478C24.8454 47.8455 25.9809 47.3061 27.1936 47.4318C28.0645 47.5204 30.5009 48.0857 30.3208 46.087C30.0489 43.2717 28.5974 45.3481 28.2593 45.7175C27.8121 46.1361 27.245 46.4024 26.6387 46.4786C24.5294 46.7594 23.1477 45.8173 22.5965 43.7409C21.924 41.1548 20.219 39.3962 18.6058 37.427C17.5033 37.9516 16.5075 38.5649 16.0628 39.1708C16.0628 39.1708 19.5428 45.167 21.1523 50.5167L21.2111 50.5241Z" fill="#E7CED2"/>
<path d="M27.9432 56.9821C26.1757 56.7937 24.3053 56.1361 23.7504 54.2334C23.4195 53.2645 23.3423 52.2263 23.5262 51.2187C23.3976 50.912 23.269 50.6091 23.122 50.3172C22.681 49.4268 22.1739 48.5697 21.7734 47.6572C20.8473 45.5513 20.3476 43.6929 18.3007 42.4072L17.5658 41.9602C19.4032 45.5661 22.2474 51.8283 21.9314 55.5856C21.9314 55.5856 26.1169 59.0584 31.2138 56.2617L31.3056 56.0991C30.3144 56.7627 29.1307 57.0736 27.9432 56.9821Z" fill="#E7CED2"/>
<path d="M18.0178 37.7522C18.0178 37.7522 11.8736 41.3765 9.24253 50.0845C9.09529 50.652 9.0139 51.2347 9 51.8209C9 52.7039 9.66513 54.3591 12.627 52.8443C12.8879 52.7113 13.2039 52.752 13.3619 52.5081C14.0381 51.5106 16.14 48.6215 18.5065 47.4725C18.5249 47.4725 20.3072 41.4282 18.0178 37.7522Z" fill="#FCEDF0"/>
<path d="M18.0178 37.7522C18.0178 37.7522 11.8736 41.3765 9.24253 50.0845C9.09529 50.652 9.0139 51.2347 9 51.8209C9 52.7039 9.66513 54.3591 12.627 52.8443C12.8879 52.7113 13.2039 52.752 13.3619 52.5081C14.0381 51.5106 16.14 48.6215 18.5065 47.4725C18.5249 47.4725 20.3072 41.4282 18.0178 37.7522Z" fill="#FCEDF0"/>
<path d="M17.0587 38.4246C16.2507 39.0501 15.4915 39.7368 14.7877 40.4787C15.5982 39.8562 16.3576 39.1693 17.0587 38.4246Z" fill="#E7CED2"/>
<path d="M13.7184 46.1202C13.7367 48.2187 14.1263 50.7051 13.1561 52.6706C13.2416 52.6389 13.3158 52.5823 13.3693 52.5081C14.0454 51.5105 16.1474 48.6214 18.5139 47.4724C18.5139 47.4724 19.947 42.5993 18.58 38.9418C16.7647 41.3358 13.6853 42.6141 13.7184 46.1202Z" fill="#E7CED2"/>
<path d="M18.0178 37.7522C18.0178 37.7522 11.8736 41.3765 9.24254 50.0845C9.09529 50.652 9.01391 51.2347 9 51.8209C8.98199 52.1847 9.09065 52.5435 9.30728 52.8354C9.52391 53.1274 9.83496 53.3343 10.1869 53.4207C10.6809 53.1262 11.2108 52.8977 11.7634 52.7409L11.9618 52.6928C11.8627 52.5848 11.8008 52.4474 11.7855 52.3012C11.0101 46.5673 14.5121 42.2004 18.4808 38.6574C18.3504 38.3439 18.1956 38.0412 18.0178 37.7522Z" fill="#E7CED2"/>
<path d="M26.0251 38.4357C26.0251 38.4357 29.641 48.4109 27.5978 56.1213C27.5978 56.1213 29.0126 52.7741 28.3916 47.2545C28.1086 44.72 27.7191 41.7718 26.0251 38.4357Z" fill="#FFE341"/>
<path d="M25.7597 40.8174C25.8831 40.7837 25.9412 40.6015 25.8895 40.4105C25.8377 40.2195 25.6958 40.0921 25.5724 40.1259C25.4491 40.1596 25.391 40.3418 25.4427 40.5328C25.4944 40.7238 25.6363 40.8512 25.7597 40.8174Z" fill="#FFE341"/>
<path d="M26.5725 44.7254C26.6958 44.6916 26.7539 44.5094 26.7022 44.3185C26.6505 44.1275 26.5085 44.0001 26.3852 44.0338C26.2618 44.0676 26.2037 44.2498 26.2554 44.4408C26.3072 44.6317 26.4491 44.7592 26.5725 44.7254Z" fill="#FFE341"/>
<path d="M27.0943 48.0991C27.2212 48.0834 27.3045 47.9114 27.2804 47.715C27.2563 47.5185 27.1339 47.372 27.007 47.3878C26.8801 47.4035 26.7968 47.5755 26.8209 47.7719C26.845 47.9684 26.9674 48.1148 27.0943 48.0991Z" fill="#FFE341"/>
<path d="M27.3265 51.3781C27.4534 51.3623 27.5367 51.1903 27.5127 50.9939C27.4886 50.7975 27.3662 50.651 27.2393 50.6667C27.1124 50.6824 27.029 50.8544 27.0531 51.0509C27.0772 51.2473 27.1996 51.3938 27.3265 51.3781Z" fill="#FFE341"/>
<path d="M27.3585 54.6286C27.364 54.4308 27.2649 54.2675 27.1371 54.2638C27.0093 54.2602 26.9012 54.4177 26.8957 54.6155C26.8901 54.8134 26.9893 54.9767 27.1171 54.9803C27.2449 54.9839 27.353 54.8264 27.3585 54.6286Z" fill="#FFE341"/>
<path d="M26.4403 37.4196L24.4633 39.4775C24.5 39.3999 21.156 36.5219 21.156 36.5219L22.2952 35.2953L26.003 37.1056L26.4403 37.4196Z" fill="#E7CED2"/>
<path d="M27.8918 39.1487L25.9773 37.608L28.0682 35.7977L29.6189 36.9837L27.8918 39.1487Z" fill="#E7CED2"/>
<path d="M26.025 37.1167L24.511 38.9898C24.5478 38.9123 21.4132 36.2707 21.4132 36.2707L22.3576 34.8187L26.025 37.1167Z" fill="#FFE341"/>
<path d="M27.9396 38.6573L26.0251 37.1167L28.116 35.3064L29.5161 36.9431L27.9396 38.6573Z" fill="#FFE341"/>
<path d="M18.3559 58.0535C18.3559 58.0535 16.739 59.1618 17.5952 59.7123C18.4514 60.2628 21.0238 61.4229 20.6306 60.6359C20.3271 60.0812 20.0595 59.5073 19.8295 58.918C19.8184 58.7591 18.3559 58.0535 18.3559 58.0535Z" fill="#E1C4B5"/>
<path d="M17.8194 58.0794C18.4389 58.688 19.2523 59.0569 20.1161 59.1213C24.0076 56.4871 23.7026 55.3602 23.7651 54.3184C23.8276 53.2765 18.0141 50.1842 18.0141 50.1842C17.5548 50.4133 14.8061 50.2544 14.8061 50.2544C16.1915 52.1017 18.5727 53.9785 19.2415 54.6878C19.7339 55.2272 18.4882 57.1853 17.8194 58.0794Z" fill="#FF5D5E"/>
<path d="M19.0247 58.8701C18.9249 58.6361 18.8688 58.3856 18.8593 58.1311C18.8042 57.1632 19.9324 55.6189 20.6967 55.1755C21.461 54.7322 22.218 55.0462 23.0375 55.5745C23.1929 55.6764 23.3403 55.79 23.4785 55.9144C23.6922 55.4083 23.7902 54.8603 23.7651 54.311C23.8276 53.2507 18.0141 50.1842 18.0141 50.1842C17.5548 50.4133 14.9347 50.1251 14.9347 50.1251C13.7772 52.8812 18.5543 53.9896 19.2415 54.7026C19.7339 55.2273 18.4882 57.1853 17.8157 58.0794C18.1676 58.4146 18.5773 58.6825 19.0247 58.8701Z" fill="#E15050"/>
<path d="M17.0513 36.9947C17.0513 36.9947 17.5474 39.1449 16.7757 40.0464C16.7757 40.0464 17.5768 40.8259 19.0651 40.1572C20.5534 39.4885 20.6856 39.47 20.6856 39.47C19.9026 38.608 19.4893 37.4703 19.5355 36.3038C19.5355 36.3038 18.8005 37.305 17.0513 36.9947Z" fill="#E3956F"/>
<path d="M19.5979 59.1619C19.5979 59.1619 18.4955 60.3811 19.6494 60.9906C20.8032 61.6002 23.8459 62.28 23.2727 61.3047C22.6994 60.3293 21.8763 60.4549 21.766 59.4168C21.744 59.2136 19.5979 59.1619 19.5979 59.1619Z" fill="#EFDFD7"/>
<path d="M16.8786 48.0192C16.8786 48.0192 12.6747 52.0314 16.75 52.7371C20.8253 53.4427 21.7844 53.5646 21.7844 53.5646C21.7844 53.5646 20.4174 53.8565 19.2121 59.5978C20.1251 59.8359 21.0594 59.9819 22.0012 60.0337C22.0012 60.0337 26.3631 55.0055 25.6833 52.0684C25.0035 49.1312 22.0306 49.2679 20.9061 48.8393C19.7817 48.4108 16.8786 48.0192 16.8786 48.0192Z" fill="#FF5D5E"/>
<path d="M19.1937 59.5979C19.5582 59.7398 19.9426 59.8233 20.3329 59.8454C19.6604 58.3011 20.8032 56.0623 21.9387 54.7877C22.3687 54.3111 24.6397 52.5118 22.9236 51.7729C22.1114 51.433 21.3398 51.034 20.5423 50.6646C19.3297 50.1104 18.2567 49.6707 17.4188 48.5993C17.2859 48.4358 17.1895 48.2456 17.1359 48.0415L16.875 48.0045C16.875 48.0045 12.6747 52.0315 16.75 52.7372C20.8253 53.4428 21.7844 53.5648 21.7844 53.5648C21.7844 53.5648 20.4211 53.8566 19.1937 59.5979Z" fill="#E15050"/>
<path d="M20.682 38.9935C20.682 38.9935 20.4725 38.927 20.1565 38.842C19.7395 39.182 19.2232 39.3753 18.6866 39.3925C18.243 39.4262 17.798 39.3514 17.3894 39.1745C17.3084 39.1356 17.233 39.0859 17.1653 39.0268C16.1804 40.0686 13.9205 43.0907 15.1111 47.9453C15.1174 48.6767 15.0608 49.4072 14.942 50.1288C16.5863 50.2997 18.248 50.1517 19.8368 49.6929C22.3062 48.9539 23.0375 49.3456 23.0375 49.3456C23.0375 49.3456 24.3677 41.0588 20.682 38.9935Z" fill="#98B3FF"/>
<path d="M23.0485 49.0684C21.5566 48.3295 19.3223 48.0118 18.863 45.869C18.4036 43.7262 21.2773 41.14 17.9369 39.3482C17.7427 39.3158 17.5536 39.2574 17.3747 39.1745C17.2937 39.1356 17.2183 39.0859 17.1506 39.0267C16.1657 40.0686 13.9058 43.0907 15.0964 47.9453C15.1027 48.6767 15.0461 49.4072 14.9273 50.1288C16.5716 50.2997 18.2333 50.1517 19.8221 49.6928C22.2915 48.9539 23.0228 49.3455 23.0228 49.3455C23.0228 49.3455 23.0228 49.2458 23.0595 49.0758L23.0485 49.0684Z" fill="#6A8CF0"/>
<path d="M29.8284 44.539C29.8284 44.539 30.2657 44.2176 29.2515 43.7521C28.2373 43.2866 27.0724 45.0784 27.0724 45.0784C26.9962 45.1771 26.9286 45.2822 26.8703 45.3924C26.7977 45.5247 26.6958 45.6385 26.5726 45.7249C26.3448 45.8173 23.9378 45.4885 22.7105 44.2176C21.4831 42.9467 22.0784 40.8925 20.3402 40.2312C20.3402 40.2312 17.6981 40.0317 18.3338 42.5329C18.9696 45.0341 19.7743 45.5735 20.7114 46.3308C21.6485 47.0882 26.7894 46.8813 26.8592 46.7779C27.1061 46.7264 27.3301 46.5969 27.4986 46.4084C28.296 45.5402 28.2556 46.305 28.6304 46.3419C29.0053 46.3789 29.1706 45.9355 29.1706 45.9355C29.318 45.9117 29.4519 45.8357 29.5483 45.7211C29.6447 45.6066 29.6971 45.4612 29.6961 45.3112C29.7662 45.2793 29.8275 45.2307 29.8746 45.1696C29.9217 45.1084 29.9531 45.0366 29.9662 44.9604C29.9792 44.8842 29.9735 44.8059 29.9495 44.7325C29.9255 44.659 29.8839 44.5926 29.8284 44.539Z" fill="#FFC2A5"/>
<path d="M28.6966 44.2766C28.6966 44.2766 29.211 43.8702 29.8284 44.5389C29.6697 44.4157 29.4864 44.3284 29.2911 44.2831C29.0957 44.2378 28.8929 44.2356 28.6966 44.2766Z" fill="#D78965"/>
<path d="M28.6598 44.9528C28.6598 44.9528 29.0273 44.5833 29.6851 45.2816C29.6851 45.2816 29.1081 44.8087 28.6598 44.9528Z" fill="#D78965"/>
<path d="M28.1343 45.603C28.1343 45.603 28.5018 45.2336 29.1596 45.9318C29.1596 45.9318 28.5863 45.4626 28.1343 45.603Z" fill="#D78965"/>
<path d="M12.8585 29.5134C12.8585 29.5134 11.0652 30.1341 11.271 29.3989C11.4768 28.6637 12.8585 29.5134 12.8585 29.5134Z" fill="#702530"/>
<path d="M12.9393 29.4653C12.9393 29.4653 12.1088 27.6772 11.4364 28.1538C10.7639 28.6304 12.0096 29.2363 12.9393 29.4653Z" fill="#702530"/>
<path d="M15.2801 27.8656C15.2801 27.8656 18.6903 25.5048 21.4978 29.3434C21.4978 29.3434 21.6007 31.1611 21.8652 31.6857C22.1298 32.2103 22.6957 33.049 22.7435 34.1093C22.7986 35.3174 21.0825 37.5822 20.5717 37.9073C19.7192 38.4541 17.2645 38.2767 16.5553 38.0144C15.846 37.7521 15.0449 37.5267 14.3872 36.7029C13.7294 35.879 9.15802 30.0638 15.2801 27.8656Z" fill="#FFC2A5"/>
<path d="M14.1667 34.8187C14.1667 34.8187 12.8658 32.7128 11.8369 34.0059C10.808 35.299 12.9871 37.3309 14.4827 35.8938L14.1667 34.8187Z" fill="#FFC2A5"/>
<path d="M12.0464 34.5231C12.0464 34.5231 12.943 34.3125 13.1892 35.0588C13.3472 35.5354 13.1341 36.0896 12.7776 35.8938C12.4212 35.698 12.7776 35.3212 12.6821 35.081C12.5865 34.8409 12.4322 34.6783 12.0464 34.5231Z" fill="#DC8A64"/>
<path d="M18.9843 27.7585C18.9843 27.7585 18.9218 30.2449 14.6738 31.5269C14.4951 32.0748 14.4254 32.6528 14.469 33.2277C14.5125 33.8027 14.6682 34.3634 14.9274 34.8778C14.7931 35.3389 14.505 35.7394 14.1116 36.0121C14.1116 36.0121 10.683 32.772 12.2411 29.8644C13.7992 26.9568 17.4519 26.4765 18.9843 27.7585Z" fill="#702530"/>
<path d="M13.0165 30.6697C13.0165 30.6697 15.6513 33.5589 20.9612 29.1624C20.9612 29.1624 21.3728 29.1624 21.5823 30.3114C21.5823 30.3114 23.4601 26.8681 17.0881 26.4654C10.7161 26.0627 13.0165 30.6697 13.0165 30.6697Z" fill="#702530"/>
<path d="M19.2893 35.3877C19.1148 35.3407 18.9451 35.2776 18.7822 35.1993C18.7551 35.1874 18.7312 35.1691 18.7127 35.1459C18.6941 35.1227 18.6814 35.0954 18.6756 35.0663V35.0109L18.727 34.9517C18.7363 34.942 18.7474 34.9343 18.7597 34.929C18.7721 34.9237 18.7853 34.921 18.7987 34.921C18.8121 34.921 18.8253 34.9237 18.8377 34.929C18.85 34.9343 18.8611 34.942 18.8704 34.9517C19.0135 35.0464 19.1694 35.1199 19.3334 35.1697C19.4823 35.1749 19.6286 35.1293 19.7486 35.0404C19.8037 35.0035 19.8552 34.937 19.8405 34.8852C19.8258 34.8335 19.7817 34.8113 19.7339 34.7707C19.4275 34.5379 19.217 34.2 19.1423 33.8212C19.1399 33.8081 19.1401 33.7947 19.1428 33.7816C19.1456 33.7686 19.1509 33.7562 19.1584 33.7453C19.1659 33.7343 19.1754 33.7249 19.1866 33.7177C19.1977 33.7104 19.2101 33.7054 19.2231 33.703C19.2362 33.7006 19.2495 33.7007 19.2625 33.7035C19.2755 33.7063 19.2878 33.7116 19.2987 33.7191C19.3096 33.7267 19.3189 33.7363 19.3261 33.7475C19.3334 33.7587 19.3383 33.7712 19.3407 33.7843C19.4034 34.1073 19.5811 34.3963 19.8405 34.5971C19.9287 34.6498 19.9971 34.7303 20.0353 34.8261C20.0454 34.8983 20.0341 34.9719 20.0027 35.0377C19.9713 35.1034 19.9213 35.1584 19.8589 35.1956C19.7815 35.2643 19.6913 35.3167 19.5934 35.3497C19.4956 35.3827 19.3922 35.3956 19.2893 35.3877Z" fill="#DF9378"/>
<path d="M18.5543 33.7916C18.5543 33.7916 17.0844 32.7793 16.3495 34.2571C16.4961 34.4779 16.7144 34.6405 16.9671 34.7173C17.2198 34.7942 17.4911 34.7804 17.7348 34.6783C17.9369 34.616 18.1191 34.5013 18.263 34.3456C18.4069 34.1899 18.5073 33.9988 18.5543 33.7916Z" fill="white"/>
<path d="M17.2277 34.7781C17.0504 34.7688 16.878 34.7166 16.7251 34.6259C16.5722 34.5352 16.4433 34.4087 16.3495 34.2572L16.1143 34.2313C16.2513 34.3959 16.4213 34.5297 16.6131 34.6239C16.805 34.7181 17.0144 34.7706 17.2277 34.7781Z" fill="#E99564"/>
<path d="M17.4918 34.6265C17.8755 34.5713 18.1393 34.1942 18.081 33.7842C18.0226 33.3741 17.6643 33.0865 17.2805 33.1417C16.8968 33.1968 16.633 33.574 16.6913 33.984C16.7497 34.394 17.108 34.6817 17.4918 34.6265Z" fill="#654745"/>
<path d="M17.7312 33.8396C17.7375 33.7791 17.7205 33.7185 17.6835 33.6703C17.6465 33.6221 17.5925 33.5902 17.5327 33.581C17.5034 33.5779 17.4737 33.581 17.4455 33.5898C17.4174 33.5987 17.3913 33.6133 17.3689 33.6327C17.3466 33.652 17.3284 33.6758 17.3155 33.7025C17.3026 33.7292 17.2952 33.7582 17.2939 33.7879C17.2875 33.8484 17.3046 33.909 17.3415 33.9572C17.3785 34.0053 17.4325 34.0373 17.4923 34.0465C17.5217 34.0495 17.5513 34.0465 17.5795 34.0377C17.6077 34.0288 17.6337 34.0142 17.6561 33.9948C17.6785 33.9754 17.6967 33.9517 17.7096 33.925C17.7225 33.8983 17.7298 33.8693 17.7312 33.8396Z" fill="white"/>
<path d="M18.5543 33.7657C18.4142 33.5242 18.2025 33.3328 17.9488 33.2182C17.6951 33.1036 17.4122 33.0715 17.1395 33.1266C16.866 33.1608 16.6131 33.2905 16.4251 33.4931C16.237 33.6957 16.1257 33.9582 16.1106 34.2349L16.3458 34.2608C16.3458 34.2608 16.7133 33.4776 17.371 33.4628C17.7848 33.4598 18.1923 33.5642 18.5543 33.7657Z" fill="#E99564"/>
<path d="M19.6126 33.5404C19.6126 33.5404 20.3476 32.0626 21.5933 32.8717C21.5716 33.116 21.4683 33.3458 21.3001 33.5236C21.132 33.7013 20.9089 33.8166 20.6673 33.8507C20.48 33.8994 20.2831 33.8962 20.0975 33.8416C19.9118 33.7869 19.7443 33.6829 19.6126 33.5404Z" fill="white"/>
<path d="M21.1266 33.6697C21.2626 33.5819 21.3763 33.4634 21.4586 33.3235C21.541 33.1837 21.5896 33.0264 21.6007 32.8643L21.777 32.735C21.7374 32.927 21.6593 33.1089 21.5475 33.2696C21.4357 33.4303 21.2925 33.5664 21.1266 33.6697Z" fill="#E99564"/>
<path d="M20.8071 33.6969C21.1607 33.6461 21.4047 33.3052 21.3521 32.9356C21.2995 32.566 20.9703 32.3075 20.6167 32.3584C20.2631 32.4092 20.0191 32.7501 20.0717 33.1197C20.1242 33.4894 20.4535 33.7478 20.8071 33.6969Z" fill="#654745"/>
<path d="M21.0899 32.9751C21.0961 32.9198 21.0803 32.8642 21.0458 32.8206C21.0114 32.777 20.9612 32.7488 20.9062 32.7423C20.8793 32.7398 20.8522 32.7427 20.8265 32.7509C20.8008 32.759 20.777 32.7723 20.7564 32.7898C20.7359 32.8074 20.719 32.8289 20.7069 32.8531C20.6947 32.8773 20.6875 32.9037 20.6857 32.9308C20.6795 32.9861 20.6953 33.0417 20.7297 33.0853C20.7642 33.1289 20.8144 33.157 20.8694 33.1635C20.8963 33.166 20.9233 33.1631 20.9491 33.155C20.9748 33.1468 20.9986 33.1336 21.0192 33.116C21.0397 33.0985 21.0565 33.077 21.0687 33.0528C21.0808 33.0285 21.0881 33.0021 21.0899 32.9751Z" fill="white"/>
<path d="M19.6053 33.5182C19.613 33.26 19.6991 33.0104 19.8522 32.803C20.0053 32.5956 20.218 32.4403 20.4615 32.3581C20.6883 32.2538 20.9446 32.2336 21.1847 32.3013C21.4249 32.3689 21.6335 32.5199 21.7734 32.7275L21.597 32.8568C21.4292 32.6987 21.2164 32.5973 20.9884 32.5668C20.7604 32.5364 20.5286 32.5783 20.3255 32.6869C20.0018 32.8778 19.749 33.1696 19.6053 33.5182Z" fill="#E99564"/>
<path d="M17.2349 35.5816C17.2998 35.2972 16.9644 34.9771 16.4857 34.8666C16.007 34.7561 15.5663 34.8971 15.5014 35.1815C15.4365 35.4659 15.7719 35.786 16.2506 35.8965C16.7292 36.007 17.1699 35.866 17.2349 35.5816Z" fill="#FFB299"/>
<path d="M22.0007 34.8363C22.3533 34.6067 22.5193 34.2346 22.3715 34.0051C22.2237 33.7756 21.818 33.7757 21.4654 34.0053C21.1128 34.2349 20.9468 34.6071 21.0946 34.8365C21.2424 35.066 21.6481 35.0659 22.0007 34.8363Z" fill="#FFB299"/>
<path d="M20.3402 35.3988C20.3402 35.3988 19.2378 36.5404 18.0068 35.687C18.0642 36.0019 18.2308 36.2861 18.4771 36.4891C18.7234 36.6921 19.0333 36.8006 19.3517 36.7953C20.2704 36.8027 19.8441 35.9641 20.3402 35.3988Z" fill="white"/>
<path d="M15.982 32.1439C15.8996 32.1989 15.8295 32.2706 15.7762 32.3545C15.7499 32.3973 15.7344 32.446 15.7312 32.4963C15.728 32.5465 15.7371 32.5968 15.7578 32.6427C15.8387 32.8015 16.0629 32.8126 16.2356 32.772C16.3546 32.7424 16.4695 32.6977 16.5773 32.639C16.7192 32.5411 16.8722 32.4605 17.033 32.3988C17.23 32.3646 17.4313 32.3646 17.6283 32.3988C17.7294 32.4126 17.8323 32.4037 17.9296 32.373C17.978 32.357 18.0216 32.329 18.0563 32.2915C18.091 32.254 18.1157 32.2083 18.1281 32.1587C18.1611 31.9887 17.9958 31.8409 17.8304 31.7892C17.7293 31.7545 17.6245 31.7321 17.518 31.7227C16.972 31.6694 16.4255 31.8193 15.982 32.1439Z" fill="#702530"/>
<path d="M21.2479 31.139C20.9342 30.9739 20.5745 30.9192 20.2263 30.9838C20.0535 31.0173 19.8898 31.0873 19.746 31.1892C19.6022 31.2911 19.4816 31.4226 19.3921 31.5749C19.3719 31.6027 19.3583 31.6349 19.3526 31.6689C19.3468 31.7029 19.3491 31.7377 19.3591 31.7707C19.3741 31.7999 19.397 31.8243 19.4252 31.8409C19.4982 31.8779 19.5793 31.8956 19.6609 31.8924C19.7426 31.8892 19.8221 31.8651 19.8919 31.8224C20.0286 31.7362 20.1724 31.662 20.3218 31.6008C20.6452 31.5047 20.9943 31.6784 21.3214 31.6008C21.4169 31.5786 21.5235 31.5232 21.5308 31.4234C21.5382 31.3237 21.4279 31.2313 21.3287 31.1796C21.2295 31.1279 21.3544 31.1907 21.2479 31.139Z" fill="#702530"/>
<path d="M26.5395 54.4624L26.4182 54.5178C26.4595 54.4948 26.4953 54.4631 26.5232 54.4248C26.5511 54.3865 26.5705 54.3427 26.5799 54.2962C26.602 54.0634 26.4109 54.0597 26.1022 54.1151C26.1527 54.093 26.1963 54.0577 26.2286 54.0128C26.2609 53.968 26.2807 53.9153 26.2859 53.8602C26.2859 53.3614 25.8413 53.5646 25.1027 53.7568C24.5697 53.8807 24.0146 53.8718 23.4858 53.7309C23.4858 53.7309 24.3016 53.4353 24.2207 52.9624C24.1399 52.4895 23.8128 52.2605 23.5593 52.3602C23.3057 52.46 23.5225 52.7962 23.4454 52.9107C23.3682 53.0252 22.8207 53.1139 22.5157 53.705C22.5157 53.705 16.7537 51.8245 14.7987 51.6915C14.0638 51.6398 13.722 51.529 13.5787 51.3442C12.9751 51.9001 12.3342 52.4136 11.6605 52.8812C11.2673 53.1804 10.955 53.5425 10.5912 53.8159C12.5314 54.4218 20.8804 54.5954 22.0673 54.9058C23.2543 55.2161 23.8055 55.8294 24.9116 55.8663C25.8964 55.8996 26.0765 55.3897 26.0838 55.2309C26.2857 55.2059 26.4779 55.1296 26.6424 55.0092C27.087 54.6324 26.5395 54.4624 26.5395 54.4624ZM24.7021 55.2937C24.9812 55.3098 25.2609 55.3098 25.54 55.2937C25.261 55.3483 24.9742 55.3496 24.6948 55.2974L24.7021 55.2937ZM24.9189 54.8984C25.227 54.8706 25.5327 54.8212 25.834 54.7506C25.5405 54.8655 25.226 54.9159 24.9116 54.8984H24.9189Z" fill="#FFC2A5"/>
<path d="M9.76067 52.5118C9.57326 52.5709 9.27928 52.8406 9.31235 53.0217C9.46376 53.4937 9.78831 53.89 10.22 54.13C11.0101 54.6288 14.2622 52.1128 14.1189 51.6732C14.1189 51.6732 14.4864 50.9158 13.8837 51.1374C13.2811 51.3591 11.3482 52.002 9.76067 52.5118Z" fill="#FFE341"/>
<path style="mix-blend-mode:overlay" opacity="0.55" d="M78.1805 81.329C77.3427 80.8598 77.3574 81.0335 77.0781 80.6529C77.0781 80.6529 74.8108 73.6962 74.1016 71.993C74.0553 71.8782 73.9921 71.7711 73.9142 71.6752C73.8224 71.5562 73.6926 71.4727 73.5467 71.4388C72.793 70.9542 72.0001 70.534 71.1765 70.1827C70.7673 69.7765 70.5081 69.2422 70.4415 68.6679C70.7387 68.6615 71.0328 68.6066 71.3125 68.5053C71.8264 68.2891 72.2943 67.9755 72.6905 67.5817C72.8564 67.7067 73.0488 67.7914 73.2527 67.8293C73.1248 68.0797 73.025 68.3436 72.9551 68.6162C72.8216 69.0971 72.8754 69.611 73.1057 70.0534C73.346 70.3814 73.6154 70.6868 73.9105 70.9659C74.1104 71.1989 74.2683 71.4652 74.3772 71.7528C74.4528 72.007 74.5499 72.2542 74.6675 72.4917C74.7971 72.6879 74.968 72.853 75.168 72.9756C75.368 73.0981 75.5922 73.1751 75.825 73.2011C76.1468 73.258 76.4781 73.2128 76.7731 73.0718C76.9192 72.9999 77.0456 72.8934 77.1417 72.7615C77.2377 72.6295 77.3004 72.4761 77.3243 72.3144C77.3436 72.1518 77.3085 71.9873 77.2247 71.8469C77.1409 71.7065 77.0131 71.598 76.8613 71.5386C76.9233 71.6495 76.9493 71.7773 76.9354 71.9038C76.9216 72.0304 76.8687 72.1494 76.7841 72.2442C76.7392 72.288 76.6855 72.3218 76.6267 72.3433C76.5678 72.3648 76.5052 72.3735 76.4427 72.369C76.3803 72.3645 76.3195 72.3467 76.2643 72.317C76.2092 72.2872 76.1609 72.246 76.1227 72.1962C76.0812 72.1183 76.0595 72.0314 76.0595 71.9431C76.0595 71.8548 76.0812 71.7679 76.1227 71.69C76.2089 71.5367 76.3111 71.393 76.4277 71.2615C76.7562 70.8104 76.9644 70.2823 77.0326 69.7275C77.1008 69.1726 77.0266 68.6095 76.8172 68.0916C76.4763 67.2922 75.8905 66.6231 75.1452 66.1815C75.9647 65.7418 77.2802 64.6446 76.0712 62.4685C74.7336 60.0597 73.0653 59.0769 71.4705 59.3171L71.1802 59.2469C71.1802 59.2469 69.4824 57.3073 66.6308 59.2469C63.7793 61.1865 65.9327 62.7604 65.9437 62.7678C65.9226 62.8553 65.8969 62.9416 65.8665 63.0264C65.6938 63.4882 64.7935 64.7997 65.0213 65.4574C65.2491 66.115 66.4912 68.3132 67.3254 68.5238C67.8449 68.627 68.3724 68.6851 68.9018 68.6975C68.6913 69.1739 68.3093 69.5527 67.8325 69.7578C67.5897 69.7163 67.3438 69.6952 67.0975 69.695C66.9895 69.6956 66.8816 69.7017 66.7742 69.7135H66.697C66.6088 69.7258 66.5217 69.7443 66.4361 69.7689H66.3993C65.5909 69.658 63.4596 68.1137 63.0223 67.6926C62.3167 67.0165 60.9975 64.9291 60.4977 63.998C60.4849 63.5409 60.4019 63.0885 60.2515 62.6569C60.2231 62.581 60.19 62.507 60.1523 62.4352C60.2167 62.5387 60.2697 62.649 60.3103 62.7641C60.494 63.3072 60.4977 63.9869 60.5639 64.0239C60.63 64.0608 60.8542 64.0054 60.8064 63.5325C60.7619 63.2149 60.6766 62.9045 60.5528 62.6089C60.5528 62.6089 60.4316 62.3318 60.314 62.1175C60.4297 62.283 60.5282 62.4601 60.608 62.6458C60.6925 62.8897 60.7843 63.3847 60.8725 63.3847C60.9607 63.3847 61.0269 63.1742 60.9387 62.7678C60.8904 62.5504 60.8138 62.3405 60.7109 62.1434C60.325 61.4045 60.2772 61.5707 60.167 61.3417C60.0568 61.1126 59.4614 60.9722 59.1417 60.8466C58.8383 60.6712 58.5763 60.4317 58.3737 60.1446L58.5979 59.9193C57.1831 58.2678 52.869 51.7692 52.869 51.7692C51.5314 42.4479 50.3628 41.8974 50.3628 41.8974L49.4037 41.528C49.4 41.0305 49.4555 40.5343 49.5691 40.0501C49.8215 39.3753 50.1613 38.7368 50.5796 38.1512C51.6464 36.4172 52.073 34.3615 51.7849 32.3434C51.6314 31.3424 51.262 30.3873 50.7028 29.5449C50.1436 28.7025 49.408 27.9932 48.5475 27.4666C46.5007 26.277 43.9063 26.3582 41.6831 27.1784L42.5393 26.9641C41.3854 27.3114 40.5366 28.2831 39.8347 29.2658C38.3942 31.2793 37.2844 33.5884 37.0345 36.0564C36.9085 36.8317 37.0173 37.6272 37.3469 38.3396C37.9275 39.4036 39.2982 40.0058 39.515 41.1991C39.5702 41.5456 39.5189 41.9007 39.3679 42.217C39.2168 42.5332 38.9732 42.7956 38.6698 42.9688C38.5091 43.0635 38.3295 43.1213 38.144 43.1379C37.9585 43.1545 37.7716 43.1296 37.5968 43.0649C37.4242 42.9949 37.2793 42.8698 37.1844 42.7089C37.0895 42.5481 37.0497 42.3603 37.0713 42.1745C36.9508 42.2955 36.847 42.4322 36.7626 42.5809C34.0213 38.7755 31.2505 37.4861 29.7806 37.0391L29.494 36.9098L29.4095 36.847L29.2184 36.6253H29.2441C29.2107 36.6055 29.1788 36.5833 29.1486 36.5588L28.6672 35.9972C28.4681 35.674 28.3113 35.3263 28.2005 34.9628C28.615 34.5533 28.9067 34.0348 29.042 33.4665C29.223 32.7567 29.2381 32.0144 29.0861 31.2978L28.8031 29.82C28.6635 28.9296 28.5275 28.0245 28.4357 27.2782L28.4063 27.0898L28.3879 26.9752C28.3254 26.5134 28.2777 26.1329 28.2519 25.8669V25.756C28.3035 25.6552 28.334 25.5449 28.3416 25.4318C28.3492 25.3187 28.3337 25.2053 28.296 25.0984C28.2578 25.0364 28.2078 24.9824 28.149 24.9395C28.1022 24.6888 28.0371 24.4418 27.9543 24.2006L28.0792 24.1563C28.6452 23.9409 29.1036 23.5093 29.3543 22.9556C29.4757 22.6819 29.5073 22.3765 29.4446 22.0836C29.3818 21.7907 29.2279 21.5254 29.0052 21.3263C28.8884 21.2368 28.7538 21.1737 28.6105 21.1413C28.4673 21.1088 28.3187 21.1078 28.175 21.1383C28.0313 21.1688 27.8959 21.2301 27.7779 21.318C27.6599 21.4059 27.5621 21.5184 27.4913 21.6477C27.6529 21.4076 28.3328 21.5221 28.1821 21.7696C27.7081 22.5861 26.6755 21.064 25.0145 20.3473C24.3643 20.084 23.6632 19.9728 22.964 20.0221C22.4237 20.0929 21.9007 20.2619 21.4206 20.5209C20.8415 20.8885 20.3638 21.3967 20.0316 21.9987C19.6321 21.9893 19.2374 22.087 18.888 22.2818C18.5386 22.4766 18.2471 22.7614 18.0435 23.1071C17.8455 23.4746 17.7526 23.8902 17.7753 24.3076C17.798 24.725 17.9354 25.1279 18.1721 25.4716C18.378 25.6878 18.5303 25.9498 18.6168 26.2363C18.6281 26.3605 18.6169 26.4856 18.5837 26.6058C18.087 26.5308 17.5864 26.4839 17.0844 26.4654C13.4464 26.2363 12.638 27.6402 12.6123 28.8853C12.3073 28.4124 11.8442 27.8693 11.4363 28.1464C11.0285 28.4235 11.4106 28.8668 12.0243 29.1439C11.6899 29.0552 11.3629 29.0663 11.2894 29.3951C11.1534 29.8754 11.8773 29.7646 12.3918 29.6501C12.3477 29.7203 12.2999 29.7905 12.2595 29.8643C11.5686 31.1537 11.8589 32.5096 12.3955 33.618C12.1795 33.6794 11.9888 33.8089 11.8516 33.9874C10.9219 35.1549 12.6086 36.943 14.0564 36.2041C14.2181 36.4221 14.3467 36.5736 14.4239 36.6844C15.0817 37.5083 15.8938 37.7448 16.592 37.996C16.7984 38.0607 17.0098 38.1077 17.2241 38.1364C17.2241 38.1585 17.2241 38.1807 17.2241 38.2029L17.1322 38.262C17.0293 38.3285 16.9338 38.3987 16.8419 38.4652L16.7904 38.5058C16.7022 38.5723 16.6214 38.6388 16.5442 38.7016C16.4671 38.7681 16.3972 38.8346 16.3311 38.9048L16.287 38.9529C16.2268 39.0172 16.1703 39.0851 16.118 39.1561V39.1819C15.7174 39.5514 15.2691 39.9578 14.8024 40.4491C13.5465 41.7679 12.4499 43.2312 11.5356 44.8087C11.4351 44.9811 11.3359 45.1584 11.2379 45.3407C11.1179 45.5624 10.9954 45.789 10.8704 46.0205C10.7455 46.252 10.634 46.4798 10.536 46.704C10.438 46.9109 10.3425 47.1215 10.2494 47.3357C9.86041 48.2313 9.5242 49.1491 9.24253 50.0845C9.18054 50.3168 9.13147 50.5523 9.09554 50.7901C9.04942 51.0542 9.01752 51.3206 9 51.5881C9 51.6694 9 51.747 9 51.8209C9 51.8948 9 51.9502 9 52.0204C9 52.0906 9 52.061 9 52.0832C9 52.1054 9 52.1866 9.0294 52.2384V52.3086C9.0294 52.364 9.06247 52.4194 9.08084 52.4748L9.10289 52.5339C9.16587 52.6595 9.24494 52.7763 9.33808 52.8812C9.31636 52.9219 9.30739 52.9683 9.31235 53.0142C9.46376 53.4862 9.78832 53.8826 10.22 54.1226C10.4258 54.2519 10.8043 54.1743 11.2416 53.9822C12.9981 54.2999 16.5883 54.4809 19.1827 54.6472L19.2378 54.6989C19.7302 55.2235 18.4845 57.1816 17.812 58.0757C17.8892 58.1459 17.9664 58.2161 18.0472 58.2789C17.6246 58.6484 16.9815 59.3171 17.5915 59.6976C18.103 60.0001 18.6347 60.2667 19.1827 60.4956C19.2764 60.709 19.4452 60.8801 19.6567 60.9759C19.7523 61.0276 19.8662 61.0794 19.9875 61.1311C19.9875 61.1754 19.9654 61.2234 19.9581 61.2789C19.9581 61.301 19.9581 61.3232 19.9581 61.3491C19.9581 61.3749 19.9581 61.423 19.9581 61.4636C19.9581 61.5042 19.9581 61.4858 19.9581 61.4968C19.9581 61.5079 19.9581 61.5596 19.9581 61.5892C19.9581 61.6188 19.9581 61.6926 19.9581 61.7518C19.9581 61.8109 19.9581 61.822 19.9581 61.8589C19.9581 61.8959 19.9581 61.9771 19.9581 62.0436C19.9581 62.1101 19.9581 62.1175 19.9581 62.1582C19.9581 62.1988 19.9581 62.2986 19.9581 62.3724C19.9581 62.4463 19.9581 62.4463 19.9581 62.487C19.9581 62.5276 19.9581 62.5276 19.9581 62.5461C19.9581 62.5646 19.9581 62.6791 19.9581 62.7493C19.9581 62.8195 19.9581 62.8121 19.9581 62.8453C19.9581 62.9746 19.9581 63.1077 19.9801 63.248C20.0169 63.8724 20.0793 64.5892 20.1455 65.3798L20.1859 65.8601C20.3292 67.4894 20.4946 69.3699 20.5791 71.2873C20.5791 71.4794 20.5864 71.6716 20.6011 71.8637C20.6269 72.6321 20.6379 73.4006 20.6305 74.1617C20.6305 74.3587 20.6305 74.5533 20.6305 74.7454C20.6305 75.1148 20.6048 75.4843 20.5828 75.8538C20.573 75.9962 20.5559 76.138 20.5313 76.2786C20.5056 76.4338 20.4725 76.6037 20.4358 76.7996L20.399 77.0027C20.1789 78.2922 20.0805 79.5998 20.105 80.9079C20.105 81.8019 20.1455 82.866 20.2337 84.1369C20.2508 84.3832 20.2704 84.6455 20.2925 84.9238C20.3807 86.01 20.5056 87.2366 20.6599 88.6183C20.8143 90.0001 21.0458 91.5481 21.3177 93.2771H21.6154C21.0752 93.6059 19.778 94.4594 19.778 95.0985C19.778 95.5308 19.9911 95.9593 20.3623 96.0037C20.6315 96.0303 20.9031 95.9922 21.1548 95.8926C21.4065 95.7931 21.6311 95.6349 21.8101 95.431C22.2768 94.7993 22.9125 94.0308 23.2322 93.6724C23.3532 93.5572 23.4365 93.4077 23.4711 93.2439H23.9121C23.873 89.4601 24.0447 85.6772 24.4265 81.9128C24.5037 81.0667 24.5845 80.3167 24.6617 79.6222C24.794 78.451 24.9189 77.4498 25.0292 76.5077V76.4338C25.0537 76.2269 25.077 76.0225 25.099 75.8205C25.1762 75.1333 25.3415 73.8698 25.5363 72.4068V72.307C25.6576 71.3945 25.7862 70.408 25.9038 69.4364C25.9626 68.9893 26.0177 68.5423 26.0728 68.11C26.2676 66.5842 26.4403 65.2061 26.5028 64.3712C26.5041 64.3472 26.5146 64.3247 26.5322 64.3084C26.5492 64.2943 26.5707 64.2865 26.5928 64.2865C26.6149 64.2865 26.6363 64.2943 26.6534 64.3084C26.6628 64.3161 26.6705 64.3257 26.6762 64.3364C26.6819 64.3472 26.6854 64.359 26.6865 64.3712C26.7306 64.7406 26.7894 65.2283 26.8519 65.7603L26.9327 66.4253C26.9878 66.8871 27.0466 67.3785 27.1054 67.9031C27.4104 70.5854 27.7191 73.77 27.6125 75.4547C27.6125 75.7023 27.5648 75.9387 27.528 76.1937C27.5023 76.3562 27.4729 76.5225 27.4435 76.6924C27.3319 77.3025 27.2643 77.9198 27.2414 78.5397C27.2414 78.6628 27.2414 78.786 27.2414 78.9091C27.2441 79.538 27.2858 80.166 27.3663 80.7896C27.9028 85.1307 31.188 92.8818 31.188 92.8818H31.313C31.2909 93.3547 31.2909 94.4335 31.776 94.4594C32.397 94.4926 36.5017 94.8288 36.5532 94.4594C36.6046 94.0899 34.9326 93.1478 33.7677 92.8522C33.6685 92.2463 31.7466 80.6234 31.7907 75.6099C31.8642 67.6113 34.2932 61.4303 31.8642 57.008L31.8127 56.9156C31.7613 56.8233 31.7099 56.7346 31.6511 56.6459L31.5335 56.4686C31.4894 56.4021 31.4489 56.3356 31.4012 56.2728L31.313 56.1546C32.1252 54.5421 32.6913 52.8159 32.9923 51.034C34.227 51.3628 35.2523 51.5069 35.6124 51.2224C35.6964 51.1947 35.7721 51.1464 35.8329 51.082L35.9799 51.2519C36.09 51.3774 36.2372 51.464 36.3999 51.4993C36.5625 51.5345 36.7322 51.5164 36.8839 51.4477L36.9647 51.4071C36.9041 51.5833 36.912 51.7759 36.9868 51.9465C37.0934 52.2003 37.2936 52.4029 37.5453 52.5118C37.7082 52.5505 37.8793 52.5323 38.0304 52.46C39.0226 52.6448 40.6284 52.7852 42.3151 52.8997C42.1556 53.4247 41.9335 53.9283 41.6537 54.3997C41.0519 55.3937 40.5591 56.4503 40.1838 57.5511C40.0174 58.0473 39.886 58.5547 39.7906 59.0695C39.7587 59.2444 39.7318 59.4193 39.7097 59.5942C39.666 59.9471 39.6464 60.3026 39.651 60.6582C39.651 60.8355 39.6608 61.0129 39.6804 61.1902C39.6999 61.3675 39.7244 61.5436 39.7538 61.7185C40.4631 65.5719 41.2678 70.1346 39.6546 73.0976H39.684L39.7685 73.142C40.8976 73.7046 42.0927 74.1217 43.3257 74.3833C42.6459 75.3845 41.7088 76.6 41.3928 77.2244C40.9665 78.0926 39.9633 91.4816 39.9633 91.4816C39.6884 91.7676 39.4307 92.0699 39.1916 92.3867C38.8976 92.6306 38.3758 93.0924 38.295 93.3806C38.1811 93.7833 37.8981 95.5714 38.2031 95.649C38.5081 95.7266 39.5958 94.9101 39.7355 94.5776C39.9984 94.0104 40.1791 93.4082 40.272 92.7894C40.3969 92.3941 40.4704 92.0949 40.4704 92.0949C40.882 90.3215 44.7699 79.286 46.3941 74.7048H46.6917C46.6366 74.8821 46.5742 75.0742 46.5043 75.2368C46.4088 75.4769 46.3316 75.6986 46.2691 75.9018C46.0303 76.6887 45.4901 78.3512 45.6702 79.153C46.3647 82.2601 47.7207 89.941 47.7207 90.0888C47.6295 90.3753 47.5062 90.6504 47.3532 90.9089C47.1819 91.0642 47.0677 91.273 47.029 91.5016C46.9903 91.7302 47.0295 91.9653 47.1401 92.1688C47.19 92.5781 47.2109 92.9904 47.2025 93.4027H47.3495L47.6141 92.2648C47.8493 92.3498 48.1433 93.4877 48.1433 93.4877L51.7849 93.9311C51.7849 93.9311 52.0826 93.6761 51.4395 93.4323C50.9513 93.2255 50.4986 92.9425 50.0982 92.5936C49.5153 91.9163 49.0008 91.1824 48.5622 90.4028C48.1616 85.8585 49.2567 77.7232 49.7895 74.1727C50.6479 73.9037 51.4708 73.5315 52.2406 73.0644C52.2406 73.0644 50.9434 69.7393 51.2962 67.4931C51.6159 65.4537 52.6963 59.6126 49.852 55.0499C49.498 54.512 49.1789 53.9517 48.8966 53.3726C49.4899 53.5617 50.0674 53.7977 50.6237 54.0782L50.8515 54.7506C51.1676 55.6595 57.2088 61.2899 57.2088 61.2899L57.4514 61.0461L57.3999 61.0129L57.6682 60.7469C57.7002 60.8142 57.7248 60.8848 57.7417 60.9574C57.7781 61.2156 57.7929 61.4764 57.7858 61.737C57.5763 61.7998 57.5322 61.9808 57.8409 62.1803C57.8565 62.244 57.8839 62.3042 57.9217 62.3577C58.043 62.5091 58.2635 62.7936 58.4803 63.0966C58.4302 63.0862 58.3785 63.0864 58.3285 63.0972C58.2786 63.108 58.2314 63.1292 58.19 63.1594C57.6204 63.5953 58.7522 63.8983 59.6966 64.2197C59.8657 64.482 61.1849 68.232 61.9639 69.0411C62.6732 69.78 64.7641 71.69 65.6093 72.4548L65.5541 72.5361C65.19 73.0874 64.9401 73.7069 64.8192 74.3575C64.7751 74.6235 64.731 74.919 64.6869 75.2257C64.5987 75.8427 64.5215 76.5077 64.4811 77.1173C64.4811 77.2688 64.4811 77.4165 64.4591 77.5606C64.437 77.7047 64.4591 77.8414 64.4591 77.9707C64.4591 78.1924 64.4591 78.4362 64.4591 78.7096C64.4937 80.1474 64.3254 81.5828 63.9593 82.9731C63.8108 83.4863 63.5799 83.9718 63.2758 84.4103L63.5073 84.4731L63.6727 84.5211L63.7462 84.5433L64.584 84.7908L64.8706 84.8758C65.3557 85.0236 65.9143 85.2009 66.5059 85.4004C65.9216 86.457 64.9882 88.7255 66.9946 92.2981C66.3724 92.4312 65.816 92.7788 65.4219 93.2808C65.3842 93.3332 65.3609 93.3945 65.3541 93.4588C65.3474 93.523 65.3576 93.5879 65.3836 93.647C65.4097 93.7061 65.4506 93.7572 65.5025 93.7954C65.5543 93.8336 65.6152 93.8574 65.6791 93.8645C66.8991 93.8645 68.0566 93.8645 68.663 93.8645C68.7197 93.8593 68.7745 93.8409 68.8229 93.8107C68.8713 93.7806 68.9121 93.7395 68.9421 93.6908C68.972 93.6421 68.9903 93.587 68.9954 93.5299C69.0005 93.4729 68.9924 93.4154 68.9717 93.3621C68.8178 93.0722 68.5861 92.8315 68.3029 92.6675C68.0015 91.0937 67.5863 87.9939 68.5233 86.1356C69.1005 86.345 69.7104 86.4488 70.324 86.4423C71.0773 88.3191 70.6914 91.1786 70.4048 92.6675C70.1216 92.8315 69.8899 93.0722 69.736 93.3621C69.7152 93.4154 69.7071 93.4729 69.7123 93.5299C69.7174 93.587 69.7357 93.6421 69.7656 93.6908C69.7955 93.7395 69.8363 93.7806 69.8848 93.8107C69.9332 93.8409 69.9879 93.8593 70.0447 93.8645C70.651 93.8645 71.8122 93.883 73.0286 93.8645C73.0924 93.8574 73.1533 93.8336 73.2052 93.7954C73.257 93.7572 73.298 93.7061 73.324 93.647C73.3501 93.5879 73.3602 93.523 73.3535 93.4588C73.3468 93.3945 73.3235 93.3332 73.2858 93.2808C72.8916 92.7788 72.3352 92.4312 71.713 92.2981C73.3336 89.4163 73.0396 87.377 72.5545 86.143C74.1787 85.7329 75.7074 84.9497 76.4938 84.1332C76.4938 84.1332 73.5247 80.3611 73.3777 77.7712C73.3372 77.0693 73.3042 76.0385 73.1021 75.7466L72.8816 75.4289C74.1935 77.3353 76.2954 79.9288 76.2403 80.8266C76.1778 81.8537 75.95 83.1061 76.6077 82.744C76.8944 82.5852 76.7621 82.1677 76.8246 82.0753C76.887 81.983 77.2582 82.4448 77.3354 83.3536C77.3978 84.0925 77.8682 83.7896 77.9049 83.1615C77.9527 83.4054 78.0299 83.627 78.1438 83.5716C78.2577 83.5162 78.3973 83.2022 78.3569 82.8549C78.4414 83.0285 78.5407 83.1615 78.6325 83.095C78.7244 83.0285 78.7391 82.6036 78.6325 82.2785C78.7244 82.4115 78.831 82.5187 78.9045 82.4706C79.0955 82.3894 79.0184 81.8056 78.1805 81.329ZM22.8942 34.6451L22.6627 34.7153C22.7256 34.5158 22.7566 34.3075 22.7545 34.0983C22.7418 33.8599 22.7049 33.6234 22.6443 33.3926C22.7692 33.5441 22.9015 33.6845 23.0301 33.8138C22.9934 34.0835 22.964 34.368 22.8942 34.6451ZM33.3194 47.9453C33.5362 48.2446 33.7567 48.5438 33.9772 48.8283C33.7461 48.8826 33.5074 48.8964 33.2716 48.869C33.2973 48.5549 33.312 48.2446 33.3194 47.9306V47.9453ZM14.1446 51.614C14.1827 51.5253 14.2099 51.4322 14.2255 51.3369C14.3945 51.1189 14.5929 50.8862 14.7877 50.646C14.7258 51.0055 14.7745 51.3755 14.9273 51.7064H14.8134C14.5887 51.6907 14.3653 51.6598 14.1446 51.614ZM40.4998 49.9256C40.3198 49.5857 40.1617 49.2606 39.9192 49.2199C39.9861 49.1151 40.027 48.9956 40.0385 48.8715C40.0501 48.7474 40.0318 48.6224 39.9854 48.5069C39.9266 48.3628 39.8641 48.2261 39.8053 48.0857L41.8448 46.5673L41.8705 46.5045C42.0726 47.3173 42.2931 48.0783 42.4401 48.6251C42.5051 48.8879 42.5542 49.1544 42.5871 49.4231C42.6201 49.6928 42.6385 49.9625 42.6459 50.2322C42.6459 50.2655 42.6459 50.2951 42.6459 50.3246C42.3169 50.2573 41.9844 50.2092 41.65 50.1805C41.2506 50.2031 40.8527 50.1149 40.4998 49.9256ZM49.3559 52.2162L48.5181 51.9502C48.5181 51.9502 48.5181 51.9206 48.5181 51.9096C48.5109 51.7865 48.5109 51.6632 48.5181 51.5401C48.5181 51.3295 48.5512 51.1078 48.5806 50.8825C48.61 50.6571 48.643 50.4244 48.6834 50.1916C48.8084 49.4527 48.9848 48.7138 49.1538 48.0488C49.2604 48.5512 49.6646 50.4465 49.9365 51.6436C49.694 51.7682 49.4924 51.9607 49.3559 52.1977V52.2162ZM72.2422 74.3094V74.3353V74.3131V74.3094Z" fill="url(#paint2_linear)"/>
</g>
<defs>
<linearGradient id="paint0_linear" x1="42858.1" y1="11243.7" x2="70618.2" y2="11243.7" gradientUnits="userSpaceOnUse">
<stop stop-color="#D1E332"/>
<stop offset="1" stop-color="#AEB500"/>
</linearGradient>
<linearGradient id="paint1_linear" x1="31728.3" y1="10925.8" x2="52262.4" y2="10925.8" gradientUnits="userSpaceOnUse">
<stop stop-color="#D1E332"/>
<stop offset="1" stop-color="#AEB500"/>
</linearGradient>
<linearGradient id="paint2_linear" x1="43.7262" y1="27.8619" x2="44.224" y2="98.3053" gradientUnits="userSpaceOnUse">
<stop offset="0.01" stop-color="#BF9B90"/>
<stop offset="1" stop-color="#906B70"/>
</linearGradient>
<clipPath id="clip0">
<rect width="70" height="76" fill="white" transform="translate(9 20)"/>
</clipPath>
</defs>
</svg>
