<svg width="102" height="100" viewBox="0 0 102 100" fill="none" xmlns="http://www.w3.org/2000/svg">
<g clip-path="url(#clip0)">
<path d="M17.1998 100H93.7108C93.7108 100 108.391 69.4987 97.4729 56.5117C86.5544 43.5248 99.9249 20.3655 87.3422 8.63834C70.017 -7.49993 54.3577 7.3924 44.1646 7.59716C33.9714 7.80193 24.3249 6.79892 20.476 18.2102C15.428 33.1772 22.8117 46.9155 16.471 54.9986C5.44835 69.0354 17.1998 100 17.1998 100Z" fill="url(#paint0_linear)"/>
<path d="M71.7193 100C71.7193 100 88.1561 82.378 79.9811 69.6722C71.8061 56.9663 61.3301 75.6815 58.5189 65.6047C55.7077 55.5278 85.8186 9.73501 53.6254 1.16958C21.4321 -7.39585 38.2854 33.6387 33.3935 40.1149C27.8996 47.3944 10.5206 28.0285 17.552 58.889C23.0651 83.1034 14.4007 71.3832 11.1644 79.0428C7.1194 88.6112 14.9109 100 14.9109 100H71.7193Z" fill="url(#paint1_linear)"/>
<path d="M10 84.7883C10 84.5974 10.0104 84.4048 10.0191 84.2139C13.2936 85.4061 16.5594 84.4864 17.5416 84.1515C16.1534 81.4878 14.5586 78.9751 12.7348 76.851C12.8651 76.7493 13.0012 76.6555 13.1426 76.5699C16.2436 80.2262 18.6956 84.9792 20.5645 89.668C20.4569 87.065 19.8704 80.7346 16.8544 75.4923C17.0101 75.4459 17.163 75.3908 17.3125 75.3275C21.1909 82.1958 21.0434 90.7716 21.04 90.8844C22.2807 94.1416 23.2455 97.305 23.9691 99.9999H23.5006C22.3033 95.5697 20.4465 89.8554 17.8019 84.6425C16.4282 85.1155 14.9859 85.3588 13.5331 85.3627C12.3314 85.3714 11.137 85.1772 10 84.7883H10Z" fill="#AEB500"/>
<path d="M30.0913 77.5227C29.0744 77.4637 24.5748 76.9934 19.0201 73.3267C19.0722 73.1532 19.1173 72.9797 19.1589 72.7836C24.5175 76.3444 28.8766 76.8789 30.0167 76.957C29.654 74.3072 29.2167 71.6505 28.6892 69.0597C27.6758 68.9191 22.8499 68.1191 18.8101 65.1865C18.7696 64.9377 18.7268 64.6827 18.6817 64.4212C22.4994 67.3417 27.2697 68.2684 28.5729 68.4749C27.058 61.2491 24.8316 54.5925 21.5658 50.19C19.8374 47.8682 18.3294 45.2063 16.9863 42.3586C17.0846 42.2102 17.193 42.0687 17.3108 41.9352C18.647 44.8019 20.1671 47.4882 21.8937 49.8117C24.0958 52.7826 25.8294 56.7529 27.1951 61.2317C27.4398 57.7108 27.9447 47.0561 25.6489 41.4337L26.1955 41.5413C28.8297 48.5241 27.6185 61.7835 27.5543 62.4534C31.1116 74.9336 31.9758 90.8446 32.158 100H31.7051C31.5941 94.303 31.2175 85.9857 30.0913 77.5227Z" fill="#AEB500"/>
<path d="M58.5502 92.8904C58.5502 91.7868 58.5745 77.1756 62.0451 68.6882C62.2318 68.6645 62.4172 68.6309 62.6004 68.5876C59.5046 75.8325 59.0725 88.3266 59.0135 91.9343C61.79 86.3657 65.4064 81.3976 69.0904 77.1843C68.9759 76.3756 68.2974 71.0778 69.309 65.7851C69.4733 65.7261 69.6387 65.6683 69.8053 65.6116C68.8336 70.3767 69.3073 75.2459 69.4912 76.7261C72.3193 73.5552 75.3565 70.5771 78.5825 67.8119C78.6953 67.9369 78.8081 68.067 78.9191 68.2041C74.8426 71.6864 71.0762 75.5162 67.6622 79.6501C68.8058 80.5924 74.0447 84.4951 81.3711 83.5354C81.3156 83.7298 81.2577 83.923 81.1976 84.115C80.4922 84.2007 79.7824 84.2447 79.0718 84.2469C72.6894 84.2469 68.2574 80.8301 67.3308 80.0527C66.602 80.9527 65.8841 81.8829 65.1773 82.8431C65.894 84.0179 69.9927 90.1417 78.0428 91.2089C77.9433 91.3836 77.8432 91.5571 77.7426 91.7295C69.8765 90.5721 65.7499 84.6773 64.8667 83.2647C61.3058 88.1791 58.1632 93.8188 56.2874 100.005H55.8119C56.5424 97.5674 57.4578 95.1889 58.5502 92.8904Z" fill="#AEB500"/>
<path d="M43.3177 100C43.3177 96.5572 43.3733 92.6979 43.5347 88.5366H43.5242C43.4843 88.1896 39.7968 56.831 29.4232 41.9005C29.6158 41.9005 29.8067 41.8884 29.9941 41.8727C38.5856 54.5734 42.549 78.2897 43.6457 85.9805C44.031 77.8732 44.8153 68.8011 46.2851 59.604C46.2261 59.5051 46.1498 59.3645 46.0404 59.165C43.054 53.7335 38.2489 45.4423 33.7198 39.5648C33.8016 39.3925 33.8723 39.2151 33.9315 39.0338C38.5231 44.9564 43.3924 53.3483 46.41 58.8388C46.7571 56.709 47.1441 54.578 47.571 52.4459C49.2733 43.9586 50.0091 35.4973 50.1739 27.678C48.6538 27.678 40.3955 27.4437 33.5289 23.7094C33.5116 23.4977 33.496 23.2842 33.4803 23.0725C40.3174 26.8902 48.7041 27.1088 50.1843 27.1192C50.2589 23.1177 50.1843 19.2931 50.0108 15.7218C48.6364 15.1544 39.6632 11.3506 34.7749 6.8718C34.8443 6.69827 34.9137 6.52474 34.9901 6.36682C39.6025 10.6096 48.1783 14.3579 49.983 15.1197C49.695 9.31683 49.1657 4.21853 48.6364 0.196106C48.7909 0.215194 48.9453 0.232547 49.1032 0.255106C49.9898 7.06634 50.499 13.9214 50.6286 20.7889C56.7958 19.8119 63.0706 15.2359 66.9872 11.8521C67.0566 12.0256 67.1295 12.1853 67.1937 12.3571C63.2216 15.7756 56.8808 20.3828 50.639 21.3546C50.7639 29.6597 50.3214 38.9783 48.7527 48.4565C50.6303 47.7207 59.338 44.1581 65.4324 39.0859C65.3421 39.3936 65.2507 39.7007 65.1582 40.0073C58.722 45.1715 49.9032 48.6074 48.6468 49.0812C48.449 50.245 48.2344 51.4111 48.003 52.5795C46.3892 60.6209 45.3602 68.7456 44.7199 76.3774C45.9242 74.3124 49.4607 69.5525 58.3645 64.7388C58.3828 64.9293 58.4112 65.1187 58.4495 65.3062C47.748 71.1333 44.9142 76.9431 44.6192 77.6112C43.9581 85.9736 43.7602 93.6939 43.7637 99.9965L43.3177 100Z" fill="#AEB500"/>
<path d="M28.3364 17.7548C29.3351 17.618 30.2695 17.1836 31.0178 16.5081C31.7661 15.8326 32.2936 14.9473 32.5315 13.9677L32.608 13.8594C31.6006 12.8265 31.8557 10.9521 32.9586 10.9776C33.1955 11.0067 33.4217 11.0933 33.6173 11.23C33.8129 11.3668 33.972 11.5493 34.0807 11.7618C34.3485 11.7172 34.2019 10.6652 34.2019 10.3911C34.2528 9.94336 34.3914 9.51007 34.6099 9.11597C35.1327 12.9795 35.885 15.0516 33.6854 16.9387C33.2129 17.3411 32.6644 17.6446 32.0724 17.8313C31.2564 19.4634 31.3711 20.4389 30.3383 21.6566C30.0111 21.8738 29.6204 21.9748 29.229 21.9435C27.9538 21.9435 26.3408 22.0965 25.4036 21.1274C25.0721 20.7832 26.6787 18.2393 26.9019 17.8122C26.9822 17.6371 27.0483 17.4559 27.0995 17.2703C27.5777 17.5189 27.7562 17.8313 28.3364 17.7548Z" fill="#FF9985"/>
<path d="M21.3105 10.3656C21.03 9.16698 22.4709 8.45292 22.5537 7.24157C22.592 6.6869 22.3306 6.0366 22.6175 5.59031C23.0638 4.90813 24.3963 5.35442 24.7533 4.60848C24.8872 4.32796 24.8171 3.97093 24.9254 3.66491C24.9927 3.49479 25.1202 3.35534 25.2836 3.27305C25.447 3.19077 25.6349 3.1714 25.8116 3.21862C26.0667 3.28238 26.3153 3.47364 26.5639 3.43539C26.8126 3.39714 27.0102 2.98273 26.9911 2.63845C26.9263 2.30882 26.9134 1.9711 26.9529 1.63749C27.0471 1.40229 27.2276 1.21194 27.4575 1.1053C27.6873 0.998663 27.9492 0.983782 28.1897 1.0637C29.4648 1.3761 30.0577 2.38343 31.6771 3.03373C32.5761 3.39076 34.0297 4.11119 34.5142 4.88263C35.0485 5.85397 35.233 6.97929 35.037 8.07039C34.8904 8.75257 34.2018 9.72165 34.2082 10.4357C34.2082 10.7099 34.3548 11.7618 34.0871 11.8064C33.2009 10.3783 31.76 11.0414 32.0023 12.648C32.0749 13.1297 32.2981 13.576 32.6398 13.9231L32.5633 14.0315C32.3246 15.0107 31.7969 15.8955 31.0488 16.5709C30.3006 17.2462 29.3667 17.681 28.3682 17.8186C28.1825 17.8464 27.9927 17.8221 27.8199 17.7484C26.9656 17.3723 27.5522 17.181 25.7224 16.9642C25.2402 16.9408 24.7847 16.7358 24.4473 16.3904C24.1733 15.9352 24.0801 15.3937 24.1859 14.8731C22.9108 14.0889 23.4399 13.8211 23.1467 12.8775C22.8534 11.934 21.54 11.341 21.3105 10.3656Z" fill="#FFD176"/>
<path d="M69.4457 29.728V42.3643H67.9857V31.188C67.9857 30.9963 68.0235 30.8064 68.0969 30.6293C68.1702 30.4522 68.2778 30.2912 68.4133 30.1556C68.5489 30.0201 68.7099 29.9125 68.887 29.8392C69.0641 29.7658 69.254 29.728 69.4457 29.728Z" fill="#26182D"/>
<path d="M67.9857 36.5817H55.1199V42.358H67.9857V36.5817Z" fill="#452A51"/>
<path d="M82.3562 10.0085H45.9201C45.2617 10.0085 44.7279 10.5423 44.7279 11.2008V37.6337C44.7279 38.2921 45.2617 38.8259 45.9201 38.8259H82.3562C83.0147 38.8259 83.5484 38.2921 83.5484 37.6337V11.2008C83.5484 10.5423 83.0147 10.0085 82.3562 10.0085Z" fill="#26182D"/>
<path d="M80.5072 10.0085H44.0711C43.4127 10.0085 42.8789 10.5423 42.8789 11.2008V37.6337C42.8789 38.2921 43.4127 38.8259 44.0711 38.8259H80.5072C81.1657 38.8259 81.6994 38.2921 81.6994 37.6337V11.2008C81.6994 10.5423 81.1657 10.0085 80.5072 10.0085Z" fill="#452A51"/>
<path d="M80.0354 11.2007H44.7214C44.6162 11.199 44.5118 11.2182 44.414 11.2571C44.3163 11.296 44.2272 11.3539 44.1519 11.4273C44.0766 11.5008 44.0167 11.5885 43.9754 11.6853C43.9342 11.7821 43.9126 11.8861 43.9117 11.9913V35.9951C43.9126 36.1003 43.9342 36.2043 43.9754 36.3011C44.0167 36.3979 44.0766 36.4856 44.1519 36.5591C44.2272 36.6326 44.3163 36.6904 44.414 36.7293C44.5118 36.7682 44.6162 36.7874 44.7214 36.7857H80.0354C80.1406 36.7874 80.2451 36.7682 80.3428 36.7293C80.4406 36.6904 80.5297 36.6326 80.6049 36.5591C80.6802 36.4856 80.7402 36.3979 80.7814 36.3011C80.8226 36.2043 80.8443 36.1003 80.8451 35.9951V11.9849C80.8435 11.8803 80.8212 11.7769 80.7796 11.6809C80.738 11.5848 80.6779 11.4979 80.6027 11.4251C80.5275 11.3523 80.4387 11.295 80.3414 11.2565C80.2441 11.218 80.1401 11.199 80.0354 11.2007Z" fill="#DCF1FF"/>
<path d="M80.1948 14.4906C80.1948 14.2521 80.1001 14.0235 79.9315 13.8549C79.7629 13.6863 79.5343 13.5916 79.2959 13.5916H45.5056C45.2672 13.5916 45.0386 13.6863 44.87 13.8549C44.7014 14.0235 44.6067 14.2521 44.6067 14.4906V15.0261H80.1948V14.4906Z" fill="#452A51"/>
<path d="M44.6002 15.0261V32.2974C44.6002 32.5358 44.6949 32.7645 44.8635 32.9331C45.0321 33.1016 45.2608 33.1964 45.4992 33.1964H79.2894C79.5278 33.1964 79.7565 33.1016 79.9251 32.9331C80.0936 32.7645 80.1884 32.5358 80.1884 32.2974V15.0261H44.6002Z" fill="white"/>
<path d="M77.0071 14.6946C77.2219 14.6946 77.396 14.5205 77.396 14.3057C77.396 14.0909 77.2219 13.9168 77.0071 13.9168C76.7923 13.9168 76.6182 14.0909 76.6182 14.3057C76.6182 14.5205 76.7923 14.6946 77.0071 14.6946Z" fill="white"/>
<path d="M78.0144 14.6946C78.2292 14.6946 78.4033 14.5205 78.4033 14.3057C78.4033 14.0909 78.2292 13.9168 78.0144 13.9168C77.7996 13.9168 77.6255 14.0909 77.6255 14.3057C77.6255 14.5205 77.7996 14.6946 78.0144 14.6946Z" fill="white"/>
<path d="M79.0282 14.6946C79.243 14.6946 79.4171 14.5205 79.4171 14.3057C79.4171 14.0909 79.243 13.9168 79.0282 13.9168C78.8134 13.9168 78.6393 14.0909 78.6393 14.3057C78.6393 14.5205 78.8134 14.6946 79.0282 14.6946Z" fill="white"/>
<path d="M28.7763 90.7163L27.4183 97.8887L30.7399 98.1565L32.6781 90.5887L28.7763 90.7163Z" fill="#FF9985"/>
<path d="M45.7225 90.3975L44.3708 97.5699L47.6861 97.8377L49.6307 90.27L45.7225 90.3975Z" fill="#FF9985"/>
<path d="M57.9825 42.2049H63.6823C62.6303 39.6037 59.0345 39.795 59.0345 39.795L57.9825 42.2049Z" fill="#FF9985"/>
<path d="M21.5402 100.949H22.9747L28.0432 45.1632H26.6087L21.5402 100.949Z" fill="#452A51"/>
<path d="M6.02209 100.815H7.45659L12.5315 45.0293H11.097L6.02209 100.815Z" fill="#452A51"/>
<path d="M44.3579 96.6328C46.6659 96.875 51.6579 98.6283 51.6579 98.6283C53.3092 99.1638 52.729 100.796 50.8801 100.821L43.867 100.923C43.5291 100.923 43.2741 100.732 43.3251 100.515L44.3006 96.7603C44.3094 96.7138 44.329 96.6701 44.3579 96.6328Z" fill="#5F4070"/>
<path d="M27.6733 96.5244C29.9812 96.7666 34.9732 98.5199 34.9732 98.5199C36.6245 99.0554 36.0443 100.688 34.1954 100.713L27.1823 100.815C26.8444 100.815 26.5894 100.624 26.6404 100.407L27.5967 96.6327C27.6138 96.5913 27.64 96.5543 27.6733 96.5244Z" fill="#5F4070"/>
<path d="M36.2483 37.3404C36.2483 37.3404 31.3902 31.8128 30.4147 29.4539L29.1077 26.3171C27.1951 21.7204 34.8457 20.6748 36.8221 25.2907C37.7274 27.4392 41.0299 32.7245 41.0299 32.7245L41.7376 33.5151C44.9254 36.9005 53.2136 37.6719 58.314 37.978C58.4619 37.9875 58.6063 38.0267 58.7387 38.0933C58.8711 38.1599 58.9887 38.2525 59.0845 38.3656C59.1803 38.4787 59.2524 38.6099 59.2963 38.7514C59.3403 38.8929 59.3553 39.0419 59.3404 39.1893L59.1045 41.2103C59.0758 41.4893 58.943 41.7471 58.7327 41.9326C58.5224 42.1181 58.25 42.2176 57.9697 42.2113C40.1947 41.7395 39.5954 39.9735 36.2483 37.3404Z" fill="#FBE9DC"/>
<path d="M89.7071 42.1794H10.0131C9.32452 42.1794 8.73798 42.5301 8.73798 42.9573V44.4364C8.73798 44.8635 9.29902 45.2142 10.0131 45.2142H89.7071C90.3956 45.2142 90.9822 44.8635 90.9822 44.4364V42.9573C90.9822 42.5301 90.4211 42.1794 89.7071 42.1794Z" fill="#452A51"/>
<path d="M33.0032 61.1083L33.4112 62.2049C33.2072 64.4364 29.9939 71.832 29.5221 76.671C28.993 82.1412 27.1122 84.7806 25.8753 91.0478C25.8065 91.3937 25.8152 91.7506 25.901 92.0927C25.9867 92.4348 26.1472 92.7537 26.371 93.0262C26.5948 93.2988 26.8763 93.5184 27.1952 93.6691C27.5141 93.8197 27.8624 93.8978 28.2151 93.8976H28.2534L32.7163 93.8275C33.2203 93.8259 33.7109 93.6646 34.1175 93.3668C34.5241 93.0689 34.8259 92.6499 34.9796 92.1699C37.5298 84.1176 39.6783 78.4051 41.4061 73.8147C42.6427 70.7874 43.707 67.6924 44.5939 64.5447L44.7469 63.9072L33.0032 61.1083Z" fill="#2C2655"/>
<path d="M53.7238 57.8377H53.6792C44.0776 53.6426 28.7254 55.0261 22.5794 55.8294L21.8908 55.9186V55.9888C20.3798 56.2374 16.1529 56.6709 14.6737 56.2629L13.7174 56.0015L14.5526 61.4781C14.8684 63.5727 15.8935 65.4954 17.4566 66.9251C19.0197 68.3547 21.026 69.2046 23.1404 69.3327C24.1498 69.4018 25.1633 69.3805 26.1688 69.269C32.3658 68.4975 40.0228 67.5476 46.4748 68.2999C46.2772 69.4156 44.8427 72.6607 44.9192 77.283C45.0403 84.2578 43.4656 85.8963 42.9683 92.0296C42.8854 93.0369 43.3572 93.904 44.5622 93.904L49.7455 94.057C50.1921 94.0745 50.6302 93.9319 50.9809 93.6548C51.3316 93.3778 51.5718 92.9845 51.6581 92.546C53.762 81.9563 56.5928 70.3719 57.734 65.9091C58.157 64.3062 57.9836 62.6042 57.2459 61.1196C56.5083 59.635 55.2567 58.4688 53.7238 57.8377Z" fill="#2C2655"/>
<path d="M12.1935 54.2418H9.09498C8.32445 54.2401 7.58596 53.9333 7.04111 53.3885C6.49627 52.8436 6.18943 52.1051 6.18774 51.3346V47.3626C6.18774 47.1936 6.25491 47.0314 6.37448 46.9118C6.49404 46.7923 6.65621 46.7251 6.8253 46.7251C6.99439 46.7251 7.15655 46.7923 7.27611 46.9118C7.39568 47.0314 7.46285 47.1936 7.46285 47.3626V51.3346C7.46453 51.7669 7.63702 52.1811 7.94274 52.4868C8.24846 52.7926 8.66263 52.9651 9.09498 52.9667H12.1871C12.3562 52.9667 12.5184 53.0339 12.6379 53.1535C12.7575 53.273 12.8247 53.4352 12.8247 53.6043C12.8247 53.7734 12.7575 53.9355 12.6379 54.0551C12.5184 54.1747 12.3562 54.2418 12.1871 54.2418H12.1935Z" fill="#928DF4"/>
<path d="M87.2844 35.4915H82.1968V42.1539H87.2844V35.4915Z" fill="#FFD176"/>
<path d="M82.624 40.101H81.7442C81.4517 40.101 81.1711 39.9848 80.9643 39.7779C80.7574 39.5711 80.6412 39.2906 80.6412 38.998V38.1756C80.6412 37.8831 80.7574 37.6025 80.9643 37.3957C81.1711 37.1888 81.4517 37.0726 81.7442 37.0726H82.624V36.6263H81.7442C81.3338 36.628 80.9407 36.7918 80.6506 37.082C80.3604 37.3721 80.1966 37.7652 80.1949 38.1756V38.998C80.2016 39.4051 80.3676 39.7933 80.6572 40.0794C80.9469 40.3654 81.3371 40.5265 81.7442 40.5282H82.624V40.101Z" fill="#FFD176"/>
<path d="M17.8295 30.8373L17.549 30.6843C19.8314 26.4446 22.1266 23.0656 23.4017 22.0837C24.4154 21.2932 26.0412 20.6811 28.228 20.2667L28.2854 20.5791C26.1496 20.9872 24.5685 21.5737 23.593 22.3324C22.3562 23.3142 20.0928 26.6295 17.8295 30.8373Z" fill="#7A75CA"/>
<path d="M77.0262 100.203H75.5917L70.5232 44.4172H71.9577L77.0262 100.203Z" fill="#452A51"/>
<path d="M92.5442 100.311H91.1097L86.0348 44.5256H87.4693L92.5442 100.311Z" fill="#452A51"/>
<path d="M46.8892 68.912V97.2065C46.8809 97.8719 46.613 98.5076 46.1425 98.9781C45.672 99.4486 45.0362 99.7166 44.3709 99.7249H15.5216C15.3526 99.7249 15.1904 99.792 15.0708 99.9116C14.9513 100.031 14.8841 100.193 14.8841 100.362C14.8841 100.532 14.9513 100.694 15.0708 100.813C15.1904 100.933 15.3526 101 15.5216 101H44.3772C45.3807 100.992 46.3408 100.589 47.0504 99.8797C47.76 99.1701 48.1623 98.21 48.1707 97.2065V68.912H46.8892Z" fill="#BDE4F9"/>
<path d="M89.4585 42.1794H68.2535C67.3992 42.1794 66.6979 42.5301 66.6979 42.9573V44.4364C66.6979 44.8635 67.3992 45.2142 68.2535 45.2142H89.4585C90.3128 45.2142 91.0141 44.8635 91.0141 44.4364V42.9573C90.9822 42.5301 90.3128 42.1794 89.4585 42.1794Z" fill="#26182D"/>
<path d="M36.4907 24.6403C36.4907 24.6403 31.7983 15.3385 18.8943 23.1293C18.2808 23.5372 17.7272 24.0286 17.2494 24.5893C16.5417 25.4309 15.3367 28.4146 15.1008 29.6069C14.7884 31.0286 16.3759 33.8466 16.4907 35.2747C16.8095 39.7376 15.987 43.1931 15.5344 47.1969C15.3431 49.0267 14.2019 52.7755 13.6217 55.1854C13.471 55.8328 13.413 56.4982 13.4496 57.1619C13.5261 58.4752 13.2328 60.3496 14.0043 60.9043C15.0307 61.6311 16.9434 61.5418 21.1767 61.8989C25.1997 62.2686 25.9073 58.5007 33.3221 57.5763C35.8723 57.2575 37.0071 55.4213 36.8031 54.4395C34.7821 44.7168 36.733 43.9645 37.1028 30.6333C37.2813 29.9958 37.6447 26.6678 36.4907 24.6403Z" fill="#FBE9DC"/>
<path d="M48.1707 69.8045H14.1828L13.4751 67.7325H47.2653C47.5105 67.7325 47.7457 67.8299 47.919 68.0032C48.0924 68.1766 48.1898 68.4118 48.1898 68.6569L48.1707 69.8045Z" fill="#BDE4F9"/>
<path d="M14.4059 69.8108V69.779L12.1936 54.2418C12.1815 54.1581 12.153 54.0776 12.1097 54.0049C12.0665 53.9322 12.0093 53.8687 11.9415 53.8181C11.8737 53.7675 11.7967 53.7307 11.7147 53.7099C11.6327 53.6891 11.5474 53.6846 11.4636 53.6967C11.3799 53.7089 11.2994 53.7374 11.2267 53.7806C11.154 53.8239 11.0905 53.881 11.0399 53.9488C10.9893 54.0166 10.9525 54.0937 10.9317 54.1757C10.9109 54.2577 10.9064 54.343 10.9185 54.4267L12.9842 68.7461C13.0332 69.0392 13.1829 69.3059 13.4075 69.5003C13.6322 69.6947 13.9177 69.8045 14.2147 69.8108H14.4059Z" fill="#BDE4F9"/>
<path d="M30.4594 68.5804L28.5021 53.9805C28.4908 53.8968 28.4632 53.8161 28.4207 53.7431C28.3782 53.67 28.3217 53.6061 28.2545 53.5549C28.1874 53.5037 28.1107 53.4662 28.0291 53.4446C27.9474 53.423 27.8622 53.4177 27.7785 53.429C27.6948 53.4403 27.6141 53.468 27.5411 53.5105C27.4681 53.553 27.4041 53.6094 27.3529 53.6766C27.3017 53.7438 27.2642 53.8204 27.2426 53.9021C27.221 53.9838 27.2157 54.0689 27.227 54.1526L29.1716 68.5804H30.4594Z" fill="#BDE4F9"/>
<path d="M7.74972 55.5744H29.6433C30.0796 55.5746 30.511 55.4825 30.9092 55.304C31.3074 55.1256 31.6633 54.865 31.9535 54.5392C32.2438 54.2134 32.4618 53.8299 32.5933 53.4138C32.7247 52.9978 32.7666 52.5586 32.7163 52.1252L30.4784 32.8775C30.2425 30.8246 28.5084 29.1478 26.6531 29.1478H8.10038C6.18772 29.1415 4.87436 30.8182 5.11026 32.8775L7.74972 55.5744Z" fill="#5F4070"/>
<path d="M8.89104 55.5744H27.8646C28.2674 55.5745 28.6657 55.4892 29.0332 55.3242C29.4007 55.1591 29.729 54.918 29.9965 54.6168C30.264 54.3156 30.4646 53.961 30.585 53.5766C30.7055 53.1922 30.7431 52.7866 30.6953 52.3866L28.4001 32.8775C28.1642 30.8246 26.4301 29.1478 24.5748 29.1478H6.00931C4.1349 29.1415 2.78967 30.8182 3.00006 32.8775L5.29525 52.3739C5.39836 53.2552 5.82151 54.0681 6.48437 54.6581C7.14723 55.2481 8.00365 55.5741 8.89104 55.5744Z" fill="#2C2655"/>
<path d="M49.5413 41.9563C40.8451 41.2549 39.2321 39.8906 37.0071 38.0736L36.2356 37.436C36.1719 37.3723 32.0979 32.7373 30.6634 30.1679C30.6534 30.1495 30.6471 30.1293 30.6448 30.1084C30.6426 30.0876 30.6445 30.0665 30.6504 30.0463C30.6563 30.0262 30.6662 30.0074 30.6793 29.9911C30.6925 29.9748 30.7088 29.9612 30.7272 29.9511C30.7456 29.9411 30.7658 29.9348 30.7867 29.9325C30.8075 29.9303 30.8286 29.9322 30.8488 29.9381C30.8689 29.9441 30.8877 29.9539 30.904 29.9671C30.9203 29.9802 30.9339 29.9965 30.944 30.0149C32.3593 32.5651 36.4141 37.1619 36.4588 37.2065C36.7138 37.4041 36.9688 37.6145 37.2175 37.844C39.4043 39.6547 40.979 40.9617 49.535 41.6694C49.5772 41.6694 49.6178 41.6861 49.6477 41.716C49.6776 41.7459 49.6943 41.7865 49.6943 41.8287C49.6943 41.871 49.6776 41.9116 49.6477 41.9414C49.6178 41.9713 49.5772 41.9881 49.535 41.9881L49.5413 41.9563Z" fill="#F9D7C0"/>
<path d="M76.2802 31.8128H66.3408V26.2343H69.5796V25.2269H64.205V31.5514H46.7935V16.3012H64.205V18.3222H78.0207V25.2269H73.2901V26.2343H76.2675L76.2802 31.8128ZM66.6659 31.4941H75.9614V26.553H72.9841V24.9082H77.7147V18.641H63.899V16.62H47.1122V31.2327H63.899V24.9082H69.9047V26.553H66.6596L66.6659 31.4941Z" fill="#452A51"/>
<path d="M54.0041 28.4147C53.9618 28.4147 53.9213 28.3979 53.8914 28.368C53.8615 28.3381 53.8447 28.2976 53.8447 28.2553V16.4989C53.8447 16.4566 53.8615 16.4161 53.8914 16.3862C53.9213 16.3563 53.9618 16.3395 54.0041 16.3395C54.0464 16.3395 54.0869 16.3563 54.1168 16.3862C54.1467 16.4161 54.1635 16.4566 54.1635 16.4989V28.2553C54.1635 28.2976 54.1467 28.3381 54.1168 28.368C54.0869 28.3979 54.0464 28.4147 54.0041 28.4147Z" fill="#452A51"/>
<path d="M64.0583 19.9672C64.016 19.9672 63.9755 19.9504 63.9456 19.9205C63.9157 19.8906 63.8989 19.8501 63.8989 19.8078V18.5327C63.8989 18.4904 63.9157 18.4499 63.9456 18.42C63.9755 18.3901 64.016 18.3733 64.0583 18.3733C64.1006 18.3733 64.1411 18.3901 64.171 18.42C64.2009 18.4499 64.2177 18.4904 64.2177 18.5327V19.8078C64.2177 19.8501 64.2009 19.8906 64.171 19.9205C64.1411 19.9504 64.1006 19.9672 64.0583 19.9672Z" fill="#452A51"/>
<path d="M64.0583 25.2269C64.016 25.2269 63.9755 25.2101 63.9456 25.1803C63.9157 25.1504 63.8989 25.1098 63.8989 25.0676V23.7924C63.8989 23.7502 63.9157 23.7096 63.9456 23.6797C63.9755 23.6498 64.016 23.6331 64.0583 23.6331C64.1006 23.6331 64.1411 23.6498 64.171 23.6797C64.2009 23.7096 64.2177 23.7502 64.2177 23.7924V25.0676C64.2177 25.1098 64.2009 25.1504 64.171 25.1803C64.1411 25.2101 64.1006 25.2269 64.0583 25.2269Z" fill="#452A51"/>
<path d="M70.249 31.7045C70.2067 31.7045 70.1662 31.6877 70.1363 31.6578C70.1064 31.6279 70.0896 31.5873 70.0896 31.5451V30.831C70.0896 30.7887 70.1064 30.7482 70.1363 30.7183C70.1662 30.6884 70.2067 30.6716 70.249 30.6716C70.2913 30.6716 70.3318 30.6884 70.3617 30.7183C70.3916 30.7482 70.4084 30.7887 70.4084 30.831V31.5451C70.4084 31.5873 70.3916 31.6279 70.3617 31.6578C70.3318 31.6877 70.2913 31.7045 70.249 31.7045Z" fill="#452A51"/>
<path d="M67.3036 31.7045C67.2613 31.7045 67.2207 31.6877 67.1908 31.6578C67.161 31.6279 67.1442 31.5873 67.1442 31.5451V30.831C67.1442 30.7887 67.161 30.7482 67.1908 30.7183C67.2207 30.6884 67.2613 30.6716 67.3036 30.6716C67.3458 30.6716 67.3864 30.6884 67.4163 30.7183C67.4461 30.7482 67.4629 30.7887 67.4629 30.831V31.5451C67.4629 31.5873 67.4461 31.6279 67.4163 31.6578C67.3864 31.6877 67.3458 31.7045 67.3036 31.7045Z" fill="#452A51"/>
<path d="M53.9383 28.0484L51.6249 30.2415L51.9538 30.5885L54.2673 28.3954L53.9383 28.0484Z" fill="#452A51"/>
<path d="M64.2725 19.7227L63.9435 20.0696L66.2566 22.2631L66.5856 21.9162L64.2725 19.7227Z" fill="#452A51"/>
<path d="M69.9494 26.18L69.6204 26.527L71.9334 28.7205L72.2625 28.3735L69.9494 26.18Z" fill="#452A51"/>
<path d="M73.8385 18.8514C73.8187 18.85 73.8001 18.8414 73.786 18.8274C73.772 18.8133 73.7634 18.7947 73.762 18.7749V18.5327C73.7669 18.5153 73.7774 18.5001 73.7917 18.4892C73.8061 18.4784 73.8236 18.4725 73.8417 18.4725C73.8597 18.4725 73.8772 18.4784 73.8916 18.4892C73.9059 18.5001 73.9164 18.5153 73.9213 18.5327V18.7749C73.9197 18.7958 73.9103 18.8153 73.8949 18.8295C73.8796 18.8436 73.8594 18.8515 73.8385 18.8514Z" fill="#452A51"/>
<path d="M73.8385 23.5629C73.8187 23.5614 73.8001 23.5529 73.786 23.5388C73.772 23.5248 73.7634 23.5062 73.762 23.4864V23.0146C73.7669 22.9973 73.7774 22.982 73.7917 22.9712C73.8061 22.9603 73.8236 22.9545 73.8417 22.9545C73.8597 22.9545 73.8772 22.9603 73.8916 22.9712C73.906 22.982 73.9164 22.9973 73.9214 23.0146V23.4864C73.9197 23.5072 73.9103 23.5267 73.8949 23.5409C73.8796 23.5551 73.8594 23.563 73.8385 23.5629ZM73.8385 22.6193C73.8187 22.6178 73.8001 22.6093 73.786 22.5953C73.772 22.5812 73.7634 22.5626 73.762 22.5428V22.0391C73.7669 22.0218 73.7774 22.0066 73.7917 21.9957C73.8061 21.9849 73.8236 21.979 73.8417 21.979C73.8597 21.979 73.8772 21.9849 73.8916 21.9957C73.906 22.0066 73.9164 22.0218 73.9214 22.0391V22.5109C73.9255 22.5237 73.9265 22.5373 73.9242 22.5505C73.922 22.5637 73.9165 22.5762 73.9084 22.5869C73.9002 22.5975 73.8896 22.6061 73.8774 22.6117C73.8652 22.6174 73.8519 22.62 73.8385 22.6193ZM73.8385 21.6757C73.8187 21.6743 73.8001 21.6657 73.786 21.6517C73.772 21.6376 73.7634 21.619 73.762 21.5992V21.1274C73.7669 21.1101 73.7774 21.0949 73.7917 21.084C73.8061 21.0732 73.8236 21.0673 73.8417 21.0673C73.8597 21.0673 73.8772 21.0732 73.8916 21.084C73.906 21.0949 73.9164 21.1101 73.9214 21.1274V21.5992C73.9197 21.6201 73.9103 21.6396 73.8949 21.6538C73.8796 21.668 73.8594 21.6758 73.8385 21.6757ZM73.8385 20.7322C73.8187 20.7307 73.8001 20.7222 73.786 20.7081C73.772 20.6941 73.7634 20.6755 73.762 20.6557V20.1839C73.7669 20.1665 73.7774 20.1513 73.7917 20.1405C73.8061 20.1296 73.8236 20.1238 73.8417 20.1238C73.8597 20.1238 73.8772 20.1296 73.8916 20.1405C73.906 20.1513 73.9164 20.1665 73.9214 20.1839V20.6557C73.9255 20.6684 73.9265 20.682 73.9242 20.6952C73.922 20.7085 73.9165 20.7209 73.9084 20.7316C73.9002 20.7423 73.8896 20.7508 73.8774 20.7564C73.8652 20.7621 73.8519 20.7647 73.8385 20.764V20.7322ZM73.8385 19.7886C73.8187 19.7871 73.8001 19.7786 73.786 19.7645C73.772 19.7505 73.7634 19.7319 73.762 19.7121V19.2403C73.7669 19.223 73.7774 19.2077 73.7917 19.1969C73.8061 19.186 73.8236 19.1802 73.8417 19.1802C73.8597 19.1802 73.8772 19.186 73.8916 19.1969C73.906 19.2077 73.9164 19.223 73.9214 19.2403V19.7121C73.9214 19.7341 73.9126 19.7551 73.8971 19.7707C73.8815 19.7862 73.8605 19.795 73.8385 19.795V19.7886Z" fill="#452A51"/>
<path d="M73.8385 24.2706C73.8187 24.2691 73.8001 24.2606 73.786 24.2466C73.772 24.2325 73.7634 24.2139 73.762 24.1941V23.9518C73.7669 23.9345 73.7774 23.9193 73.7917 23.9084C73.8061 23.8976 73.8236 23.8917 73.8417 23.8917C73.8597 23.8917 73.8772 23.8976 73.8916 23.9084C73.9059 23.9193 73.9164 23.9345 73.9213 23.9518V24.1941C73.9197 24.215 73.9103 24.2344 73.8949 24.2486C73.8796 24.2628 73.8594 24.2707 73.8385 24.2706Z" fill="#452A51"/>
<path d="M59.5572 31.4813C59.5374 31.4798 59.5188 31.4713 59.5048 31.4572C59.4907 31.4432 59.4822 31.4246 59.4807 31.4048V30.9266C59.4772 30.9143 59.4766 30.9013 59.4789 30.8887C59.4813 30.8761 59.4865 30.8642 59.4943 30.8539C59.502 30.8437 59.512 30.8354 59.5235 30.8297C59.5349 30.8239 59.5476 30.821 59.5604 30.821C59.5732 30.821 59.5859 30.8239 59.5974 30.8297C59.6089 30.8354 59.6189 30.8437 59.6266 30.8539C59.6343 30.8642 59.6396 30.8761 59.6419 30.8887C59.6442 30.9013 59.6436 30.9143 59.6401 30.9266V31.4048C59.6385 31.4256 59.6291 31.4451 59.6137 31.4593C59.5983 31.4735 59.5782 31.4813 59.5572 31.4813ZM59.5572 30.525C59.5374 30.5235 59.5188 30.5149 59.5048 30.5009C59.4907 30.4869 59.4822 30.4682 59.4807 30.4484V29.9703C59.4772 29.9579 59.4766 29.945 59.4789 29.9324C59.4813 29.9197 59.4865 29.9078 59.4943 29.8976C59.502 29.8874 59.512 29.8791 59.5235 29.8733C59.5349 29.8676 59.5476 29.8646 59.5604 29.8646C59.5732 29.8646 59.5859 29.8676 59.5974 29.8733C59.6089 29.8791 59.6189 29.8874 59.6266 29.8976C59.6343 29.9078 59.6396 29.9197 59.6419 29.9324C59.6442 29.945 59.6436 29.9579 59.6401 29.9703V30.4484C59.6385 30.4693 59.6291 30.4888 59.6137 30.503C59.5983 30.5172 59.5782 30.525 59.5572 30.525ZM59.5572 29.5686C59.5374 29.5672 59.5188 29.5586 59.5048 29.5446C59.4907 29.5305 59.4822 29.5119 59.4807 29.4921V29.014C59.4772 29.0016 59.4766 28.9886 59.4789 28.976C59.4813 28.9634 59.4865 28.9515 59.4943 28.9413C59.502 28.931 59.512 28.9227 59.5235 28.917C59.5349 28.9113 59.5476 28.9083 59.5604 28.9083C59.5732 28.9083 59.5859 28.9113 59.5974 28.917C59.6089 28.9227 59.6189 28.931 59.6266 28.9413C59.6343 28.9515 59.6396 28.9634 59.6419 28.976C59.6442 28.9886 59.6436 29.0016 59.6401 29.014V29.4921C59.6385 29.513 59.6291 29.5325 59.6137 29.5466C59.5983 29.5608 59.5782 29.5687 59.5572 29.5686ZM59.5572 28.6123C59.5374 28.6108 59.5188 28.6023 59.5048 28.5882C59.4907 28.5742 59.4822 28.5556 59.4807 28.5358V28.0576C59.4772 28.0453 59.4766 28.0323 59.4789 28.0197C59.4813 28.0071 59.4865 27.9952 59.4943 27.9849C59.502 27.9747 59.512 27.9664 59.5235 27.9607C59.5349 27.955 59.5476 27.952 59.5604 27.952C59.5732 27.952 59.5859 27.955 59.5974 27.9607C59.6089 27.9664 59.6189 27.9747 59.6266 27.9849C59.6343 27.9952 59.6396 28.0071 59.6419 28.0197C59.6442 28.0323 59.6436 28.0453 59.6401 28.0576V28.5358C59.6385 28.5566 59.6291 28.5761 59.6137 28.5903C59.5983 28.6045 59.5782 28.6124 59.5572 28.6123ZM63.8607 27.656H63.3825C63.3652 27.651 63.35 27.6406 63.3391 27.6262C63.3283 27.6118 63.3224 27.5943 63.3224 27.5763C63.3224 27.5583 63.3283 27.5407 63.3391 27.5264C63.35 27.512 63.3652 27.5015 63.3825 27.4966H63.8607C63.8818 27.4966 63.9021 27.505 63.9171 27.5199C63.932 27.5349 63.9404 27.5551 63.9404 27.5763C63.9404 27.5974 63.932 27.6177 63.9171 27.6326C63.9021 27.6476 63.8818 27.656 63.8607 27.656ZM62.9044 27.656H62.4262C62.4089 27.651 62.3937 27.6406 62.3828 27.6262C62.372 27.6118 62.3661 27.5943 62.3661 27.5763C62.3661 27.5583 62.372 27.5407 62.3828 27.5264C62.3937 27.512 62.4089 27.5015 62.4262 27.4966H62.9299C62.951 27.4966 62.9713 27.505 62.9862 27.5199C63.0012 27.5349 63.0096 27.5551 63.0096 27.5763C63.0096 27.5974 63.0012 27.6177 62.9862 27.6326C62.9713 27.6476 62.951 27.656 62.9299 27.656H62.9044ZM61.9481 27.656H61.4699C61.4526 27.651 61.4373 27.6406 61.4265 27.6262C61.4156 27.6118 61.4098 27.5943 61.4098 27.5763C61.4098 27.5583 61.4156 27.5407 61.4265 27.5264C61.4373 27.512 61.4526 27.5015 61.4699 27.4966H61.9481C61.9692 27.4966 61.9895 27.505 62.0044 27.5199C62.0193 27.5349 62.0277 27.5551 62.0277 27.5763C62.0277 27.5974 62.0193 27.6177 62.0044 27.6326C61.9895 27.6476 61.9692 27.656 61.9481 27.656ZM60.9917 27.656H60.5136C60.4962 27.651 60.481 27.6406 60.4702 27.6262C60.4593 27.6118 60.4534 27.5943 60.4534 27.5763C60.4534 27.5583 60.4593 27.5407 60.4702 27.5264C60.481 27.512 60.4962 27.5015 60.5136 27.4966H61.0172C61.0384 27.4966 61.0586 27.505 61.0736 27.5199C61.0885 27.5349 61.0969 27.5551 61.0969 27.5763C61.0969 27.5974 61.0885 27.6177 61.0736 27.6326C61.0586 27.6476 61.0384 27.656 61.0172 27.656H60.9917ZM60.0354 27.656H59.5572C59.5399 27.651 59.5247 27.6406 59.5138 27.6262C59.503 27.6118 59.4971 27.5943 59.4971 27.5763C59.4971 27.5583 59.503 27.5407 59.5138 27.5264C59.5247 27.512 59.5399 27.5015 59.5572 27.4966H60.0354C60.0565 27.4966 60.0768 27.505 60.0917 27.5199C60.1067 27.5349 60.1151 27.5551 60.1151 27.5763C60.1151 27.5974 60.1067 27.6177 60.0917 27.6326C60.0768 27.6476 60.0565 27.656 60.0354 27.656Z" fill="#452A51"/>
<path d="M64.033 18.6665H63.6059C63.5847 18.6665 63.5645 18.6581 63.5495 18.6431C63.5346 18.6282 63.5262 18.6079 63.5262 18.5868C63.5262 18.5656 63.5346 18.5454 63.5495 18.5304C63.5645 18.5155 63.5847 18.5071 63.6059 18.5071H64.033C64.0542 18.5071 64.0744 18.5155 64.0894 18.5304C64.1043 18.5454 64.1127 18.5656 64.1127 18.5868C64.1127 18.6079 64.1043 18.6282 64.0894 18.6431C64.0744 18.6581 64.0542 18.6665 64.033 18.6665ZM63.1277 18.6665H62.6495C62.6284 18.6665 62.6081 18.6581 62.5932 18.6431C62.5782 18.6282 62.5698 18.6079 62.5698 18.5868C62.5698 18.5656 62.5782 18.5454 62.5932 18.5304C62.6081 18.5155 62.6284 18.5071 62.6495 18.5071H63.1277C63.145 18.512 63.1603 18.5225 63.1711 18.5369C63.1819 18.5512 63.1878 18.5688 63.1878 18.5868C63.1878 18.6048 63.1819 18.6223 63.1711 18.6367C63.1603 18.6511 63.145 18.6615 63.1277 18.6665ZM62.1714 18.6665H61.6932C61.6721 18.6665 61.6518 18.6581 61.6369 18.6431C61.6219 18.6282 61.6135 18.6079 61.6135 18.5868C61.6135 18.5656 61.6219 18.5454 61.6369 18.5304C61.6518 18.5155 61.6721 18.5071 61.6932 18.5071H62.1714C62.1887 18.512 62.2039 18.5225 62.2148 18.5369C62.2256 18.5512 62.2315 18.5688 62.2315 18.5868C62.2315 18.6048 62.2256 18.6223 62.2148 18.6367C62.2039 18.6511 62.1887 18.6615 62.1714 18.6665ZM61.215 18.6665H60.7369C60.7157 18.6665 60.6955 18.6581 60.6805 18.6431C60.6656 18.6282 60.6572 18.6079 60.6572 18.5868C60.6572 18.5656 60.6656 18.5454 60.6805 18.5304C60.6955 18.5155 60.7157 18.5071 60.7369 18.5071H61.215C61.2324 18.512 61.2476 18.5225 61.2584 18.5369C61.2693 18.5512 61.2752 18.5688 61.2752 18.5868C61.2752 18.6048 61.2693 18.6223 61.2584 18.6367C61.2476 18.6511 61.2324 18.6615 61.215 18.6665ZM60.2587 18.6665H59.7806C59.7594 18.6665 59.7391 18.6581 59.7242 18.6431C59.7093 18.6282 59.7009 18.6079 59.7009 18.5868C59.7009 18.5656 59.7093 18.5454 59.7242 18.5304C59.7391 18.5155 59.7594 18.5071 59.7806 18.5071H60.2587C60.276 18.512 60.2913 18.5225 60.3021 18.5369C60.313 18.5512 60.3188 18.5688 60.3188 18.5868C60.3188 18.6048 60.313 18.6223 60.3021 18.6367C60.2913 18.6511 60.276 18.6615 60.2587 18.6665ZM59.3024 18.6665H58.8242C58.8031 18.6665 58.7828 18.6581 58.7679 18.6431C58.7529 18.6282 58.7445 18.6079 58.7445 18.5868C58.7445 18.5656 58.7529 18.5454 58.7679 18.5304C58.7828 18.5155 58.8031 18.5071 58.8242 18.5071H59.3024C59.3197 18.512 59.3349 18.5225 59.3458 18.5369C59.3566 18.5512 59.3625 18.5688 59.3625 18.5868C59.3625 18.6048 59.3566 18.6223 59.3458 18.6367C59.3349 18.6511 59.3197 18.6615 59.3024 18.6665ZM58.3461 18.6665H57.8679C57.8468 18.6665 57.8265 18.6581 57.8115 18.6431C57.7966 18.6282 57.7882 18.6079 57.7882 18.5868C57.7882 18.5656 57.7966 18.5454 57.8115 18.5304C57.8265 18.5155 57.8468 18.5071 57.8679 18.5071H58.3461C58.3634 18.512 58.3786 18.5225 58.3895 18.5369C58.4003 18.5512 58.4062 18.5688 58.4062 18.5868C58.4062 18.6048 58.4003 18.6223 58.3895 18.6367C58.3786 18.6511 58.3634 18.6615 58.3461 18.6665ZM57.3897 18.6665H56.9116C56.8904 18.6665 56.8702 18.6581 56.8552 18.6431C56.8403 18.6282 56.8319 18.6079 56.8319 18.5868C56.8319 18.5656 56.8403 18.5454 56.8552 18.5304C56.8702 18.5155 56.8904 18.5071 56.9116 18.5071H57.3897C57.4071 18.512 57.4223 18.5225 57.4331 18.5369C57.444 18.5512 57.4498 18.5688 57.4498 18.5868C57.4498 18.6048 57.444 18.6223 57.4331 18.6367C57.4223 18.6511 57.4071 18.6615 57.3897 18.6665ZM56.4334 18.6665H55.9552C55.9341 18.6665 55.9138 18.6581 55.8989 18.6431C55.8839 18.6282 55.8755 18.6079 55.8755 18.5868C55.8755 18.5656 55.8839 18.5454 55.8989 18.5304C55.9138 18.5155 55.9341 18.5071 55.9552 18.5071H56.4334C56.4507 18.512 56.466 18.5225 56.4768 18.5369C56.4877 18.5512 56.4935 18.5688 56.4935 18.5868C56.4935 18.6048 56.4877 18.6223 56.4768 18.6367C56.466 18.6511 56.4507 18.6615 56.4334 18.6665ZM55.4771 18.6665H54.9989C54.9778 18.6665 54.9575 18.6581 54.9426 18.6431C54.9276 18.6282 54.9192 18.6079 54.9192 18.5868C54.9192 18.5656 54.9276 18.5454 54.9426 18.5304C54.9575 18.5155 54.9778 18.5071 54.9989 18.5071H55.4771C55.4944 18.512 55.5096 18.5225 55.5205 18.5369C55.5313 18.5512 55.5372 18.5688 55.5372 18.5868C55.5372 18.6048 55.5313 18.6223 55.5205 18.6367C55.5096 18.6511 55.4944 18.6615 55.4771 18.6665ZM54.5207 18.6665H54.0426C54.0214 18.6665 54.0012 18.6581 53.9862 18.6431C53.9713 18.6282 53.9629 18.6079 53.9629 18.5868C53.9629 18.5656 53.9713 18.5454 53.9862 18.5304C54.0012 18.5155 54.0214 18.5071 54.0426 18.5071H54.5207C54.5381 18.512 54.5533 18.5225 54.5642 18.5369C54.575 18.5512 54.5809 18.5688 54.5809 18.5868C54.5809 18.6048 54.575 18.6223 54.5642 18.6367C54.5533 18.6511 54.5381 18.6615 54.5207 18.6665Z" fill="#452A51"/>
<path d="M78.11 15.9314H73.7683C73.726 15.9314 73.6855 15.9146 73.6556 15.8847C73.6257 15.8548 73.6089 15.8143 73.6089 15.772C73.6089 15.7297 73.6257 15.6892 73.6556 15.6593C73.6855 15.6294 73.726 15.6126 73.7683 15.6126H78.0973C78.1395 15.6126 78.1801 15.6294 78.21 15.6593C78.2399 15.6892 78.2566 15.7297 78.2566 15.772C78.2566 15.8143 78.2399 15.8548 78.21 15.8847C78.1801 15.9146 78.1395 15.9314 78.0973 15.9314H78.11Z" fill="#452A51"/>
<path d="M78.11 16.4988H73.7683C73.726 16.4988 73.6855 16.482 73.6556 16.4521C73.6257 16.4223 73.6089 16.3817 73.6089 16.3394C73.6089 16.2972 73.6257 16.2566 73.6556 16.2267C73.6855 16.1968 73.726 16.1801 73.7683 16.1801H78.0973C78.1395 16.1801 78.1801 16.1968 78.21 16.2267C78.2399 16.2566 78.2566 16.2972 78.2566 16.3394C78.2566 16.3817 78.2399 16.4223 78.21 16.4521C78.1801 16.482 78.1395 16.4988 78.0973 16.4988H78.11Z" fill="#452A51"/>
<path d="M78.11 17.0471H73.7683C73.726 17.0471 73.6855 17.0303 73.6556 17.0004C73.6257 16.9705 73.6089 16.93 73.6089 16.8877C73.6089 16.8454 73.6257 16.8049 73.6556 16.775C73.6855 16.7451 73.726 16.7283 73.7683 16.7283H78.0973C78.1395 16.7283 78.1801 16.7451 78.21 16.775C78.2399 16.8049 78.2566 16.8454 78.2566 16.8877C78.2566 16.93 78.2399 16.9705 78.21 17.0004C78.1801 17.0303 78.1395 17.0471 78.0973 17.0471H78.11Z" fill="#452A51"/>
<path d="M76.2292 17.6082H73.7683C73.726 17.6082 73.6855 17.5914 73.6556 17.5615C73.6257 17.5316 73.6089 17.4911 73.6089 17.4488C73.6089 17.4065 73.6257 17.366 73.6556 17.3361C73.6855 17.3062 73.726 17.2894 73.7683 17.2894H76.2165C76.2587 17.2894 76.2993 17.3062 76.3292 17.3361C76.3591 17.366 76.3759 17.4065 76.3759 17.4488C76.3759 17.4911 76.3591 17.5316 76.3292 17.5615C76.2993 17.5914 76.2587 17.6082 76.2165 17.6082H76.2292Z" fill="#452A51"/>
</g>
<defs>
<linearGradient id="paint0_linear" x1="44351.8" y1="12161.3" x2="73074.1" y2="12161.3" gradientUnits="userSpaceOnUse">
<stop stop-color="#D1E332"/>
<stop offset="1" stop-color="#AEB500"/>
</linearGradient>
<linearGradient id="paint1_linear" x1="35707" y1="12300.1" x2="58830.6" y2="12300.1" gradientUnits="userSpaceOnUse">
<stop stop-color="#D1E332"/>
<stop offset="1" stop-color="#AEB500"/>
</linearGradient>
<clipPath id="clip0">
<rect width="102" height="100" fill="white"/>
</clipPath>
</defs>
</svg>
