<svg width="102" height="100" viewBox="0 0 102 100" fill="none" xmlns="http://www.w3.org/2000/svg">
<g clip-path="url(#clip0)">
<path d="M8.79993 100H96.2829C96.2829 100 108.839 58.8392 96.7353 46.5687C79.1369 28.7271 88.1362 4.97415 67.4029 9.94827C59.2795 11.8991 52.8611 -3.67304 39.5472 0.817655C26.269 5.29747 21.1225 23.2463 16.3431 26.9162C-8.43817 45.9282 8.79993 100 8.79993 100Z" fill="url(#paint0_linear)"/>
<path d="M60.5418 33.5178C59.8942 33.6204 58.8918 32.7157 58.8918 32.7157C58.8918 32.7157 59.4652 31.5577 60.1128 31.4551C60.7605 31.3525 61.2706 31.7473 61.3902 32.3178C61.5098 32.8882 61.1867 33.4199 60.5418 33.5178Z" fill="white"/>
<path d="M56.1968 30.4774C56.3343 31.5468 55.6468 32.8416 55.6468 32.8416C55.6468 32.8416 54.639 31.5266 54.5042 30.4572C54.3695 29.3877 54.661 28.7115 55.1271 28.7162C55.5932 28.7209 56.0621 29.4079 56.1968 30.4774Z" fill="white"/>
<path d="M52.5242 33.0609C53.1292 34.4909 52.8267 36.8863 52.8267 36.8863C52.8267 36.8863 51.0475 35.7889 50.4425 34.3588C49.8375 32.9287 49.9186 31.7272 50.4934 31.3681C51.0681 31.009 51.9151 31.6308 52.5242 33.0609Z" fill="white"/>
<path d="M49.0512 36.9531C50.246 38.1966 50.9349 41.3256 50.9349 41.3256C50.9349 41.3256 48.7074 41.4127 47.5126 40.1676C46.3177 38.9225 45.9011 37.4101 46.326 36.5225C46.7509 35.6349 47.8563 35.7096 49.0512 36.9531Z" fill="white"/>
<path d="M46.935 43.7273C48.1587 43.9293 49.74 46.0418 49.74 46.0418C49.74 46.0418 48.3334 47.663 47.1096 47.461C45.8859 47.2589 45.0678 46.2951 45.0197 45.263C44.9715 44.2309 45.7113 43.5236 46.935 43.7273Z" fill="white"/>
<path d="M46.9611 50.7578C47.7572 50.3475 49.1611 51.0034 49.1611 51.0034C49.1611 51.0034 48.6221 52.662 47.826 53.0724C47.0298 53.4827 46.3272 53.2278 46.0866 52.5874C45.846 51.947 46.165 51.1682 46.9611 50.7578Z" fill="white"/>
<path d="M58.9866 37.3852C58.1795 37.3386 57.0616 36.0344 57.0616 36.0344C57.0616 36.0344 57.9183 34.8437 58.7254 34.8904C59.5325 34.937 60.1003 35.5261 60.1732 36.2147C60.2461 36.9033 59.7951 37.4318 58.9866 37.3852Z" fill="white"/>
<path d="M57.0534 41.9443C55.9878 41.4329 54.8837 39.2505 54.8837 39.2505C54.8837 39.2505 56.3838 38.3178 57.4494 38.8292C58.515 39.3406 59.1062 40.3634 58.9976 41.2246C58.889 42.0857 58.119 42.4557 57.0534 41.9443Z" fill="white"/>
<path d="M54.5454 48.1231C53.4908 47.0832 52.8322 44.3816 52.8322 44.3816C52.8322 44.3816 54.7571 44.2262 55.8062 45.2598C56.8554 46.2935 57.2514 47.6039 56.9062 48.3951C56.5611 49.1863 55.6014 49.163 54.5454 48.1231Z" fill="white"/>
<path d="M52.3607 52.3465C51.8822 51.4605 51.9207 49.8143 51.9207 49.8143C51.9207 49.8143 53.1293 50.3319 53.6078 51.2133C54.0863 52.0947 54.1124 52.9232 53.7673 53.234C53.4222 53.5449 52.8392 53.2325 52.3607 52.3465Z" fill="white"/>
<path d="M53.0825 79.1787L52.8322 79.1958C51.9454 75.4923 51.2354 71.7377 50.7052 67.948C49.8705 62.0071 49.1638 53.492 50.5305 46.7039C51.8973 39.9158 53.8374 36.4541 55.2233 34.7536C56.7358 32.896 58.042 33.0049 58.042 33.0049C58.042 33.0049 56.8651 33.2427 55.3938 35.0567C54.034 36.7354 52.1283 40.1443 50.778 46.8531C49.4223 53.5853 50.1263 62.0382 50.9554 67.9418C51.4844 71.7281 52.1945 75.4792 53.0825 79.1787Z" fill="white"/>
<path d="M50.474 100C50.474 100 63.9172 84.6922 57.2307 73.6559C50.5442 62.6196 41.9767 78.8756 39.6791 70.1227C37.3815 61.3698 62.0115 21.5909 35.6779 14.1452C9.34433 6.69958 23.1271 42.3547 19.1314 47.9801C14.6394 54.3035 0.431716 37.4816 6.17638 64.2874C10.6849 85.3202 3.59967 75.1419 0.951458 81.7932C-2.35674 90.1062 4.01628 100 4.01628 100H50.474Z" fill="url(#paint1_linear)"/>
<path d="M0 86.7859C0 86.6196 0.00824987 86.4533 0.0151248 86.287C2.69358 87.3222 5.36379 86.5232 6.16678 86.2326C5.03929 83.9196 3.73307 81.7357 2.24259 79.8968C2.34969 79.8082 2.46125 79.7267 2.57671 79.6527C5.11217 82.8284 7.11414 86.9585 8.64724 91.0295C8.55924 88.7725 8.08625 83.2699 5.61404 78.717C5.7413 78.6768 5.8666 78.6291 5.9894 78.574C9.16148 84.5398 9.04048 91.9963 9.03773 92.088C9.9583 94.6782 10.7578 97.3212 11.4329 100.006H11.0411C10.0621 96.1575 8.54411 91.1927 6.38127 86.6662C5.25311 87.0768 4.07536 87.2865 2.8902 87.288C1.90935 87.295 0.933753 87.1255 0 86.7859H0Z" fill="#AEB500"/>
<path d="M16.4296 80.475C15.6046 80.4237 11.9183 80.0086 7.37533 76.8299C7.41975 76.6766 7.45738 76.521 7.48808 76.3635C11.8701 79.4568 15.4382 79.92 16.3677 79.9884C16.0707 77.6864 15.7132 75.378 15.2815 73.1288C14.4565 73.0076 10.5062 72.3128 7.20209 69.7651C7.16909 69.5485 7.1338 69.3267 7.09621 69.0998C10.2243 71.6381 14.1196 72.4418 15.1811 72.6205C13.9436 66.3438 12.1218 60.5645 9.45018 56.7375C8.00303 54.6195 6.75038 52.3404 5.71161 49.9354C5.79234 49.8058 5.88101 49.6827 5.97698 49.567C7.01541 51.9862 8.27143 54.2781 9.72517 56.4065C11.5264 58.9868 12.944 62.4391 14.0605 66.3267C14.2599 63.2692 14.6737 54.0127 12.7969 49.1302L13.2437 49.2235C15.3983 55.2857 14.407 66.807 14.3561 67.3884C17.2656 78.2304 17.9723 92.0507 18.1208 100.003H17.7495C17.6588 95.0507 17.3522 87.8242 16.4296 80.475Z" fill="#AEB500"/>
<path d="M39.7052 93.8244C39.7052 92.8669 39.7259 80.1751 42.5638 72.801C42.7114 72.7813 42.8626 72.7523 43.0176 72.7139C40.4848 79 40.1301 89.8622 40.0834 92.9944C42.3493 88.157 45.3083 83.842 48.3236 80.1876C48.2301 79.485 47.6746 74.8823 48.5023 70.2844C48.6371 70.2326 48.7723 70.1834 48.908 70.1367C48.1132 74.2761 48.4955 78.5057 48.6508 79.7912C50.974 77.0263 53.4577 74.4397 56.0854 72.0487C56.1775 72.1575 56.2696 72.2709 56.3603 72.3891C53.0416 75.3918 49.9592 78.7141 47.148 82.3187C48.083 83.1378 52.3729 86.5265 58.3623 85.6933C58.3165 85.8622 58.2707 86.0301 58.2248 86.1969C57.6473 86.271 57.0667 86.3089 56.4855 86.3104C51.2606 86.3104 47.6416 83.343 46.884 82.6668C46.2882 83.4492 45.7015 84.257 45.124 85.0902C45.7098 86.1114 49.062 91.4306 55.6467 92.3571C55.5652 92.5094 55.4831 92.6602 55.4006 92.8094C48.9685 91.8037 45.5929 86.6835 44.871 85.457C41.9588 89.7254 39.389 94.6281 37.8586 99.9986H37.4626C38.0638 97.8764 38.8137 95.8118 39.7052 93.8244Z" fill="#AEB500"/>
<path d="M27.2452 100C27.2452 97.0093 27.2906 93.6564 27.4226 90.0424H27.4143C27.3813 89.7315 24.366 62.5013 15.8824 49.5329C16.04 49.5329 16.1954 49.5251 16.3485 49.5096C23.3746 60.5428 26.6155 81.1403 27.5119 87.8243C27.8268 80.7828 28.4744 72.9019 29.6707 64.9107C29.6225 64.8236 29.5593 64.7024 29.4699 64.5298C27.028 59.8122 23.0996 52.6091 19.3872 47.5044C19.4541 47.3535 19.512 47.1977 19.5605 47.038C23.3155 52.1816 27.2975 59.4733 29.7655 64.2423C30.0506 62.3925 30.3673 60.5417 30.7156 58.6899C32.1085 51.3173 32.7094 43.9681 32.8496 37.1753C31.6121 37.1753 24.8527 36.9717 19.2373 33.7276C19.2236 33.5442 19.2112 33.3592 19.1988 33.1742C24.7964 36.4976 31.6548 36.6841 32.862 36.6919C32.9225 33.2162 32.862 29.8929 32.7245 26.7918C31.5998 26.2991 24.2629 22.9944 20.2644 19.1037C20.3208 18.9483 20.3786 18.8084 20.4404 18.6654C24.212 22.3509 31.2299 25.6074 32.7025 26.268C32.4674 21.227 32.0343 16.7985 31.6025 13.298C31.729 13.3135 31.8555 13.3306 31.9848 13.3493C32.7098 19.2616 33.1267 25.217 33.2332 31.1846C38.2767 30.3359 43.4081 26.3566 46.6104 23.4219C46.6668 23.568 46.7259 23.7125 46.7781 23.8602C43.5291 26.8307 38.344 30.8317 33.2401 31.6758C33.3432 38.8898 32.9802 46.9852 31.6974 55.2189C33.2332 54.5801 40.3529 51.4883 45.3372 47.0831C45.2638 47.3505 45.1891 47.6173 45.113 47.8836C39.8496 52.3697 32.6379 55.3541 31.6094 55.7661C31.4462 56.7806 31.2693 57.7961 31.0786 58.8127C29.7587 65.7982 28.9172 72.8553 28.3933 79.4864C29.3778 77.6926 32.2707 73.5579 39.5526 69.3827C39.5679 69.5483 39.5913 69.7128 39.6228 69.8755C30.871 74.9366 28.5556 79.9791 28.3122 80.5652C27.7718 87.8289 27.6096 94.5362 27.6123 100.009L27.2452 100Z" fill="#AEB500"/>
<path d="M77.2986 100C77.2986 100 75.1866 89.2871 70.0538 81.1839C63.5392 70.8999 65.4435 62.0522 71.2129 62.5574C77.6286 63.1201 78.5003 65.3025 79.7488 59.3211C80.9973 53.3397 80.6865 27.1448 93.9784 27.1012C107.27 27.0577 97.4159 61.8579 91.7895 73.8191C86.1631 85.7803 89.9126 86.7767 92.8895 85.7803C95.8663 84.7839 98.6754 88.9311 97.4269 93.4264C96.1784 97.9218 93.5962 99.9985 93.5962 99.9985L77.2986 100Z" fill="url(#paint2_linear)"/>
<path d="M83.889 71.0507C83.2304 67.8346 81.018 64.4988 78.9996 61.9931C78.9546 62.0967 78.9088 62.1957 78.8621 62.29C80.9465 64.889 83.2152 68.3522 83.7102 71.632C82.3573 76.0419 81.4456 80.1642 81.4456 83.8233C81.4491 89.2521 81.9025 94.6685 82.8 100.002H83.0819C82.1813 94.6689 81.7265 89.2523 81.7234 83.8233C81.7234 81.5212 82.0905 79.0264 82.7037 76.387C83.1437 75.9595 88.4388 70.903 93.9153 68.7191L94.0652 68.3211C89.0438 70.2471 84.1351 74.632 82.8316 75.8492C84.0113 71.0211 85.9652 65.7253 87.9988 60.2382L88.2463 59.5698C91.4034 59.3715 94.5214 58.6826 97.5122 57.5226L97.6126 57.1449C94.6312 58.3203 91.5205 59.0248 88.3687 59.2387C88.7234 58.2801 89.0768 57.3185 89.4288 56.3537C90.1383 56.2402 94.9287 55.4397 98.4417 53.8573C98.4734 53.7252 98.5036 53.5946 98.5339 53.4625C95.2504 54.9812 90.6456 55.8221 89.5539 56.0071C91.4651 50.7392 93.2443 45.4246 94.2288 40.3728C94.8764 40.3386 98.2809 40.0199 100.589 37.1505C100.589 36.9951 100.577 36.8396 100.569 36.6951C98.4046 39.6003 95.0689 39.9935 94.2893 40.0464C94.3388 39.7883 94.3897 39.5287 94.4337 39.2692C95.3962 33.7494 95.6505 29.9287 95.5887 27.3002C95.4965 27.2769 95.4017 27.2567 95.3137 27.2365C95.3824 29.8339 95.1363 33.65 94.1683 39.2054C93.7665 41.4413 93.251 43.6491 92.6242 45.8179C91.6782 45.4402 85.7493 42.8956 83.251 37.735C83.2088 37.8666 83.1671 37.9987 83.1259 38.1313C85.7383 43.2267 91.5833 45.7386 92.5362 46.1195C91.2094 50.7361 89.459 55.4724 87.7444 60.1092C86.3488 63.8755 84.9876 67.5501 83.889 71.0507Z" fill="#DEF2FF"/>
<path d="M85.3971 100C85.8096 97.4026 87.1241 90.1715 89.683 85.5269C89.6092 85.4595 89.5403 85.3857 89.4767 85.3062C86.8546 90.0393 85.5181 97.4306 85.1139 99.9985L85.3971 100Z" fill="#DEF2FF"/>
<path d="M96.4134 87.0907C96.3474 87.0067 96.2801 86.9259 96.2113 86.8482C95.0678 87.7201 94.003 88.7171 93.0324 89.8249C91.9669 91.0257 91.017 92.3507 90.1985 93.7778C90.039 92.699 89.7063 89.4254 90.8778 86.0477C90.7829 86.0352 90.6894 86.0181 90.6028 85.9979C89.269 89.9104 89.8933 93.6767 89.9854 94.1695C88.9846 95.9934 88.1905 97.9523 87.6218 100H87.9106C88.8599 96.6068 90.4455 93.485 92.5594 90.8477C93.4526 91.117 94.3725 91.257 95.297 91.2643C96.1199 91.2786 96.938 91.1205 97.71 90.798C97.7036 90.6819 97.6949 90.5669 97.6839 90.4529C95.8359 91.3047 93.504 90.7762 92.778 90.5757C92.9251 90.4 93.0736 90.2244 93.2276 90.0518C94.1978 88.945 95.2653 87.9529 96.4134 87.0907Z" fill="#DEF2FF"/>
<path d="M67.6173 63.8864C70.1092 65.2223 72.238 67.2902 73.7814 69.874C74.6558 71.3274 75.4313 73.1476 76.1257 75.173C74.9515 74.7922 70.1583 73.3264 66.5627 73.4507C66.5902 73.5564 66.6164 73.6621 66.6466 73.7694C70.469 73.659 75.6445 75.3456 76.2536 75.5507C77.4801 79.2378 78.437 83.5699 79.1946 87.6565C78.4522 87.3161 76.1257 86.413 73.0458 86.8544C73.0911 86.957 73.1351 87.0581 73.1833 87.1653C76.4832 86.7285 78.8715 87.8415 79.2689 88.0435C79.3954 88.7337 79.5164 89.4145 79.6319 90.086C77.8658 89.2645 75.9418 88.9732 74.0467 89.2404L74.165 89.5513C76.0479 89.304 77.9553 89.6197 79.6965 90.4669C80.0458 92.514 80.3455 94.4384 80.6067 96.1109C80.8542 97.6933 81.0591 99.0146 81.2406 100.014H81.5252C81.3424 99.0115 81.1334 97.6716 80.8804 96.0534C79.7034 88.5099 77.7344 75.8818 74.0055 69.6984C72.4578 67.1085 70.331 65.0282 67.8415 63.6688C67.7672 63.731 67.6902 63.8025 67.6173 63.8864Z" fill="#DEF2FF"/>
<path d="M62.3586 98.9109H67.3321C67.3321 98.9109 67.6244 97.5572 66.5861 95.8137L63.2355 95.8721C63.2355 95.8721 62.2714 97.2547 62.3586 98.9109Z" fill="#964E3B"/>
<path d="M67.3776 98.911H62.4041V99.6956H67.3776V98.911Z" fill="#CC9169"/>
<path d="M64.8454 98.0784C65.8815 98.0784 66.7214 97.8029 66.7214 97.463C66.7214 97.1231 65.8815 96.8475 64.8454 96.8475C63.8094 96.8475 62.9695 97.1231 62.9695 97.463C62.9695 97.8029 63.8094 98.0784 64.8454 98.0784Z" fill="#BC7668"/>
<path d="M65.807 96.6444C65.807 96.6907 65.7886 96.735 65.7558 96.7677C65.7231 96.8004 65.6787 96.8188 65.6324 96.8188H64.1491C64.1028 96.8188 64.0584 96.8004 64.0257 96.7677C63.993 96.735 63.9746 96.6907 63.9746 96.6444C63.9746 96.5982 63.993 96.5539 64.0257 96.5212C64.0584 96.4885 64.1028 96.4701 64.1491 96.4701H65.6324C65.6787 96.4701 65.7231 96.4885 65.7558 96.5212C65.7886 96.5539 65.807 96.5982 65.807 96.6444Z" fill="#CEA97C"/>
<path d="M65.807 96.0342C65.807 96.0804 65.7886 96.1248 65.7558 96.1575C65.7231 96.1902 65.6787 96.2086 65.6324 96.2086H64.1491C64.1028 96.2086 64.0584 96.1902 64.0257 96.1575C63.993 96.1248 63.9746 96.0804 63.9746 96.0342C63.9746 95.988 63.993 95.9436 64.0257 95.9109C64.0584 95.8782 64.1028 95.8599 64.1491 95.8599H65.6324C65.6787 95.8599 65.7231 95.8782 65.7558 95.9109C65.7886 95.9436 65.807 95.988 65.807 96.0342Z" fill="#CEA97C"/>
<path d="M55.9149 95.4258C55.9149 95.4258 56.3006 97.4307 56.0091 98.8255H46.6441C46.6441 98.8255 46.3239 96.7665 50.396 96.7708L53.0084 95.0065L55.9149 95.4258Z" fill="#964E3B"/>
<path d="M56.0345 99.6205L46.6982 99.5682V98.8237H56.0345V99.6205Z" fill="#CC9169"/>
<path d="M50.1326 96.7847C50.1326 96.7847 50.0139 98.196 46.782 98.1271C46.7829 98.1271 47.2654 96.7847 50.1326 96.7847Z" fill="#BC7668"/>
<path d="M52.984 98.8237C52.984 98.8237 53.0713 96.4552 56.0545 96.4404C56.0545 96.4404 56.2124 98.0392 55.9803 98.8237H52.984Z" fill="#7F3F32"/>
<path d="M51.3934 97.3322C51.3494 97.3322 51.3071 97.3157 51.2748 97.2859L50.4677 96.5406C50.4501 96.5253 50.4358 96.5066 50.4255 96.4857C50.4153 96.4648 50.4094 96.442 50.4081 96.4187C50.4068 96.3954 50.4102 96.3722 50.4181 96.3502C50.426 96.3283 50.4382 96.3082 50.454 96.291C50.4698 96.2739 50.4889 96.2601 50.5102 96.2505C50.5314 96.2408 50.5543 96.2356 50.5777 96.2349C50.601 96.2343 50.6242 96.2384 50.6459 96.2468C50.6676 96.2553 50.6874 96.2681 50.7041 96.2843L51.5112 97.0297C51.537 97.0535 51.5551 97.0845 51.5629 97.1187C51.5708 97.1529 51.5682 97.1887 51.5553 97.2214C51.5425 97.2541 51.5201 97.2822 51.4911 97.3019C51.462 97.3217 51.4277 97.3322 51.3925 97.3322H51.3934Z" fill="#CEA97C"/>
<path d="M52.1787 96.8092C52.1348 96.8093 52.0924 96.7928 52.0601 96.763L51.253 96.0177C51.2354 96.0024 51.221 95.9837 51.2108 95.9628C51.2006 95.9418 51.1946 95.919 51.1934 95.8958C51.1921 95.8725 51.1955 95.8492 51.2034 95.8273C51.2113 95.8054 51.2235 95.7852 51.2393 95.7681C51.2551 95.751 51.2742 95.7372 51.2954 95.7275C51.3167 95.7179 51.3396 95.7126 51.3629 95.712C51.3863 95.7114 51.4095 95.7154 51.4312 95.7239C51.4529 95.7324 51.4727 95.7451 51.4894 95.7614L52.2965 96.5067C52.3224 96.5305 52.3404 96.5616 52.3483 96.5958C52.3562 96.63 52.3535 96.6658 52.3407 96.6985C52.3279 96.7312 52.3055 96.7593 52.2764 96.779C52.2474 96.7988 52.213 96.8093 52.1779 96.8092H52.1787Z" fill="#CEA97C"/>
<path d="M52.8768 96.2862C52.8329 96.2863 52.7905 96.2698 52.7582 96.24L51.951 95.4946C51.9185 95.463 51.8996 95.4198 51.8984 95.3745C51.8972 95.3291 51.9137 95.285 51.9445 95.2516C51.9753 95.2182 52.0179 95.1982 52.0633 95.1957C52.1087 95.1932 52.1532 95.2085 52.1875 95.2384L52.9946 95.9837C53.0205 96.0075 53.0385 96.0385 53.0464 96.0727C53.0542 96.107 53.0516 96.1428 53.0388 96.1754C53.026 96.2081 53.0036 96.2362 52.9745 96.256C52.9455 96.2757 52.9111 96.2862 52.876 96.2862H52.8768Z" fill="#CEA97C"/>
<path d="M51.5678 61.1384C51.5678 61.1384 50.8567 74.4879 51.4806 95.438C51.4806 95.438 53.381 97.3409 56.0353 96.0177C56.0353 96.0177 57.0771 73.9675 57.4313 68.0355C57.4313 68.0355 59.8204 81.2717 62.3315 95.8686C62.3315 95.8686 65.0041 97.1003 66.7667 95.6158C66.7667 95.6158 64.533 72.9929 63.3385 61.7931C63.3393 61.7913 56.3433 62.7162 51.5678 61.1384Z" fill="#344666"/>
<path d="M57.4323 68.0329C57.4323 68.0329 55.1828 66.9869 54.5145 66.1055C53.8461 65.2242 56.1898 71.3358 57.2193 72.2947L57.4323 68.0329Z" fill="#253951"/>
<path d="M51.6273 42.0879C51.6273 42.0879 46.5404 45.7221 44.6409 48.522C45.7752 49.7102 47.2978 50.9367 47.9565 51.4545L51.6265 48.6476C51.6265 48.6476 53.0976 44.6394 51.6273 42.0879Z" fill="#9D8A79"/>
<path d="M44.9304 48.6771C44.4942 49.3161 43.9401 49.7563 43.9375 50.2558C43.9375 50.2558 42.9236 53.0575 48.8142 59.9441C48.8142 59.9441 50.4275 60.2928 50.7626 58.5851L47.7086 51.6445L47.9826 51.1833C47.323 50.6655 46.0709 49.8653 44.9304 48.6771Z" fill="#F4A984"/>
<path d="M48.7321 50.9637L47.9616 51.9828C47.9616 51.9828 44.7463 51.8477 43.2743 50.9437C43.2743 50.9437 43.5587 49.1131 44.5159 48.1106C44.5159 48.1123 46.9634 49.6065 48.7321 50.9637Z" fill="#8C7A6B"/>
<path d="M50.7616 58.5852C50.7616 58.5852 52.5338 59.4378 53.2632 60.6547C53.2632 60.6547 53.5625 61.2143 53.1646 61.3477C52.7667 61.4811 53.0111 62.0128 52.594 62.1645C52.1769 62.3162 52.3087 62.7346 51.7022 62.7538C51.7022 62.7538 51.5504 63.1521 51.1325 63.1147C50.7145 63.0772 49.7469 63.0597 49.6709 62.8531C49.595 62.6465 49.1003 61.8114 49.1378 61.7199C49.1753 61.6284 49.28 61.4915 49.602 61.6005C49.4184 61.4396 49.2578 61.2542 49.1247 61.0496C48.9101 60.7157 48.8132 60.0514 48.8132 60.0514L48.9057 58.2697L50.7616 58.5852Z" fill="#F4A984"/>
<path d="M51.6274 42.0879C51.6274 42.0879 51.3761 45.4005 51.4136 61.2048C51.4136 61.2048 55.498 63.1836 63.6144 61.8045C63.6144 61.8045 63.6336 57.0606 64.7688 52.8415C64.7688 52.8415 66.8245 44.9088 65.7862 42.5927C65.7853 42.5927 59.9759 38.663 51.6274 42.0879Z" fill="#9D8A79"/>
<path d="M51.4143 54.6433C51.4082 56.5463 51.4065 58.7212 51.4143 61.2056C51.4143 61.2056 55.4987 63.1844 63.6151 61.8054C63.6151 61.8054 63.6343 57.0615 64.7695 52.8424C64.7695 52.8424 65.5243 49.9299 65.8881 47.1187C63.6047 50.5062 57.2647 58.6602 51.4143 54.6433Z" fill="#8C7A6B"/>
<path d="M57.2089 40.5136L57.1958 41.1509C57.1958 41.1509 57.7656 41.8238 59.0072 41.7759C60.2488 41.7279 60.7663 41.0053 60.7663 41.0053L60.7296 39.3787C59.2725 40.1571 57.8214 40.5459 57.2089 40.5136Z" fill="#F4A984"/>
<path d="M60.7296 39.3786L60.6424 37.2158L57.0649 37.3544L57.2063 40.5109C57.8214 40.5458 59.2725 40.157 60.7296 39.3786Z" fill="#D88D6C"/>
<path d="M60.898 30.8182C60.898 30.8182 57.9461 31.9541 57.1992 31.8983C56.4523 31.8425 54.4682 30.9778 54.4682 30.9778C53.7378 31.5801 54.5231 33.3785 54.5231 33.3785L61.3203 34.4472L62.8429 34.6939C63.109 33.4735 63.1962 31.649 63.1701 30.9368C61.7923 30.847 60.898 30.8182 60.898 30.8182Z" fill="#6A371A"/>
<path d="M62.2243 33.3638L61.6562 34.2799C61.5426 34.0303 61.4464 33.7731 61.3683 33.5102C61.0971 32.637 60.9393 31.7326 60.8989 30.8192C58.7636 31.0483 56.6131 31.1017 54.4691 30.9787C54.696 32.7169 54.0922 36.6641 55.4961 38.5923C55.914 39.1668 56.51 39.5626 57.3607 39.6663C61.0629 40.1196 61.9573 36.1733 61.9573 36.1733C61.9573 36.1733 63.1867 36.0487 63.3656 34.3427C63.5121 32.9262 62.2243 33.3638 62.2243 33.3638Z" fill="#F4A984"/>
<path d="M56.5091 34.7365C56.5147 34.3581 56.3274 34.0486 56.0908 34.0451C55.8542 34.0417 55.6579 34.3456 55.6524 34.724C55.6468 35.1023 55.8341 35.4119 56.0707 35.4153C56.3073 35.4188 56.5036 35.1149 56.5091 34.7365Z" fill="#6A371A"/>
<path d="M59.7546 34.6436C59.7601 34.2652 59.5728 33.9557 59.3362 33.9523C59.0996 33.9489 58.9034 34.2528 58.8979 34.6312C58.8924 35.0096 59.0797 35.3191 59.3163 35.3225C59.5529 35.3259 59.7491 35.022 59.7546 34.6436Z" fill="#6A371A"/>
<path d="M57.6095 36.5821C56.8836 36.834 56.5171 36.4801 56.5049 36.1462C56.5008 36.0398 56.532 35.935 56.5937 35.8481C56.6554 35.7612 56.7441 35.6972 56.846 35.6659C57.2884 35.5186 57.6313 34.8674 57.6313 34.8613C57.6252 35.0148 57.442 35.5822 56.8757 35.8743C56.7536 35.937 56.6759 36.0068 56.6794 36.1157C56.6855 36.3049 56.9411 36.6004 57.6104 36.5865L57.6095 36.5821Z" fill="#D88D6C"/>
<path d="M55.1323 33.4561L55.0939 33.2425C55.6282 33.1002 56.1807 33.0376 56.7334 33.0569L56.7526 33.3925C56.0423 33.3114 55.1454 33.4544 55.1323 33.4561Z" fill="#8E5931"/>
<path d="M60.3632 33.3943C59.7794 33.1903 58.7053 33.1842 58.6992 33.1825L58.7594 32.8739C58.8013 32.8809 59.7716 32.8826 60.4295 33.2052L60.3632 33.3943Z" fill="#8E5931"/>
<path d="M56.7439 37.3284L57.0135 38.4825C57.0135 38.4825 58.6818 38.9071 58.8904 37.2848C58.8904 37.2848 57.6758 37.5324 56.7439 37.3284Z" fill="white"/>
<path d="M56.8695 37.8164C56.8695 37.8164 57.688 37.9838 58.1949 37.8164C58.1949 37.8164 57.8598 38.0683 56.9157 37.9803L56.8695 37.8164Z" fill="#B7B5B2"/>
<path d="M53.7544 30.0303C53.7544 30.0303 51.3061 30.9465 54.1593 31.2708C54.1593 31.2708 52.9595 32.615 56.9889 32.7422C61.0184 32.8695 61.6256 31.6369 61.6256 31.6369C61.6256 31.6369 66.6559 31.6543 63.6979 30.2421C60.74 28.8299 53.7544 30.0303 53.7544 30.0303Z" fill="#FFBE5F"/>
<path d="M53.8364 30.6779C53.8364 30.6779 58.2454 31.6072 63.5662 30.881C63.5662 30.881 65.0128 25.1155 58.9085 24.7424C52.7807 24.3632 53.8364 30.6779 53.8364 30.6779Z" fill="#FFB12B"/>
<path d="M62.986 26.723C62.0567 30.3842 56.6217 30.7844 54.5939 30.8062C57.5661 31.2445 60.5849 31.2683 63.5636 30.8768C63.5636 30.8768 64.1543 28.5205 62.986 26.723Z" fill="#EA9821"/>
<path d="M58.7585 31.3841L59.3187 31.1539C59.3187 31.1539 59.0394 26.1398 60.4722 24.9874L60.3805 24.5873C60.3805 24.5873 57.3868 24.9909 58.7585 31.3841Z" fill="#EA9C3F"/>
<path d="M58.7585 31.384C58.7585 31.384 58.4164 25.4563 60.3762 24.5846C60.3762 24.5846 59.3719 24.1792 57.5282 24.4024C57.5282 24.4024 55.5327 25.7605 56.1583 31.1966C57.0154 31.3551 57.8875 31.4179 58.7585 31.384Z" fill="#FFBE5F"/>
<path d="M57.1566 40.1675C57.2581 40.5178 57.4353 40.8416 57.6758 41.1161C57.9163 41.3905 58.2141 41.6089 58.5483 41.7557C58.5483 41.7557 60.618 41.2754 60.768 39.8842L61.9023 41.0479C61.9023 41.0479 61.2444 43.0398 59.5927 43.6552L58.5605 42.0861L57.1574 43.3824C57.1574 43.3824 55.8547 41.8865 55.9656 40.877L57.1566 40.1675Z" fill="#8C7A6B"/>
<path d="M51.0923 60.74C51.0923 60.74 50.6447 66.6128 50.5138 68.7921C50.5138 68.7921 51.8226 70.2304 54.1349 70.2304L54.4498 63.03C54.4498 63.03 57.3528 63.431 58.9941 63.2567C58.9941 63.2567 59.501 70.0116 59.501 70.492C59.501 70.492 61.3796 70.8851 65.0216 69.9689L63.9353 61.6004C63.9353 61.6004 55.859 63.1058 51.0923 60.74Z" fill="#9B5B45"/>
<path d="M62.916 68.7248L61.8713 68.7954L62.4661 77.5797L63.5108 77.5091L62.916 68.7248Z" fill="#A96644"/>
<path d="M61.9425 69.8251L62.9468 69.1565L62.9171 68.7216L61.8727 68.7922L61.9425 69.8251Z" fill="#894C31"/>
<path d="M64.123 68.4434C64.1283 68.5181 64.1037 68.5919 64.0546 68.6486C64.0056 68.7053 63.936 68.7403 63.8612 68.7459L60.9434 68.9464C60.8686 68.9516 60.7947 68.9271 60.738 68.8781C60.6812 68.8291 60.6462 68.7596 60.6407 68.6849L60.5726 67.685C60.5673 67.6103 60.5919 67.5364 60.641 67.4798C60.69 67.4231 60.7596 67.3881 60.8344 67.3825L63.7504 67.1855C63.8252 67.1802 63.8991 67.2048 63.9559 67.2538C64.0126 67.3028 64.0476 67.3723 64.0532 67.447L64.123 68.4434Z" fill="#B7B3B0"/>
<path d="M60.7347 68.8706C60.7629 68.896 60.7958 68.9155 60.8317 68.928C60.8675 68.9404 60.9054 68.9455 60.9433 68.943L63.8593 68.746C63.9341 68.7404 64.0037 68.7054 64.0527 68.6487C64.1018 68.592 64.1264 68.5182 64.1211 68.4435L64.053 67.4436C64.0493 67.3871 64.0286 67.3331 63.9937 67.2885C63.8707 67.7444 63.3061 68.664 60.7347 68.8706Z" fill="#9B9795"/>
<path d="M61.2697 69.5984C61.2697 69.5984 62.1422 69.792 63.5383 69.4659V70.0561C62.8121 70.3211 62.0258 70.3764 61.2697 70.2156V69.5984Z" fill="#683629"/>
<path d="M50.8654 67.9161C50.8654 67.9161 51.286 68.3224 51.9998 68.1925L51.9605 68.9143C51.9605 68.9143 51.4108 69.2455 50.8262 68.6711L50.8654 67.9161Z" fill="#683629"/>
<path d="M52.478 68.4836C52.478 68.4836 52.8986 68.8899 53.6123 68.76L53.573 69.4817C53.573 69.4817 53.0242 69.813 52.4387 69.2385L52.478 68.4836Z" fill="#683629"/>
<path d="M60.1355 66.6242C61.4847 66.6883 62.8362 66.56 64.1492 66.2433V65.8728C64.1492 65.8728 61.7933 66.3592 60.1355 66.2572V66.6242Z" fill="#683629"/>
<path d="M50.8997 66.6321C51.8829 66.948 52.9166 67.0775 53.9475 67.0139L54.0347 66.6547C54.0347 66.6547 52.1806 66.6844 50.986 66.2755L50.8997 66.6321Z" fill="#683629"/>
<path d="M51.0741 65.1501C52.0573 65.4661 53.091 65.5956 54.1219 65.5319L54.2092 65.1728C54.2092 65.1728 52.355 65.2024 51.1605 64.7936L51.0741 65.1501Z" fill="#683629"/>
<path d="M59.8737 65.3166C61.2229 65.3807 62.5744 65.2524 63.8874 64.9357V64.5652C63.8874 64.5652 61.5315 65.0516 59.8737 64.9496V65.3166Z" fill="#683629"/>
<path d="M61.7488 40.8903C61.7488 40.8903 59.3152 47.13 59.7576 63.9978C59.7576 63.9978 60.7916 64.3064 64.6308 63.6073L65.5225 52.4449C65.5225 52.4449 64.3071 48.5483 64.6744 41.9991C64.6744 41.9991 63.8708 40.8981 61.7488 40.8903Z" fill="#FB7E42"/>
<path d="M59.7114 61.6921C61.4221 61.6953 63.13 61.5533 64.8167 61.2676L65.0217 58.7047C63.2647 59.0152 61.4835 59.1689 59.6992 59.1641C59.6974 59.9757 59.7009 60.8169 59.7114 61.6921Z" fill="#EFEEED"/>
<path d="M65.1987 56.4922L65.4177 53.7489C63.5675 54.1033 61.6878 54.282 59.8038 54.2824C59.7689 55.1361 59.7421 56.0369 59.7235 56.9847C61.5598 56.9883 63.3926 56.8234 65.1987 56.4922Z" fill="#EFEEED"/>
<path d="M64.4535 59.1195C64.4535 59.1195 62.5837 59.7297 61.6989 60.8394C61.6989 60.8394 61.3281 61.3546 61.705 61.5368C62.082 61.719 61.7687 62.2159 62.1622 62.4225C62.5557 62.6291 62.369 63.0248 62.9684 63.1251C62.9684 63.1251 63.0662 63.54 63.485 63.5609C63.9038 63.5819 64.8654 63.69 64.9683 63.4938C65.0713 63.2977 65.6724 62.5349 65.6471 62.4382C65.6218 62.3414 65.5363 62.1923 65.203 62.2586C65.4064 62.1234 65.5902 61.9609 65.7492 61.7757C66.011 61.4732 66.1899 60.8281 66.1899 60.8281L66.3347 59.0498L64.4535 59.1195Z" fill="#F4A984"/>
<path d="M72.392 51.3899C70.3669 51.4213 69.524 52.4935 68.8792 52.7707L69.3826 53.428L64.4528 59.1194C64.6203 60.9204 66.19 60.8271 66.19 60.8271C73.9853 55.412 73.289 52.7838 73.289 52.7838C73.2297 52.5092 72.5142 51.6941 72.392 51.3899Z" fill="#F4A984"/>
<path d="M55.6505 40.9233C55.6505 40.9233 54.2335 48.6991 54.4682 63.9978C54.4682 63.9978 51.7363 63.7275 50.0348 62.2936C50.0348 62.2936 50.2529 53.7193 50.4711 51.71C50.4711 51.71 51.9326 46.9408 51.9544 41.7776C51.9544 41.7776 53.7187 40.6889 55.6505 40.9233Z" fill="#FB7E42"/>
<path d="M54.5556 53.8927C53.1451 53.6842 51.7485 53.3908 50.3734 53.014C50.3298 53.7655 50.2862 54.6982 50.2478 55.6815C51.6394 56.0689 53.0536 56.3705 54.4823 56.5846C54.5009 55.6437 54.5253 54.7464 54.5556 53.8927Z" fill="#EFEEED"/>
<path d="M54.4474 58.7587C53.0045 58.5408 51.5766 58.2333 50.1719 57.8381C50.1414 58.7482 50.1143 59.6173 50.0925 60.3435C51.5224 60.7492 52.9767 61.0636 54.4465 61.2849C54.4413 60.4155 54.4416 59.5734 54.4474 58.7587Z" fill="#EFEEED"/>
<path d="M65.7852 42.5925C63.9895 44.9261 65.4144 49.6674 65.4144 49.6674L68.5739 52.8928C69.2187 52.6156 71.0623 51.899 72.8947 51.3542C70.9384 48.1375 65.7852 42.5925 65.7852 42.5925Z" fill="#9D8A79"/>
<path d="M68.327 52.6453L68.9692 53.7498C68.9692 53.7498 72.1976 53.837 73.7682 53.1169C73.7682 53.1169 73.4847 51.642 72.6557 50.5305C72.6557 50.5296 70.2466 51.5121 68.327 52.6453Z" fill="#8C7A6B"/>
<path d="M89.0936 39.6916C89.0936 39.6916 86.9323 39.1624 84.2125 39.7029L83.9237 41.7785L89.5735 41.6826L89.0936 39.6916Z" fill="#162635"/>
<path d="M93.9465 48.6476C93.9465 48.6476 92.478 44.6377 93.9465 42.0879C93.9465 42.0879 99.0334 45.7221 100.933 48.5221C101.369 49.161 101.949 49.943 101.952 50.4398C101.952 50.4398 102.65 53.055 96.7596 59.9416C96.7596 59.9416 94.8042 60.0593 94.4692 58.3516L97.8625 51.6393L97.6138 51.4493L93.9465 48.6476Z" fill="#3D587F"/>
<path d="M91.9946 60.6694C92.5879 59.68 93.8086 58.9112 94.4002 58.5773L95.0441 56.5445C97.5422 56.2455 98.5945 58.2766 98.5945 58.2766L96.8442 60.163C96.7988 60.3983 96.6976 60.8368 96.5309 61.0957C96.385 61.3201 96.2088 61.5234 96.0074 61.6998C96.3564 61.5795 96.4742 61.7268 96.5161 61.8306C96.558 61.9343 96.0152 62.8479 95.9323 63.0762C95.8495 63.3046 94.7876 63.3238 94.3304 63.3648C93.8732 63.4058 93.7065 62.969 93.7065 62.969C93.0407 62.9472 93.183 62.4896 92.7284 62.3231C92.2738 62.1566 92.539 61.5734 92.1028 61.4278C91.6665 61.2822 91.9946 60.6694 91.9946 60.6694Z" fill="#CEA97C"/>
<path d="M98.3547 58.8764C98.3547 58.8764 96.8391 56.8278 94.6141 57.0135L94.4728 57.7361C94.4728 57.7361 96.443 57.9977 97.7518 59.538L98.3547 58.8764Z" fill="#EA9821"/>
<path d="M83.2158 98.9109H78.2424C78.2424 98.9109 77.9501 97.5572 78.9884 95.8137L82.3389 95.8721C82.3389 95.8721 83.3031 97.2547 83.2158 98.9109Z" fill="#964E3B"/>
<path d="M83.2579 98.911H78.2844V99.6956H83.2579V98.911Z" fill="#CC9169"/>
<path d="M80.7292 98.0784C81.7653 98.0784 82.6052 97.8029 82.6052 97.463C82.6052 97.1231 81.7653 96.8475 80.7292 96.8475C79.6932 96.8475 78.8533 97.1231 78.8533 97.463C78.8533 97.8029 79.6932 98.0784 80.7292 98.0784Z" fill="#BC7668"/>
<path d="M81.6872 96.6444C81.6872 96.5982 81.6688 96.5539 81.6361 96.5212C81.6033 96.4885 81.559 96.4701 81.5127 96.4701H80.0294C79.9831 96.4701 79.9387 96.4885 79.906 96.5212C79.8732 96.5539 79.8549 96.5982 79.8549 96.6444C79.8549 96.6907 79.8732 96.735 79.906 96.7677C79.9387 96.8004 79.9831 96.8188 80.0294 96.8188H81.5127C81.559 96.8188 81.6033 96.8004 81.6361 96.7677C81.6688 96.735 81.6872 96.6907 81.6872 96.6444Z" fill="#CEA97C"/>
<path d="M81.6872 96.0342C81.6872 95.988 81.6688 95.9436 81.6361 95.9109C81.6033 95.8782 81.559 95.8599 81.5127 95.8599H80.0294C79.9831 95.8599 79.9387 95.8782 79.906 95.9109C79.8732 95.9436 79.8549 95.988 79.8549 96.0342C79.8549 96.0804 79.8732 96.1248 79.906 96.1575C79.9387 96.1902 79.9831 96.2086 80.0294 96.2086H81.5127C81.559 96.2086 81.6033 96.1902 81.6361 96.1575C81.6688 96.1248 81.6872 96.0804 81.6872 96.0342Z" fill="#CEA97C"/>
<path d="M89.6604 95.4258C89.6604 95.4258 89.2748 97.4307 89.5662 98.8255H98.9312C98.9312 98.8255 99.2515 96.7665 95.1793 96.7708L92.5669 95.0065L89.6604 95.4258Z" fill="#964E3B"/>
<path d="M89.6273 99.6205L98.9636 99.5682V98.8237H89.6273V99.6205Z" fill="#CC9169"/>
<path d="M95.442 96.7847C95.442 96.7847 95.5607 98.196 98.7926 98.1271C98.7926 98.1271 98.3101 96.7847 95.442 96.7847Z" fill="#BC7668"/>
<path d="M92.5908 98.8237C92.5908 98.8237 92.5035 96.4552 89.5202 96.4404C89.5202 96.4404 89.3623 98.0392 89.5944 98.8237H92.5908Z" fill="#7F3F32"/>
<path d="M94.1839 97.3322C94.2278 97.3323 94.2702 97.3158 94.3025 97.286L95.1096 96.5407C95.1422 96.509 95.1611 96.4659 95.1623 96.4205C95.1635 96.3751 95.1469 96.331 95.1161 96.2976C95.0853 96.2643 95.0427 96.2442 94.9973 96.2417C94.952 96.2392 94.9074 96.2545 94.8732 96.2844L94.0661 97.0297C94.0402 97.0535 94.0222 97.0845 94.0143 97.1188C94.0065 97.153 94.0091 97.1888 94.0219 97.2215C94.0347 97.2541 94.0571 97.2822 94.0862 97.302C94.1152 97.3217 94.1496 97.3322 94.1847 97.3322H94.1839Z" fill="#CEA97C"/>
<path d="M93.3985 96.8092C93.4424 96.8093 93.4848 96.7928 93.5171 96.763L94.3242 96.0177C94.3568 95.986 94.3756 95.9429 94.3769 95.8975C94.3781 95.8521 94.3615 95.8081 94.3307 95.7747C94.2999 95.7413 94.2573 95.7212 94.2119 95.7188C94.1666 95.7163 94.122 95.7316 94.0878 95.7614L93.2807 96.5067C93.2548 96.5305 93.2368 96.5616 93.2289 96.5958C93.2211 96.63 93.2237 96.6658 93.2365 96.6985C93.2493 96.7312 93.2717 96.7593 93.3008 96.779C93.3298 96.7988 93.3642 96.8093 93.3993 96.8092H93.3985Z" fill="#CEA97C"/>
<path d="M92.7006 96.2862C92.7446 96.2863 92.7869 96.2698 92.8192 96.24L93.6263 95.4946C93.6589 95.463 93.6778 95.4198 93.679 95.3745C93.6802 95.3291 93.6637 95.285 93.6329 95.2516C93.6021 95.2182 93.5594 95.1982 93.5141 95.1957C93.4687 95.1932 93.4241 95.2085 93.3899 95.2384L92.5828 95.9837C92.557 96.0075 92.5389 96.0385 92.5311 96.0727C92.5232 96.107 92.5258 96.1428 92.5386 96.1754C92.5515 96.2081 92.5739 96.2362 92.6029 96.256C92.632 96.2757 92.6663 96.2862 92.7015 96.2862H92.7006Z" fill="#CEA97C"/>
<path d="M94.162 61.2056C94.162 61.2056 94.7204 74.488 94.0965 95.4389C94.0965 95.4389 92.1961 97.3418 89.5418 96.0186C89.5418 96.0186 88.5 73.9684 88.1458 68.0364C88.1458 68.0364 85.7567 81.2725 83.2456 95.8695C83.2456 95.8695 80.573 97.1012 78.8104 95.6167C78.8104 95.6167 80.7702 73.0078 81.9638 61.8088C81.9612 61.8053 89.3848 62.7834 94.162 61.2056Z" fill="#304968"/>
<path d="M88.1433 68.0329C88.1433 68.0329 90.3927 66.9869 91.0611 66.1055C91.7295 65.2242 89.3858 71.3358 88.3562 72.2947L88.1433 68.0329Z" fill="#284059"/>
<path d="M93.9483 42.0879C93.9483 42.0879 94.1996 45.4005 94.1621 61.2048C94.1621 61.2048 90.0777 63.1836 81.9613 61.8045C81.9613 61.8045 81.9421 57.0606 80.8069 52.8415C80.8069 52.8415 78.7512 44.9088 79.7895 42.5927C79.7895 42.5927 85.5972 38.663 93.9483 42.0879Z" fill="#3D587F"/>
<path d="M94.1602 54.6433C94.1663 56.5463 94.168 58.7212 94.1602 61.2056C94.1602 61.2056 90.0758 63.1844 81.9594 61.8054C81.9594 61.8054 81.9402 57.0615 80.805 52.8424C80.805 52.8424 80.0503 49.9299 79.6864 47.1187C81.9707 50.5062 88.3106 58.6602 94.1602 54.6433Z" fill="#304968"/>
<path d="M83.8372 94.3336L83.503 96.2784C83.503 96.2784 80.8138 97.1693 78.4579 95.7153V93.767C78.4579 93.767 81.1026 94.9002 83.8372 94.3336Z" fill="#253951"/>
<path d="M89.145 94.2316L89.2698 96.2853C89.2698 96.2853 91.7216 97.5153 94.4265 95.5391V93.447C94.4265 93.447 92.5331 94.4059 89.145 94.2316Z" fill="#253951"/>
<path d="M89.0873 40.7777C89.0873 40.7777 89.4625 43.4687 88.0464 48.1185C88.0464 48.1185 85.4122 43.0974 83.9271 41.0166C83.9228 41.0166 86.5195 40.3933 89.0873 40.7777Z" fill="#C1C4C6"/>
<path d="M88.3657 40.5136L88.3788 41.1509C88.3788 41.1509 87.809 41.8238 86.5674 41.7759C85.3258 41.7279 84.8119 41.0053 84.8119 41.0053L84.852 39.3787C86.3031 40.1571 87.7532 40.5459 88.3657 40.5136Z" fill="#F4A984"/>
<path d="M84.8485 39.3786L84.9358 37.2185L88.5132 37.3571L88.3718 40.5136C87.7532 40.5459 86.303 40.1571 84.8485 39.3786Z" fill="#D88D6C"/>
<path d="M90.3961 41.0097L89.0968 39.6917L88.6946 43.2073L90.3961 44.079C90.3961 44.079 90.5305 41.714 90.3961 41.0097Z" fill="#253951"/>
<path d="M83.0127 41.2362L84.2116 39.7029L85.6076 43.0041L84.2709 44.2872C84.2709 44.2872 83.1383 41.9423 83.0127 41.2362Z" fill="#253951"/>
<path d="M88.5638 61.4235C88.6201 61.4235 88.6743 61.4018 88.715 61.3628C88.7557 61.3237 88.7796 61.2705 88.7819 61.2143C89.0847 53.7367 88.2706 48.1385 88.2584 48.0862C88.2499 48.029 88.2191 47.9774 88.1726 47.9429C88.1261 47.9084 88.0678 47.8938 88.0105 47.9022C87.9533 47.9107 87.9017 47.9415 87.8672 47.9879C87.8326 48.0344 87.818 48.0926 87.8264 48.1498C87.8343 48.2047 88.6432 53.7628 88.3421 61.1968C88.341 61.2254 88.3454 61.254 88.3553 61.2809C88.3652 61.3078 88.3803 61.3325 88.3998 61.3535C88.4192 61.3746 88.4427 61.3916 88.4687 61.4036C88.4947 61.4156 88.5229 61.4223 88.5515 61.4235H88.5638Z" fill="#253951"/>
<path d="M86.4321 48.6223L82.8756 48.8838C82.8756 48.8838 82.7115 53.4386 85.1782 53.2703C87.645 53.1021 86.4321 48.6223 86.4321 48.6223Z" fill="#253951"/>
<path d="M93.3007 48.4088L89.7381 48.5753C89.7381 48.5753 89.4467 53.1239 91.9195 53.0211C94.3923 52.9182 93.3007 48.4088 93.3007 48.4088Z" fill="#253951"/>
<path d="M83.1706 60.7297H82.4725V62.9962H83.1706V60.7297Z" fill="#253951"/>
<path d="M86.6607 60.7297H85.9626V62.9962H86.6607V60.7297Z" fill="#253951"/>
<path d="M91.1107 60.7297H90.4126V62.9962H91.1107V60.7297Z" fill="#253951"/>
<path d="M93.7283 60.381H93.0303V62.6475H93.7283V60.381Z" fill="#253951"/>
<path d="M85.6208 70.9392L85.9009 67.8742L80.457 67.3773L80.5207 66.6852L85.9637 67.1821C85.9637 67.1821 87.262 67.4436 87.098 69.2794C86.8956 71.4544 85.6208 70.9392 85.6208 70.9392Z" fill="#F4A947"/>
<path d="M83.3198 67.635L83.004 71.0953L83.4003 71.1314L83.7161 67.6711L83.3198 67.635Z" fill="#AD9683"/>
<path d="M85.5102 67.8422L85.1937 71.3025L85.59 71.3387L85.9064 67.8784L85.5102 67.8422Z" fill="#AD9683"/>
<path d="M73.6003 69.0808C73.5174 69.9926 74.1666 69.9926 74.1666 69.9926L83.0386 70.8033L83.4156 66.6504L82.4261 66.5632L80.9943 68.9613L74.3394 68.3511C74.3394 68.3511 73.6823 68.1777 73.6003 69.0808ZM74.1483 69.1374C74.1535 69.0786 74.1761 69.0228 74.2132 68.9768C74.2503 68.9309 74.3002 68.897 74.3566 68.8794C74.413 68.8618 74.4733 68.8613 74.5299 68.878C74.5866 68.8947 74.637 68.9278 74.6748 68.9732C74.7126 69.0185 74.7361 69.074 74.7423 69.1327C74.7485 69.1914 74.7371 69.2506 74.7096 69.3028C74.6821 69.355 74.6397 69.3979 74.5877 69.4261C74.5358 69.4542 74.4767 69.4663 74.4179 69.4608C74.3393 69.4535 74.2667 69.4154 74.2162 69.3548C74.1657 69.2942 74.1413 69.216 74.1483 69.1374Z" fill="#DD8C2A"/>
<path d="M79.7895 42.5925C79.7895 42.5925 77.1518 43.5122 76.1344 54.0992C76.1344 54.0992 74.7444 60.3224 75.6746 65.1299C76.1949 65.3957 76.775 65.5232 77.3589 65.5C77.9429 65.4767 78.511 65.3037 79.0085 64.9974C79.0085 64.9974 79.7022 57.1415 79.7214 55.2804L81.0599 50.7039C81.0599 50.7039 81.5302 43.5174 79.7895 42.5925Z" fill="#3D587F"/>
<path d="M75.1868 63.7938C77.8987 62.6213 79.6464 63.9498 79.6464 63.9498L78.9327 66.7393C79.1848 67.088 79.5923 67.6581 79.7939 67.9702C80.0347 68.3433 80.9587 69.0293 80.9587 69.0293C80.9587 69.0293 80.3479 70.2454 79.0705 68.7678C79.0705 68.7678 79.0487 70.7257 78.6133 70.7728C78.6133 70.7728 78.1988 70.8774 77.9432 70.5984C77.8868 70.6555 77.8189 70.7 77.744 70.7289C77.6691 70.7578 77.5889 70.7705 77.5087 70.7661C77.4285 70.7618 77.3502 70.7404 77.2789 70.7036C77.2076 70.6667 77.1449 70.6151 77.0951 70.5522C77.0951 70.5522 76.5637 70.8338 76.3289 70.425C76.3289 70.425 75.8456 70.6176 75.6143 70.1582C75.3831 69.6988 75.4974 69.6718 75.3526 68.733C75.4041 68.1957 75.5064 67.6645 75.658 67.1464L75.1868 63.7938Z" fill="#CEA97C"/>
<path d="M79.6499 64.7623C79.6499 64.7623 77.2068 63.4547 75.062 64.6629L75.2461 65.4352C75.2461 65.4352 77.3403 64.7867 79.3471 65.6872L79.6499 64.7623Z" fill="#EA9821"/>
<path d="M84.6774 30.8182C84.6774 30.8182 87.6293 31.9515 88.3762 31.8983C89.1231 31.8451 91.1072 30.9778 91.1072 30.9778C91.8376 31.5801 91.0523 33.3785 91.0523 33.3785L84.2551 34.4472L82.7325 34.6939C82.4664 33.4735 82.3791 31.649 82.4053 30.9368C83.7831 30.847 84.6774 30.8182 84.6774 30.8182Z" fill="#6A371A"/>
<path d="M83.3511 33.3638L83.9192 34.2799C84.0328 34.0303 84.129 33.7731 84.2071 33.5102C84.4783 32.637 84.6361 31.7326 84.6765 30.8192C86.8118 31.0483 88.9623 31.1017 91.1063 30.9787C90.8794 32.7169 91.4832 36.6641 90.0793 38.5923C89.6614 39.1668 89.0654 39.5626 88.2156 39.6663C84.5134 40.1196 83.619 36.1733 83.619 36.1733C83.619 36.1733 82.3896 36.0487 82.2107 34.3427C82.0633 32.9262 83.3511 33.3638 83.3511 33.3638Z" fill="#F4A984"/>
<path d="M89.5072 35.4123C89.7438 35.4088 89.9311 35.0993 89.9256 34.7209C89.92 34.3425 89.7237 34.0386 89.4871 34.0421C89.2505 34.0455 89.0632 34.3551 89.0688 34.7334C89.0743 35.1118 89.2706 35.4157 89.5072 35.4123Z" fill="#6A371A"/>
<path d="M86.2559 35.3276C86.4924 35.3242 86.6798 35.0147 86.6743 34.6363C86.6688 34.258 86.4726 33.954 86.236 33.9574C85.9994 33.9608 85.8121 34.2704 85.8176 34.6487C85.823 35.0271 86.0193 35.3311 86.2559 35.3276Z" fill="#6A371A"/>
<path d="M87.9662 36.5821C88.6922 36.834 89.0587 36.4801 89.0709 36.1462C89.075 36.0398 89.0438 35.935 88.9821 35.8481C88.9203 35.7612 88.8316 35.6972 88.7297 35.6659C88.2873 35.5186 87.9443 34.8674 87.9443 34.8613C87.9504 35.0148 88.1337 35.5822 88.7 35.8743C88.8222 35.937 88.8998 36.0068 88.8964 36.1157C88.8902 36.3049 88.6346 36.6004 87.9653 36.5865L87.9662 36.5821Z" fill="#D88D6C"/>
<path d="M90.4432 33.4561L90.4816 33.2425C89.9472 33.1002 89.3948 33.0376 88.8421 33.0569L88.8229 33.3925C89.5331 33.3114 90.4318 33.4544 90.4432 33.4561Z" fill="#8E5931"/>
<path d="M85.2124 33.3942C85.7961 33.1902 86.8702 33.1841 86.8763 33.1824L86.8187 32.8729C86.776 32.8799 85.8066 32.8816 85.1487 33.2042L85.2124 33.3942Z" fill="#8E5931"/>
<path d="M89.0646 37.303C89.0646 37.303 88.0403 37.5645 86.4365 37.1714C86.4365 37.1714 86.7663 38.5008 87.8727 38.4685C88.8578 38.4363 89.0646 37.303 89.0646 37.303Z" fill="#56362E"/>
<path d="M89.0236 37.3657C89.0236 37.3657 87.9565 37.6743 86.4994 37.2411C86.4994 37.2411 86.721 37.8007 87.8832 37.8208C88.9128 37.8382 89.0236 37.3657 89.0236 37.3657Z" fill="white"/>
<path d="M91.8202 30.0303C91.8202 30.0303 94.2712 30.9474 91.4154 31.2708C91.4154 31.2708 92.6151 32.615 88.5857 32.7422C84.5563 32.8695 83.949 31.6369 83.949 31.6369C83.949 31.6369 78.9188 31.6543 81.8767 30.2421C84.8346 28.8299 91.8202 30.0303 91.8202 30.0303Z" fill="#FFBE5F"/>
<path d="M91.7417 30.6779C91.7417 30.6779 87.3327 31.6072 82.012 30.881C82.012 30.881 80.5654 25.1155 86.6696 24.7424C92.7939 24.3632 91.7417 30.6779 91.7417 30.6779Z" fill="#FFB12B"/>
<path d="M82.5896 26.723C83.5189 30.3842 88.9539 30.7844 90.9817 30.8062C88.0095 31.2445 84.9908 31.2683 82.012 30.8768C82.012 30.8768 81.4213 28.5205 82.5896 26.723Z" fill="#EA9821"/>
<path d="M86.8188 31.3841L86.2586 31.154C86.2586 31.154 86.5378 26.1398 85.1051 24.9874L85.2011 24.5864C85.2011 24.5864 88.1887 24.9909 86.8188 31.3841Z" fill="#EA9C3F"/>
<path d="M86.8187 31.384C86.8187 31.384 87.1607 25.4563 85.2009 24.5846C85.2009 24.5846 86.2052 24.1792 88.049 24.4024C88.049 24.4024 90.0445 25.7605 89.4189 31.1966C88.5618 31.3551 87.6897 31.4179 86.8187 31.384Z" fill="#FFBE5F"/>
<path d="M8.13431 42.4916L7.52352 42.5334L7.30364 39.3159C7.29919 39.2515 7.31529 39.1874 7.34963 39.1327C7.38397 39.078 7.43477 39.0357 7.49473 39.0117L15.4602 35.8334L15.3433 34.1327L13.1672 34.2817L13.1253 33.6715L15.6059 33.4972C15.6867 33.4917 15.7663 33.5184 15.8273 33.5715C15.8884 33.6247 15.9258 33.6998 15.9314 33.7805L16.0849 36.0068C16.0894 36.0712 16.0733 36.1354 16.039 36.19C16.0046 36.2447 15.9538 36.2871 15.8939 36.3111L7.92839 39.4955L8.13431 42.4916Z" fill="#594D41"/>
<path d="M14.7194 35.2388C14.7233 35.3037 14.7014 35.3676 14.6584 35.4165C14.6155 35.4655 14.5549 35.4956 14.49 35.5003L0.446353 36.4661C0.381259 36.4702 0.317199 36.4484 0.268156 36.4054C0.219113 36.3625 0.189071 36.3019 0.184589 36.2369L0.000482164 33.599C-0.00358986 33.534 0.0182559 33.47 0.0612502 33.421C0.104244 33.372 0.164895 33.342 0.229962 33.3375L14.2779 32.3734C14.343 32.3693 14.4071 32.3912 14.4561 32.4341C14.5052 32.4771 14.5352 32.5377 14.5397 32.6027L14.7194 35.2388Z" fill="#FFE4CF"/>
<path d="M8.55838 42.2877L7.16559 42.3833L11.1066 99.6945L12.4993 99.5989L8.55838 42.2877Z" fill="#D4B8A2"/>
<path d="M9.16219 45.9643C9.1744 46.1457 9.09413 46.2703 8.98768 46.2773L7.2932 46.3932C7.18413 46.4011 7.08728 46.2886 7.07506 46.1073L6.7531 41.4305C6.74088 41.2492 6.81854 41.0958 6.9276 41.0879L8.62208 40.9711C8.73115 40.9633 8.82975 41.1045 8.84197 41.2867L9.16219 45.9643Z" fill="#EA9C3F"/>
<path d="M12.0643 55.9177L11.4535 55.5028C11.4535 55.5028 10.7555 54.9327 10.3401 54.7348C9.73722 54.4445 9.53217 53.3793 9.53217 53.3793C9.53217 53.3793 8.60291 53.4351 9.37685 55.0835C9.37685 55.0835 7.45725 54.9754 7.31939 55.3651C7.32378 55.5704 7.34833 55.7747 7.39269 55.9753C7.39269 55.9753 7.17455 56.2795 7.44853 56.697C7.44853 56.697 7.13703 57.1442 7.41363 57.3831C7.41401 57.5011 7.44142 57.6174 7.49375 57.7232C7.54608 57.8289 7.62194 57.9213 7.71553 57.9933C8.0436 58.2382 8.08898 58.1563 8.81842 58.3472C8.81842 58.3472 10.3995 58.4021 11.1298 57.7518L12.0643 55.9177Z" fill="#F4A984"/>
<path d="M12.2807 54.4297L10.9073 54.6999C10.9073 54.6999 10.1892 56.201 11.3942 57.8215L12.9115 57.4676L12.2807 54.4297Z" fill="#FFBE5F"/>
<path d="M23.3568 42.0713C23.3568 42.0713 21.4591 43.0563 20.8919 46.6565C20.4268 49.6082 18.7062 52.5023 18.7062 52.5023C16.4615 52.9563 14.2457 53.5428 12.0705 54.2588C12.0705 54.2588 10.9632 56.6125 12.9186 57.7727C12.9186 57.7727 22.2548 57.6297 22.9136 54.6441C23.5724 51.6585 25.9666 44.9044 23.3568 42.0713Z" fill="#EDAA51"/>
<path d="M34.0881 98.9109H39.0616C39.0616 98.9109 39.3539 97.5484 38.3156 95.8049L34.965 95.8677C34.965 95.8677 34.0008 97.2546 34.0881 98.9109Z" fill="#964E3B"/>
<path d="M39.107 98.911H34.1335V99.6956H39.107V98.911Z" fill="#CC9169"/>
<path d="M36.575 98.061C37.611 98.061 38.4509 97.7854 38.4509 97.4455C38.4509 97.1056 37.611 96.8301 36.575 96.8301C35.5389 96.8301 34.699 97.1056 34.699 97.4455C34.699 97.7854 35.5389 98.061 36.575 98.061Z" fill="#BC7668"/>
<path d="M37.5365 96.6444C37.5365 96.6907 37.5181 96.735 37.4853 96.7677C37.4526 96.8004 37.4082 96.8188 37.3619 96.8188H35.8786C35.8323 96.8188 35.7879 96.8004 35.7552 96.7677C35.7225 96.735 35.7041 96.6907 35.7041 96.6444C35.7041 96.5982 35.7225 96.5539 35.7552 96.5212C35.7879 96.4885 35.8323 96.4701 35.8786 96.4701H37.3619C37.4082 96.4701 37.4526 96.4885 37.4853 96.5212C37.5181 96.5539 37.5365 96.5982 37.5365 96.6444Z" fill="#CEA97C"/>
<path d="M37.5365 96.0342C37.5365 96.0804 37.5181 96.1248 37.4853 96.1575C37.4526 96.1902 37.4082 96.2086 37.3619 96.2086H35.8786C35.8323 96.2086 35.7879 96.1902 35.7552 96.1575C35.7225 96.1248 35.7041 96.0804 35.7041 96.0342C35.7041 95.988 35.7225 95.9436 35.7552 95.9109C35.7879 95.8782 35.8323 95.8599 35.8786 95.8599H37.3619C37.4082 95.8599 37.4526 95.8782 37.4853 95.9109C37.5181 95.9436 37.5365 95.988 37.5365 96.0342Z" fill="#CEA97C"/>
<path d="M27.6444 95.417C27.6444 95.417 28.03 97.4289 27.7386 98.8237H18.3736C18.3736 98.8237 18.0534 96.756 22.1255 96.7612L24.7379 94.9968L27.6444 95.417Z" fill="#964E3B"/>
<path d="M27.764 99.6031L18.4277 99.5507V98.8237H27.764V99.6031Z" fill="#CC9169"/>
<path d="M21.8621 96.7681C21.8621 96.7681 21.7434 98.1794 18.5115 98.1105C18.5124 98.1105 18.9949 96.7681 21.8621 96.7681Z" fill="#BC7668"/>
<path d="M24.7135 98.8237C24.7135 98.8237 24.8008 96.4552 27.784 96.4404C27.784 96.4404 27.9419 98.0392 27.7098 98.8237H24.7135Z" fill="#7F3F32"/>
<path d="M23.1229 97.3147C23.079 97.3148 23.0366 97.2983 23.0043 97.2685L22.1972 96.5232C22.1796 96.5079 22.1653 96.4892 22.155 96.4682C22.1448 96.4473 22.1389 96.4245 22.1376 96.4013C22.1363 96.378 22.1397 96.3547 22.1476 96.3328C22.1555 96.3108 22.1677 96.2907 22.1835 96.2736C22.1993 96.2565 22.2184 96.2427 22.2397 96.233C22.2609 96.2234 22.2838 96.2181 22.3072 96.2175C22.3305 96.2168 22.3537 96.2209 22.3754 96.2294C22.3971 96.2379 22.4169 96.2506 22.4336 96.2669L23.2407 97.0122C23.2665 97.036 23.2846 97.067 23.2925 97.1013C23.3003 97.1355 23.2977 97.1713 23.2849 97.204C23.272 97.2366 23.2496 97.2647 23.2206 97.2845C23.1915 97.3042 23.1572 97.3147 23.1221 97.3147H23.1229Z" fill="#CEA97C"/>
<path d="M23.9082 96.7917C23.8642 96.7918 23.8219 96.7753 23.7895 96.7455L22.9824 96.0002C22.9649 95.9849 22.9505 95.9662 22.9403 95.9453C22.9301 95.9243 22.9241 95.9016 22.9229 95.8783C22.9216 95.855 22.925 95.8318 22.9329 95.8098C22.9408 95.7879 22.953 95.7678 22.9688 95.7506C22.9846 95.7335 23.0037 95.7197 23.0249 95.7101C23.0462 95.7004 23.0691 95.6951 23.0924 95.6945C23.1158 95.6939 23.139 95.6979 23.1607 95.7064C23.1824 95.7149 23.2022 95.7277 23.2189 95.7439L24.026 96.4893C24.0518 96.5131 24.0699 96.5441 24.0777 96.5783C24.0856 96.6125 24.083 96.6483 24.0701 96.681C24.0573 96.7137 24.0349 96.7418 24.0059 96.7615C23.9768 96.7813 23.9425 96.7918 23.9073 96.7917H23.9082Z" fill="#CEA97C"/>
<path d="M24.6063 96.2688C24.5623 96.2689 24.52 96.2524 24.4876 96.2226L23.6805 95.4773C23.648 95.4456 23.6291 95.4025 23.6279 95.3571C23.6267 95.3117 23.6432 95.2677 23.674 95.2343C23.7048 95.2009 23.7474 95.1808 23.7928 95.1784C23.8382 95.1759 23.8827 95.1912 23.917 95.221L24.7241 95.9663C24.7499 95.9902 24.768 96.0212 24.7758 96.0554C24.7837 96.0896 24.7811 96.1254 24.7682 96.1581C24.7554 96.1908 24.733 96.2189 24.704 96.2386C24.6749 96.2584 24.6406 96.2689 24.6054 96.2688H24.6063Z" fill="#CEA97C"/>
<path d="M23.1431 61.1882C23.1431 61.1882 22.5847 74.4706 23.2085 95.4215C23.2085 95.4215 25.1089 97.3245 27.7632 96.0012C27.7632 96.0012 28.805 73.9511 29.1593 68.019C29.1593 68.019 31.5483 81.2552 34.0595 95.8522C34.0595 95.8522 36.7321 97.0839 38.4947 95.5994C38.4947 95.5994 36.5349 72.9904 35.3413 61.7915C35.343 61.788 27.922 62.766 23.1431 61.1882Z" fill="#3D587F"/>
<path d="M29.1618 68.0164C29.1618 68.0164 26.9123 66.9704 26.244 66.0891C25.5756 65.2078 27.9193 71.3194 28.9489 72.2783L29.1618 68.0164Z" fill="#284059"/>
<path d="M23.3569 42.0714C23.3569 42.0714 23.1056 45.3839 23.1431 61.1882C23.1431 61.1882 27.2275 63.167 35.3439 61.7879C35.3439 61.7879 35.3631 57.044 36.4983 52.8249C36.4983 52.8249 38.554 44.8922 37.5157 42.5761C37.5148 42.5761 31.7054 38.6455 23.3569 42.0714Z" fill="#FFBE5F"/>
<path d="M33.5115 94.3135L33.8666 96.2583C33.8666 96.2583 36.5776 97.1492 38.9335 95.6952V93.7504C38.9335 93.7504 36.2452 94.8836 33.5115 94.3135Z" fill="#253951"/>
<path d="M28.2037 94.215L28.0964 96.2687C28.0964 96.2687 25.6663 97.4987 22.9614 95.5225V93.4304C22.9614 93.4304 24.8147 94.3893 28.2037 94.215Z" fill="#253951"/>
<path d="M28.9384 40.4961L28.9253 41.1333C28.9253 41.1333 29.4951 41.8063 30.7367 41.7583C31.9783 41.7104 32.4957 40.9877 32.4957 40.9877L32.4591 39.3611C31.0019 40.1404 29.5509 40.5283 28.9384 40.4961Z" fill="#F4A984"/>
<path d="M32.4591 39.3612L32.3719 37.201L28.7944 37.3397L28.9358 40.4962C29.5509 40.5284 31.002 40.1405 32.4591 39.3612Z" fill="#D88D6C"/>
<path d="M26.5992 31.1433L26.395 29.6422C26.395 29.6422 25.7249 25.6323 31.0326 25.7143C35.6423 25.7875 35.3377 30.2298 35.3377 30.2298L35.1929 32.029L34.0734 33.816L26.5992 31.1433Z" fill="#B55735"/>
<path d="M34.8152 31.7659L34.1268 32.7509C34.0155 32.467 33.9239 32.1757 33.8528 31.8792C33.4348 30.1619 33.6163 28.3749 33.6163 28.3749C29.6584 29.8141 26.5967 28.7236 26.5967 28.7236C26.868 32.9357 25.561 34.9485 27.0076 37.1792C27.4387 37.8444 28.0783 38.3203 29.0145 38.4868C33.1085 39.2156 34.3423 34.8762 34.3423 34.8762C34.3423 34.8762 35.7192 34.8117 36.0211 32.9218C36.2776 31.3562 34.8152 31.7659 34.8152 31.7659Z" fill="#F4A984"/>
<path d="M26.3033 34.6224C26.3033 34.6224 29.8677 36.2177 34.069 33.8135C34.1489 34.2789 34.2005 34.7488 34.2234 35.2204C34.2531 35.944 34.5262 39.3533 29.7054 39.2713C24.8217 39.1894 26.3033 34.6224 26.3033 34.6224Z" fill="#B55735"/>
<path d="M28.3687 32.948C28.3978 32.5273 28.2082 32.1715 27.9452 32.1534C27.6823 32.1352 27.4455 32.4616 27.4164 32.8824C27.3873 33.3031 27.5769 33.6589 27.8399 33.677C28.1029 33.6952 28.3396 33.3688 28.3687 32.948Z" fill="#6A371A"/>
<path d="M31.9957 33.0431C32.0247 32.6223 31.835 32.2666 31.572 32.2485C31.3091 32.2304 31.0724 32.5568 31.0434 32.9776C31.0144 33.3983 31.204 33.754 31.467 33.7721C31.73 33.7902 31.9667 33.4638 31.9957 33.0431Z" fill="#6A371A"/>
<path d="M29.4846 35.0688C28.6609 35.305 28.2744 34.8884 28.2813 34.5118C28.2834 34.3931 28.3247 34.2784 28.3987 34.1856C28.4727 34.0928 28.5753 34.0269 28.6906 33.9983C29.1914 33.8615 29.6085 33.1571 29.6128 33.1501C29.5971 33.3245 29.3581 33.9417 28.7106 34.2319C28.571 34.2947 28.4803 34.3671 28.4777 34.4882C28.4777 34.6992 28.7394 35.0435 29.4855 35.0688H29.4846Z" fill="#D87C60"/>
<path d="M28.5597 30.949C28.5597 30.949 27.6915 31.0553 27.1366 31.2881C26.5817 31.5208 26.5948 31.051 26.7728 30.8679C26.9508 30.6849 27.9071 30.1775 28.4175 30.3057C28.9279 30.4338 28.804 30.8444 28.5597 30.949Z" fill="#B55735"/>
<path d="M30.7062 30.984C30.7062 30.984 31.57 31.1173 32.1215 31.3666C32.6729 31.616 32.6703 31.147 32.4993 30.9587C32.3283 30.7704 31.3877 30.2325 30.8729 30.3485C30.3581 30.4644 30.4654 30.8706 30.7062 30.984Z" fill="#B55735"/>
<path d="M35.1971 27.1623C33.3334 24.5881 30.7314 24.5471 30.7314 24.5471C30.7314 24.5471 33.0001 25.7021 33.5288 26.9313L33.849 29.8167C34.7608 30.0337 35.3385 30.2299 35.3385 30.2299C35.5426 28.4559 35.1971 27.1623 35.1971 27.1623Z" fill="#EA9C3F"/>
<path d="M30.7323 24.5471C28.092 24.7956 27.1479 25.8268 27.1479 25.8268C26.5825 26.6026 26.1768 29.6624 26.1768 29.6624C28.7508 28.8081 31.9984 29.373 33.8499 29.8132L33.5288 26.9295C33.0036 25.7021 30.7323 24.5471 30.7323 24.5471Z" fill="#FFBE5F"/>
<path d="M23.6612 28.3609C23.6612 28.3609 23.5216 27.7751 24.2406 27.5764C24.9595 27.3776 29.4252 26.8415 31.4469 28.0279C31.9213 28.2775 32.3747 28.565 32.8028 28.8874C33.3342 29.305 33.8499 29.8141 33.8499 29.8141L33.5672 29.8263L23.6612 28.3609Z" fill="#FFB12B"/>
<path d="M26.1769 29.6659C26.1769 29.6659 21.9756 28.3662 24.3446 27.8589C26.7135 27.3515 30.1522 27.5311 31.4174 28.2485C31.4174 28.2485 32.4191 28.7375 33.563 29.8298C33.5665 29.8298 29.017 29.0217 26.1769 29.6659Z" fill="#EA9821"/>
<path d="M31.1567 24.474C31.1588 24.3416 30.9652 24.2312 30.7243 24.2273C30.4834 24.2235 30.2864 24.3276 30.2842 24.46C30.2821 24.5924 30.4757 24.7028 30.7166 24.7067C30.9575 24.7106 31.1545 24.6064 31.1567 24.474Z" fill="#FFB12B"/>
<path d="M27.9011 39.0011C27.8954 39.001 27.8898 38.9999 27.8845 38.9976C27.8793 38.9954 27.8745 38.9921 27.8706 38.988C26.4596 37.5401 26.8235 34.9667 26.8235 34.9415C26.8244 34.9357 26.8263 34.9302 26.8293 34.9253C26.8323 34.9203 26.8362 34.916 26.8409 34.9126C26.8456 34.9091 26.8509 34.9066 26.8565 34.9052C26.8621 34.9038 26.8679 34.9036 26.8737 34.9044C26.8794 34.9053 26.8849 34.9073 26.8899 34.9102C26.8948 34.9132 26.8992 34.9172 26.9026 34.9218C26.906 34.9265 26.9085 34.9317 26.9099 34.9374C26.9113 34.943 26.9116 34.9488 26.9108 34.9545C26.9108 34.9798 26.5495 37.5113 27.9299 38.9278C27.936 38.934 27.9401 38.9419 27.9417 38.9504C27.9432 38.959 27.9422 38.9678 27.9388 38.9758C27.9353 38.9837 27.9295 38.9905 27.9222 38.9951C27.9149 38.9998 27.9063 39.0022 27.8976 39.0019L27.9011 39.0011Z" fill="#CC705A"/>
<path d="M29.1436 39.308C29.1365 39.3078 29.1295 39.3059 29.1233 39.3024C29.117 39.2989 29.1117 39.2939 29.1079 39.2879C27.8078 37.2934 28.0739 35.1403 28.0765 35.1193C28.078 35.1078 28.0841 35.0973 28.0933 35.0902C28.1025 35.0831 28.1142 35.0799 28.1258 35.0814C28.1374 35.0829 28.1479 35.089 28.155 35.0982C28.1621 35.1074 28.1653 35.1191 28.1638 35.1307C28.1638 35.1516 27.902 37.2742 29.1812 39.2408C29.1874 39.2505 29.1895 39.2623 29.1871 39.2736C29.1846 39.2849 29.1778 39.2947 29.1681 39.301C29.1608 39.3057 29.1523 39.3082 29.1436 39.308Z" fill="#CC705A"/>
<path d="M30.0003 39.3202C29.9915 39.32 29.9829 39.3172 29.9758 39.312C29.9686 39.3069 29.9632 39.2997 29.9602 39.2914C29.3642 37.6718 29.537 35.1691 29.5387 35.1438C29.5395 35.1322 29.5449 35.1215 29.5537 35.1139C29.5624 35.1063 29.5738 35.1024 29.5854 35.1033C29.597 35.1041 29.6078 35.1094 29.6154 35.1182C29.623 35.1269 29.6268 35.1383 29.626 35.1499C29.626 35.1752 29.4515 37.6596 30.0422 39.2618C30.0461 39.2727 30.0456 39.2846 30.0407 39.2951C30.0357 39.3056 30.0269 39.3136 30.016 39.3176C30.011 39.3195 30.0057 39.3203 30.0003 39.3202Z" fill="#CC705A"/>
<path d="M31.3562 39.1807C31.3485 39.1806 31.341 39.1784 31.3344 39.1744C31.3278 39.1704 31.3224 39.1648 31.3187 39.158C30.5334 37.6883 30.8502 35.0121 30.8536 34.9851C30.8543 34.9794 30.8561 34.9738 30.8589 34.9688C30.8617 34.9637 30.8655 34.9593 30.87 34.9557C30.8746 34.9522 30.8798 34.9495 30.8854 34.948C30.8909 34.9464 30.8968 34.946 30.9025 34.9468C30.914 34.9483 30.9243 34.9543 30.9314 34.9634C30.9384 34.9726 30.9415 34.9841 30.94 34.9956C30.94 35.0217 30.6215 37.6718 31.3955 39.1162C31.3992 39.1229 31.401 39.1305 31.4008 39.1381C31.4007 39.1458 31.3985 39.1532 31.3945 39.1598C31.3905 39.1663 31.3849 39.1717 31.3782 39.1754C31.3715 39.179 31.3639 39.1809 31.3562 39.1807Z" fill="#CC705A"/>
<path d="M32.803 38.6602C32.7924 38.6601 32.7821 38.6561 32.7742 38.6489C31.8101 37.7877 31.8266 34.9005 31.8284 34.7759C31.8284 34.7515 31.8476 34.7515 31.8694 34.7515C31.8912 34.7515 31.9156 34.7515 31.9156 34.7767C31.9156 34.802 31.8964 37.758 32.8309 38.5931C32.8372 38.5983 32.8416 38.6053 32.8436 38.6131C32.8455 38.621 32.8449 38.6292 32.8417 38.6367C32.8386 38.6441 32.8331 38.6504 32.8262 38.6544C32.8192 38.6585 32.8111 38.6603 32.803 38.6594V38.6602Z" fill="#CC705A"/>
<path d="M33.9564 37.2446C33.9465 37.2445 33.937 37.2411 33.9293 37.235C33.1597 36.6126 32.8884 34.4804 32.877 34.3897C32.8756 34.3781 32.8789 34.3665 32.8861 34.3574C32.8933 34.3482 32.9038 34.3423 32.9154 34.3409C32.927 34.3395 32.9386 34.3428 32.9478 34.35C32.957 34.3572 32.9629 34.3677 32.9643 34.3792C32.9643 34.401 33.2426 36.5673 33.9843 37.1687C33.9914 37.1744 33.9965 37.1822 33.999 37.1909C34.0015 37.1997 34.0011 37.2089 33.9981 37.2175C33.995 37.226 33.9893 37.2334 33.9818 37.2386C33.9744 37.2437 33.9655 37.2465 33.9564 37.2463V37.2446Z" fill="#CC705A"/>
<path d="M28.4088 36.039C28.373 35.9436 28.3622 35.8407 28.3774 35.74C28.2421 35.7156 28.1715 35.6964 28.1715 35.6964C28.1617 35.8776 28.1894 36.0589 28.2526 36.229C28.3364 36.0582 28.4088 36.039 28.4088 36.039Z" fill="#511E14"/>
<path d="M30.7532 36.0138C30.7926 35.915 30.7926 35.8049 30.7532 35.7061C29.5709 35.8987 28.7385 35.8054 28.3747 35.7409C28.3595 35.8416 28.3703 35.9446 28.4061 36.0399C28.4061 36.0399 28.3336 36.0591 28.2499 36.23C28.3773 36.5656 28.6923 36.9326 29.4714 36.9204C30.3597 36.9064 30.727 36.4897 30.8789 36.141C30.8506 36.087 30.8069 36.0427 30.7532 36.0138Z" fill="white"/>
<path d="M30.9862 35.6659C30.9077 35.6807 30.8318 35.6938 30.7559 35.706C30.7952 35.8048 30.7952 35.9149 30.7559 36.0137C30.8092 36.0428 30.8526 36.0871 30.8806 36.141C30.9462 35.9909 30.9821 35.8296 30.9862 35.6659Z" fill="#511E14"/>
<path d="M23.1491 61.1961L22.9161 59.1179L24.0504 58.6934C24.0504 58.6934 24.5452 44.8095 25.8182 41.2468C25.8182 41.2468 26.5669 40.8109 27.2501 40.9382C27.2501 40.9382 26.4796 47.0708 26.6611 49.5987L32.3405 49.6423C32.7799 46.7899 33.4155 43.971 34.2427 41.2058C34.8352 41.2305 35.4085 41.4234 35.8953 41.762C35.8953 41.762 34.0263 50.3519 33.8081 58.6925C33.8081 58.6925 34.6152 58.9915 35.7932 59.362L35.3464 61.7897C35.3464 61.7897 27.6261 63.9481 23.1491 61.1961Z" fill="#3D587F"/>
<path d="M25.8217 51.2506C25.8217 51.2506 29.0065 51.2925 32.7148 51.3378C32.7148 51.3378 32.4531 53.8658 32.4103 55.522C32.4103 55.522 28.8102 58.4641 25.6472 55.4349C25.6472 55.4349 25.3855 53.3026 25.8217 51.2506Z" fill="#486587"/>
<path d="M43.7413 83.3071H36.2462L35.3876 74.0669H44.5501L43.7413 83.3071Z" fill="#FFE4CF"/>
<path d="M36.1238 81.9673L36.2477 83.3072H43.7428L44.1512 78.6226C42.8947 80.3032 40.5336 81.9769 36.1238 81.9673Z" fill="#EAC9B2"/>
<path d="M44.9531 73.5438H35.0061V74.5899H44.9531V73.5438Z" fill="#EAC9B2"/>
<path d="M42.5805 73.5439C42.5805 73.5439 42.6198 71.4779 41.578 70.4118C41.3845 70.2144 41.1522 70.059 40.8957 69.9555C40.6393 69.852 40.3641 69.8026 40.0877 69.8103C39.4175 69.8103 38.8661 70.0318 38.4569 70.4676C37.4377 71.5459 37.5424 74.1375 37.5442 74.1576C37.5435 74.2087 37.5234 74.2576 37.4881 74.2946C37.4527 74.3315 37.4047 74.3537 37.3536 74.3567C37.3025 74.3596 37.2522 74.3432 37.2128 74.3106C37.1734 74.2781 37.1477 74.2318 37.1411 74.1811C37.1358 74.0939 37.0233 71.3977 38.1628 70.1913C38.6541 69.6682 39.3015 69.4067 40.0885 69.4067C40.4197 69.3993 40.7488 69.4604 41.0551 69.5863C41.3615 69.7122 41.6384 69.9001 41.8685 70.1381C43.0299 71.3271 42.988 73.4559 42.9854 73.543L42.5805 73.5439Z" fill="#594D41"/>
<path d="M42.9847 78.8614H37.0191L36.8158 76.1591H43.1854L42.9847 78.8614Z" fill="#EDAA51"/>
<path d="M39.3915 66.3601L39.0189 67.1159C39.0189 67.1159 38.1463 68.2134 38.1385 68.7077C38.1271 69.3423 37.7109 70.2375 37.7109 70.2375C37.7109 70.2375 38.3837 70.6734 38.7022 69.5811C38.7022 69.5811 38.7763 70.8608 39.1602 70.9114C39.3127 70.9227 39.465 70.8871 39.5965 70.8094C39.6449 70.8613 39.7039 70.9024 39.7694 70.9299C39.8349 70.9574 39.9055 70.9706 39.9765 70.9688C40.0475 70.967 40.1173 70.9502 40.1813 70.9194C40.2454 70.8886 40.3021 70.8445 40.3478 70.7902C40.3478 70.7902 40.7963 71.0081 41.0136 70.6525C41.0136 70.6525 41.2963 70.8739 41.5118 70.4738C41.7273 70.0736 41.75 70.0257 41.8992 69.1993C41.8992 69.1993 41.8756 67.5003 41.209 66.8875L39.3915 66.3601Z" fill="#F4A984"/>
<path d="M38.7764 65.7699L38.8374 67.1306C38.8374 67.1306 39.8138 68.0808 41.8259 67.305L41.9323 66.0358L38.7764 65.7699Z" fill="#F0F2F1"/>
<path d="M37.5147 42.5759C37.5147 42.5759 40.6995 43.2515 41.8774 54.6928C41.8774 54.6928 43.1609 61.3101 42.0354 66.3608C41.4778 66.6267 40.8609 66.7444 40.2445 66.7026C39.6281 66.6607 39.0329 66.4608 38.5164 66.122C38.5164 66.122 38.0173 57.8005 38.0513 55.8357L36.8114 50.4423C36.8114 50.4423 35.6492 43.5008 37.5147 42.5759Z" fill="#FFBE5F"/>
</g>
<defs>
<linearGradient id="paint0_linear" x1="48926.3" y1="12299.9" x2="80617.5" y2="12299.9" gradientUnits="userSpaceOnUse">
<stop stop-color="#D1E332"/>
<stop offset="1" stop-color="#AEB500"/>
</linearGradient>
<linearGradient id="paint1_linear" x1="29193.7" y1="10698.5" x2="48104.6" y2="10698.5" gradientUnits="userSpaceOnUse">
<stop stop-color="#D1E332"/>
<stop offset="1" stop-color="#AEB500"/>
</linearGradient>
<linearGradient id="paint2_linear" x1="17186.5" y1="8993.66" x2="28276.7" y2="8993.66" gradientUnits="userSpaceOnUse">
<stop stop-color="#D1E332"/>
<stop offset="1" stop-color="#AEB500"/>
</linearGradient>
<clipPath id="clip0">
<rect width="102" height="100" fill="white"/>
</clipPath>
</defs>
</svg>
