<svg width="103" height="102" viewBox="0 0 103 102" fill="none" xmlns="http://www.w3.org/2000/svg">
<g clip-path="url(#clip0)">
<path d="M10.2273 101.992H94.7152C94.7152 101.992 106.494 85.713 92.7649 70.4173C81.8081 58.2083 105.476 12.9192 73.5639 1.47558C54.8293 -5.24407 42.7925 13.1117 34.2383 14.0587C26.7251 14.8914 17.7233 17.9217 13.674 28.2149C8.35681 41.7152 16.1314 54.1074 9.45249 61.3936C-2.13981 74.0597 10.2273 101.992 10.2273 101.992Z" fill="url(#paint0_linear)"/>
<path d="M85.0279 28.5249C84.2062 28.5249 83.1042 27.3369 83.1042 27.3369C83.1042 27.3369 84.0058 26.1724 84.826 26.1786C85.6462 26.1849 86.2144 26.7155 86.2707 27.3619C86.3271 28.0084 85.8481 28.5328 85.0279 28.5249Z" fill="white"/>
<path d="M80.1341 24.38C80.1262 25.579 79.0697 26.875 79.0697 26.875C79.0697 26.875 78.0351 25.244 78.0429 24.045C78.0507 22.8461 78.525 22.1574 79.1026 22.2497C79.6801 22.3421 80.1419 23.181 80.1341 24.38Z" fill="white"/>
<path d="M75.1467 26.5317C75.6617 28.2143 74.8932 30.7876 74.8932 30.7876C74.8932 30.7876 72.8583 29.2521 72.3496 27.5694C71.8409 25.8868 72.1321 24.5829 72.9037 24.2965C73.6754 24.01 74.6302 24.849 75.1467 26.5317Z" fill="white"/>
<path d="M70.2018 30.1632C71.4806 31.752 71.8219 35.3129 71.8219 35.3129C71.8219 35.3129 69.042 34.9998 67.7647 33.4064C66.4875 31.813 66.2183 30.0787 66.8913 29.1803C67.5644 28.2818 68.923 28.5745 70.2018 30.1632Z" fill="white"/>
<path d="M66.4607 37.2055C67.9461 37.6547 69.5615 40.2687 69.5615 40.2687C69.5615 40.2687 67.5485 41.787 66.0631 41.3378C64.5776 40.8886 63.7152 39.6786 63.8294 38.5375C63.9437 37.3965 64.9752 36.7563 66.4607 37.2055Z" fill="white"/>
<path d="M65.3318 44.9294C66.3883 44.6273 68.0272 45.6072 68.0272 45.6072C68.0272 45.6072 67.088 47.329 66.0299 47.6295C64.9718 47.93 64.1516 47.5199 63.9512 46.7749C63.7509 46.0298 64.2831 45.2346 65.3318 44.9294Z" fill="white"/>
<path d="M82.4634 32.4814C81.4695 32.2811 80.3033 30.6407 80.3033 30.6407C80.3033 30.6407 81.5556 29.4918 82.5558 29.6937C83.556 29.8956 84.1617 30.647 84.1351 31.4155C84.1085 32.184 83.4574 32.6833 82.4634 32.4814Z" fill="white"/>
<path d="M79.3126 37.1289C78.0729 36.3698 77.0618 33.7683 77.0618 33.7683C77.0618 33.7683 79.0762 33.0232 80.3159 33.7824C81.5556 34.5415 82.1207 35.775 81.8436 36.7C81.5666 37.6251 80.5507 37.8881 79.3126 37.1289Z" fill="white"/>
<path d="M75.1936 43.4448C74.0556 42.1065 73.6831 39.0182 73.6831 39.0182C73.6831 39.0182 76.0826 39.1982 77.2284 40.5396C78.3742 41.8811 78.6371 43.3806 78.0752 44.1851C77.5133 44.9897 76.3237 44.7831 75.1936 43.4448Z" fill="white"/>
<path d="M71.7801 47.6756C71.3309 46.6144 71.6502 44.8143 71.6502 44.8143C71.6502 44.8143 73.0589 45.6064 73.5129 46.6692C73.9668 47.732 73.8588 48.6336 73.3798 48.9106C72.9008 49.1877 72.2293 48.7369 71.7801 47.6756Z" fill="white"/>
<path d="M68.2678 77.2701L67.9547 77.2419C67.463 73.011 67.1992 68.7568 67.1643 64.4976C67.1048 57.8202 67.6245 48.3472 70.4388 41.1424C73.2531 33.9375 76.2303 30.4986 78.226 28.8942C80.4095 27.1364 82.0108 27.498 82.0108 27.498C82.0108 27.498 80.516 27.5481 78.3872 29.2605C76.4228 30.8508 73.4989 34.238 70.7174 41.3537C67.9297 48.4928 67.4132 57.9031 67.4726 64.5398C67.5076 68.7945 67.773 73.0441 68.2678 77.2701Z" fill="white"/>
<path d="M68.3736 101.992C68.3736 101.992 65.7002 92.0102 59.2059 84.461C50.9633 74.8785 53.3722 66.6359 60.6726 67.107C68.79 67.6314 69.8919 69.6646 71.4728 64.0923C73.0538 58.52 72.6593 34.1099 89.4733 34.0739C106.287 34.0379 93.8263 66.4574 86.7028 77.6005C79.5793 88.7435 84.3346 89.6733 88.0943 88.7498C91.8541 87.8263 95.415 91.6846 93.8326 95.8733C92.2501 100.062 88.9803 101.997 88.9803 101.997L68.3736 101.992Z" fill="url(#paint1_linear)"/>
<path d="M76.7146 75.0193C75.8803 72.0234 73.0816 68.9148 70.5271 66.581C70.4697 66.6802 70.4113 66.7725 70.3518 66.8581C72.9893 69.2795 75.8599 72.5133 76.4861 75.5625C74.7737 79.6713 73.6279 83.5108 73.6279 86.9184C73.6368 91.9914 74.2143 97.0475 75.3497 101.992H75.7066C74.5692 97.0478 73.9916 91.9916 73.9848 86.9184C73.9848 84.7724 74.4543 82.4496 75.226 79.9906C75.7832 79.593 82.4826 74.8816 89.412 72.8467L89.5935 72.4711C83.2401 74.2649 77.0276 78.3502 75.3794 79.485C76.8648 74.9865 79.3442 70.0528 81.9144 64.9406L82.2274 64.3145C86.1959 64.1346 90.1301 63.4948 93.9512 62.408L94.0795 62.0559C90.2683 63.162 86.3413 63.8208 82.3777 64.0187C82.8264 63.1255 83.2735 62.2296 83.7191 61.3311C84.616 61.2263 90.6782 60.4796 95.1236 59.0052C95.1627 58.8831 95.2018 58.7594 95.2394 58.6373C91.0852 60.0461 85.2578 60.8287 83.8772 61.0087C86.294 56.1016 88.5479 51.1476 89.8017 46.4424C90.6219 46.4096 94.9279 46.1137 97.8503 43.4403C97.8503 43.2963 97.833 43.1569 97.8252 43.0161C95.086 45.7224 90.8739 46.0902 89.8784 46.1466C89.941 45.9055 90.0052 45.6645 90.0615 45.425C91.2762 40.2831 91.6002 36.7222 91.5219 34.2679C91.4045 34.2459 91.2856 34.2272 91.165 34.2084C91.2527 36.6283 90.9396 40.183 89.7156 45.3655C89.2029 47.4559 88.5503 49.5095 87.7622 51.5123C86.5663 51.1601 79.0578 48.7903 75.9022 43.985C75.849 44.1071 75.7968 44.2302 75.7457 44.3544C79.0437 49.1018 86.4473 51.4419 87.6526 51.7972C85.9746 56.0985 83.7582 60.511 81.5888 64.8264C79.8232 68.3341 78.103 71.7573 76.7146 75.0193Z" fill="#AEB500"/>
<path d="M78.6208 101.991C79.1389 99.5711 80.8122 92.8327 84.0444 88.5063C83.9522 88.4447 83.8648 88.3761 83.783 88.3013C80.4647 92.7106 78.7742 99.5914 78.2639 101.991H78.6208Z" fill="#AEB500"/>
<path d="M92.5676 89.9627C92.4841 89.8844 92.3986 89.8088 92.3109 89.7357C90.8849 90.5316 89.5366 91.4591 88.2835 92.5062C86.9596 93.6014 85.7583 94.8368 84.7006 96.1909C84.4987 95.186 84.0745 92.1321 85.56 88.9907C85.4394 88.9797 85.3221 88.9641 85.2062 88.9437C83.5173 92.5892 84.3078 96.0969 84.4236 96.5571C83.1776 98.2192 82.1712 100.048 81.434 101.99H81.8002C83.0674 98.7273 85.0821 95.8071 87.6825 93.4642C88.8201 93.7161 89.9812 93.8462 91.1464 93.8524C92.1805 93.868 93.2107 93.7228 94.2002 93.4219C94.1924 93.3139 94.1814 93.2059 94.1673 93.0995C91.8288 93.8931 88.8783 93.4016 87.9595 93.2137C88.1442 93.0572 88.3336 92.8866 88.5277 92.7254C89.782 91.6762 91.1349 90.751 92.5676 89.9627Z" fill="#AEB500"/>
<path d="M56.1235 68.3406C58.75 69.3831 61.6176 71.0971 63.9232 73.9192C65.0298 75.2732 66.0128 76.9684 66.8972 78.8561C65.4118 78.5023 59.3464 77.1343 54.7977 77.2517C54.8337 77.3503 54.8666 77.4489 54.9042 77.5491C59.7408 77.4458 66.2883 79.0188 67.06 79.2082C68.6127 82.644 69.8227 86.6808 70.7806 90.4875C69.8414 90.1744 66.8972 89.3355 62.9997 89.7409L63.1703 90.0258C67.3464 89.6188 70.3705 90.6519 70.8698 90.8444C71.0295 91.4872 71.1824 92.1211 71.3284 92.7462C69.0567 91.9789 66.6459 91.712 64.2613 91.9636L64.4178 92.2484C66.7854 92.0167 69.175 92.3079 71.4177 93.1015C71.8591 95.008 72.2394 96.8018 72.5697 98.3592C72.8827 99.8337 73.1426 101.064 73.3711 101.995H73.7311C73.4995 101.056 73.2349 99.8133 72.9156 98.306C71.4271 91.2764 68.9352 79.5135 64.2253 73.7517C61.9197 70.9343 59.0599 69.2 56.4256 68.134C56.3145 68.1966 56.2174 68.2655 56.1235 68.3406Z" fill="#DEF2FF"/>
<path d="M56.6714 101.992C56.6714 101.992 71.4975 86.0888 64.1236 74.6358C56.7497 63.1828 47.3002 80.0563 44.7645 70.9668C42.2288 61.8774 69.3907 20.5656 40.3521 12.8457C11.3134 5.12586 26.5136 42.1317 22.1012 47.9732C17.1456 54.541 1.46951 37.0728 7.81193 64.9077C12.7848 86.7493 4.96943 76.1776 2.05022 83.0866C-1.59839 91.7237 5.43118 101.992 5.43118 101.992H56.6714Z" fill="url(#paint2_linear)"/>
<path d="M1 88.2699C1 88.0977 1.00939 87.924 1.01722 87.7518C3.97086 88.8271 6.91667 87.9975 7.80261 87.6954C6.5504 85.2928 5.11193 83.0263 3.46685 81.1104C3.58432 81.0186 3.70715 80.934 3.83468 80.8568C6.63493 84.1548 8.84507 88.4374 10.5355 92.6714C10.4385 90.3235 9.90944 84.6134 7.18903 79.8848C7.32942 79.8429 7.46737 79.7933 7.60226 79.7361C11.1006 85.9314 10.9676 93.6669 10.9644 93.7687C12.0836 96.7067 12.9539 99.5601 13.6066 101.991H13.1777C12.0977 97.9964 10.4228 92.8405 8.04366 88.14C6.80455 88.5666 5.50361 88.786 4.19312 88.7896C3.10706 88.7976 2.02747 88.6219 1 88.2699H1Z" fill="#AEB500"/>
<path d="M19.1229 81.7156C18.2057 81.6623 14.1486 81.2366 9.13974 77.9308C9.18669 77.7742 9.22739 77.6177 9.26496 77.4408C14.0985 80.6528 18.0304 81.1349 19.0588 81.2053C18.7316 78.8151 18.3372 76.4187 17.8613 74.0818C16.9472 73.955 12.5943 73.2334 8.95034 70.5881C8.91382 70.3638 8.87521 70.1337 8.83451 69.8979C12.2781 72.5322 16.581 73.368 17.7565 73.5543C16.39 67.0366 14.3818 61.0322 11.436 57.0612C9.87384 54.9669 8.51363 52.5658 7.30212 49.9987C7.39084 49.8654 7.48864 49.7383 7.59483 49.6184C8.80008 52.2042 10.1712 54.6272 11.7287 56.7231C13.715 59.4028 15.2787 62.9841 16.5105 67.0241C16.7312 63.8481 17.1867 54.2375 15.1159 49.166L15.6089 49.2631C17.985 55.5617 16.8925 67.5218 16.8345 68.126C20.0433 79.3833 20.8228 93.7352 20.9872 101.993H20.5786C20.4785 96.8516 20.1388 89.3493 19.1229 81.7156Z" fill="#AEB500"/>
<path d="M44.793 95.5789C44.793 94.5834 44.8149 81.4039 47.9454 73.7482C48.1139 73.7268 48.281 73.6965 48.4463 73.6574C45.6539 80.1846 45.2641 91.4654 45.2109 94.7164C47.7153 89.6935 50.9773 85.2122 54.3004 81.4117C54.197 80.6823 53.585 75.9036 54.4976 71.1295C54.6458 71.0763 54.795 71.0242 54.9452 70.973C54.0687 75.2712 54.496 79.6633 54.6619 80.9985C57.2129 78.1383 59.9525 75.452 62.8623 72.9578C62.9641 73.0705 63.0658 73.1879 63.166 73.3115C59.4895 76.4487 56.0921 79.8989 53.0121 83.6234C54.0437 84.4734 58.7692 87.9936 65.3777 87.1281C65.3276 87.3034 65.2754 87.4776 65.2212 87.6509C64.5849 87.7281 63.9446 87.7679 63.3037 87.7698C57.5467 87.7698 53.549 84.6878 52.7132 83.9866C52.0558 84.7984 51.4083 85.6374 50.7707 86.5035C51.4171 87.5632 55.1143 93.087 62.3755 94.0496C62.2858 94.2072 62.1955 94.3637 62.1047 94.5192C55.0094 93.4752 51.2872 88.158 50.4905 86.8839C47.2786 91.3167 44.4439 96.4038 42.7519 101.984H42.323C42.9825 99.7893 43.8082 97.6481 44.793 95.5789Z" fill="#85CEFF"/>
<path d="M31.053 101.992C31.053 98.8867 31.1031 95.4056 31.2487 91.6521H31.2393C31.2033 91.3391 27.8771 63.0533 18.52 49.5858C18.6938 49.5858 18.8659 49.5749 19.035 49.5608C26.7846 61.0169 30.3596 82.4093 31.3489 89.3465C31.6964 82.0336 32.4038 73.8505 33.7296 65.5546C33.6764 65.4654 33.6075 65.3386 33.5089 65.1586C30.8151 60.2593 26.4809 52.7805 22.3956 47.479C22.4694 47.3236 22.5332 47.1636 22.5866 47C26.7282 52.3423 31.1203 59.9118 33.8423 64.8643C34.1554 62.9432 34.5044 61.0211 34.8895 59.0979C36.425 51.4422 37.0887 43.81 37.2374 36.757C35.8662 36.757 28.4171 36.5457 22.2234 33.1772C22.2078 32.9863 22.1937 32.7938 22.1796 32.6028C28.3467 36.0464 35.9116 36.2436 37.2468 36.253C37.3141 32.6435 37.2468 29.1937 37.0902 25.9724C35.8505 25.4605 27.7566 22.0295 23.3473 17.9896C23.4099 17.833 23.4725 17.6765 23.5414 17.5341C27.7018 21.3611 35.4373 24.7421 37.0652 25.4292C36.8054 20.195 36.3279 15.5963 35.8505 11.968C35.9899 11.9852 36.1292 12.0009 36.2716 12.0212C37.0713 18.165 37.5306 24.3484 37.6475 30.5429C43.2104 29.6617 48.8703 25.5341 52.4031 22.4818C52.4657 22.6384 52.5315 22.7824 52.5894 22.9373C49.0065 26.0209 43.2871 30.1767 37.6569 31.0532C37.7695 38.5445 37.3704 46.9499 35.9554 55.4994C37.649 54.8357 45.5035 51.6222 51.0007 47.047C50.9193 47.3246 50.8368 47.6016 50.7534 47.8781C44.9478 52.5364 36.9932 55.6356 35.8599 56.0629C35.6815 57.1116 35.4879 58.164 35.2792 59.22C33.8235 66.4734 32.8953 73.8019 32.3178 80.6859C33.404 78.8233 36.594 74.5298 44.6254 70.1878C44.6419 70.3596 44.6675 70.5304 44.7021 70.6996C35.0491 75.9557 32.4931 81.1962 32.227 81.7988C31.6306 89.3418 31.4522 96.3056 31.4553 101.991L31.053 101.992Z" fill="#AEB500"/>
<path d="M69.5254 56.7269C68.9901 54.3321 67.2104 52.6385 65.3321 51.1844C63.4945 49.7506 61.5019 48.5391 59.5547 47.2634C57.5746 45.9674 55.6118 44.5931 54.0059 42.84C52.0618 40.7191 50.9129 38.0972 50.4511 35.2704C49.5464 29.7137 50.9442 23.7501 55.0264 19.7305C57.1473 17.6425 59.7738 16.1304 62.4896 14.9549C64.8875 13.914 67.9163 12.9686 68.5158 10.0525C68.5894 9.69253 68.0384 9.53913 67.9633 9.89601C67.3669 12.8465 64.0047 13.6338 61.6365 14.7139C59.3606 15.7485 57.1739 17.032 55.2988 18.6974C51.5875 21.9939 49.6983 26.7304 49.6184 31.6531C49.537 36.6337 51.2103 41.2481 54.9669 44.5805C58.4011 47.6265 62.6758 49.5299 66.1147 52.5634C67.3262 53.634 68.4016 54.858 68.8633 56.4421C69.3031 57.9541 69.2092 59.5851 68.7553 61.0815C67.849 64.0555 65.5105 66.3251 63.0515 68.1017C62.7557 68.3161 63.0405 68.8123 63.3411 68.5963C67.0899 65.8868 70.6383 61.6951 69.5254 56.7269Z" fill="#192438"/>
<path d="M65.0004 72.7871H54.291V74.0753H65.0004V72.7871Z" fill="#2A3082"/>
<path d="M80.309 19.9613L93.0329 26.4571L95.2869 23.2092L82.6177 15.5066L80.309 19.9613Z" fill="#5E5E5E"/>
<path d="M78.9906 22.5395C75.6284 21.2106 67.4844 16.6276 66.3277 15.5538C65.171 14.48 66.4592 7.23288 67.9086 5.73024C69.358 4.22759 85.1405 12.0711 85.9466 12.9836C86.7527 13.8962 80.4447 23.1218 78.9906 22.5395Z" fill="#5E5E5E"/>
<path d="M68.8934 7.95396C67.7495 9.37365 67.0722 11.1121 66.954 12.9315C66.929 13.2993 67.5019 13.2977 67.5269 12.9315C67.6346 11.2616 68.2525 9.665 69.2973 8.35779C69.5242 8.07292 69.1219 7.66908 68.8934 7.95396Z" fill="#848484"/>
<path d="M70.3642 8.6958C69.2575 10.1734 68.2323 11.6698 68.0726 13.5481C68.0413 13.9159 68.6142 13.9128 68.6455 13.5481C68.8021 11.7762 69.8273 10.3581 70.8588 8.97911C71.0795 8.68953 70.5833 8.40466 70.3642 8.6958Z" fill="#848484"/>
<path d="M85.656 12.9806C85.0769 16.7544 81.9996 20.1698 78.963 22.2673C78.6625 22.4754 78.9473 22.9716 79.2526 22.7619C82.394 20.5862 85.6075 17.0612 86.2086 13.134C86.2634 12.7724 85.7124 12.6174 85.656 12.9806Z" fill="#848484"/>
<path d="M78.2016 9.52015C76.7444 8.99266 75.4295 8.17247 73.9832 7.64184C72.4681 7.07992 70.8793 6.67608 69.3344 6.20337C68.9807 6.09537 68.8304 6.64791 69.1779 6.75591C70.7212 7.22549 72.3084 7.62776 73.8267 8.19438C75.2699 8.73596 76.5878 9.55146 78.0451 10.0727C78.3973 10.1979 78.546 9.64381 78.2016 9.52015Z" fill="white"/>
<path d="M83.1009 12.3087C81.9739 11.5782 80.8542 10.8358 79.7418 10.0813C79.4287 9.8747 79.1485 10.3693 79.4522 10.5759C80.5646 11.3293 81.6843 12.0718 82.8113 12.8033C83.1212 13.0036 83.4092 12.5075 83.1009 12.3087Z" fill="white"/>
<path d="M75.0475 88.4631H50.2992V89.9658H75.0475V88.4631Z" fill="#2A3082"/>
<path d="M80.5243 88.4635H44.0178C41.983 88.4635 41.7091 74.0757 43.3197 74.0757H75.5844C77.7851 74.0757 84.2809 81.7454 84.6034 82.6658C84.9258 83.5862 83.6908 88.4635 80.5243 88.4635Z" fill="#5E5E5E"/>
<path d="M47.2389 84.0541H39.9385C39.026 84.0541 38.9727 88.8312 39.6161 88.8312H47.2389C48.0262 88.8391 48.3486 84.0541 47.2389 84.0541Z" fill="#2A3082"/>
<path d="M81.5058 83.7063C80.8672 82.8658 79.8544 82.534 78.8449 82.3853C76.0368 81.9689 73.1411 81.8953 70.3079 81.6824L70.25 80.5696C70.2484 80.4941 70.2177 80.4221 70.1644 80.3688C70.111 80.3154 70.0391 80.2847 69.9636 80.2831C67.6585 80.2111 65.3534 80.2033 63.0483 80.2596C62.9727 80.2608 62.9005 80.2914 62.8471 80.3449C62.7936 80.3983 62.7631 80.4705 62.7618 80.5461C62.7663 80.933 62.729 81.3192 62.6507 81.6981L58.711 81.6465L56.8154 81.6214C56.5024 81.6214 53.638 81.7138 54.4472 80.6149C54.5865 80.4256 54.394 80.1986 54.1999 80.1845C52.6453 80.0687 51.0853 80.0415 49.5276 80.1031C49.452 80.1043 49.3799 80.1349 49.3264 80.1883C49.2729 80.2418 49.2424 80.314 49.2412 80.3896C49.2393 80.7273 49.2031 81.064 49.1332 81.3944L44.0868 81.4445C43.7189 81.4445 43.7174 82.0205 44.0868 82.0174L49.3632 81.9642C49.4256 81.9633 49.486 81.9425 49.5356 81.9047C49.5851 81.867 49.6213 81.8143 49.6387 81.7545C49.7293 81.3992 49.7844 81.0359 49.8031 80.6697C51.1169 80.6269 52.4291 80.6468 53.7397 80.7292C53.4454 81.6793 54.8683 82.1567 55.6775 82.1802C58.077 82.2491 60.4797 82.2428 62.8777 82.2741C62.94 82.2733 63.0004 82.2524 63.05 82.2147C63.0996 82.1769 63.1357 82.1242 63.1532 82.0644C63.2542 81.6594 63.3119 81.2449 63.3253 80.8278C65.4468 80.7809 67.5677 80.7882 69.6881 80.8497L69.746 81.9454C69.748 82.0208 69.7788 82.0925 69.8321 82.1458C69.8854 82.1991 69.9571 82.2299 70.0325 82.2319L77.2279 82.8016C78.261 82.883 79.4193 82.8971 80.3444 83.4371C81.4494 84.0851 81.6435 85.3624 81.739 86.5285C81.7688 86.8932 82.3416 86.8963 82.3119 86.5285C82.2368 85.5518 82.1178 84.5109 81.5058 83.7063Z" fill="#848484"/>
<path d="M71.988 80.6599C71.912 80.6599 71.8391 80.6901 71.7854 80.7438C71.7317 80.7975 71.7015 80.8704 71.7015 80.9464C71.7015 81.0223 71.7317 81.0952 71.7854 81.1489C71.8391 81.2026 71.912 81.2328 71.988 81.2328C72.0639 81.2328 72.1368 81.2026 72.1905 81.1489C72.2442 81.0952 72.2744 81.0223 72.2744 80.9464C72.2744 80.8704 72.2442 80.7975 72.1905 80.7438C72.1368 80.6901 72.0639 80.6599 71.988 80.6599Z" fill="#848484"/>
<path d="M74.5827 80.8043C74.5067 80.8043 74.4339 80.8345 74.3802 80.8882C74.3264 80.9419 74.2963 81.0148 74.2963 81.0908C74.2963 81.1667 74.3264 81.2396 74.3802 81.2933C74.4339 81.347 74.5067 81.3772 74.5827 81.3772C74.6587 81.3772 74.7315 81.347 74.7852 81.2933C74.8389 81.2396 74.8691 81.1667 74.8691 81.0908C74.8691 81.0148 74.8389 80.9419 74.7852 80.8882C74.7315 80.8345 74.6587 80.8043 74.5827 80.8043Z" fill="#848484"/>
<path d="M77.4092 81.1082C77.3333 81.1082 77.2604 81.1383 77.2067 81.1921C77.153 81.2458 77.1228 81.3186 77.1228 81.3946C77.1228 81.4706 77.153 81.5434 77.2067 81.5971C77.2604 81.6508 77.3333 81.681 77.4092 81.681C77.4852 81.681 77.5581 81.6508 77.6118 81.5971C77.6655 81.5434 77.6957 81.4706 77.6957 81.3946C77.6957 81.3186 77.6655 81.2458 77.6118 81.1921C77.5581 81.1383 77.4852 81.1082 77.4092 81.1082Z" fill="#848484"/>
<path d="M80.3807 81.7345C80.3047 81.7345 80.2319 81.7647 80.1781 81.8184C80.1244 81.8721 80.0942 81.945 80.0942 82.0209C80.0942 82.0969 80.1244 82.1698 80.1781 82.2235C80.2319 82.2772 80.3047 82.3074 80.3807 82.3074C80.4566 82.3074 80.5295 82.2772 80.5832 82.2235C80.6369 82.1698 80.6671 82.0969 80.6671 82.0209C80.6671 81.945 80.6369 81.8721 80.5832 81.8184C80.5295 81.7647 80.4566 81.7345 80.3807 81.7345Z" fill="#848484"/>
<path d="M82.4562 83.4528C82.3803 83.4528 82.3074 83.4829 82.2537 83.5367C82.2 83.5904 82.1698 83.6632 82.1698 83.7392C82.1698 83.8152 82.2 83.888 82.2537 83.9418C82.3074 83.9955 82.3803 84.0256 82.4562 84.0257C82.5322 84.0256 82.6051 83.9955 82.6588 83.9418C82.7125 83.888 82.7427 83.8152 82.7427 83.7392C82.7427 83.6632 82.7125 83.5904 82.6588 83.5367C82.6051 83.4829 82.5322 83.4528 82.4562 83.4528Z" fill="#848484"/>
<path d="M82.7781 85.1349C82.7022 85.1349 82.6293 85.1651 82.5756 85.2188C82.5219 85.2725 82.4917 85.3454 82.4917 85.4213C82.4917 85.4973 82.5219 85.5702 82.5756 85.6239C82.6293 85.6776 82.7022 85.7078 82.7781 85.7078C82.8541 85.7078 82.927 85.6776 82.9807 85.6239C83.0344 85.5702 83.0646 85.4973 83.0646 85.4213C83.0646 85.3454 83.0344 85.2725 82.9807 85.2188C82.927 85.1651 82.8541 85.1349 82.7781 85.1349Z" fill="#848484"/>
<path d="M79.4322 85.7208C79.3148 85.3733 78.7607 85.522 78.8796 85.8773C78.9861 86.1904 77.7839 86.4753 77.5679 86.4784C77.2799 86.4784 76.9935 86.4784 76.7055 86.4784C76.1467 86.4784 75.5863 86.4784 75.026 86.4784H71.5965L64.3556 86.4643L50.0663 86.4377C49.9904 86.4377 49.9175 86.4679 49.8638 86.5216C49.8101 86.5753 49.7799 86.6482 49.7799 86.7241C49.7799 86.8001 49.8101 86.873 49.8638 86.9267C49.9175 86.9804 49.9904 87.0106 50.0663 87.0106L66.8334 87.0419L75.2169 87.0575C76.0575 87.0513 80.0692 87.6022 79.4322 85.7208Z" fill="#848484"/>
<path d="M56.791 75.1799C54.5881 75.0348 52.3832 74.9305 50.1762 74.8668C48.0443 74.8074 45.8091 74.6227 43.6866 74.8543C43.3235 74.8934 43.3203 75.4663 43.6866 75.4272C45.8091 75.1955 48.0443 75.3787 50.1762 75.4397C52.3832 75.5023 54.5881 75.6067 56.791 75.7528C57.1588 75.7763 57.1573 75.2034 56.791 75.1799Z" fill="white"/>
<path d="M65.6361 75.217C63.3216 75.2473 61.0071 75.2259 58.6926 75.1529C58.3248 75.1419 58.3248 75.7132 58.6926 75.7257C61.0061 75.7988 63.3206 75.8202 65.6361 75.7899C66.004 75.7852 66.0055 75.2123 65.6361 75.217Z" fill="white"/>
<path d="M96.0695 35.476H93.6809V38.4014H96.0695V35.476Z" fill="#284075"/>
<path d="M93.6224 26.4525C93.6224 26.4525 92.2809 36.2964 92.6566 36.2964C93.0323 36.2964 96.5212 36.4936 97.0581 36.2964C97.595 36.0992 95.8231 26.4525 95.8231 26.4525H93.6224Z" fill="#848484"/>
<path d="M94.7147 29.0706C96.8793 29.0706 98.6341 27.3158 98.6341 25.1512C98.6341 22.9866 96.8793 21.2318 94.7147 21.2318C92.5501 21.2318 90.7953 22.9866 90.7953 25.1512C90.7953 27.3158 92.5501 29.0706 94.7147 29.0706Z" fill="#5E5E5E"/>
<path d="M94.7161 27.1021C95.7932 27.1021 96.6664 26.229 96.6664 25.1518C96.6664 24.0747 95.7932 23.2015 94.7161 23.2015C93.6389 23.2015 92.7657 24.0747 92.7657 25.1518C92.7657 26.229 93.6389 27.1021 94.7161 27.1021Z" fill="#848484"/>
<path d="M98.0842 25.4578C98.0592 25.0915 97.4879 25.0899 97.5114 25.4578C97.599 26.7867 96.4298 27.6272 95.2183 27.7431C94.1101 27.8479 93.1333 27.3502 92.4869 26.4596C92.2725 26.1637 91.7763 26.4502 91.9923 26.7491C92.8125 27.8777 94.085 28.5116 95.4922 28.2925C96.8994 28.0733 98.1844 26.9698 98.0842 25.4578Z" fill="#848484"/>
<path d="M97.8163 23.966C97.7396 23.6279 97.7412 23.3618 97.5142 23.0785C97.3069 22.8237 97.062 22.602 96.7879 22.4211C96.4749 22.2129 96.1947 22.7091 96.4983 22.9157C96.7059 23.0536 96.8921 23.2213 97.0509 23.4135C97.2246 23.6279 97.2074 23.8627 97.2622 24.1194C97.3467 24.4778 97.8993 24.3244 97.8163 23.966Z" fill="#848484"/>
<path d="M95.8447 21.8357C94.5299 21.5571 93.1947 21.7669 92.3479 22.8876C92.1256 23.1819 92.6234 23.4667 92.8425 23.1772C93.5218 22.2787 94.6629 22.1691 95.6928 22.3945C96.0513 22.465 96.2047 21.9124 95.8447 21.8357Z" fill="white"/>
<path d="M59.0161 48.2816C57.6497 50.0769 53.1809 53.796 49.6074 51.315C45.5988 48.532 47.5303 43.3651 49.6074 40.7276C51.6845 38.0902 69.7147 15.1372 71.8857 12.7909C74.0567 10.4446 78.1467 12.4215 77.6771 15.8463C77.1935 19.3509 74.329 19.1333 72.6057 21.813C70.8823 24.4927 60.896 45.8116 59.0161 48.2816Z" fill="#848484"/>
<path d="M76.0103 15.6322C76.0729 16.5604 74.9537 17.1396 74.132 17.1771C73.3493 17.2131 72.789 16.623 72.5104 15.9406C72.1237 14.992 72.4884 14.175 73.4495 13.84C74.301 13.5426 75.2871 13.8118 75.5219 14.7698C75.6096 15.1282 76.1621 14.9764 76.0745 14.6133C75.4484 12.0384 71.1799 13.1716 71.8483 15.7731C72.1347 16.8782 73.0488 17.8518 74.2572 17.7312C75.3529 17.6217 76.6677 16.8719 76.5847 15.6275C76.5581 15.266 75.9852 15.2644 76.0103 15.6322Z" fill="#5E5E5E"/>
<path d="M55.802 38.4032C55.802 38.4032 68.717 19.7484 69.4934 18.6809C70.2697 17.6134 70.539 17.5774 70.8066 17.7527C71.0743 17.9281 71.4515 18.7874 72.4705 18.922C73.4895 19.0566 71.1463 20.1476 70.0005 22.0087C68.8547 23.8698 59.9077 40.9765 59.4788 40.7918C59.0499 40.6071 57.5269 38.555 55.802 38.4032Z" fill="#5E5E5E"/>
<path d="M47.4588 101.253C44.6304 101.253 42.3311 98.8884 42.3311 95.9801C42.3311 93.0719 44.632 90.7068 47.4588 90.7068H78.3242C81.1526 90.7068 83.4519 93.0719 83.4519 95.9801C83.4519 98.8884 81.1416 101.253 78.3242 101.253H47.4588Z" fill="#192438"/>
<path d="M78.1076 89.9659H47.6697C46.88 89.9659 46.0981 90.1215 45.3686 90.4236C44.6391 90.7258 43.9762 91.1687 43.4179 91.7271C42.8595 92.2855 42.4166 92.9483 42.1144 93.6778C41.8123 94.4074 41.6567 95.1893 41.6567 95.9789C41.6567 96.7685 41.8123 97.5504 42.1144 98.28C42.4166 99.0095 42.8595 99.6724 43.4179 100.231C43.9762 100.789 44.6391 101.232 45.3686 101.534C46.0981 101.836 46.88 101.992 47.6697 101.992H78.1076C78.8973 101.992 79.6792 101.836 80.4087 101.534C81.1382 101.232 81.8011 100.789 82.3594 100.231C82.9178 99.6724 83.3607 99.0095 83.6629 98.28C83.965 97.5504 84.1206 96.7685 84.1206 95.9789C84.1206 95.1893 83.965 94.4074 83.6629 93.6778C83.3607 92.9483 82.9178 92.2855 82.3594 91.7271C81.8011 91.1687 81.1382 90.7258 80.4087 90.4236C79.6792 90.1215 78.8973 89.9659 78.1076 89.9659ZM78.1076 101.037H47.6697C46.9979 101.049 46.3306 100.927 45.7066 100.678C45.0825 100.429 44.5143 100.058 44.0351 99.5874C43.5559 99.1166 43.1753 98.555 42.9154 97.9354C42.6556 97.3159 42.5218 96.6507 42.5218 95.9789C42.5218 95.3071 42.6556 94.642 42.9154 94.0224C43.1753 93.4028 43.5559 92.8412 44.0351 92.3704C44.5143 91.8995 45.0825 91.5288 45.7066 91.2799C46.3306 91.031 46.9979 90.9089 47.6697 90.9208H78.1076C78.7794 90.9089 79.4467 91.031 80.0708 91.2799C80.6948 91.5288 81.263 91.8995 81.7422 92.3704C82.2214 92.8412 82.6021 93.4028 82.8619 94.0224C83.1217 94.642 83.2555 95.3071 83.2555 95.9789C83.2555 96.6507 83.1217 97.3159 82.8619 97.9354C82.6021 98.555 82.2214 99.1166 81.7422 99.5874C81.263 100.058 80.6948 100.429 80.0708 100.678C79.4467 100.927 78.7794 101.049 78.1076 101.037Z" fill="#2A3B5E"/>
<path d="M47.6698 100.524C50.1802 100.524 52.2153 98.4885 52.2153 95.9781C52.2153 93.4677 50.1802 91.4326 47.6698 91.4326C45.1594 91.4326 43.1243 93.4677 43.1243 95.9781C43.1243 98.4885 45.1594 100.524 47.6698 100.524Z" fill="#4989C9"/>
<path d="M58.1718 100.525C60.0943 100.525 61.6529 98.9668 61.6529 97.0442C61.6529 95.1217 60.0943 93.5631 58.1718 93.5631C56.2492 93.5631 54.6907 95.1217 54.6907 97.0442C54.6907 98.9668 56.2492 100.525 58.1718 100.525Z" fill="#4989C9"/>
<path d="M67.6067 100.525C69.5292 100.525 71.0878 98.9668 71.0878 97.0442C71.0878 95.1217 69.5292 93.5631 67.6067 93.5631C65.6841 93.5631 64.1256 95.1217 64.1256 97.0442C64.1256 98.9668 65.6841 100.525 67.6067 100.525Z" fill="#4989C9"/>
<path d="M78.1078 100.524C80.6182 100.524 82.6532 98.4885 82.6532 95.9781C82.6532 93.4677 80.6182 91.4326 78.1078 91.4326C75.5973 91.4326 73.5623 93.4677 73.5623 95.9781C73.5623 98.4885 75.5973 100.524 78.1078 100.524Z" fill="#4989C9"/>
<path d="M50.5855 96.2518C50.5526 95.8871 49.9797 95.884 50.0126 96.2518C50.1269 97.515 49.2472 98.5246 48.0185 98.7562C46.5237 99.0317 45.4155 98.2131 45.1556 96.7449C44.9334 95.4927 45.5047 94.1403 46.7115 93.6347C48.0373 93.0791 49.1454 93.8993 49.7309 95.0544C49.8968 95.3831 50.3914 95.0935 50.2255 94.7648C49.5133 93.3561 48.1077 92.4514 46.519 93.0806C45.0226 93.6723 44.3119 95.3722 44.6047 96.8967C44.9302 98.5903 46.0979 99.5326 47.8338 99.3557C49.4366 99.1867 50.7357 97.9126 50.5855 96.2518Z" fill="#8DB8E3"/>
<path d="M46.247 94.8867C46.171 94.8867 46.0982 94.9169 46.0445 94.9706C45.9908 95.0243 45.9606 95.0972 45.9606 95.1732C45.9606 95.2491 45.9908 95.322 46.0445 95.3757C46.0982 95.4294 46.171 95.4596 46.247 95.4596C46.323 95.4596 46.3958 95.4294 46.4496 95.3757C46.5033 95.322 46.5335 95.2491 46.5335 95.1732C46.5335 95.0972 46.5033 95.0243 46.4496 94.9706C46.3958 94.9169 46.323 94.8867 46.247 94.8867Z" fill="#8DB8E3"/>
<path d="M47.4536 94.0823C47.3776 94.0823 47.3047 94.1125 47.251 94.1662C47.1973 94.2199 47.1671 94.2927 47.1671 94.3687C47.1671 94.4447 47.1973 94.5175 47.251 94.5713C47.3047 94.625 47.3776 94.6552 47.4536 94.6552C47.5295 94.6552 47.6024 94.625 47.6561 94.5713C47.7098 94.5175 47.74 94.4447 47.74 94.3687C47.74 94.2927 47.7098 94.2199 47.6561 94.1662C47.6024 94.1125 47.5295 94.0823 47.4536 94.0823Z" fill="#8DB8E3"/>
<path d="M49.0112 94.9663C48.9352 94.9663 48.8623 94.9965 48.8086 95.0502C48.7549 95.1039 48.7247 95.1768 48.7247 95.2528C48.7247 95.3287 48.7549 95.4016 48.8086 95.4553C48.8623 95.509 48.9352 95.5392 49.0112 95.5392C49.0871 95.5392 49.16 95.509 49.2137 95.4553C49.2674 95.4016 49.2976 95.3287 49.2976 95.2528C49.2976 95.1768 49.2674 95.1039 49.2137 95.0502C49.16 94.9965 49.0871 94.9663 49.0112 94.9663Z" fill="#8DB8E3"/>
<path d="M49.3343 96.5751C49.2583 96.5751 49.1855 96.6053 49.1318 96.659C49.078 96.7127 49.0479 96.7856 49.0479 96.8615C49.0479 96.9375 49.078 97.0103 49.1318 97.0641C49.1855 97.1178 49.2583 97.148 49.3343 97.148C49.4103 97.148 49.4831 97.1178 49.5368 97.0641C49.5906 97.0103 49.6207 96.9375 49.6207 96.8615C49.6207 96.7856 49.5906 96.7127 49.5368 96.659C49.4831 96.6053 49.4103 96.5751 49.3343 96.5751Z" fill="#8DB8E3"/>
<path d="M48.3127 97.5723C48.2367 97.5723 48.1639 97.6024 48.1101 97.6562C48.0564 97.7099 48.0262 97.7827 48.0262 97.8587C48.0262 97.9347 48.0564 98.0075 48.1101 98.0613C48.1639 98.115 48.2367 98.1452 48.3127 98.1452C48.3887 98.1452 48.4615 98.115 48.5152 98.0613C48.5689 98.0075 48.5991 97.9347 48.5991 97.8587C48.5991 97.7827 48.5689 97.7099 48.5152 97.6562C48.4615 97.6024 48.3887 97.5723 48.3127 97.5723Z" fill="#8DB8E3"/>
<path d="M46.5695 97.5723C46.4936 97.5723 46.4207 97.6024 46.367 97.6562C46.3133 97.7099 46.2831 97.7827 46.2831 97.8587C46.2831 97.9347 46.3133 98.0075 46.367 98.0613C46.4207 98.115 46.4936 98.1452 46.5695 98.1452C46.6455 98.1452 46.7183 98.115 46.7721 98.0613C46.8258 98.0075 46.856 97.9347 46.856 97.8587C46.856 97.7827 46.8258 97.7099 46.7721 97.6562C46.7183 97.6024 46.6455 97.5723 46.5695 97.5723Z" fill="#8DB8E3"/>
<path d="M45.8709 96.3633C45.7949 96.3633 45.7221 96.3935 45.6684 96.4472C45.6147 96.5009 45.5845 96.5737 45.5845 96.6497C45.5845 96.7257 45.6147 96.7985 45.6684 96.8523C45.7221 96.906 45.7949 96.9362 45.8709 96.9362C45.9469 96.9362 46.0197 96.906 46.0735 96.8523C46.1272 96.7985 46.1574 96.7257 46.1574 96.6497C46.1574 96.5737 46.1272 96.5009 46.0735 96.4472C46.0197 96.3935 45.9469 96.3633 45.8709 96.3633Z" fill="#8DB8E3"/>
<path d="M78.6464 92.7676C77.1438 92.4843 75.458 93.09 75.004 94.6616C74.5579 96.2033 75.1121 98.3415 76.8276 98.7688C77.186 98.858 77.3379 98.2992 76.9841 98.2163C75.5503 97.8609 75.1512 95.9153 75.602 94.6678C76.0982 93.2951 77.8059 93.0384 79.0268 93.4579C80.1788 93.8539 81.0976 94.8541 81.0741 96.1188C81.0475 97.6042 79.8892 98.2053 78.6292 98.5857C78.277 98.6921 78.4273 99.2446 78.7857 99.1382C80.351 98.6686 81.6955 97.8124 81.6533 95.992C81.611 94.3219 80.2195 93.065 78.6464 92.7676Z" fill="#8DB8E3"/>
<path d="M77.2286 97.0531C77.1526 97.0531 77.0798 97.0833 77.026 97.137C76.9723 97.1907 76.9421 97.2636 76.9421 97.3396C76.9421 97.4155 76.9723 97.4884 77.026 97.5421C77.0798 97.5958 77.1526 97.626 77.2286 97.626C77.3046 97.626 77.3774 97.5958 77.4311 97.5421C77.4849 97.4884 77.515 97.4155 77.515 97.3396C77.515 97.2636 77.4849 97.1907 77.4311 97.137C77.3774 97.0833 77.3046 97.0531 77.2286 97.0531Z" fill="#8DB8E3"/>
<path d="M76.4273 95.9799C76.3513 95.9799 76.2785 96.01 76.2248 96.0638C76.1711 96.1175 76.1409 96.1903 76.1409 96.2663C76.1409 96.3423 76.1711 96.4151 76.2248 96.4689C76.2785 96.5226 76.3513 96.5527 76.4273 96.5527C76.5033 96.5527 76.5761 96.5226 76.6299 96.4689C76.6836 96.4151 76.7138 96.3423 76.7138 96.2663C76.7138 96.1903 76.6836 96.1175 76.6299 96.0638C76.5761 96.01 76.5033 95.9799 76.4273 95.9799Z" fill="#8DB8E3"/>
<path d="M76.6018 94.4048C76.5258 94.4048 76.4529 94.435 76.3992 94.4887C76.3455 94.5424 76.3153 94.6153 76.3153 94.6912C76.3153 94.7672 76.3455 94.8401 76.3992 94.8938C76.4529 94.9475 76.5258 94.9777 76.6018 94.9777C76.6777 94.9777 76.7506 94.9475 76.8043 94.8938C76.858 94.8401 76.8882 94.7672 76.8882 94.6912C76.8882 94.6153 76.858 94.5424 76.8043 94.4887C76.7506 94.435 76.6777 94.4048 76.6018 94.4048Z" fill="#8DB8E3"/>
<path d="M77.8549 93.8158C77.779 93.8158 77.7061 93.846 77.6524 93.8997C77.5987 93.9534 77.5685 94.0263 77.5685 94.1022C77.5685 94.1782 77.5987 94.2511 77.6524 94.3048C77.7061 94.3585 77.779 94.3887 77.8549 94.3887C77.9309 94.3887 78.0038 94.3585 78.0575 94.3048C78.1112 94.2511 78.1414 94.1782 78.1414 94.1022C78.1414 94.0263 78.1112 93.9534 78.0575 93.8997C78.0038 93.846 77.9309 93.8158 77.8549 93.8158Z" fill="#8DB8E3"/>
<path d="M79.557 94.2628C79.481 94.2628 79.4081 94.293 79.3544 94.3467C79.3007 94.4004 79.2705 94.4733 79.2705 94.5493C79.2705 94.6252 79.3007 94.6981 79.3544 94.7518C79.4081 94.8055 79.481 94.8357 79.557 94.8357C79.6329 94.8357 79.7058 94.8055 79.7595 94.7518C79.8132 94.6981 79.8434 94.6252 79.8434 94.5493C79.8434 94.4733 79.8132 94.4004 79.7595 94.3467C79.7058 94.293 79.6329 94.2628 79.557 94.2628Z" fill="#8DB8E3"/>
<path d="M80.3588 95.8716C80.2828 95.8716 80.21 95.9018 80.1563 95.9555C80.1026 96.0092 80.0724 96.0821 80.0724 96.158C80.0724 96.234 80.1026 96.3069 80.1563 96.3606C80.21 96.4143 80.2828 96.4445 80.3588 96.4445C80.4348 96.4445 80.5076 96.4143 80.5614 96.3606C80.6151 96.3069 80.6452 96.234 80.6452 96.158C80.6452 96.0821 80.6151 96.0092 80.5614 95.9555C80.5076 95.9018 80.4348 95.8716 80.3588 95.8716Z" fill="#8DB8E3"/>
<path d="M79.0564 97.1788C78.9805 97.1788 78.9076 97.209 78.8539 97.2627C78.8002 97.3165 78.77 97.3893 78.77 97.4653C78.77 97.5412 78.8002 97.6141 78.8539 97.6678C78.9076 97.7215 78.9805 97.7517 79.0564 97.7517C79.1324 97.7517 79.2053 97.7215 79.259 97.6678C79.3127 97.6141 79.3429 97.5412 79.3429 97.4653C79.3429 97.3893 79.3127 97.3165 79.259 97.2627C79.2053 97.209 79.1324 97.1788 79.0564 97.1788Z" fill="#8DB8E3"/>
<path d="M58.8692 95.1355C58.3769 94.9951 57.8491 95.0544 57.4002 95.3005C56.9514 95.5467 56.6176 95.9598 56.4712 96.4503C56.3165 96.9102 56.3351 97.4108 56.5236 97.8579C56.7121 98.305 57.0576 98.6678 57.4949 98.878C58.1899 99.1911 59.6471 99.0345 59.8428 98.1314C59.9195 97.7714 59.3732 97.618 59.2902 97.9749C59.1541 98.6088 57.9473 98.5133 57.5575 98.2613C56.9831 97.8919 56.825 97.1656 57.052 96.5395C57.1589 96.2257 57.3775 95.9622 57.6661 95.7991C57.9547 95.6361 58.2932 95.5848 58.6172 95.6552C59.2589 95.7882 60.0259 96.4503 59.8522 97.1703C59.7645 97.5288 60.3217 97.6806 60.4047 97.3269C60.6536 96.3251 59.7958 95.3953 58.8692 95.1355Z" fill="#8DB8E3"/>
<path d="M69.205 96.784C69.1346 97.6652 68.8591 98.5199 67.8057 98.559C67.0465 98.5872 66.2999 98.1552 66.0839 97.4007C65.6144 95.7634 68.1751 94.314 69.0297 96.0311C69.194 96.3614 69.6886 96.0718 69.5243 95.7415C68.3754 93.4374 64.8881 95.2907 65.5314 97.5525C65.8366 98.6263 66.9511 99.2508 68.0358 99.1178C69.302 98.9613 69.6918 97.9282 69.7826 96.7918C69.8076 96.4193 69.2347 96.4193 69.205 96.784Z" fill="#8DB8E3"/>
<path d="M58.425 90.2947C54.5447 90.3573 50.6598 90.0928 46.7889 90.3714C46.4257 90.398 46.4289 90.783 46.7889 90.7564C50.6598 90.4778 54.5447 90.7424 58.425 90.6798C58.7991 90.6751 58.7944 90.2885 58.425 90.2947Z" fill="#374F7D"/>
<path d="M67.0433 90.3267C64.6213 90.3267 62.1998 90.3131 59.7789 90.286C59.4095 90.286 59.4095 90.6664 59.7789 90.6711C62.1998 90.7034 64.6213 90.717 67.0433 90.7118C67.4111 90.7118 67.4127 90.3251 67.0433 90.3267Z" fill="#374F7D"/>
<path d="M92.979 37.8789C92.979 37.8789 88.4977 41.1659 87.7448 41.9721C86.9919 42.7782 89.0862 48.8968 89.4901 49.3006C89.8939 49.7044 93.4032 50.8032 93.4032 50.8032C93.4032 50.8032 93.9933 49.8375 93.8603 49.6215C93.7272 49.4055 91.4717 48.4131 91.3371 48.0108C91.2025 47.6086 90.4981 43.5811 90.7298 43.315C90.9614 43.049 94.8714 41.0877 94.8714 41.0877L92.979 37.8789Z" fill="#284075"/>
<path d="M96.9874 37.8789C96.9874 37.8789 101.982 41.1659 102.82 41.9767C103.657 42.7876 101.323 48.8983 100.876 49.3053C100.428 49.7122 96.5085 50.8079 96.5085 50.8079C96.5085 50.8079 95.8511 49.8422 95.9998 49.6262C96.1485 49.4102 98.6607 48.4178 98.8172 48.0155C98.9738 47.6132 99.7564 43.5858 99.495 43.3197C99.2336 43.0536 94.8806 41.0924 94.8806 41.0924L96.9874 37.8789Z" fill="#284075"/>
<path d="M92.1925 37.4282H97.4893C97.8838 37.4282 98.0622 39.0749 98.0622 39.3613C98.0622 39.6478 95.5578 41.6873 94.8769 41.6873C94.196 41.6873 91.9029 40.0579 91.7276 39.5585C91.6149 39.2345 91.9593 37.6458 92.1925 37.4282Z" fill="#3A5794"/>
<path d="M91.9556 41.3043C91.4234 41.7425 90.8709 42.1636 90.3575 42.6222C90.0757 42.8742 89.8049 43.1559 89.7032 43.5332C89.5889 43.962 89.7267 44.4254 89.8143 44.8433C89.9708 45.604 90.1399 46.3631 90.3027 47.1223C90.3622 47.4009 90.791 47.2788 90.73 47.0049L90.3935 45.4396C90.2855 44.9341 89.9881 44.1655 90.1289 43.6521C90.2495 43.2139 90.7018 42.9086 91.0321 42.6347L92.2655 41.6189C92.4894 41.4357 92.1747 41.1227 91.9556 41.3043Z" fill="#223766"/>
<path d="M92.5465 49.3317C92.2992 49.0953 91.9987 48.9826 91.6966 48.837C91.3602 48.6731 91.1016 48.3836 90.9766 48.0309C90.8623 47.7695 90.4804 47.9949 90.5931 48.2548C90.7171 48.5886 90.9378 48.878 91.227 49.0859C91.551 49.2988 91.9486 49.3724 92.2335 49.6463C92.4385 49.8435 92.7531 49.5304 92.5465 49.3317Z" fill="#223766"/>
<path d="M100.508 42.7202C100.039 42.1927 99.2203 41.9094 98.5519 41.7341C98.497 41.7236 98.4401 41.7341 98.3927 41.7637C98.3452 41.7932 98.3106 41.8396 98.2958 41.8935C98.281 41.9474 98.287 42.0049 98.3127 42.0546C98.3384 42.1042 98.3819 42.1424 98.4345 42.1614C98.9698 42.3023 99.6304 42.512 100.042 42.9111C100.57 43.4214 100.341 44.406 100.264 45.0821C100.192 45.7082 100.108 46.3437 99.97 46.9605C99.801 47.7431 99.4347 48.1547 98.7366 48.5633C98.6887 48.5944 98.6546 48.6427 98.6414 48.6983C98.6282 48.7539 98.6369 48.8124 98.6657 48.8617C98.6945 48.9111 98.7412 48.9474 98.796 48.9633C98.8509 48.9791 98.9098 48.9732 98.9604 48.9468C99.5615 48.5946 100.07 48.2221 100.289 47.538C100.565 46.6756 100.646 45.7051 100.737 44.8067C100.806 44.1226 101.02 43.279 100.508 42.7202Z" fill="#223766"/>
<path d="M96.1447 38.8569C95.9882 38.6253 95.6032 38.8162 95.7581 39.0495C96.3404 39.9292 95.1179 40.9278 94.304 40.1718C93.6184 39.5284 94.0676 38.1369 95.1414 38.4828C95.1678 38.491 95.1956 38.4938 95.2231 38.4912C95.2506 38.4886 95.2773 38.4806 95.3017 38.4677C95.3262 38.4547 95.3478 38.4371 95.3654 38.4158C95.383 38.3945 95.3962 38.37 95.4044 38.3435C95.4125 38.3171 95.4153 38.2894 95.4127 38.2619C95.4101 38.2343 95.4021 38.2076 95.3892 38.1832C95.3762 38.1588 95.3586 38.1372 95.3373 38.1195C95.316 38.1019 95.2915 38.0887 95.2651 38.0806C93.7123 37.5703 92.9563 39.6458 94.0927 40.5443C95.2744 41.4866 96.9728 40.1076 96.1447 38.8569Z" fill="#4568B0"/>
<path d="M51.9094 72.7839H66.0828C67.371 72.7839 63.3091 53.3152 60.0878 45.6909C58.5461 42.0438 53.7079 39.7147 50.46 42.7748C47.2121 45.8349 49.1984 50.8813 52.1817 51.3649C54.0773 51.6748 51.9094 72.7839 51.9094 72.7839Z" fill="#5E5E5E"/>
<path d="M54.6744 43.3962C52.7742 43.3023 51.1134 44.0787 50.4873 45.9961C49.9395 47.671 50.7362 49.6119 52.4282 50.2333C54.269 50.9111 56.0972 49.9202 57.124 48.3894C57.3306 48.0764 56.8344 47.7962 56.6294 48.0998C55.9015 49.1814 54.7307 49.9875 53.3752 49.8639C51.6644 49.7074 50.575 48.0607 50.96 46.4203C51.1096 45.749 51.4761 45.1456 52.0029 44.7034C52.5297 44.2612 53.1874 44.0048 53.8745 43.9738C54.6571 43.9456 55.529 43.9331 56.1551 44.4825C56.7499 45.0038 57.3697 45.9601 57.1975 46.7662C57.1208 47.1262 57.6671 47.2796 57.7501 46.9228C58.132 45.1118 56.3586 43.4792 54.6744 43.3962Z" fill="#848484"/>
<path d="M66.567 71.1112C62.5349 71.0068 58.5022 70.9296 54.4691 70.8795C54.1013 70.8795 54.0997 71.4477 54.4691 71.4524C58.5022 71.5067 62.5349 71.5839 66.567 71.6841C66.9348 71.6888 66.9348 71.1206 66.567 71.1112Z" fill="#848484"/>
<path d="M61.2408 59.6845C60.8495 58.1584 60.3987 56.6464 59.915 55.1453C59.5143 53.9025 59.0807 52.6957 58.2887 51.6422C58.2496 51.5776 58.187 51.5308 58.114 51.5115C58.0409 51.4922 57.9633 51.502 57.8974 51.5389C57.2189 52.0146 56.4593 52.3625 55.656 52.5657C55.3273 52.6487 54.9109 52.6628 54.7575 53.0244C54.5227 53.5769 54.914 54.6679 54.9751 55.2392C55.0794 56.1032 55.1598 56.9693 55.2161 57.8375C55.4557 61.3124 55.3839 64.8016 55.0017 68.2637C54.961 68.63 55.5354 68.6268 55.5746 68.2637C55.9236 65.112 56.0157 61.9371 55.8501 58.7704C55.7666 57.2187 55.6205 55.6728 55.4118 54.1326C55.3727 53.8383 55.2553 53.4376 55.4994 53.1856C55.6341 53.0478 56.2069 53.0291 56.4276 52.9461C56.9717 52.7555 57.49 52.4984 57.971 52.1807C58.6926 53.2341 59.0933 54.4315 59.4783 55.6462C59.9182 57.033 60.3314 58.4292 60.693 59.8379C61.438 62.7446 61.9373 65.7029 61.9749 68.7082C61.9749 69.0761 62.5525 69.0776 62.5478 68.7082C62.504 65.6528 61.9984 62.6397 61.2408 59.6845Z" fill="#848484"/>
<path d="M55.5997 42.1823C54.3303 41.8068 52.9645 41.9398 51.7913 42.5533C50.6181 43.1667 49.7296 44.2125 49.3137 45.4694C49.1916 45.8184 49.7457 45.9671 49.8663 45.6259C50.6833 43.278 53.0687 42.0727 55.4479 42.738C55.8032 42.8335 55.9551 42.2809 55.5997 42.1823Z" fill="white"/>
<path d="M59.2165 46.2279C58.8534 45.1322 58.1036 43.8518 57.2005 43.1083C56.9188 42.8767 56.5102 43.2789 56.7951 43.5137C57.6153 44.1883 58.3322 45.3795 58.664 46.3813C58.7798 46.7272 59.3323 46.5785 59.2165 46.2279Z" fill="white"/>
<g clip-path="url(#clip1)">
<path fill-rule="evenodd" clip-rule="evenodd" d="M4.47229 92.4761C8.21549 90.3329 11.9587 88.1898 13.8085 87.0709C15.6584 85.952 15.6203 85.8331 15.0898 84.5467C14.175 82.4309 13.4415 80.2421 12.8972 78.0037C12.2606 75.2039 12.0077 72.0581 11.8825 70.3852C11.7574 68.7123 11.7574 68.4933 12.8537 68.8095C13.95 69.1258 16.1453 70.0176 18.2944 70.4635C20.4435 70.9095 22.5164 70.9176 24.6001 70.9257L32.6551 79.5739C34.3063 81.3441 34.4016 81.4495 34.9946 83.9305C35.5876 86.4115 36.6785 91.2761 37.7694 96.1354H34.5648L30.5904 86.0656C29.7742 83.9954 29.7198 83.8575 28.2454 82.9684C26.771 82.0792 23.8765 80.4415 20.9821 78.8037C21.0501 82.2603 21.1154 85.7196 21.1507 87.5304C21.1861 89.3411 21.1888 89.5086 18.6698 90.5167C16.1507 91.5248 11.1099 93.3761 6.06641 95.2273L4.47229 92.4761Z" fill="#28284B"/>
<path fill-rule="evenodd" clip-rule="evenodd" d="M45.1578 54.2751C45.1578 55.2372 45.1578 56.8426 44.845 58.0263C44.5322 59.21 43.8793 59.9749 42.5789 59.9965C41.2786 60.0181 39.3145 59.2965 37.5028 58.1047C35.691 56.9128 34.0044 55.2967 32.6252 54.2292C31.246 53.1616 30.1769 52.6644 29.407 52.586C28.6371 52.5076 28.2019 52.8562 29.1595 53.7886C30.117 54.721 32.481 56.2534 34.6491 57.6209C36.8172 58.9884 38.7868 60.1965 40.4652 60.5586C42.1437 60.9208 43.5283 60.4343 44.2982 59.7127C45.0681 58.9911 45.2204 58.0317 45.2993 56.8209C45.3686 55.6871 45.3795 54.5506 45.3319 53.4157C45.2884 52.6833 45.2014 52.6833 45.166 52.8427C45.1338 53.3196 45.1311 53.7979 45.1578 54.2751Z" fill="#333333"/>
<path fill-rule="evenodd" clip-rule="evenodd" d="M34.5974 63.9233C35.9087 64.2611 38.3325 64.8341 39.6736 64.7341C41.0147 64.6341 41.2705 63.8584 41.5779 61.7234C41.8853 59.5884 42.2199 56.102 42.5273 54.0913C42.8347 52.0806 43.1094 51.5455 43.1557 50.986C43.1833 50.7147 43.1535 50.4406 43.0683 50.1814C42.983 49.9221 42.8441 49.6835 42.6606 49.4807C42.2988 49.1185 41.7601 48.978 41.2351 48.7753C40.7101 48.5726 40.2041 48.3051 39.8749 48.6915C39.5458 49.078 39.4233 50.1212 39.6219 50.905C39.8205 51.6887 40.3455 52.2103 40.098 53.694C39.8504 55.1777 38.8303 57.6209 38.2835 58.9181C37.7367 60.2154 37.666 60.3937 36.9723 59.9829C36.2786 59.5721 34.962 58.5776 34.1785 59.0451C33.395 59.5127 33.1393 61.445 33.1121 62.4612C33.0849 63.4774 33.2862 63.5855 34.5974 63.9233Z" fill="#F2AA98"/>
<path d="M47.1028 48.0916H40.3509C39.7469 48.0916 39.2573 48.578 39.2573 49.178V52.5427C39.2573 53.1427 39.7469 53.6292 40.3509 53.6292H47.1028C47.7068 53.6292 48.1964 53.1427 48.1964 52.5427V49.178C48.1964 48.578 47.7068 48.0916 47.1028 48.0916Z" fill="#333333"/>
<path d="M47.1055 48.0916H42.9025C42.2986 48.0916 41.809 48.578 41.809 49.178V52.5427C41.809 53.1427 42.2986 53.6292 42.9025 53.6292H47.1055C47.7094 53.6292 48.1991 53.1427 48.1991 52.5427V49.178C48.1991 48.578 47.7094 48.0916 47.1055 48.0916Z" fill="#1A1A1A"/>
<path fill-rule="evenodd" clip-rule="evenodd" d="M47.2497 52.4129H47.2633H47.2769H47.2905H47.3041H47.3177H47.3313H47.3449H47.3585H47.3721H47.3857H47.3993H47.4129H47.4265H47.4401H47.4537H47.4701H47.4946H47.5109H47.5462H47.5762H47.5925H47.6224H47.7639H47.8047H47.8455H44.1676C43.6899 52.4129 43.2319 52.2244 42.8942 51.8889C42.5564 51.5534 42.3667 51.0983 42.3667 50.6238C42.3667 50.1493 42.5564 49.6943 42.8942 49.3587C43.2319 49.0232 43.6899 48.8347 44.1676 48.8347H48.0141H47.9733H47.9325H47.7911H47.7611H47.7448H47.7149H47.6795H47.6632H47.6387L47.6061 49.1888H47.5925H47.5789H47.5653H47.5517H47.5381H47.5245H47.5109H47.4973H47.4837H47.4701H47.4565H47.4429H47.4293H47.4157H47.4021C47.1411 49.3491 46.9257 49.5731 46.7763 49.8394C46.6269 50.1057 46.5485 50.4055 46.5485 50.7103C46.5485 51.0152 46.6269 51.315 46.7763 51.5813C46.9257 51.8475 47.1411 52.0715 47.4021 52.2319L47.2497 52.4129Z" fill="#4D4D4D"/>
<path fill-rule="evenodd" clip-rule="evenodd" d="M48.1991 52.6805C48.5552 52.6805 48.9034 52.5756 49.1996 52.379C49.4957 52.1824 49.7266 51.903 49.8629 51.5761C49.9992 51.2492 50.0348 50.8894 49.9653 50.5424C49.8959 50.1953 49.7243 49.8765 49.4725 49.6263C49.2206 49.3761 48.8997 49.2057 48.5504 49.1367C48.2011 49.0676 47.839 49.1031 47.5099 49.2385C47.1808 49.3739 46.8996 49.6032 46.7017 49.8974C46.5038 50.1916 46.3982 50.5376 46.3982 50.8914C46.3989 51.3657 46.5889 51.8203 46.9265 52.1557C47.264 52.4911 47.7217 52.6798 48.1991 52.6805Z" fill="#1A1A1A"/>
<path fill-rule="evenodd" clip-rule="evenodd" d="M48.1992 52.3292C48.4854 52.3292 48.7652 52.2448 49.0032 52.0869C49.2412 51.9289 49.4267 51.7043 49.5362 51.4416C49.6458 51.1789 49.6744 50.8898 49.6186 50.6109C49.5628 50.332 49.4249 50.0758 49.2225 49.8747C49.0201 49.6737 48.7623 49.5367 48.4815 49.4812C48.2008 49.4258 47.9098 49.4542 47.6453 49.5631C47.3809 49.6719 47.1549 49.8562 46.9959 50.0926C46.8368 50.329 46.752 50.607 46.752 50.8914C46.7527 51.2725 46.9054 51.6378 47.1766 51.9073C47.4479 52.1767 47.8156 52.3284 48.1992 52.3292Z" fill="#4D4D4D"/>
<path d="M48.1992 51.532C48.5552 51.532 48.8439 51.2452 48.8439 50.8915C48.8439 50.5377 48.5552 50.251 48.1992 50.251C47.8431 50.251 47.5544 50.5377 47.5544 50.8915C47.5544 51.2452 47.8431 51.532 48.1992 51.532Z" fill="#141414"/>
<path d="M47.4374 48.4943H46.6158C46.5692 48.4943 46.5315 48.5318 46.5315 48.578V48.8402C46.5315 48.8865 46.5692 48.924 46.6158 48.924H47.4374C47.4839 48.924 47.5217 48.8865 47.5217 48.8402V48.578C47.5217 48.5318 47.4839 48.4943 47.4374 48.4943Z" fill="white"/>
<path fill-rule="evenodd" clip-rule="evenodd" d="M46.4255 47.1916V48.0915H43.2535V47.1916C43.2535 46.9837 43.3367 46.7844 43.4846 46.6374C43.6326 46.4904 43.8332 46.4078 44.0424 46.4078H45.6502C45.857 46.4114 46.0542 46.4955 46.1992 46.6421C46.3442 46.7887 46.4255 46.986 46.4255 47.1916Z" fill="#1A1A1A"/>
<path d="M45.302 47.0024H44.3634C44.3093 47.0024 44.2655 47.046 44.2655 47.0997V47.397C44.2655 47.4508 44.3093 47.4943 44.3634 47.4943H45.302C45.356 47.4943 45.3999 47.4508 45.3999 47.397V47.0997C45.3999 47.046 45.356 47.0024 45.302 47.0024Z" fill="#F89F32"/>
<path fill-rule="evenodd" clip-rule="evenodd" d="M32.5598 63.4206C33.716 64.126 35.8624 65.38 37.1844 65.6746C38.5065 65.9692 38.9717 65.3016 39.8857 63.3504C40.7998 61.3991 42.1572 58.1614 43.0468 56.3236C43.9364 54.4859 44.3417 54.0535 44.5512 53.5427C44.658 53.2914 44.7108 53.0207 44.7061 52.748C44.7014 52.4752 44.6393 52.2065 44.5239 51.959C44.2873 51.5076 43.8112 51.2157 43.3705 50.8779C42.9298 50.5401 42.5245 50.1266 42.1056 50.405C41.6866 50.6833 41.2541 51.6211 41.2106 52.4319C41.167 53.2427 41.518 53.8913 40.8433 55.2372C40.1687 56.5831 38.4684 58.6289 37.5599 59.7289C36.6513 60.8288 36.5343 60.9613 35.9929 60.364C35.4516 59.7667 34.4859 58.4343 33.599 58.6533C32.7122 58.8722 31.8961 60.6451 31.5696 61.6072C31.2432 62.5693 31.4064 62.7179 32.5598 63.4206Z" fill="#F7B39D"/>
<path fill-rule="evenodd" clip-rule="evenodd" d="M32.2198 56.6047C32.0959 56.4605 32.0032 56.2925 31.9475 56.1111C31.8918 55.9298 31.8743 55.739 31.8961 55.5507C31.9913 55.129 32.4402 54.6696 32.7748 54.3345C33.1094 53.9994 33.3624 53.794 33.3705 53.6021C33.3787 53.4102 33.1529 53.2697 32.7639 52.8859C32.3281 52.4466 31.915 51.9857 31.5261 51.5049C31.2269 51.1265 31.1806 50.9914 31.0283 51.0671C30.876 51.1427 30.6175 51.4265 30.2666 51.667C29.9129 51.9098 29.513 52.0781 29.0914 52.1616C28.9084 52.2002 28.7191 52.1992 28.5365 52.1586C28.3539 52.118 28.1822 52.0389 28.0332 51.9265C27.6986 51.6833 27.3694 51.2562 27.1654 51.3562C26.9614 51.4562 26.8934 52.0805 26.8689 52.8643C26.8212 53.7421 26.9346 54.6212 27.2035 55.4588C27.5218 56.3263 28.1094 57.1236 28.8629 57.4046C29.6164 57.6857 30.5305 57.4506 31.1752 57.3046C31.5659 57.2434 31.9515 57.1531 32.3286 57.0344C32.4782 56.9452 32.3885 56.8479 32.2198 56.6047Z" fill="#FFBEA7"/>
<path fill-rule="evenodd" clip-rule="evenodd" d="M30.0191 48.7294C30.136 48.4807 30.1714 47.7159 30.3401 47.2159C30.3975 47.0163 30.5012 46.8328 30.6429 46.6803C30.7847 46.5277 30.9605 46.4104 31.1562 46.3376C31.5153 46.1916 31.9369 46.1349 32.2443 45.9025C32.5517 45.67 32.734 45.2566 33.3324 45.1971C33.9309 45.1376 34.932 45.4268 35.8324 45.7079C36.7329 45.989 37.5218 46.2484 38.2209 46.1511C38.5818 46.0844 38.921 45.9314 39.2091 45.7054C39.4973 45.4794 39.7258 45.1871 39.8749 44.8539C40.2305 44.0944 40.3261 43.2401 40.1469 42.4215C39.9674 41.6459 39.5185 41.0297 39.3308 40.9513C39.1431 40.873 39.203 41.3351 38.852 41.5513C38.5011 41.7675 37.7394 41.7378 36.8852 41.3459C36.031 40.954 35.0707 40.2081 33.9445 40.0379C32.8666 39.9264 31.7809 40.1573 30.8433 40.6973C30.1741 41.1081 30.1388 41.5081 29.9293 41.6567C29.7198 41.8054 29.3444 41.6891 29.0343 41.9621C28.7242 42.2351 28.4902 42.8945 28.2644 43.6728C28.0082 44.567 27.8477 45.4856 27.7857 46.4133C27.6851 47.5847 27.8287 48.7641 28.2073 49.878C28.6398 51.0536 29.4451 52.1806 30.0544 52.6589C30.6638 53.1373 31.0773 52.967 31.1426 52.7022C31.2079 52.4373 30.8896 52.0752 30.6148 51.5049C30.3401 50.9347 30.098 50.1536 29.8259 49.8131C29.5539 49.4726 29.2492 49.5618 29.0343 49.5429C28.927 49.5251 28.8266 49.4788 28.7437 49.4088C28.6608 49.3389 28.5986 49.2479 28.5637 49.1456C28.4531 48.9228 28.384 48.682 28.3596 48.4348C28.3254 48.214 28.3676 47.9882 28.4793 47.7943C28.5034 47.7562 28.5351 47.7235 28.5726 47.6982C28.61 47.673 28.6524 47.6557 28.6969 47.6476C28.7414 47.6395 28.7871 47.6406 28.8311 47.651C28.8752 47.6613 28.9166 47.6807 28.9527 47.7078C29.1707 47.9157 29.3543 48.1565 29.4968 48.4213C29.7008 48.7078 29.8994 48.978 30.0191 48.7294Z" fill="#28284B"/>
<path fill-rule="evenodd" clip-rule="evenodd" d="M28.7568 47.4727C28.531 47.4727 28.3215 47.7159 28.2998 48.1159C28.2962 48.5645 28.4207 49.0049 28.6588 49.3861C28.7235 49.4973 28.8181 49.5883 28.932 49.649C29.0459 49.7096 29.1746 49.7375 29.3036 49.7293C29.3988 49.7184 29.4877 49.6766 29.5566 49.6104C30.0027 52.1779 31.9042 54.1048 34.1812 54.1048C36.79 54.1048 38.9037 51.5725 38.9037 48.451C38.9245 47.6185 38.8945 46.7854 38.8139 45.9565C38.6275 46.0503 38.4274 46.1142 38.2209 46.1457C37.5217 46.2511 36.7301 45.9835 35.8324 45.7025C34.9347 45.4214 33.9282 45.1322 33.3324 45.1917C32.7366 45.2511 32.5517 45.6619 32.2443 45.8971C31.9369 46.1322 31.5206 46.1889 31.1561 46.3322C30.9604 46.4049 30.7846 46.5223 30.6429 46.6749C30.5011 46.8274 30.3974 47.0109 30.34 47.2105C30.1714 47.7105 30.136 48.2915 30.019 48.5294C29.747 49.0969 29.5321 48.2834 29.5212 48.2402C29.4314 47.9078 29.1839 47.4619 28.7568 47.4727Z" fill="#FFBEA7"/>
<path fill-rule="evenodd" clip-rule="evenodd" d="M33.0386 47.5673C33.132 47.5673 33.224 47.5887 33.3077 47.6299C33.3913 47.671 33.4643 47.7308 33.5209 47.8045C33.5775 47.8783 33.6162 47.964 33.634 48.055C33.6518 48.1461 33.6482 48.24 33.6235 48.3294C33.5882 48.2022 33.5119 48.0899 33.4063 48.01C33.3006 47.93 33.1715 47.8867 33.0386 47.8867C32.9058 47.8867 32.7766 47.93 32.671 48.01C32.5653 48.0899 32.489 48.2022 32.4537 48.3294C32.4291 48.24 32.4255 48.1461 32.4433 48.055C32.4611 47.964 32.4998 47.8783 32.5563 47.8045C32.6129 47.7308 32.6859 47.671 32.7696 47.6299C32.8532 47.5887 32.9453 47.5673 33.0386 47.5673Z" fill="#28284B"/>
<path fill-rule="evenodd" clip-rule="evenodd" d="M37.111 47.5673C37.2044 47.5673 37.2964 47.5887 37.3801 47.6299C37.4637 47.671 37.5367 47.7308 37.5933 47.8045C37.6499 47.8783 37.6886 47.964 37.7064 48.055C37.7242 48.1461 37.7206 48.24 37.6959 48.3294C37.6606 48.2022 37.5843 48.0899 37.4786 48.01C37.373 47.93 37.2438 47.8867 37.111 47.8867C36.9782 47.8867 36.849 47.93 36.7434 48.01C36.6377 48.0899 36.5614 48.2022 36.5261 48.3294C36.5014 48.24 36.4978 48.1461 36.5156 48.055C36.5334 47.964 36.5721 47.8783 36.6287 47.8045C36.6853 47.7308 36.7583 47.671 36.8419 47.6299C36.9256 47.5887 37.0177 47.5673 37.111 47.5673Z" fill="#28284B"/>
<path fill-rule="evenodd" clip-rule="evenodd" d="M35.4489 47.0728C35.4285 47.1536 35.414 47.2358 35.4054 47.3187C35.1879 47.248 34.9546 47.2414 34.7334 47.2998C34.724 47.2232 34.7094 47.1474 34.6899 47.0728H27.7639V47.4592H30.9712V47.5673H31.1589C31.1749 48.0233 31.3664 48.4558 31.6939 48.7756C32.0214 49.0954 32.46 49.2782 32.9192 49.2861C33.3784 49.2941 33.8231 49.1267 34.1617 48.8185C34.5003 48.5102 34.7069 48.0846 34.7389 47.6295C34.9534 47.5522 35.1899 47.5619 35.3972 47.6565C35.4313 48.1125 35.6406 48.538 35.9818 48.8448C36.3229 49.1517 36.7698 49.3165 37.2299 49.305C37.69 49.2936 38.1281 49.1068 38.4533 48.7833C38.7786 48.4598 38.9661 48.0244 38.9772 47.5673H39.1731V47.0728H35.4462H35.4489ZM35.74 47.3241H38.629C38.6596 47.435 38.6752 47.5496 38.6752 47.6646C38.6752 48.0588 38.5176 48.4369 38.237 48.7157C37.9564 48.9944 37.5759 49.151 37.179 49.151C36.7822 49.151 36.4017 48.9944 36.1211 48.7157C35.8405 48.4369 35.6828 48.0588 35.6828 47.6646C35.6829 47.5496 35.6984 47.435 35.7291 47.3241H35.74ZM31.4826 47.3241H34.3716C34.4023 47.435 34.4179 47.5496 34.4179 47.6646C34.4179 48.0588 34.2603 48.4369 33.9797 48.7157C33.6991 48.9944 33.3185 49.151 32.9217 49.151C32.5249 49.151 32.1443 48.9944 31.8637 48.7157C31.5831 48.4369 31.4255 48.0588 31.4255 47.6646C31.429 47.5491 31.4482 47.4345 31.4826 47.3241Z" fill="#28284B"/>
<path fill-rule="evenodd" clip-rule="evenodd" d="M36.5478 51.3374C36.5478 51.7621 36.378 52.1694 36.0757 52.4697C35.7735 52.77 35.3635 52.9387 34.936 52.9387C34.5085 52.9387 34.0986 52.77 33.7963 52.4697C33.494 52.1694 33.3242 51.7621 33.3242 51.3374H36.5478Z" fill="white"/>
<path fill-rule="evenodd" clip-rule="evenodd" d="M27.8591 51.7509L28.5337 52.1617C27.1518 54.413 30.2285 56.3588 32.2116 54.9481C32.4456 56.4426 35.136 58.0939 35.1659 58.8398C35.2231 60.31 33.1202 63.4558 31.7329 62.9775C31.4608 62.8856 30.9712 62.3423 30.7617 62.5586C25.5005 68.0286 26.7111 70.8095 26.0147 72.1608C24.8041 74.4932 14.0451 74.6148 11.7601 70.4474C11.6195 70.1918 11.5126 69.9193 11.4418 69.6366C10.3156 65.1098 22.3585 48.4078 27.8591 51.7509Z" fill="#52C6E0"/>
<path fill-rule="evenodd" clip-rule="evenodd" d="M23.9336 57.7992L30.9929 62.5341L29.8857 63.3773L23.7458 58.0749L23.9336 57.7992Z" fill="#139FBE"/>
<path d="M4.49866 92.5258L2.87781 93.4554L4.41753 96.1049L6.03838 95.1752L4.49866 92.5258Z" fill="white"/>
<path fill-rule="evenodd" clip-rule="evenodd" d="M1.10174 93.9788C0.834368 94.1215 0.575504 94.2794 0.326444 94.4517C0.18769 94.529 0.0829275 94.6549 0.0326229 94.8048C-0.0176816 94.9548 -0.00991353 95.1179 0.0544096 95.2625C0.182266 95.7192 0.620242 96.457 1.26496 97.6029C1.90969 98.7488 2.75572 100.306 3.35147 101.13C3.94723 101.954 4.29543 102.051 4.58107 101.997C4.80494 101.934 5.00781 101.813 5.16866 101.646L5.09521 101.692C4.76877 101.862 4.31447 101.768 3.55278 100.711C2.79108 99.6542 1.7247 97.63 1.10446 96.476C0.484225 95.3219 0.340046 95.0355 0.44886 94.7139C0.583894 94.4121 0.805264 94.1565 1.08542 93.9788H1.10174Z" fill="white"/>
<path fill-rule="evenodd" clip-rule="evenodd" d="M2.66867 93.3383C2.25518 93.5085 1.79 93.5923 1.37106 93.8139C0.974901 94.0016 0.655253 94.3182 0.465187 94.7112C0.353653 95.0328 0.508712 95.3193 1.12079 96.4733C1.73287 97.6273 2.79925 99.6488 3.5691 100.708C4.33896 101.768 4.7851 101.86 5.11154 101.689C5.43798 101.519 5.63657 101.084 5.5468 100.338C5.45703 99.5921 5.08434 98.511 5.00273 97.9056C4.92112 97.3003 5.15507 97.1949 5.47063 97.1949C5.78184 97.2371 6.09515 97.2624 6.40915 97.2705C6.6295 97.23 6.66214 97.0273 6.62678 96.8084C6.62169 96.679 6.57001 96.5557 6.48114 96.461C6.39227 96.3662 6.27212 96.3063 6.14255 96.2922C5.79979 96.2381 5.21491 96.3706 5.09794 96.2922C4.98096 96.2138 5.32645 95.8895 5.36997 95.7247C5.4135 95.5598 5.12786 95.5463 4.87215 95.3976C4.5931 95.2078 4.35914 94.9597 4.18662 94.6706C3.9825 94.3862 3.84155 94.062 3.77313 93.7193C3.71872 93.3815 3.77313 93.0221 3.61807 92.9707C3.46301 92.9194 3.08216 93.168 2.66867 93.3383Z" fill="#28284B"/>
<path fill-rule="evenodd" clip-rule="evenodd" d="M5.16866 97.2597C4.64932 97.0933 4.0912 97.0886 3.56909 97.2462L3.88737 97.7867C4.24794 97.706 4.6237 97.7228 4.97551 97.8353C4.96191 97.5056 5.03536 97.3381 5.16866 97.2597Z" fill="white"/>
<path fill-rule="evenodd" clip-rule="evenodd" d="M5.00544 97.957C4.6832 97.9353 4.35968 97.972 4.0506 98.0651L4.36888 98.6056C4.6215 98.5485 4.88269 98.5394 5.13874 98.5785C5.07889 98.3488 5.02992 98.1353 5.00544 97.957Z" fill="white"/>
<path fill-rule="evenodd" clip-rule="evenodd" d="M5.18768 98.7731C4.96443 98.7824 4.74324 98.8196 4.52936 98.8839L4.84764 99.4244C5.01087 99.3873 5.17804 99.37 5.34546 99.373C5.29106 99.1866 5.23665 98.9704 5.18768 98.7731Z" fill="white"/>
<path d="M37.7557 96.13H34.6763V97.9894H37.7557V96.13Z" fill="white"/>
<path fill-rule="evenodd" clip-rule="evenodd" d="M34.2437 99.7786C34.2343 100.08 34.2425 100.381 34.2682 100.681C34.2635 100.839 34.318 100.993 34.4211 101.112C34.5242 101.232 34.6684 101.31 34.8258 101.33C35.2883 101.449 36.1506 101.438 37.47 101.457C38.7894 101.476 40.5712 101.524 41.5886 101.424C42.606 101.324 42.8645 101.07 42.9488 100.8C43.0115 100.575 43.0115 100.336 42.9488 100.111C42.9507 100.14 42.9507 100.169 42.9488 100.197C42.9352 100.562 42.6251 100.908 41.3166 101.033C40.0081 101.157 37.7176 101.065 36.4064 101.014C35.0952 100.962 34.7742 100.951 34.5429 100.695C34.3479 100.427 34.2363 100.109 34.2219 99.7786H34.2437Z" fill="white"/>
<path fill-rule="evenodd" clip-rule="evenodd" d="M34.4695 98.1056C34.4097 98.5461 34.2519 98.9893 34.2356 99.4569C34.2007 99.8921 34.3168 100.326 34.5647 100.687C34.7905 100.943 35.1088 100.957 36.4282 101.005C37.7475 101.054 40.0354 101.151 41.3384 101.024C42.6415 100.897 42.9516 100.554 42.9706 100.189C42.9897 99.8244 42.6986 99.4352 42.0022 99.1353C41.3058 98.8353 40.1768 98.6191 39.6219 98.3866C39.0669 98.1542 39.0778 97.9002 39.2356 97.6272C39.4311 97.3806 39.6127 97.1235 39.7797 96.857C39.8531 96.6489 39.6953 96.5192 39.4859 96.4381C39.3705 96.3771 39.237 96.3594 39.1096 96.3882C38.9823 96.417 38.8696 96.4903 38.7922 96.5948C38.5718 96.8651 38.3977 97.4326 38.2481 97.4894C38.0985 97.5461 38.0114 97.0921 37.8863 96.9786C37.7612 96.8651 37.6143 97.0975 37.3422 97.2489C37.0372 97.3944 36.7039 97.4718 36.3656 97.4759C36.0155 97.5098 35.6622 97.4692 35.3292 97.357C35.0082 97.2353 34.7225 97.0083 34.6001 97.1164C34.4777 97.2245 34.5294 97.6705 34.4695 98.1056Z" fill="#28284B"/>
<path fill-rule="evenodd" clip-rule="evenodd" d="M39.1403 97.9191C38.7343 98.2816 38.4495 98.7587 38.3242 99.2866H38.9608C39.071 98.9318 39.2759 98.6133 39.5538 98.365C39.2464 98.2245 39.1403 98.0731 39.1403 97.9191Z" fill="white"/>
<path fill-rule="evenodd" clip-rule="evenodd" d="M39.6626 98.411C39.4825 98.6774 39.3525 98.9741 39.2791 99.2866H39.9156C39.9924 99.0408 40.1151 98.8116 40.2774 98.611C40.0435 98.5434 39.8313 98.4786 39.6626 98.411Z" fill="white"/>
<path fill-rule="evenodd" clip-rule="evenodd" d="M40.4679 98.6624C40.3647 98.8599 40.287 99.0697 40.2367 99.2866H40.8733C40.9225 99.1276 40.991 98.9752 41.0773 98.8326L40.4679 98.6624Z" fill="white"/>
<path fill-rule="evenodd" clip-rule="evenodd" d="M30.5495 55.7454L35.1632 58.8425L35.1115 59.3722L30.3618 56.021L30.5495 55.7454Z" fill="#139FBE"/>
<path fill-rule="evenodd" clip-rule="evenodd" d="M29.4668 52.067C28.6099 51.8211 27.7557 51.5725 27.1001 51.9211C26.4445 52.2697 25.9902 53.2102 26.7274 54.6237C27.4647 56.0371 29.3934 57.9073 31.5397 58.9775C33.6861 60.0478 36.0474 60.3099 37.6632 59.6586C39.2791 59.0073 40.1442 57.4371 40.4353 56.1047C40.6317 55.1002 40.5795 54.0632 40.2829 53.0832C40.1306 52.4832 40.1116 52.3751 40.1224 52.7184C40.1571 53.3658 40.1517 54.0147 40.1061 54.6615C40.0656 55.5451 39.7511 56.3947 39.2057 57.0938C38.8147 57.6012 38.3173 58.0179 37.7479 58.3152C37.1786 58.6125 36.551 58.7832 35.9086 58.8154C34.3662 58.8803 32.3967 58.1749 30.9957 57.2182C29.8696 56.4585 28.9606 55.4222 28.3569 54.2102C27.9489 53.3589 27.9625 52.8589 28.2182 52.5616C28.4739 52.2643 28.9663 52.1616 29.4668 52.067Z" fill="#333333"/>
<path fill-rule="evenodd" clip-rule="evenodd" d="M11.8852 67.688C13.0087 71.804 22.2225 72.3229 25.4706 71.0095C25.914 70.8311 26.1752 70.6933 26.3411 70.6284C26.2595 71.2743 26.216 71.7743 26.0147 72.1581C24.8041 74.4904 14.0451 74.612 11.7601 70.4446C11.6195 70.189 11.5126 69.9165 11.4418 69.6339C11.2813 68.9879 11.4064 68.115 11.7573 67.1042C11.79 67.2178 11.7737 67.2826 11.8852 67.688Z" fill="#139FBE"/>
</g>
</g>
<defs>
<linearGradient id="paint0_linear" x1="46896.4" y1="12545" x2="77271.8" y2="12545" gradientUnits="userSpaceOnUse">
<stop stop-color="#D1E332"/>
<stop offset="1" stop-color="#AEB500"/>
</linearGradient>
<linearGradient id="paint1_linear" x1="21714" y1="8388.56" x2="35744.7" y2="8388.56" gradientUnits="userSpaceOnUse">
<stop stop-color="#D1E332"/>
<stop offset="1" stop-color="#AEB500"/>
</linearGradient>
<linearGradient id="paint2_linear" x1="32200" y1="11106.5" x2="53057.7" y2="11106.5" gradientUnits="userSpaceOnUse">
<stop stop-color="#D1E332"/>
<stop offset="1" stop-color="#AEB500"/>
</linearGradient>
<clipPath id="clip0">
<rect width="103" height="102" fill="white"/>
</clipPath>
<clipPath id="clip1">
<rect width="51" height="62" fill="white" transform="translate(-1 40)"/>
</clipPath>
</defs>
</svg>
