<svg width="100" height="100" viewBox="0 0 100 100" fill="none" xmlns="http://www.w3.org/2000/svg">
<g clip-path="url(#clip0)">
<path d="M19.5466 91.1574H95.8975C95.8975 91.1574 101.812 64.9956 91.7018 53.8572C81.5915 42.7188 97.4639 19.0204 81.2528 5.32482C65.0417 -8.37078 50.3486 8.65497 40.8997 8.83017C31.4509 9.00536 23.9054 11.2183 20.3388 21.0044C15.6591 33.8425 22.5038 45.6263 16.627 52.5571C6.4092 64.5976 19.5466 91.1574 19.5466 91.1574Z" fill="url(#paint0_linear)"/>
<path d="M87.1781 29.0262C86.5346 28.891 85.8894 27.9213 85.8894 27.9213C85.8894 27.9213 86.8124 27.282 87.4559 27.4172C88.0993 27.5525 88.4452 27.9997 88.3681 28.4438C88.2911 28.8879 87.8215 29.163 87.1781 29.0262Z" fill="white"/>
<path d="M84.1116 25.4611C83.8822 26.2663 82.814 26.9702 82.814 26.9702C82.814 26.9702 82.305 25.7085 82.5344 24.9048C82.7638 24.101 83.262 23.7122 83.6976 23.8659C84.1331 24.0196 84.341 24.6558 84.1116 25.4611Z" fill="white"/>
<path d="M79.7993 26.1141C79.8907 27.3266 78.8099 28.9355 78.8099 28.9355C78.8099 28.9355 77.5051 27.5801 77.4119 26.3676C77.3187 25.1551 77.7955 24.3253 78.455 24.2546C79.1146 24.1839 79.7078 24.8954 79.7993 26.1141Z" fill="white"/>
<path d="M75.2488 27.7692C75.9567 29.0417 75.5642 31.4897 75.5642 31.4897C75.5642 31.4897 73.4439 30.8335 72.736 29.5611C72.028 28.2886 72.141 27.0777 72.8346 26.5828C73.5282 26.088 74.5408 26.4968 75.2488 27.7692Z" fill="white"/>
<path d="M71.0083 31.9092C72.0837 32.4471 72.8723 34.4618 72.8723 34.4618C72.8723 34.4618 71.0119 35.1625 69.9311 34.6231C68.8504 34.0837 68.4023 33.134 68.6998 32.384C68.9973 31.6341 69.9275 31.3698 71.0083 31.9092Z" fill="white"/>
<path d="M68.6945 36.9237C69.5798 36.8884 70.6821 37.8089 70.6821 37.8089C70.6821 37.8089 69.6247 38.8155 68.7411 38.8508C67.8575 38.8862 67.2822 38.4774 67.2696 37.9457C67.2571 37.4139 67.8109 36.9591 68.6945 36.9237Z" fill="white"/>
<path d="M84.4343 31.2791C83.6923 30.9856 83.0829 29.6978 83.0829 29.6978C83.0829 29.6978 84.2837 29.1261 85.0257 29.4196C85.7677 29.7131 86.1011 30.3156 85.9451 30.8288C85.7892 31.3421 85.1763 31.5726 84.4343 31.2791Z" fill="white"/>
<path d="M81.1005 33.9024C80.2689 33.194 79.9589 31.29 79.9589 31.29C79.9589 31.29 81.6776 31.1086 82.5075 31.8171C83.3373 32.5255 83.5524 33.4445 83.1634 34.0208C82.7745 34.5971 81.9304 34.6109 81.1005 33.9024Z" fill="white"/>
<path d="M76.6916 37.4968C76.0464 36.4211 76.3332 34.2804 76.3332 34.2804C76.3332 34.2804 78.1882 34.7845 78.8334 35.8648C79.4786 36.9451 79.4105 37.9994 78.8209 38.4496C78.2312 38.8999 77.3368 38.5726 76.6916 37.4968Z" fill="white"/>
<path d="M73.2361 39.8021C73.082 39.0168 73.6662 37.8566 73.6662 37.8566C73.6662 37.8566 74.6287 38.6142 74.7828 39.3933C74.937 40.1725 74.6896 40.7764 74.2631 40.8794C73.8365 40.9823 73.3902 40.5797 73.2361 39.8021Z" fill="white"/>
<path d="M64.9881 59.1344L64.7479 59.0653C65.1477 56.1422 65.7304 53.2397 66.4936 50.3703C67.6873 45.8706 69.8523 39.5838 73.3957 35.1886C76.939 30.7935 79.9088 28.9571 81.7763 28.1933C83.8142 27.3588 85.0024 27.8567 85.0024 27.8567C85.0024 27.8567 83.8177 27.6462 81.8337 28.4714C79.9984 29.2275 77.077 31.0409 73.5767 35.3869C70.0764 39.7328 67.9131 45.9905 66.7284 50.4609C65.9663 53.3231 65.3854 56.2185 64.9881 59.1344Z" fill="white"/>
<path d="M82.3498 14.4993C81.8444 14.3933 81.3372 13.631 81.3372 13.631C81.3372 13.631 82.0541 13.1285 82.5684 13.2345C83.0828 13.3406 83.3463 13.6956 83.2854 14.0413C83.2244 14.3871 82.8552 14.5992 82.3498 14.4993Z" fill="white"/>
<path d="M79.9357 11.6962C79.7564 12.3278 78.9159 12.8811 78.9159 12.8811C78.9159 12.8811 78.5162 11.8898 78.6954 11.2567C78.8746 10.6236 79.2671 10.3193 79.6095 10.4407C79.9518 10.5621 80.1149 11.0646 79.9357 11.6962Z" fill="white"/>
<path d="M76.5517 12.2094C76.6234 13.1622 75.7739 14.427 75.7739 14.427C75.7739 14.427 74.7487 13.362 74.6752 12.4092C74.6017 11.4564 74.9763 10.8033 75.4943 10.7495C76.0123 10.6957 76.4783 11.2567 76.5517 12.2094Z" fill="white"/>
<path d="M72.9743 13.5096C73.5299 14.5085 73.2217 16.4294 73.2217 16.4294C73.2217 16.4294 71.5549 15.9131 70.9992 14.9142C70.4436 13.9153 70.5315 12.9625 71.0763 12.5737C71.6212 12.1849 72.4187 12.5107 72.9743 13.5096Z" fill="white"/>
<path d="M69.6424 16.763C70.4919 17.1856 71.1067 18.7685 71.1067 18.7685C71.1067 18.7685 69.6442 19.3186 68.7946 18.896C67.9451 18.4734 67.592 17.7265 67.8268 17.1364C68.0616 16.5463 68.7911 16.3404 69.6424 16.763Z" fill="white"/>
<path d="M67.8235 20.7048C68.5189 20.6771 69.3845 21.4009 69.3845 21.4009C69.3845 21.4009 68.5547 22.1923 67.8593 22.22C67.1639 22.2477 66.7141 21.9265 66.7033 21.5085C66.6926 21.0905 67.1281 20.7324 67.8235 20.7048Z" fill="white"/>
<path d="M80.1938 16.2696C79.6113 16.0391 79.131 15.0279 79.131 15.0279C79.131 15.0279 80.0737 14.5792 80.658 14.8081C81.2423 15.0371 81.5075 15.512 81.3749 15.9161C81.2423 16.3203 80.7763 16.5001 80.1938 16.2696Z" fill="white"/>
<path d="M77.5734 18.3304C76.921 17.7741 76.6772 16.2726 76.6772 16.2726C76.6772 16.2726 78.0268 16.1313 78.681 16.6876C79.3352 17.2439 79.5019 17.9662 79.1972 18.4195C78.8925 18.8728 78.2258 18.8867 77.5734 18.3304Z" fill="white"/>
<path d="M74.1088 21.1519C73.6016 20.302 73.8239 18.6239 73.8239 18.6239C73.8239 18.6239 75.281 19.0204 75.7954 19.8687C76.3098 20.717 76.2488 21.5468 75.7846 21.9003C75.3204 22.2537 74.6143 22.0017 74.1088 21.1519Z" fill="white"/>
<path d="M71.3919 22.9607C71.2701 22.346 71.7289 21.4316 71.7289 21.4316C71.7289 21.4316 72.4852 22.0279 72.6071 22.6441C72.729 23.2604 72.5336 23.7199 72.1985 23.8121C71.8633 23.9043 71.512 23.5785 71.3919 22.9607Z" fill="white"/>
<path d="M64.9108 38.1592L64.7227 38.1054C65.0365 35.8085 65.4942 33.5278 66.0937 31.273C67.0311 27.7384 68.7338 22.7962 71.519 19.3416C74.3042 15.887 76.6359 14.4455 78.1038 13.8431C79.7061 13.1869 80.6398 13.5787 80.6398 13.5787C80.6398 13.5787 79.7097 13.4128 78.1504 14.0567C76.7166 14.6514 74.4117 16.076 71.6623 19.4876C68.913 22.8992 67.2103 27.8153 66.2783 31.3329C65.6791 33.5855 65.2226 35.8643 64.9108 38.1592Z" fill="white"/>
<path d="M70.087 91.1574C70.087 91.1574 87.6101 76.0234 78.8943 65.1124C70.1784 54.2015 59.0108 70.2729 56.0141 61.624C53.0174 52.9751 85.1188 13.6387 50.8004 6.28376C16.4819 -1.07117 34.4405 34.1667 29.2321 39.7283C23.375 45.9798 4.85358 29.3521 12.3453 55.8504C18.2222 76.6443 8.98656 66.5816 5.53464 73.1574C1.22422 81.376 9.52962 91.1574 9.52962 91.1574H70.087Z" fill="url(#paint1_linear)"/>
<path d="M4.30145 78.0934C4.30145 77.929 4.31221 77.7645 4.32117 77.6001C7.81252 78.6236 11.2931 77.8337 12.3398 77.5463C10.863 75.2596 9.16031 73.1005 7.21569 71.2779C7.35529 71.1903 7.50071 71.1097 7.65122 71.0366C10.9562 74.1762 13.5657 78.2594 15.5641 82.2841C15.4494 80.0528 14.8329 74.6126 11.6104 70.1115C11.7762 70.0718 11.9396 70.0246 12.0996 69.9701C16.2344 75.8682 16.0767 83.24 16.0731 83.3307C17.2731 85.8914 18.3152 88.5044 19.1953 91.1589H18.688C17.4119 87.3539 15.4333 82.4455 12.614 77.9705C11.1435 78.3763 9.60829 78.5837 8.06344 78.5852C6.78699 78.5931 5.51717 78.4271 4.30145 78.0934Z" fill="#85CEFF"/>
<path d="M25.7102 71.8527C24.6348 71.802 19.8297 71.3917 13.908 68.249C13.9659 68.0975 14.015 67.9437 14.055 67.788C19.7688 70.8446 24.4197 71.3056 25.6295 71.3671C25.2424 69.0912 24.7764 66.8091 24.2136 64.5854C23.1383 64.4655 17.989 63.7786 13.6822 61.2599C13.6392 61.0457 13.5932 60.8265 13.5442 60.6021C17.6216 63.1117 22.6991 63.9062 24.0828 64.0829C22.4697 57.8774 20.095 52.1638 16.6126 48.3803C14.7262 46.2863 13.0934 44.033 11.7394 41.6554C11.8446 41.5272 11.9602 41.4055 12.0853 41.2912C13.4389 43.6829 15.0761 45.9488 16.971 48.0529C19.3189 50.604 21.1667 54.0171 22.6221 57.8605C22.882 54.8377 23.4214 45.6863 20.975 40.8594L21.5575 40.9516C24.366 46.9449 23.0737 58.3354 23.0074 58.9101C26.7999 69.629 27.7211 83.2924 27.9147 91.1544H27.4308C27.3125 86.2645 26.9128 79.1216 25.7102 71.8527Z" fill="#AEB500"/>
<path d="M56.0499 85.0518C56.0499 84.1052 56.0768 71.5576 59.776 64.2672C59.9684 64.2477 60.1656 64.219 60.3675 64.1811C57.0661 70.3958 56.6037 81.1346 56.5428 84.2312C59.4965 79.4488 63.3534 75.1828 67.2839 71.5699C67.162 70.8752 66.4379 66.3249 67.5169 61.7792C67.6925 61.7279 67.8688 61.6793 68.0456 61.6332C67.0097 65.7256 67.5079 69.9071 67.7105 71.178C70.7386 68.4445 73.9761 65.8873 77.4013 63.5234C77.5214 63.631 77.6414 63.7431 77.7597 63.8599C73.4337 66.8286 69.4159 70.1131 65.7515 73.6768C66.9702 74.4866 72.5621 77.8368 80.3693 77.0131C80.3095 77.1801 80.2498 77.346 80.1901 77.511C79.4373 77.5842 78.6804 77.6217 77.9228 77.6231C71.1122 77.6231 66.3949 74.6895 65.4074 74.021C64.6307 74.7945 63.866 75.5931 63.1133 76.4168C63.8768 77.4264 68.2463 82.6852 76.8295 83.6011C76.7232 83.7517 76.6163 83.9008 76.5087 84.0483C68.1245 83.0541 63.7244 77.992 62.7835 76.7795C58.9874 80.9994 55.6377 85.8463 53.6429 91.1558H53.1267C53.9102 89.0578 54.8877 87.0166 56.0499 85.0518Z" fill="#AEB500"/>
<path d="M39.8082 91.1575C39.8082 88.2008 39.8673 84.886 40.0394 81.313H40.0286C39.9856 81.0057 36.0552 54.0847 24.9968 41.2636C25.2029 41.2636 25.4055 41.2543 25.6044 41.2405C34.7647 52.1515 38.9873 72.5151 40.1577 79.1201C40.5681 72.1586 41.4123 64.3672 42.9716 56.4667C42.9088 56.3807 42.8264 56.2608 42.7099 56.0902C39.525 51.4246 34.4027 44.3048 29.5725 39.2581C29.6598 39.1089 29.7352 38.9549 29.7983 38.7971C34.6948 43.8822 39.8835 51.0911 43.1006 55.8059C43.4722 53.9772 43.885 52.1474 44.3391 50.3166C46.1546 43.0293 46.9396 35.765 47.1207 29.0448C45.5076 29.0448 36.6968 28.8435 29.3771 25.6363C29.3592 25.4549 29.3431 25.272 29.327 25.0892C36.6161 28.3717 45.556 28.5561 47.135 28.5638C47.2139 25.1276 47.135 21.842 46.9558 18.7762C45.4897 18.289 35.9261 15.0219 30.7142 11.1753C30.7877 11.0217 30.8629 10.8834 30.9418 10.742C35.858 14.3856 45.0058 17.6051 46.9253 18.2583C46.6188 13.2746 46.0543 8.89633 45.4915 5.43555C45.6564 5.45091 45.8213 5.46782 45.9897 5.48626C46.9349 11.3314 47.4783 17.2192 47.6171 23.119C54.1912 22.28 60.88 18.3459 65.0542 15.4445C65.1277 15.5889 65.2047 15.7318 65.2728 15.8778C61.0377 18.8146 54.279 22.7702 47.6261 23.6047C47.7605 30.7368 47.2873 38.7402 45.6152 46.8804C47.6171 46.2488 56.8975 43.1922 63.3945 38.837C63.2989 39.1013 63.2016 39.3651 63.1024 39.6284C56.2416 44.0635 46.8411 47.0141 45.5005 47.4213C45.2878 48.4243 45.0572 49.4284 44.8086 50.4334C43.088 57.3396 41.9912 64.3165 41.3083 70.8723C42.5916 69.0989 46.3625 65.0111 55.8544 60.8834C55.8743 61.0471 55.9048 61.2097 55.9458 61.3705C44.538 66.3742 41.5198 71.3595 41.2026 71.9388C40.5054 79.1155 40.2867 85.7512 40.2903 91.1575H39.8082Z" fill="#AEB500"/>
<path d="M28.9023 90.9761H9.2106C4.45031 90.9761 -6.84819 98.0452 5.78377 99.2116C17.6863 100.306 59.9499 100.098 72.5371 99.5404C90.0548 98.7675 108.16 90.9761 96.0804 90.9761H28.9023Z" fill="url(#paint2_linear)"/>
<path d="M33.1573 90.9761H16.2471C12.1572 90.9761 2.44661 97.0524 13.3042 98.0452C23.5292 98.9857 59.8407 98.8136 70.6571 98.3279C85.705 97.6717 101.264 90.9761 90.8829 90.9761H33.1573Z" fill="url(#paint3_linear)"/>
<g clip-path="url(#clip1)">
<path d="M19.7935 99.9174H20.0844C20.9419 92.4694 22.2802 84.5314 18.1122 78.261C17.5376 77.4047 16.8587 76.6233 16.0909 75.935C15.5228 75.4205 14.9394 74.9305 14.4065 74.3716C14.381 74.4859 14.3545 74.6002 14.3269 74.7146C15.2457 75.6594 16.3053 76.4357 17.1582 77.4708C18.4689 79.0572 19.3555 81.0325 19.9053 83.1074C21.1104 87.6598 20.6862 92.4158 20.1304 97.0418C20.0186 98.0003 19.9022 98.9589 19.7935 99.9174Z" fill="#ADE5FF"/>
<path d="M65.8674 93.2932C65.702 94.3927 65.114 96.9437 65.065 97.4092C64.9823 98.1748 62.8829 98.0217 62.9962 96.8411C63.1034 95.7218 63.1861 93.9808 63.3025 93.0574C63.4495 91.9182 65.9623 92.6654 65.8674 93.2932Z" fill="#FFB76E"/>
<path d="M65.0604 97.302C65.6974 97.0754 65.9792 99.1732 65.6469 99.556C65.3146 99.9388 63.131 100.006 61.7284 99.9985C60.6565 99.9985 58.7562 100.034 58.8711 99.3967C59.0962 98.1488 59.9843 98.5086 61.4206 97.4291C62.1617 96.8717 62.7436 96.5226 63.0192 96.5838C63.3408 96.6573 63.18 97.9696 65.0604 97.302Z" fill="#171A47"/>
<path d="M63.2428 97.1444C62.9538 96.9738 62.6454 96.8386 62.3241 96.7417C62.2944 96.7328 62.2627 96.7331 62.2332 96.7426C62.2037 96.7521 62.1777 96.7704 62.1588 96.7949C62.1399 96.8195 62.1289 96.8492 62.1272 96.8802C62.1256 96.9111 62.1333 96.9419 62.1495 96.9683C62.2525 97.1187 62.3417 97.2781 62.416 97.4445C62.157 97.3445 61.8921 97.2606 61.6228 97.1934C61.5931 97.1845 61.5614 97.1848 61.5319 97.1943C61.5024 97.2038 61.4764 97.2221 61.4575 97.2466C61.4386 97.2712 61.4276 97.3009 61.4259 97.3319C61.4243 97.3628 61.432 97.3936 61.4482 97.42C61.488 97.4843 61.6213 97.6666 61.7085 97.8273C61.4942 97.7327 61.2711 97.6593 61.0424 97.6084C61.0127 97.5995 60.981 97.5998 60.9515 97.6093C60.922 97.6188 60.8961 97.637 60.8772 97.6616C60.8583 97.6862 60.8472 97.7159 60.8456 97.7469C60.8439 97.7778 60.8517 97.8085 60.8679 97.835C60.9421 97.9448 61.0042 98.0624 61.0532 98.1857C60.8637 98.0728 60.6567 97.9925 60.4407 97.9483C60.2462 97.907 60.1635 98.2056 60.358 98.2454C60.6518 98.3003 60.9254 98.4336 61.1496 98.6312C61.171 98.6534 61.1985 98.6686 61.2285 98.6749C61.2586 98.6812 61.2899 98.6783 61.3183 98.6665C61.3467 98.6548 61.371 98.6348 61.3879 98.6091C61.4047 98.5834 61.4135 98.5533 61.413 98.5225C61.4222 98.3445 61.388 98.1669 61.3135 98.005C61.5009 98.0672 61.6823 98.1461 61.8555 98.2408C61.8759 98.253 61.8988 98.2602 61.9224 98.2621C61.946 98.2639 61.9698 98.2602 61.9917 98.2513C62.0137 98.2424 62.0333 98.2285 62.049 98.2107C62.0647 98.193 62.076 98.1718 62.0822 98.1489C62.1358 97.9958 62.0439 97.7875 61.929 97.6022C62.137 97.6664 62.3415 97.7415 62.5415 97.8273C62.5649 97.8416 62.5917 97.8493 62.6191 97.8497C62.6465 97.85 62.6735 97.8431 62.6972 97.8294C62.721 97.8158 62.7407 97.7961 62.7543 97.7723C62.7678 97.7485 62.7747 97.7215 62.7743 97.6941C62.7687 97.514 62.7193 97.3379 62.6303 97.1811C62.7883 97.2471 62.9417 97.3233 63.0897 97.4093C63.1247 97.4276 63.1654 97.4317 63.2034 97.4207C63.2413 97.4097 63.2735 97.3844 63.2933 97.3502C63.313 97.3161 63.3188 97.2755 63.3094 97.2372C63.3 97.1988 63.2762 97.1656 63.2428 97.1444Z" fill="#383B7D"/>
<path d="M65.3912 99.1794C64.6776 99.3999 63.9288 99.4091 63.1892 99.4535C62.5182 99.5031 61.8451 99.5189 61.1726 99.5009C61.1339 99.2236 61.007 98.9661 60.8106 98.7664C60.6143 98.5668 60.3589 98.4356 60.0823 98.3923C59.3948 98.2928 58.9691 98.5852 58.793 99.2483C58.782 99.2877 58.7872 99.3298 58.8073 99.3654C58.8274 99.401 58.8608 99.4272 58.9002 99.4382C58.9396 99.4491 58.9817 99.444 59.0173 99.4239C59.0529 99.4038 59.0791 99.3704 59.0901 99.331C59.2141 98.8624 59.4683 98.648 59.946 98.6863C60.1933 98.7051 60.4251 98.8138 60.5977 98.9918C60.7704 99.1698 60.8719 99.4048 60.8832 99.6525C60.8877 99.6916 60.9053 99.7279 60.9331 99.7557C60.9609 99.7835 60.9972 99.8011 61.0363 99.8057C61.8125 99.8322 62.5895 99.8148 63.3638 99.7536C64.0727 99.7123 64.7817 99.6923 65.4647 99.4795C65.6622 99.4182 65.581 99.1196 65.3912 99.1794Z" fill="#383B7D"/>
<path d="M67.4077 44.019C67.0126 45.1399 62.7037 65.9848 62.327 69.744C61.9503 73.5033 60.3364 92.1417 60.3471 94.2441C60.3471 95.9453 66.8886 96.1704 67.077 95.1766C67.4858 93.0099 70.2252 73.8922 71.3522 70.3198C72.4792 66.7474 78.1142 50.7841 79.4296 46.4629C80.7449 42.1417 68.5347 40.8263 67.4077 44.019Z" fill="#171852"/>
<path d="M61.903 72.972C61.9443 72.1589 62.1511 67.3064 63.0928 65.0095C63.5935 64.0065 67.4492 65.2575 67.6529 65.5623C67.8565 65.867 66.7969 71.0242 66.6039 73.2047C66.4937 74.4588 61.8096 74.687 61.903 72.972Z" fill="#2E3075"/>
<path d="M72.6263 56.2185C72.7227 56.0455 72.4563 55.8893 72.3598 56.0654C70.8538 58.7726 69.7206 61.671 68.9911 64.6818C67.3702 64.1038 65.6585 63.8226 63.9379 63.8518C63.8973 63.8518 63.8584 63.868 63.8297 63.8967C63.801 63.9254 63.7848 63.9643 63.7848 64.005C63.7848 64.0456 63.801 64.0845 63.8297 64.1132C63.8584 64.1419 63.8973 64.1581 63.9379 64.1581C65.6355 64.1286 67.3244 64.4078 68.9222 64.9819C68.5101 66.751 68.2413 68.5504 68.1183 70.3627C68.0922 70.7563 67.9651 71.3366 68.1826 71.6995C68.2581 71.809 68.3563 71.9009 68.4705 71.969C68.593 72.0502 69.1764 72.3074 68.7767 72.4284C68.521 72.5095 68.2729 72.361 68.0693 72.6152C67.9161 72.802 67.933 73.1128 67.9024 73.3318C67.8452 73.7402 67.7885 74.1459 67.7324 74.5492C67.7094 74.7207 67.6865 74.8922 67.662 75.0621C65.9323 75.2238 64.1876 75.0681 62.5139 74.6028C62.4745 74.5918 62.4324 74.5969 62.3967 74.617C62.3611 74.6371 62.335 74.6706 62.324 74.7099C62.313 74.7493 62.3182 74.7915 62.3383 74.8271C62.3584 74.8627 62.3918 74.8889 62.4312 74.8998C64.1203 75.3726 65.8812 75.535 67.6283 75.3791C67.2934 77.823 66.9744 80.2689 66.6712 82.7169C66.2772 85.9009 65.9107 89.0884 65.5718 92.2795C65.5504 92.4771 65.8597 92.4756 65.878 92.2795C66.4701 86.7262 67.1429 81.1826 67.8962 75.6486L67.9376 75.3424L68.1321 75.3209C68.3265 75.2964 68.3296 74.9886 68.1321 75.0147L67.9789 75.0315C68.0443 74.5599 68.1096 74.0888 68.1749 73.6182C68.2193 73.2981 68.1856 72.7913 68.5669 72.7316C68.7292 72.7055 68.8977 72.7683 69.06 72.7071C69.1493 72.6842 69.2261 72.6274 69.2742 72.5488C69.3222 72.4701 69.3377 72.3758 69.3172 72.286C69.2468 71.9506 68.8579 71.8771 68.6297 71.698C68.1979 71.3642 68.4245 70.3796 68.4643 69.8972C68.5195 69.2082 68.5981 68.5206 68.7001 67.8346C68.8339 66.9159 69.0054 66.0012 69.2146 65.0906C69.8276 65.3273 70.4232 65.6067 70.997 65.9267C71.1701 66.0231 71.3262 65.7567 71.1501 65.6602C70.5461 65.3246 69.9187 65.0329 69.2728 64.7874C69.3188 64.596 69.3662 64.4046 69.4152 64.2147C70.1412 61.4236 71.2203 58.7365 72.6263 56.2185Z" fill="#2E3075"/>
<path d="M72.1746 66.1717L71.7995 65.968C71.6249 65.8731 71.4687 66.1395 71.6463 66.2344L72.0215 66.4381C72.1945 66.5315 72.3507 66.2651 72.1746 66.1717Z" fill="#2E3075"/>
<path d="M69.5944 74.7253C69.3768 74.79 69.1553 74.8412 68.9314 74.8784C68.7354 74.9105 68.818 75.2076 69.014 75.1754C69.238 75.1382 69.4595 75.0871 69.6771 75.0223C69.7165 75.0114 69.7499 74.9852 69.77 74.9496C69.7901 74.914 69.7952 74.8718 69.7843 74.8324C69.7733 74.793 69.7471 74.7596 69.7115 74.7395C69.6759 74.7194 69.6338 74.7143 69.5944 74.7253Z" fill="#2E3075"/>
<path d="M92.11 91.5689C92.3412 92.6561 92.6888 95.2439 92.8052 95.7033C92.9996 96.4551 90.9784 97.0432 90.6614 95.8993C90.3674 94.8136 89.833 93.1538 89.6202 92.2488C89.3644 91.1325 91.9752 90.9488 92.11 91.5689Z" fill="#FFB76E"/>
<path d="M92.7653 95.6069C93.2829 95.172 94.2843 97.0355 94.1067 97.5118C93.9291 97.988 91.9093 98.8179 90.594 99.3033C89.5849 99.677 87.824 100.375 87.7076 99.7443C87.4795 98.4964 88.438 98.5193 89.4027 97.0064C89.9004 96.224 90.3215 95.6926 90.6017 95.6543C90.9217 95.6084 91.2387 96.8931 92.7653 95.6069Z" fill="#171A47"/>
<path d="M91.0075 96.0969C90.6765 96.0388 90.3398 96.0208 90.0045 96.0433C89.9734 96.0452 89.9436 96.0565 89.9191 96.0758C89.8946 96.0951 89.8766 96.1214 89.8674 96.1512C89.8583 96.1809 89.8584 96.2128 89.8679 96.2425C89.8773 96.2722 89.8956 96.2983 89.9203 96.3174C90.0695 96.422 90.2089 96.5398 90.3368 96.6696C90.0595 96.6667 89.7823 96.681 89.5068 96.7124C89.4757 96.7143 89.4459 96.7257 89.4215 96.7449C89.397 96.7642 89.3789 96.7905 89.3698 96.8203C89.3606 96.8501 89.3608 96.882 89.3702 96.9117C89.3797 96.9414 89.3979 96.9675 89.4226 96.9865C89.4823 97.034 89.6707 97.1565 89.81 97.2759C89.5759 97.2626 89.341 97.2723 89.1087 97.305C89.0776 97.3069 89.0478 97.3182 89.0233 97.3375C88.9988 97.3568 88.9808 97.3831 88.9716 97.4129C88.9625 97.4427 88.9626 97.4745 88.9721 97.5043C88.9815 97.534 88.9998 97.5601 89.0245 97.5791C89.1327 97.6559 89.2323 97.7442 89.3216 97.8425C89.1036 97.8055 88.881 97.8055 88.6631 97.8425C88.4671 97.8731 88.4947 98.1793 88.6907 98.1487C88.9853 98.0966 89.2884 98.1252 89.5681 98.2314C89.5959 98.2446 89.6269 98.2492 89.6573 98.2445C89.6877 98.2398 89.716 98.226 89.7384 98.2051C89.7609 98.1841 89.7765 98.1568 89.7833 98.1268C89.7901 98.0969 89.7876 98.0655 89.7764 98.0369C89.7225 97.8675 89.6285 97.7135 89.5022 97.5883C89.6998 97.5807 89.8976 97.591 90.0933 97.6189C90.1166 97.623 90.1404 97.6217 90.1631 97.6151C90.1858 97.6085 90.2066 97.5967 90.2239 97.5807C90.2413 97.5646 90.2547 97.5448 90.2631 97.5228C90.2715 97.5007 90.2747 97.477 90.2725 97.4535C90.2725 97.2882 90.1086 97.1289 89.9402 96.9942C90.1575 96.9827 90.3752 96.9827 90.5925 96.9942C90.6194 96.9991 90.647 96.9967 90.6727 96.9873C90.6983 96.9779 90.7209 96.9619 90.7383 96.9408C90.7556 96.9197 90.767 96.8944 90.7713 96.8674C90.7755 96.8405 90.7725 96.8129 90.7625 96.7875C90.6937 96.6211 90.5855 96.4739 90.447 96.3587C90.6165 96.3657 90.7853 96.3836 90.9524 96.4123C90.9942 96.4196 91.0372 96.41 91.072 96.3856C91.1067 96.3612 91.1303 96.324 91.1376 96.2822C91.145 96.2403 91.1353 96.1973 91.1109 96.1626C91.0865 96.1278 91.0493 96.1042 91.0075 96.0969Z" fill="#383B7D"/>
<path d="M93.7332 97.2469C93.1436 97.7062 92.4454 97.9757 91.7671 98.2774C91.1563 98.5597 90.5318 98.8111 89.8959 99.0308C89.7623 98.7846 89.553 98.588 89.299 98.47C89.0451 98.352 88.7599 98.3188 88.4856 98.3754C87.8072 98.5285 87.5117 98.9466 87.5791 99.631C87.5809 99.6511 87.5866 99.6707 87.596 99.6886C87.6054 99.7065 87.6182 99.7223 87.6337 99.7353C87.6492 99.7482 87.6671 99.758 87.6863 99.764C87.7056 99.77 87.7259 99.7722 87.746 99.7704C87.7661 99.7686 87.7856 99.7628 87.8035 99.7535C87.8214 99.7441 87.8373 99.7313 87.8502 99.7158C87.8632 99.7003 87.8729 99.6824 87.8789 99.6631C87.885 99.6439 87.8871 99.6236 87.8853 99.6035C87.8378 99.1211 88.0002 98.8378 88.4611 98.6985C88.7001 98.6269 88.9572 98.6459 89.1832 98.7518C89.4091 98.8577 89.5882 99.0432 89.6861 99.2727C89.7047 99.3086 89.7351 99.3369 89.7723 99.3528C89.8094 99.3687 89.8509 99.3713 89.8897 99.36C90.6257 99.1115 91.3471 98.8217 92.0503 98.4918C92.6996 98.2039 93.3565 97.9359 93.9215 97.4965C94.0701 97.3755 93.8909 97.1259 93.7332 97.2469Z" fill="#383B7D"/>
<path d="M73.2648 47.8027C74.0457 50.2358 79.938 69.2402 81.3084 72.7621C82.6238 76.1431 87.7581 92.6117 88.5053 93.9255C89.2526 95.2394 94.3241 94.489 94.1403 92.9869C93.9566 91.4847 90.1376 72.5722 89.3858 69.5664C88.6339 66.5605 88.5497 50.5161 86.0461 45.3083C83.3419 39.6809 71.6677 42.8246 73.2648 47.8027Z" fill="#1D1F69"/>
<path d="M82.1078 75.5199C81.7725 74.7773 79.7375 70.3627 79.5292 67.8973C79.517 66.7765 83.5104 66.1272 83.8366 66.3048C84.1627 66.4825 85.57 71.554 86.3968 73.5814C86.87 74.7466 82.8153 77.0849 82.1078 75.5199Z" fill="#2E3075"/>
<path d="M87.9756 65.2743C87.5775 65.239 87.1793 65.2176 86.7812 65.2054C86.7583 65.0415 86.7368 64.8792 86.72 64.7138C86.5668 63.3189 86.7016 61.9193 86.6373 60.5213C86.5087 57.765 85.7446 55.0792 84.9376 52.4516C84.8794 52.2617 84.5808 52.3428 84.6405 52.5342C85.498 55.3242 86.3035 58.1708 86.3463 61.1093C86.3662 62.4782 86.282 63.8364 86.4704 65.1977C84.1724 65.1725 81.8884 65.5567 79.7252 66.3324C79.5399 66.3982 79.6195 66.6968 79.8079 66.6294C81.9617 65.8579 84.2364 65.4788 86.524 65.5101C86.7233 66.7331 87.0773 67.9258 87.5775 69.0595C87.6571 69.2402 87.9235 69.084 87.8439 68.9064C87.3663 67.8234 87.0258 66.6851 86.8302 65.5177C87.2115 65.5284 87.5958 65.5499 87.9756 65.5851C88.1731 65.6019 88.1716 65.2926 87.9756 65.2743Z" fill="#343685"/>
<path d="M92.6336 92.2734C91.2402 88.8756 91.2432 85.1424 90.5358 81.5822C90.0611 79.1935 89.3766 76.8476 88.8514 74.4696C88.9816 74.3823 89.1133 74.295 89.2419 74.2031C89.395 74.0883 89.2419 73.8218 89.0888 73.9367C88.9877 74.0086 88.8866 74.0776 88.7825 74.1465C88.5049 72.8776 88.3085 71.5923 88.1945 70.2984C88.1792 70.1024 87.8699 70.0994 87.8882 70.2984C88.0081 71.6524 88.2158 72.9971 88.5099 74.3241C86.8562 75.3806 85.06 76.0345 83.1306 76.4678C82.9377 76.5122 83.0189 76.8093 83.2133 76.7649C85.1351 76.327 86.9266 75.6792 88.5727 74.6395C89.0734 76.9226 89.7212 79.1766 90.1882 81.4689C90.9247 85.0873 90.9064 88.894 92.332 92.35C92.4101 92.5368 92.7086 92.4572 92.6336 92.2734Z" fill="#343685"/>
<path d="M84.4721 48.6602C83.7447 48.9267 82.8719 48.8853 82.1078 48.8256C81.2472 48.7582 80.3806 48.4994 79.8324 47.7905C79.7129 47.6374 79.445 47.7905 79.5659 47.9436C80.0896 48.6235 80.8522 48.968 81.6913 49.0875C82.5902 49.2161 83.6819 49.2743 84.5532 48.9573C84.7324 48.8899 84.6527 48.5929 84.4721 48.6602Z" fill="#343685"/>
<path d="M84.688 51.735C84.4233 51.0782 84.2153 50.3999 84.0663 49.7076C84.0249 49.5131 83.7263 49.5958 83.7692 49.7903C83.9182 50.4826 84.1262 51.1609 84.3909 51.8177C84.4644 51.9984 84.763 51.9188 84.688 51.735Z" fill="#343685"/>
<path d="M41.8466 43.2641C48.4095 39.1542 49.9408 37.9047 54.4028 35.3015C55.9341 34.4088 56.0474 23.5629 58.574 18.3689C61.7069 11.93 64.604 21.5846 64.0405 25.7098C63.477 29.835 61.6395 37.0548 59.753 39.1848C57.4929 41.7267 43.9367 44.9239 42.8097 45.1123C41.6827 45.3006 40.9845 43.7939 41.8466 43.2641Z" fill="#FFB76E"/>
<path d="M42.6245 45.5059C42.1452 46.3067 40.7318 47.1397 39.5512 46.7309C38.3706 46.322 37.1594 45.293 37.4075 44.5871C37.7061 43.7342 39.0919 44.6744 39.6584 44.0175C40.7854 42.7067 41.6628 43.0987 42.2355 43.48C42.5492 43.7023 42.7648 44.0372 42.8373 44.4147C42.9098 44.7923 42.8335 45.1832 42.6245 45.5059Z" fill="#FFB76E"/>
<path d="M56.0812 28.1077C57.8835 28.8826 60.7684 29.9299 63.3393 30.0065C63.69 28.4752 63.9641 26.9945 64.1295 25.7802C64.7067 21.5448 61.7376 11.6575 58.5266 18.2572C57.2909 20.7991 56.6171 24.664 56.0812 28.1077Z" fill="#5E5E5E"/>
<path d="M66.6559 45.7094C66.2088 48.1947 72.4302 47.7751 75.6719 47.7751C79.2413 47.7751 86.4274 46.6144 86.1916 44.7693C85.9558 42.9241 84.0693 13.7997 76.2951 12.4032C71.3951 11.5227 61.4879 13.8012 59.286 17.1807C56.9309 20.7929 62.1601 27.3206 64.4141 34.0826C66.6681 40.8447 66.9545 44.0511 66.6559 45.7094Z" fill="#5E5E5E"/>
<path d="M64.1248 9.0926C64.1248 9.0926 65.3498 12.9651 65.5151 14.0753C65.7892 15.9281 69.8991 14.0294 69.4505 12.544C68.0723 7.99317 66.466 5.97498 66.466 5.97498L64.1248 9.0926Z" fill="#FFB76E"/>
<path d="M62.4817 28.7064C61.7467 27.2747 60.8908 25.9134 60.1497 24.4862C59.2557 22.8079 58.8384 20.9168 58.943 19.0181C58.9553 18.7869 58.5954 18.7869 58.5817 19.0181C58.4809 20.6077 58.7481 22.1991 59.3626 23.6686C60.0057 25.186 60.9367 26.5779 61.7146 28.0234C63.3729 31.112 64.7174 34.3628 65.3743 37.8235C65.4171 38.0516 65.7647 37.9551 65.7219 37.727C65.1231 34.5604 63.9533 31.5622 62.4817 28.7064Z" fill="#414141"/>
<path d="M75.5433 46.6711C74.3072 46.8034 73.0637 46.8546 71.8208 46.8242C70.4687 46.7859 68.7583 46.8242 67.639 45.9636C66.4415 45.0449 66.7754 43.4371 66.6651 42.1034C66.5592 40.8918 66.3299 39.6943 65.9806 38.5294C65.9657 38.4859 65.9347 38.4496 65.8939 38.4282C65.8532 38.4067 65.8058 38.4016 65.7614 38.4139C65.717 38.4262 65.679 38.455 65.6552 38.4944C65.6313 38.5338 65.6234 38.5809 65.633 38.6259C66.0972 40.2411 66.3428 41.9113 66.3634 43.5917C66.3864 44.6391 66.5273 45.5824 67.4108 46.2592C68.3648 46.988 69.651 47.0631 70.8041 47.1396C72.3833 47.2397 73.9681 47.2064 75.5418 47.0401C75.7715 47.0095 75.7745 46.6466 75.5433 46.6711Z" fill="#414141"/>
<path d="M82.7953 45.2915C81.0187 46.0134 79.1347 46.4356 77.22 46.541C76.9888 46.5532 76.9873 46.9146 77.22 46.9024C79.1654 46.7971 81.0798 46.3702 82.8856 45.6391C83.1046 45.5533 83.0112 45.2042 82.7953 45.2915Z" fill="#414141"/>
<path d="M68.7002 13.9345C67.9897 14.4566 65.8842 15.4918 65.506 14.0279C65.4911 13.9843 65.4601 13.9481 65.4193 13.9266C65.3786 13.9052 65.3312 13.9001 65.2868 13.9124C65.2424 13.9247 65.2044 13.9535 65.1806 13.9929C65.1567 14.0323 65.1488 14.0793 65.1584 14.1244C65.6071 15.8593 67.9514 14.9313 68.8824 14.2469C69.0677 14.1152 68.8885 13.8013 68.7002 13.9345Z" fill="#414141"/>
<path d="M69.4182 12.9238C69.3505 13.1666 69.2291 13.3911 69.063 13.5807C68.9236 13.766 69.236 13.9467 69.3692 13.7629C69.5582 13.5475 69.6959 13.292 69.772 13.0157C69.8133 12.7921 69.4657 12.6957 69.4182 12.9238Z" fill="#414141"/>
<path d="M70.2222 12.9805C70.1793 14.1627 69.3846 15.0355 68.3847 15.5837C67.2423 16.2069 65.5503 16.3309 65.1568 14.8104C65.1418 14.7668 65.1108 14.7306 65.0701 14.7091C65.0293 14.6877 64.9819 14.6826 64.9375 14.6949C64.8932 14.7072 64.8552 14.736 64.8313 14.7754C64.8075 14.8148 64.7995 14.8618 64.8092 14.9068C64.9485 15.4458 65.1262 15.9542 65.6621 16.2069C66.345 16.53 67.325 16.432 68.0064 16.1686C69.3662 15.6434 70.5254 14.4919 70.5805 12.9836C70.5912 12.7493 70.2314 12.7493 70.2222 12.9805Z" fill="#414141"/>
<path d="M67.5578 7.23985C67.5486 9.1386 65.7632 13.42 63.0054 12.93C59.4836 12.3052 60.2032 5.704 60.6274 4.26003C61.7544 0.419651 64.062 1.49 65.5641 2.50675C67.0663 3.5235 67.5639 5.84028 67.5578 7.23985Z" fill="#FFC891"/>
<path d="M67.1091 7.69462C67.054 7.63797 66.3696 7.48331 66.2991 6.49718C66.2287 5.51106 65.9929 4.03187 64.4785 4.12068C63.4939 4.17734 61.5905 4.69337 60.7499 3.87262C59.0777 2.24336 60.1374 -0.502172 62.1387 0.079704C64.7418 0.83308 65.924 -0.920204 67.126 0.874424C68.2591 2.5588 69.1534 1.9463 69.6449 2.76858C71.2512 5.45746 68.3908 8.28875 67.7676 8.35459C67.4522 8.38675 67.2898 7.87838 67.1091 7.69462Z" fill="#541A10"/>
<path d="M66.7372 7.92888C66.607 8.6746 66.8903 9.35907 67.3803 9.46014C67.8703 9.5612 68.3649 9.03598 68.4951 8.29026C68.6252 7.54454 68.3419 6.86007 67.8519 6.75901C67.3619 6.65794 66.8627 7.18469 66.7372 7.92888Z" fill="#FFC891"/>
<path d="M66.6451 5.15589C66.5976 4.88325 66.4967 4.62268 66.3482 4.38918C66.1996 4.15568 66.0064 3.95386 65.7795 3.79533C65.5527 3.6368 65.2967 3.52468 65.0264 3.46543C64.7561 3.40618 64.4767 3.40096 64.2043 3.45008C64.0084 3.4807 64.0926 3.77777 64.287 3.74714C64.5203 3.7083 64.759 3.71612 64.9893 3.77015C65.2196 3.82418 65.4368 3.92335 65.6285 4.06191C65.8202 4.20048 65.9825 4.37569 66.106 4.5774C66.2295 4.77912 66.3118 5.00332 66.3481 5.23705C66.3833 5.43305 66.6803 5.35036 66.6451 5.15589Z" fill="#6B2115"/>
<path d="M66.1108 3.24329C65.8396 3.06908 65.5341 2.95523 65.215 2.90947C65.0205 2.88038 64.9363 3.17744 65.1323 3.20654C65.4255 3.24751 65.7061 3.35203 65.9546 3.51279C66.1215 3.61844 66.2762 3.35047 66.1108 3.24329Z" fill="#6B2115"/>
<path d="M66.9529 4.49125C66.8582 4.15612 66.6856 3.84813 66.4492 3.5924C66.3052 3.45612 66.0863 3.67356 66.2317 3.81137C66.4317 4.02939 66.5771 4.2918 66.6559 4.577C66.7233 4.75922 67.0157 4.67959 66.9529 4.49125Z" fill="#6B2115"/>
<path d="M67.3986 4.13446C67.3011 3.65502 67.0182 3.23347 66.6115 2.96152C66.4477 2.84974 66.293 3.11464 66.4584 3.22796C66.7953 3.4591 67.0271 3.81417 67.1031 4.21561C67.1414 4.41315 67.4384 4.33046 67.3986 4.13446Z" fill="#6B2115"/>
<path d="M67.4369 2.86815C67.2838 2.74871 67.1306 3.02127 67.2838 3.13459C67.662 3.42093 67.7661 3.90021 67.8059 4.34428C67.8243 4.54028 68.1321 4.54181 68.1122 4.34428C68.0616 3.77006 67.9131 3.22952 67.4369 2.86815Z" fill="#6B2115"/>
<path d="M68.5731 3.52202C68.4829 3.24065 68.3371 2.98028 68.1443 2.7564C68.0157 2.60327 67.7982 2.82377 67.9269 2.97537C68.0842 3.16021 68.203 3.37473 68.276 3.60624C68.3357 3.78999 68.6328 3.71037 68.5731 3.52202Z" fill="#6B2115"/>
<path d="M68.6742 2.51287C68.5211 2.38578 68.3036 2.60322 68.4568 2.73184C68.6541 2.89343 68.8083 3.1013 68.9058 3.33693C69.0033 3.57257 69.0411 3.82866 69.0157 4.08241C68.9988 4.27994 69.3066 4.27841 69.3219 4.08241C69.3481 3.78798 69.303 3.49158 69.1902 3.21834C69.0774 2.9451 68.9004 2.7031 68.6742 2.51287Z" fill="#6B2115"/>
<path d="M69.3678 2.52824C69.3535 2.51386 69.3365 2.50244 69.3178 2.49462C69.2992 2.4868 69.2791 2.48274 69.2588 2.48267C69.2386 2.4826 69.2185 2.48652 69.1998 2.4942C69.181 2.50189 69.164 2.5132 69.1496 2.52748C69.1352 2.54175 69.1238 2.55872 69.116 2.57741C69.1081 2.59611 69.1041 2.61616 69.104 2.63642C69.1039 2.65668 69.1079 2.67676 69.1155 2.69551C69.1232 2.71425 69.1345 2.7313 69.1488 2.74568C69.4066 3.00172 69.5618 3.3432 69.5852 3.70577C69.599 3.90331 69.9068 3.90484 69.8915 3.70577C69.8662 3.26258 69.6799 2.84386 69.3678 2.52824Z" fill="#6B2115"/>
<path d="M66.47 19.3708L34.163 30.0491L39.0963 44.9748L71.4033 34.2965L66.47 19.3708Z" fill="#E8E4D1"/>
<path d="M57.4898 23.4282C50.4522 25.8629 43.3809 28.197 36.2758 30.4306C36.0875 30.4903 36.1671 30.7874 36.3585 30.7277C43.4625 28.4951 50.5338 26.1609 57.5725 23.7252C57.7593 23.6594 57.6751 23.3608 57.4898 23.4282Z" fill="#FFFDF0"/>
<path d="M64.9211 20.8787C63.0172 21.6045 61.1072 22.315 59.1911 23.0102C59.0058 23.0776 59.0855 23.3762 59.2738 23.3073C61.1889 22.6121 63.0989 21.9016 65.0038 21.1758C65.1875 21.1069 65.1079 20.8083 64.9211 20.8787Z" fill="#FFFDF0"/>
<path d="M36.8884 31.6587C36.2269 31.6587 36.2254 32.6877 36.8884 32.6877C37.5515 32.6877 37.5515 31.6587 36.8884 31.6587Z" fill="#E0DDCA"/>
<path d="M38.9708 34.8407C38.3093 34.8407 38.3078 35.8697 38.9708 35.8697C39.6339 35.8697 39.6339 34.8407 38.9708 34.8407Z" fill="#E0DDCA"/>
<path d="M38.2191 37.2095C37.5576 37.2095 37.5561 38.2385 38.2191 38.2385C38.8821 38.2385 38.8821 37.2095 38.2191 37.2095Z" fill="#E0DDCA"/>
<path d="M43.5998 30.9635C42.9384 30.9635 42.9368 31.9925 43.5998 31.9925C44.2629 31.9925 44.2629 30.9635 43.5998 30.9635Z" fill="#E0DDCA"/>
<path d="M45.6241 36.577C44.9626 36.577 44.9611 37.606 45.6241 37.606C46.2872 37.606 46.2872 36.577 45.6241 36.577Z" fill="#E0DDCA"/>
<path d="M43.4835 40.1632C42.822 40.1632 42.8205 41.1922 43.4835 41.1922C44.1465 41.1922 44.1465 40.1632 43.4835 40.1632Z" fill="#E0DDCA"/>
<path d="M41.2908 39.3533C40.6293 39.3533 40.6277 40.3823 41.2908 40.3823C41.9538 40.3823 41.9477 39.3533 41.2908 39.3533Z" fill="#E0DDCA"/>
<path d="M42.384 35.8313C41.7225 35.8313 41.721 36.8603 42.384 36.8603C43.0471 36.8603 43.0471 35.8313 42.384 35.8313Z" fill="#E0DDCA"/>
<path d="M39.6063 32.0032C38.9448 32.0032 38.9433 33.0322 39.6063 33.0322C40.2694 33.0322 40.2709 32.0032 39.6063 32.0032Z" fill="#E0DDCA"/>
<path d="M51.7033 31.3112C51.0417 31.3112 51.0402 32.3402 51.7033 32.3402C52.3663 32.3402 52.3632 31.3112 51.7033 31.3112Z" fill="#E0DDCA"/>
<path d="M51.1796 36.8083C50.5181 36.8083 50.5165 37.8373 51.1796 37.8373C51.8426 37.8373 51.841 36.8083 51.1796 36.8083Z" fill="#E0DDCA"/>
<path d="M49.0389 37.6688C48.3774 37.6688 48.3759 38.6978 49.0389 38.6978C49.702 38.6978 49.7005 37.6688 49.0389 37.6688Z" fill="#E0DDCA"/>
<path d="M47.7649 32.1211C47.1034 32.1211 47.1019 33.1501 47.7649 33.1501C48.4279 33.1501 48.4279 32.1211 47.7649 32.1211Z" fill="#E0DDCA"/>
<path d="M50.7738 27.9562C50.1123 27.9562 50.1108 28.9852 50.7738 28.9852C51.4368 28.9852 51.4368 27.9562 50.7738 27.9562Z" fill="#E0DDCA"/>
<path d="M56.3859 29.5763C55.7244 29.5763 55.7228 30.6053 56.3859 30.6053C57.0489 30.6053 57.0489 29.5763 56.3859 29.5763Z" fill="#E0DDCA"/>
<path d="M57.6583 35.7671C56.9968 35.7671 56.9953 36.7961 57.6583 36.7961C58.3214 36.7961 58.3214 35.7671 57.6583 35.7671Z" fill="#E0DDCA"/>
<path d="M55.9233 35.7089C55.2618 35.7089 55.2603 36.7379 55.9233 36.7379C56.5864 36.7379 56.5864 35.7089 55.9233 35.7089Z" fill="#E0DDCA"/>
<path d="M54.3064 31.0217C53.6449 31.0217 53.6434 32.0507 54.3064 32.0507C54.9694 32.0507 54.9664 31.0217 54.3064 31.0217Z" fill="#E0DDCA"/>
<path d="M54.3064 26.797C53.6449 26.797 53.6434 27.826 54.3064 27.826C54.9694 27.826 54.9664 26.797 54.3064 26.797Z" fill="#E0DDCA"/>
<path d="M59.2783 26.1033C58.6168 26.1033 58.6153 27.1323 59.2783 27.1323C59.9413 27.1323 59.9413 26.1033 59.2783 26.1033Z" fill="#E0DDCA"/>
<path d="M60.3778 32.6418C59.7163 32.6418 59.7148 33.6708 60.3778 33.6708C61.0408 33.6708 61.0439 32.6418 60.3778 32.6418Z" fill="#E0DDCA"/>
<path d="M59.3948 33.6876C58.7333 33.6876 58.7317 34.7166 59.3948 34.7166C60.0578 34.7166 60.0578 33.6876 59.3948 33.6876Z" fill="#E0DDCA"/>
<path d="M57.7747 31.3112C57.1132 31.3112 57.1116 32.3402 57.7747 32.3402C58.4377 32.3402 58.4408 31.3112 57.7747 31.3112Z" fill="#E0DDCA"/>
<path d="M61.2459 29.0555C60.5845 29.0555 60.5829 30.0845 61.2459 30.0845C61.9089 30.0845 61.9089 29.0555 61.2459 29.0555Z" fill="#E0DDCA"/>
<path d="M61.9413 25.0055C61.2798 25.0055 61.2782 26.0345 61.9413 26.0345C62.6043 26.0345 62.6028 25.0055 61.9413 25.0055Z" fill="#E0DDCA"/>
<path d="M66.3956 29.0555C65.7341 29.0555 65.7326 30.0845 66.3956 30.0845C67.0587 30.0845 67.0587 29.0555 66.3956 29.0555Z" fill="#E0DDCA"/>
<path d="M65.5273 32.8164C64.8658 32.8164 64.8643 33.8454 65.5273 33.8454C66.1904 33.8454 66.1904 32.8164 65.5273 32.8164Z" fill="#E0DDCA"/>
<path d="M63.5613 32.7C62.8998 32.7 62.8982 33.7289 63.5613 33.7289C64.2243 33.7289 64.2228 32.7 63.5613 32.7Z" fill="#E0DDCA"/>
<path d="M63.7925 25.5261C63.131 25.5261 63.1294 26.5551 63.7925 26.5551C64.4555 26.5551 64.4555 25.5261 63.7925 25.5261Z" fill="#E0DDCA"/>
<path d="M65.1783 23.6166C64.5168 23.6166 64.5153 24.6456 65.1783 24.6456C65.8414 24.6456 65.8429 23.6166 65.1783 23.6166Z" fill="#E0DDCA"/>
<path d="M66.7431 25.9885C66.0817 25.9885 66.0801 27.0175 66.7431 27.0175C67.4062 27.0175 67.4062 25.9885 66.7431 25.9885Z" fill="#E0DDCA"/>
<path d="M67.7263 31.8899C67.0648 31.8899 67.0633 32.9189 67.7263 32.9189C68.3893 32.9189 68.3939 31.8899 67.7263 31.8899Z" fill="#E0DDCA"/>
<path d="M63.9655 30.3281C63.3041 30.3281 63.3025 31.3571 63.9655 31.3571C64.6285 31.3571 64.6285 30.3281 63.9655 30.3281Z" fill="#E0DDCA"/>
<path d="M54.0721 32.9894C53.4106 32.9894 53.4091 34.0184 54.0721 34.0184C54.7352 34.0184 54.7352 32.9894 54.0721 32.9894Z" fill="#E0DDCA"/>
<path d="M49.7908 34.7825C49.1293 34.7825 49.1277 35.8115 49.7908 35.8115C50.4538 35.8115 50.4538 34.7825 49.7908 34.7825Z" fill="#E0DDCA"/>
<path d="M49.0389 29.6328C48.3774 29.6328 48.3759 30.6618 49.0389 30.6618C49.702 30.6618 49.7005 29.6328 49.0389 29.6328Z" fill="#E0DDCA"/>
<path d="M45.6241 28.9407C44.9626 28.9407 44.9611 29.9697 45.6241 29.9697C46.2872 29.9697 46.2872 28.9407 45.6241 28.9407Z" fill="#E0DDCA"/>
<path d="M44.6993 33.7994C44.0378 33.7994 44.0363 34.8284 44.6993 34.8284C45.3624 34.8284 45.3624 33.7994 44.6993 33.7994Z" fill="#E0DDCA"/>
<path d="M74.0029 33.6876C73.6966 34.5712 72.4915 35.6783 71.2466 35.5252C70.0017 35.372 68.6083 34.6156 68.7032 33.8775C68.818 32.9817 70.3707 33.6126 70.7857 32.8531C71.6156 31.3372 72.5558 31.5439 73.1944 31.7904C73.5478 31.9413 73.8292 32.223 73.9799 32.5765C74.1306 32.9301 74.1388 33.3282 74.0029 33.6876Z" fill="#FFC891"/>
<path d="M75.6551 12.6085C83.022 11.9332 90.718 26.5092 87.4182 31.619C85.818 34.0951 74.9446 34.1977 73.5695 34.092C72.1945 33.9863 72.366 32.2912 73.493 31.936C74.62 31.5807 81.5673 29.6391 81.9394 28.385C82.4738 26.5919 70.9496 13.0403 75.6551 12.6085Z" fill="#FFC891"/>
<path d="M75.551 12.4722C72.4165 12.7601 76.2998 18.7213 79.2597 23.3701C80.4602 23.0287 83.44 21.9246 85.1168 19.0658C82.6254 15.1902 79.053 12.1506 75.551 12.4722Z" fill="#5E5E5E"/>
<path d="M79.5093 23.2216C77.8402 20.0656 74.7241 17.4273 74.6093 13.6329C74.6093 13.4016 74.2418 13.4001 74.2479 13.6329C74.3612 17.5146 77.488 20.1759 79.1938 23.4038C79.3056 23.609 79.618 23.4283 79.5093 23.2216Z" fill="#414141"/>
<path d="M62.3057 83.5958L40.4562 83.5835L22.732 83.5728C22.784 81.106 22.5053 78.6391 22.5788 76.1677C22.663 73.5018 22.8851 70.8313 22.5788 68.17C23.2995 68.1546 24.0202 68.1414 24.741 68.1301C31.1365 68.0352 37.532 68.0975 43.9276 68.317C47.5321 68.4405 51.1341 68.6145 54.7336 68.8391C55.3951 68.8805 55.392 67.8515 54.7336 67.8101C49.7979 67.5039 44.8575 67.292 39.9126 67.1746C39.8105 62.3155 39.7717 57.4558 39.7962 52.5956C39.7962 51.9341 38.7718 51.9325 38.7672 52.5956C38.7376 57.4476 38.7759 62.2996 38.8821 67.1517C31.3789 66.9914 23.8758 67.046 16.3727 67.3155C12.8094 67.4457 9.21711 67.6049 5.64623 67.2221C4.98933 67.1532 4.99392 68.1822 5.64623 68.2511C8.81286 68.5834 11.9948 68.4992 15.1706 68.3828C17.3021 68.3052 19.4341 68.2404 21.5667 68.1883C21.8591 70.842 21.6402 73.5033 21.556 76.1616C21.4779 78.633 21.7565 81.0983 21.7091 83.5652H18.6083H6.29855C5.63705 83.5652 5.63551 84.5927 6.29855 84.5942L21.8255 84.6034C21.9258 84.6833 22.0502 84.7267 22.1784 84.7267C22.3066 84.7267 22.4311 84.6833 22.5314 84.6034H28.1465H38.6937C39.0306 87.0273 38.9234 89.5034 38.9081 91.9534C38.8913 94.4447 38.8453 96.9376 38.6922 99.4259C38.6509 100.087 39.6799 100.084 39.7212 99.4259C39.8743 96.8702 39.9233 94.31 39.9386 91.7497C39.954 89.3686 40.0229 86.9753 39.7227 84.608H49.9959H62.3057C62.9672 84.6248 62.9687 83.5973 62.3057 83.5958Z" fill="#CCCAB8"/>
<path d="M39.026 51.8621H5V67.5819H39.026V51.8621Z" fill="#E8E4D1"/>
<path d="M7.27548 54.6659C6.63389 54.5051 6.38276 55.502 7.02589 55.6643C7.66902 55.8266 7.91861 54.8298 7.27548 54.6659Z" fill="#E0DDCA"/>
<path d="M8.52194 58.2611C7.88035 58.1004 7.62922 59.0972 8.27235 59.2595C8.91548 59.4218 9.1666 58.4219 8.52194 58.2611Z" fill="#E0DDCA"/>
<path d="M7.21726 60.3789C6.57566 60.2182 6.32454 61.215 6.96766 61.3773C7.61079 61.5396 7.86038 60.5412 7.21726 60.3789Z" fill="#E0DDCA"/>
<path d="M13.9548 55.6259C13.3132 55.4651 13.0621 56.4619 13.7052 56.6242C14.3483 56.7865 14.5979 55.7867 13.9548 55.6259Z" fill="#E0DDCA"/>
<path d="M14.555 61.5565C13.9134 61.3958 13.6623 62.3926 14.3054 62.5549C14.9486 62.7173 15.1982 61.7235 14.555 61.5565Z" fill="#E0DDCA"/>
<path d="M11.6074 64.5209C10.9658 64.3601 10.7147 65.357 11.3578 65.5193C12.0009 65.6816 12.2505 64.6817 11.6074 64.5209Z" fill="#E0DDCA"/>
<path d="M9.67191 63.2011C9.03031 63.0403 8.77919 64.0371 9.42231 64.1995C10.0654 64.3618 10.315 63.3619 9.67191 63.2011Z" fill="#E0DDCA"/>
<path d="M11.5951 60.0451C10.9535 59.8843 10.7024 60.8811 11.3455 61.0435C11.9887 61.2058 12.2383 60.2059 11.5951 60.0451Z" fill="#E0DDCA"/>
<path d="M9.82956 55.6658C9.18797 55.505 8.93684 56.5018 9.57997 56.6641C10.2231 56.8264 10.4727 55.8266 9.82956 55.6658Z" fill="#E0DDCA"/>
<path d="M21.7274 57.9304C21.0859 57.7697 20.8347 58.7665 21.4779 58.9288C22.121 59.0911 22.3706 58.0912 21.7274 57.9304Z" fill="#E0DDCA"/>
<path d="M19.8869 63.1367C19.2453 62.976 18.9942 63.9728 19.6373 64.1351C20.2804 64.2974 20.53 63.2975 19.8869 63.1367Z" fill="#E0DDCA"/>
<path d="M17.5992 63.4583C16.9576 63.2975 16.7064 64.2943 17.3496 64.4567C17.9927 64.619 18.2423 63.6191 17.5992 63.4583Z" fill="#E0DDCA"/>
<path d="M17.7094 57.7604C17.0678 57.5996 16.8167 58.5965 17.4598 58.7588C18.103 58.9211 18.3572 57.9212 17.7094 57.7604Z" fill="#E0DDCA"/>
<path d="M21.6448 54.4499C21.0032 54.2891 20.7521 55.2859 21.3952 55.4482C22.0383 55.6106 22.2879 54.6122 21.6448 54.4499Z" fill="#E0DDCA"/>
<path d="M26.6963 57.3854C26.0547 57.2246 25.8036 58.2214 26.4467 58.3837C27.0899 58.546 27.3395 57.5477 26.6963 57.3854Z" fill="#E0DDCA"/>
<path d="M26.4269 63.7002C25.7853 63.5394 25.5342 64.5363 26.1773 64.6986C26.8204 64.8609 27.07 63.861 26.4269 63.7002Z" fill="#E0DDCA"/>
<path d="M24.7532 63.2224C24.1116 63.0617 23.8605 64.0585 24.5036 64.2208C25.1467 64.3831 25.3994 63.3832 24.7532 63.2224Z" fill="#E0DDCA"/>
<path d="M24.3245 58.2825C23.6829 58.1217 23.4318 59.1186 24.0749 59.2809C24.718 59.4432 24.9676 58.4433 24.3245 58.2825Z" fill="#E0DDCA"/>
<path d="M25.3504 54.185C24.7088 54.0242 24.4577 55.021 25.1008 55.1834C25.7439 55.3457 25.9935 54.3473 25.3504 54.185Z" fill="#E0DDCA"/>
<path d="M30.3454 54.7209C29.7038 54.5601 29.4527 55.5569 30.0958 55.7192C30.7389 55.8816 30.9885 54.8816 30.3454 54.7209Z" fill="#E0DDCA"/>
<path d="M29.8231 61.3299C29.1816 61.1691 28.9304 62.1659 29.5736 62.3283C30.2167 62.4906 30.4663 61.4922 29.8231 61.3299Z" fill="#E0DDCA"/>
<path d="M28.6166 62.1016C27.975 61.9408 27.7239 62.9377 28.367 63.1C29.0101 63.2623 29.2597 62.2624 28.6166 62.1016Z" fill="#E0DDCA"/>
<path d="M27.6212 59.4127C26.9797 59.252 26.7285 60.2488 27.3717 60.4111C28.0148 60.5734 28.2644 59.5659 27.6212 59.4127Z" fill="#E0DDCA"/>
<path d="M31.5366 58.0622C30.8951 57.9014 30.6439 58.8982 31.2871 59.0605C31.9302 59.2229 32.1798 58.2229 31.5366 58.0622Z" fill="#E0DDCA"/>
<path d="M33.195 54.3013C32.5534 54.1405 32.3023 55.1374 32.9454 55.2997C33.5885 55.462 33.8381 54.4621 33.195 54.3013Z" fill="#E0DDCA"/>
<path d="M36.5315 59.3131C35.8899 59.1524 35.6388 60.1492 36.2819 60.3115C36.9251 60.4738 37.1747 59.4739 36.5315 59.3131Z" fill="#E0DDCA"/>
<path d="M34.7768 62.7509C34.1352 62.5901 33.884 63.5869 34.5272 63.7492C35.1703 63.9115 35.4199 62.9117 34.7768 62.7509Z" fill="#E0DDCA"/>
<path d="M32.8964 62.1598C32.2548 61.999 32.0037 62.9959 32.6468 63.1582C33.2899 63.3205 33.5395 62.3221 32.8964 62.1598Z" fill="#E0DDCA"/>
<path d="M34.8595 55.2569C34.2179 55.0961 33.9668 56.0929 34.6099 56.2552C35.2531 56.4175 35.5073 55.4176 34.8595 55.2569Z" fill="#E0DDCA"/>
<path d="M36.674 53.7471C36.0324 53.5863 35.7813 54.5832 36.4244 54.7455C37.0675 54.9078 37.3171 53.9002 36.674 53.7471Z" fill="#E0DDCA"/>
<path d="M37.6158 56.4221C36.9742 56.2614 36.723 57.2582 37.3662 57.4205C38.0093 57.5828 38.2573 56.5845 37.6158 56.4221Z" fill="#E0DDCA"/>
<path d="M37.1333 62.3864C36.4917 62.2256 36.2406 63.2225 36.8837 63.3848C37.5269 63.5471 37.7765 62.5472 37.1333 62.3864Z" fill="#E0DDCA"/>
<path d="M33.8656 59.9578C33.224 59.797 32.9729 60.7938 33.616 60.9562C34.2592 61.1185 34.5088 60.1186 33.8656 59.9578Z" fill="#E0DDCA"/>
<path d="M23.6216 60.1354C22.98 59.9746 22.7289 60.9715 23.372 61.1338C24.0151 61.2961 24.2647 60.2962 23.6216 60.1354Z" fill="#E0DDCA"/>
<path d="M19.0324 60.8338C18.3908 60.673 18.1397 61.6698 18.7828 61.8322C19.426 61.9945 19.6756 60.9961 19.0324 60.8338Z" fill="#E0DDCA"/>
<path d="M19.547 55.6565C18.9054 55.4957 18.6542 56.4926 19.2974 56.6549C19.9405 56.8172 20.1978 55.8173 19.547 55.6565Z" fill="#E0DDCA"/>
<path d="M16.4109 54.1529C15.7693 53.9921 15.5182 54.989 16.1613 55.1513C16.8045 55.3136 17.054 54.3152 16.4109 54.1529Z" fill="#E0DDCA"/>
<path d="M14.333 58.6471C13.6914 58.4863 13.4403 59.4832 14.0834 59.6455C14.7266 59.8078 14.9762 58.8002 14.333 58.6471Z" fill="#E0DDCA"/>
<path d="M16.9239 52.8284L6.05199 52.5497C6.01138 52.5497 5.97243 52.5658 5.94371 52.5945C5.915 52.6232 5.89886 52.6622 5.89886 52.7028C5.89886 52.7434 5.915 52.7824 5.94371 52.8111C5.97243 52.8398 6.01138 52.8559 6.05199 52.8559L16.9239 53.1346C16.9645 53.1346 17.0034 53.1185 17.0322 53.0897C17.0609 53.061 17.077 53.0221 17.077 52.9815C17.077 52.9409 17.0609 52.9019 17.0322 52.8732C17.0034 52.8445 16.9645 52.8284 16.9239 52.8284Z" fill="#FFFDF0"/>
<path d="M37.7443 52.6001C31.3437 52.8043 24.941 52.8553 18.5363 52.7532C18.4957 52.7532 18.4567 52.7694 18.428 52.7981C18.3993 52.8268 18.3832 52.8658 18.3832 52.9064C18.3832 52.947 18.3993 52.9859 18.428 53.0147C18.4567 53.0434 18.4957 53.0595 18.5363 53.0595C24.939 53.1616 31.3417 53.1105 37.7443 52.9064C37.9419 52.9018 37.9434 52.5925 37.7443 52.6001Z" fill="#FFFDF0"/>
<path d="M22.0122 68.0305H5V83.7504H22.0122V68.0305Z" fill="#E8E4D1"/>
<path d="M18.7231 80.3664C19.3647 80.5271 19.6158 79.5303 18.9727 79.368C18.3296 79.2057 18.08 80.2056 18.7231 80.3664Z" fill="#E0DDCA"/>
<path d="M17.4767 76.7741C18.1183 76.9349 18.3694 75.938 17.7263 75.7757C17.0832 75.6134 16.8336 76.6133 17.4767 76.7741Z" fill="#E0DDCA"/>
<path d="M18.7814 74.6548C19.423 74.8156 19.6741 73.8187 19.031 73.6564C18.3878 73.4941 18.1398 74.494 18.7814 74.6548Z" fill="#E0DDCA"/>
<path d="M12.0438 79.4093C12.6854 79.5701 12.9365 78.5733 12.2934 78.4109C11.6503 78.2486 11.4007 79.2485 12.0438 79.4093Z" fill="#E0DDCA"/>
<path d="M11.4435 73.4726C12.0851 73.6333 12.3362 72.6365 11.6931 72.4742C11.05 72.3119 10.8004 73.3118 11.4435 73.4726Z" fill="#E0DDCA"/>
<path d="M14.3927 70.5143C15.0343 70.6751 15.2855 69.6721 14.6469 69.519C14.0084 69.3659 13.7496 70.352 14.3927 70.5143Z" fill="#E0DDCA"/>
<path d="M16.3313 71.8343C16.9729 71.9951 17.224 70.9982 16.5809 70.8359C15.9378 70.6736 15.6851 71.672 16.3313 71.8343Z" fill="#E0DDCA"/>
<path d="M14.4035 74.9901C15.0451 75.1509 15.2962 74.1541 14.6531 73.9918C14.0099 73.8294 13.7603 74.8294 14.4035 74.9901Z" fill="#E0DDCA"/>
<path d="M16.1705 79.3694C16.8121 79.5302 17.0632 78.5333 16.4201 78.371C15.777 78.2087 15.5274 79.2086 16.1705 79.3694Z" fill="#E0DDCA"/>
<path d="M6.11173 71.8985C6.75332 72.0592 7.00445 71.0624 6.36132 70.9001C5.7182 70.7378 5.4686 71.7377 6.11173 71.8985Z" fill="#E0DDCA"/>
<path d="M8.39939 71.5769C9.04098 71.7377 9.2921 70.7409 8.64898 70.5785C8.00585 70.4162 7.75626 71.4161 8.39939 71.5769Z" fill="#E0DDCA"/>
<path d="M8.28458 77.2748C8.92618 77.4355 9.1773 76.4387 8.53417 76.2764C7.89105 76.1141 7.64145 77.114 8.28458 77.2748Z" fill="#E0DDCA"/>
<path d="M6.96775 74.2C7.60934 74.3608 7.86047 73.3639 7.21734 73.2016C6.57421 73.0393 6.32462 74.0392 6.96775 74.2Z" fill="#E0DDCA"/>
<path d="M6.44553 79.3787C7.08712 79.5395 7.33825 78.5426 6.69512 78.3803C6.052 78.218 5.8024 79.2179 6.44553 79.3787Z" fill="#E0DDCA"/>
<path d="M9.59379 80.8809C10.2354 81.0417 10.4865 80.0448 9.84339 79.8825C9.20026 79.7202 8.94454 80.7201 9.59379 80.8809Z" fill="#E0DDCA"/>
<path d="M11.6671 76.3927C12.3087 76.5535 12.5599 75.5567 11.9167 75.3944C11.2736 75.2321 11.024 76.2304 11.6671 76.3927Z" fill="#E0DDCA"/>
<path d="M21.1976 68.9065C21.1976 68.8659 21.1815 68.827 21.1528 68.7983C21.124 68.7695 21.0851 68.7534 21.0445 68.7534L6.07189 68.6692C6.03128 68.6692 5.99233 68.6853 5.96361 68.714C5.9349 68.7428 5.91876 68.7817 5.91876 68.8223C5.91876 68.8629 5.9349 68.9019 5.96361 68.9306C5.99233 68.9593 6.03128 68.9754 6.07189 68.9754L20.8959 69.0612C20.9552 71.1447 20.9827 73.2287 20.9786 75.3133C20.9786 75.3539 20.9948 75.3929 21.0235 75.4216C21.0522 75.4503 21.0911 75.4664 21.1318 75.4664C21.1724 75.4664 21.2113 75.4503 21.24 75.4216C21.2688 75.3929 21.2849 75.3539 21.2849 75.3133C21.289 73.1797 21.2599 71.0442 21.1976 68.9065Z" fill="#FFFDF0"/>
<path d="M21.2895 76.6653C21.2895 76.6247 21.2734 76.5858 21.2446 76.5571C21.2159 76.5283 21.177 76.5122 21.1364 76.5122C21.0958 76.5122 21.0568 76.5283 21.0281 76.5571C20.9994 76.5858 20.9833 76.6247 20.9833 76.6653C21.0108 78.2762 20.9914 79.8866 20.9251 81.4964C20.9174 81.6955 21.2313 81.6939 21.2313 81.4964C21.2977 79.8866 21.3171 78.2762 21.2895 76.6653Z" fill="#FFFDF0"/>
<path d="M56.5113 68.0305H22.4854V83.7504H56.5113V68.0305Z" fill="#E8E4D1"/>
<path d="M54.3064 80.3664C54.948 80.5271 55.1991 79.5303 54.556 79.368C53.9129 79.2057 53.6679 80.2056 54.3064 80.3664Z" fill="#E0DDCA"/>
<path d="M53.063 76.7741C53.7046 76.9349 53.9558 75.938 53.3126 75.7757C52.6695 75.6134 52.4199 76.6133 53.063 76.7741Z" fill="#E0DDCA"/>
<path d="M54.3692 74.6548C55.0108 74.8156 55.2619 73.8187 54.6188 73.6564C53.9756 73.4941 53.7261 74.494 54.3692 74.6548Z" fill="#E0DDCA"/>
<path d="M47.6316 79.4093C48.2732 79.5701 48.5243 78.5733 47.8812 78.4109C47.2381 78.2486 46.9885 79.2485 47.6316 79.4093Z" fill="#E0DDCA"/>
<path d="M47.0314 73.4726C47.673 73.6333 47.9241 72.6365 47.281 72.4742C46.6379 72.3119 46.3883 73.3118 47.0314 73.4726Z" fill="#E0DDCA"/>
<path d="M49.979 70.5143C50.6206 70.6751 50.8717 69.6783 50.2286 69.5159C49.5855 69.3536 49.3359 70.352 49.979 70.5143Z" fill="#E0DDCA"/>
<path d="M51.9146 71.8343C52.5562 71.9951 52.8074 70.9982 52.1642 70.8359C51.5211 70.6736 51.2714 71.672 51.9146 71.8343Z" fill="#E0DDCA"/>
<path d="M49.9913 74.9901C50.6329 75.1509 50.884 74.1541 50.2409 73.9918C49.5977 73.8294 49.3481 74.8294 49.9913 74.9901Z" fill="#E0DDCA"/>
<path d="M51.7569 79.3694C52.3985 79.5302 52.6496 78.5333 52.0065 78.371C51.3633 78.2087 51.1137 79.2086 51.7569 79.3694Z" fill="#E0DDCA"/>
<path d="M39.859 77.1049C40.5006 77.2657 40.7518 76.2688 40.1086 76.1065C39.4655 75.9442 39.2159 76.9426 39.859 77.1049Z" fill="#E0DDCA"/>
<path d="M41.6996 71.8985C42.3412 72.0592 42.5923 71.0624 41.9492 70.9001C41.3061 70.7378 41.0565 71.7377 41.6996 71.8985Z" fill="#E0DDCA"/>
<path d="M43.9873 71.5769C44.6289 71.7377 44.8801 70.7409 44.2369 70.5785C43.5938 70.4162 43.3442 71.4161 43.9873 71.5769Z" fill="#E0DDCA"/>
<path d="M43.8725 77.2748C44.5141 77.4355 44.7652 76.4387 44.1221 76.2764C43.4789 76.1141 43.2293 77.114 43.8725 77.2748Z" fill="#E0DDCA"/>
<path d="M39.9416 80.5838C40.5832 80.7445 40.8343 79.7477 40.1912 79.5854C39.5481 79.4231 39.3 80.423 39.9416 80.5838Z" fill="#E0DDCA"/>
<path d="M34.89 77.6499C35.5316 77.8107 35.7828 76.8139 35.1396 76.6515C34.4965 76.4892 34.2469 77.4815 34.89 77.6499Z" fill="#E0DDCA"/>
<path d="M35.1658 71.3351C35.8074 71.4959 36.0585 70.499 35.4154 70.3367C34.7722 70.1744 34.5165 71.1743 35.1658 71.3351Z" fill="#E0DDCA"/>
<path d="M36.8302 71.8159C37.4718 71.9767 37.7229 70.9798 37.0798 70.8175C36.4367 70.6552 36.1871 71.652 36.8302 71.8159Z" fill="#E0DDCA"/>
<path d="M37.262 76.7526C37.9036 76.9134 38.1547 75.9165 37.5116 75.7542C36.8685 75.5919 36.6189 76.5918 37.262 76.7526Z" fill="#E0DDCA"/>
<path d="M36.2376 80.8502C36.8792 81.011 37.1304 80.0142 36.4872 79.8519C35.8441 79.6896 35.593 80.6879 36.2376 80.8502Z" fill="#E0DDCA"/>
<path d="M31.2411 80.3144C31.8827 80.4751 32.1338 79.4783 31.4907 79.316C30.8476 79.1537 30.598 80.1521 31.2411 80.3144Z" fill="#E0DDCA"/>
<path d="M31.7632 73.7039C32.4048 73.8647 32.6559 72.8678 32.0128 72.7055C31.3697 72.5432 31.1201 73.5431 31.7632 73.7039Z" fill="#E0DDCA"/>
<path d="M32.9699 72.9336C33.6115 73.0944 33.8626 72.0975 33.2195 71.9352C32.5763 71.7729 32.3268 72.7728 32.9699 72.9336Z" fill="#E0DDCA"/>
<path d="M33.9652 75.6286C34.6068 75.7894 34.8579 74.7925 34.2148 74.6302C33.5716 74.4679 33.3282 75.4663 33.9652 75.6286Z" fill="#E0DDCA"/>
<path d="M30.0498 76.973C30.6914 77.1338 30.9425 76.137 30.2994 75.9747C29.6563 75.8123 29.4067 76.8123 30.0498 76.973Z" fill="#E0DDCA"/>
<path d="M28.3915 80.7339C29.0331 80.8947 29.2842 79.8979 28.6411 79.7355C27.998 79.5732 27.7484 80.5716 28.3915 80.7339Z" fill="#E0DDCA"/>
<path d="M25.0594 75.722C25.701 75.8828 25.9521 74.886 25.309 74.7237C24.6658 74.5614 24.4117 75.5613 25.0594 75.722Z" fill="#E0DDCA"/>
<path d="M26.8097 72.2845C27.4513 72.4452 27.7024 71.4484 27.0593 71.2861C26.4162 71.1238 26.1666 72.1221 26.8097 72.2845Z" fill="#E0DDCA"/>
<path d="M28.6901 72.8755C29.3317 73.0363 29.5828 72.0394 28.9397 71.8771C28.2966 71.7148 28.047 72.7147 28.6901 72.8755Z" fill="#E0DDCA"/>
<path d="M26.7224 79.7783C27.364 79.9391 27.6152 78.9423 26.972 78.78C26.3289 78.6176 26.0793 79.6176 26.7224 79.7783Z" fill="#E0DDCA"/>
<path d="M24.9064 81.2928C25.548 81.4535 25.7991 80.4567 25.156 80.2944C24.5129 80.1321 24.2679 81.132 24.9064 81.2928Z" fill="#E0DDCA"/>
<path d="M23.9722 78.6116C24.6138 78.7724 24.8649 77.7755 24.2218 77.6132C23.5787 77.4509 23.3291 78.4508 23.9722 78.6116Z" fill="#E0DDCA"/>
<path d="M24.4469 72.6488C25.0885 72.8096 25.3396 71.8128 24.6965 71.6504C24.0533 71.4881 23.8099 72.488 24.4469 72.6488Z" fill="#E0DDCA"/>
<path d="M27.7207 75.0774C28.3623 75.2382 28.6135 74.2413 27.9703 74.079C27.3272 73.9167 27.0776 74.9166 27.7207 75.0774Z" fill="#E0DDCA"/>
<path d="M37.9649 74.8998C38.6065 75.0606 38.8576 74.0637 38.2145 73.9014C37.5713 73.7391 37.3217 74.739 37.9649 74.8998Z" fill="#E0DDCA"/>
<path d="M42.554 74.2C43.1956 74.3608 43.4467 73.3639 42.8036 73.2016C42.1605 73.0393 41.9109 74.0392 42.554 74.2Z" fill="#E0DDCA"/>
<path d="M42.0319 79.3787C42.6735 79.5395 42.9246 78.5426 42.2815 78.3803C41.6384 78.218 41.3888 79.2179 42.0319 79.3787Z" fill="#E0DDCA"/>
<path d="M45.1756 80.8809C45.8172 81.0417 46.0683 80.0448 45.4252 79.8825C44.782 79.7202 44.5324 80.7201 45.1756 80.8809Z" fill="#E0DDCA"/>
<path d="M47.2534 76.3927C47.895 76.5535 48.1462 75.5567 47.503 75.3944C46.8599 75.2321 46.6103 76.2304 47.2534 76.3927Z" fill="#E0DDCA"/>
<path d="M42.113 68.9953C36.1156 68.9289 30.1182 68.9733 24.1208 69.1285C24.0802 69.1285 24.0412 69.1446 24.0125 69.1733C23.9838 69.2021 23.9677 69.241 23.9677 69.2816C23.9677 69.3222 23.9838 69.3612 24.0125 69.3899C24.0412 69.4186 24.0802 69.4347 24.1208 69.4347C30.1172 69.2796 36.1146 69.2352 42.113 69.3015C42.1536 69.3015 42.1925 69.2854 42.2213 69.2567C42.25 69.228 42.2661 69.189 42.2661 69.1484C42.2661 69.1078 42.25 69.0688 42.2213 69.0401C42.1925 69.0114 42.1536 68.9953 42.113 68.9953Z" fill="#FFFDF0"/>
<path d="M53.8577 69.1515C50.5999 69.292 47.3371 69.2639 44.0822 69.0672C43.8831 69.055 43.8847 69.3643 44.0822 69.3735C47.3371 69.5702 50.5999 69.5983 53.8577 69.4577C54.0552 69.4516 54.0568 69.1423 53.8577 69.1515Z" fill="#FFFDF0"/>
<path d="M39.026 84.2803H5V100H39.026V84.2803Z" fill="#E8E4D1"/>
<path d="M6.99832 87.6735C6.35673 87.5127 6.1056 88.5096 6.74873 88.6719C7.39186 88.8342 7.64145 87.8343 6.99832 87.6735Z" fill="#E0DDCA"/>
<path d="M8.24631 91.2627C7.60471 91.1019 7.35359 92.0988 7.99672 92.2611C8.63984 92.4234 8.88944 91.4266 8.24631 91.2627Z" fill="#E0DDCA"/>
<path d="M6.9401 93.3836C6.2985 93.2228 6.04738 94.2196 6.6905 94.3819C7.33363 94.5443 7.58322 93.5459 6.9401 93.3836Z" fill="#E0DDCA"/>
<path d="M13.6776 88.6305C13.036 88.4697 12.7849 89.4666 13.4281 89.6289C14.0712 89.7912 14.3208 88.7913 13.6776 88.6305Z" fill="#E0DDCA"/>
<path d="M14.2779 94.5656C13.6363 94.4048 13.3851 95.4016 14.0283 95.5639C14.6714 95.7263 14.921 94.7279 14.2779 94.5656Z" fill="#E0DDCA"/>
<path d="M11.3302 97.5255C10.6886 97.3648 10.4375 98.3616 11.0806 98.5239C11.7238 98.6862 11.9734 97.694 11.3302 97.5255Z" fill="#E0DDCA"/>
<path d="M9.39322 96.2056C8.75163 96.0448 8.5005 97.0417 9.14363 97.204C9.78675 97.3663 10.0363 96.3664 9.39322 96.2056Z" fill="#E0DDCA"/>
<path d="M11.318 93.0497C10.6764 92.8889 10.4252 93.8858 11.0684 94.0481C11.7115 94.2104 11.9611 93.2105 11.318 93.0497Z" fill="#E0DDCA"/>
<path d="M9.55246 88.6703C8.91087 88.5095 8.65974 89.5064 9.30287 89.6687C9.94599 89.831 10.1956 88.8311 9.55246 88.6703Z" fill="#E0DDCA"/>
<path d="M21.4503 90.9351C20.8088 90.7743 20.5576 91.7712 21.2008 91.9335C21.8439 92.0958 22.0935 91.0959 21.4503 90.9351Z" fill="#E0DDCA"/>
<path d="M19.6097 96.1398C18.9681 95.979 18.717 96.9759 19.3601 97.1382C20.0032 97.3005 20.2528 96.3021 19.6097 96.1398Z" fill="#E0DDCA"/>
<path d="M17.322 96.469C16.6804 96.3082 16.4293 97.3051 17.0724 97.4674C17.7155 97.6297 17.9651 96.6221 17.322 96.469Z" fill="#E0DDCA"/>
<path d="M17.4369 90.765C16.7953 90.6043 16.5441 91.6011 17.1873 91.7634C17.8304 91.9257 18.08 90.9258 17.4369 90.765Z" fill="#E0DDCA"/>
<path d="M21.3676 87.4545C20.726 87.2937 20.4749 88.2905 21.118 88.4529C21.7611 88.6152 22.0107 87.6168 21.3676 87.4545Z" fill="#E0DDCA"/>
<path d="M26.4176 90.3899C25.776 90.2291 25.5249 91.226 26.168 91.3883C26.8112 91.5506 27.0608 90.5507 26.4176 90.3899Z" fill="#E0DDCA"/>
<path d="M26.1482 96.7047C25.5066 96.544 25.2555 97.5408 25.8986 97.7031C26.5418 97.8654 26.7914 96.8655 26.1482 96.7047Z" fill="#E0DDCA"/>
<path d="M24.4792 96.2271C23.8376 96.0663 23.5864 97.0632 24.2296 97.2255C24.8727 97.3878 25.1223 96.3879 24.4792 96.2271Z" fill="#E0DDCA"/>
<path d="M24.0458 91.2873C23.4042 91.1265 23.1531 92.1233 23.7962 92.2856C24.4393 92.448 24.6889 91.448 24.0458 91.2873Z" fill="#E0DDCA"/>
<path d="M25.0733 87.1896C24.4317 87.0288 24.1806 88.0256 24.8237 88.188C25.4668 88.3503 25.7164 87.3519 25.0733 87.1896Z" fill="#E0DDCA"/>
<path d="M30.0681 87.7255C29.4266 87.5647 29.1754 88.5615 29.8185 88.7239C30.4617 88.8862 30.7113 87.8939 30.0681 87.7255Z" fill="#E0DDCA"/>
<path d="M29.5461 94.3344C28.9045 94.1736 28.6533 95.1704 29.2965 95.3327C29.9396 95.4951 30.1892 94.4967 29.5461 94.3344Z" fill="#E0DDCA"/>
<path d="M28.3378 95.1062C27.6962 94.9454 27.4451 95.9423 28.0882 96.1046C28.7313 96.2669 28.9809 95.267 28.3378 95.1062Z" fill="#E0DDCA"/>
<path d="M27.344 92.4112C26.7024 92.2504 26.4513 93.2472 27.0944 93.4095C27.7376 93.5719 27.9872 92.5719 27.344 92.4112Z" fill="#E0DDCA"/>
<path d="M31.2596 91.0668C30.618 90.906 30.3668 91.9029 31.01 92.0652C31.6531 92.2275 31.9027 91.2276 31.2596 91.0668Z" fill="#E0DDCA"/>
<path d="M32.9163 87.3061C32.2747 87.1453 32.0236 88.1421 32.6667 88.3044C33.3098 88.4668 33.5594 87.4668 32.9163 87.3061Z" fill="#E0DDCA"/>
<path d="M36.2544 92.3178C35.6128 92.157 35.3617 93.1538 36.0048 93.3162C36.6479 93.4785 36.8975 92.4786 36.2544 92.3178Z" fill="#E0DDCA"/>
<path d="M34.4981 95.7538C33.8565 95.593 33.6054 96.5899 34.2485 96.7522C34.8916 96.9145 35.1412 95.9161 34.4981 95.7538Z" fill="#E0DDCA"/>
<path d="M32.6193 95.1643C31.9777 95.0036 31.7266 96.0004 32.3697 96.1627C33.0128 96.325 33.2624 95.3251 32.6193 95.1643Z" fill="#E0DDCA"/>
<path d="M34.5869 88.2615C33.9454 88.1007 33.6942 89.0976 34.3373 89.2599C34.9805 89.4222 35.2301 88.4223 34.5869 88.2615Z" fill="#E0DDCA"/>
<path d="M36.3908 86.7471C35.7492 86.5863 35.4981 87.5832 36.1412 87.7455C36.7843 87.9078 37.04 86.9079 36.3908 86.7471Z" fill="#E0DDCA"/>
<path d="M37.3355 89.4252C36.6939 89.2644 36.4428 90.2613 37.0859 90.4236C37.729 90.5859 37.9786 89.589 37.3355 89.4252Z" fill="#E0DDCA"/>
<path d="M36.8501 95.3971C36.2085 95.2363 35.9574 96.2332 36.6005 96.3955C37.2437 96.5578 37.4994 95.5502 36.8501 95.3971Z" fill="#E0DDCA"/>
<path d="M33.5885 92.9624C32.9469 92.8016 32.6958 93.7985 33.3389 93.9608C33.9821 94.1231 34.2317 93.1232 33.5885 92.9624Z" fill="#E0DDCA"/>
<path d="M23.3445 93.14C22.7029 92.9793 22.4518 93.9761 23.0949 94.1384C23.738 94.3007 23.9876 93.3008 23.3445 93.14Z" fill="#E0DDCA"/>
<path d="M18.7553 93.8383C18.1137 93.6775 17.8626 94.6744 18.5057 94.8367C19.1488 94.999 19.3938 94.0006 18.7553 93.8383Z" fill="#E0DDCA"/>
<path d="M19.2759 88.6596C18.6282 88.5065 18.3832 89.4972 19.0263 89.658C19.6694 89.8188 19.919 88.8219 19.2759 88.6596Z" fill="#E0DDCA"/>
<path d="M16.1338 87.1575C15.4922 86.9967 15.241 87.9936 15.8842 88.1559C16.5273 88.3182 16.7769 87.3198 16.1338 87.1575Z" fill="#E0DDCA"/>
<path d="M14.0544 91.6471C13.4128 91.4863 13.1616 92.4877 13.8048 92.6408C14.4479 92.794 14.6975 91.8078 14.0544 91.6471Z" fill="#E0DDCA"/>
<path d="M37.5422 84.9846C33.5227 84.8407 29.5123 85.173 25.4989 85.3184C21.4855 85.4639 17.4522 85.2556 13.4265 85.2051C11.1673 85.1608 8.90724 85.2323 6.65533 85.4195C6.45933 85.4379 6.45779 85.7457 6.65533 85.7258C10.6274 85.3674 14.6178 85.5343 18.5991 85.6339C22.6477 85.7365 26.6673 85.568 30.7113 85.3812C32.9883 85.2756 35.2683 85.2082 37.5484 85.2893C37.7398 85.2909 37.7398 84.9846 37.5422 84.9846Z" fill="#FFFDF0"/>
<path d="M73.5251 84.2803H39.4991V100H73.5251V84.2803Z" fill="#E8E4D1"/>
<path d="M42.0074 87.6735C41.3658 87.5127 41.1146 88.5096 41.7578 88.6719C42.4009 88.8342 42.6505 87.8343 42.0074 87.6735Z" fill="#E0DDCA"/>
<path d="M43.2553 91.2627C42.6137 91.1019 42.3626 92.0988 43.0057 92.2611C43.6488 92.4234 43.8938 91.4266 43.2553 91.2627Z" fill="#E0DDCA"/>
<path d="M41.9491 93.3836C41.3075 93.2228 41.0564 94.2196 41.6995 94.3819C42.3427 94.5443 42.5923 93.5459 41.9491 93.3836Z" fill="#E0DDCA"/>
<path d="M48.6867 88.6305C48.0451 88.4697 47.794 89.4666 48.4371 89.6289C49.0802 89.7912 49.3298 88.7913 48.6867 88.6305Z" fill="#E0DDCA"/>
<path d="M49.2869 94.5656C48.6453 94.4048 48.3942 95.4016 49.0373 95.5639C49.6804 95.7263 49.93 94.7279 49.2869 94.5656Z" fill="#E0DDCA"/>
<path d="M46.3439 97.5255C45.7023 97.3648 45.4512 98.3616 46.0943 98.5239C46.7374 98.6862 46.9824 97.694 46.3439 97.5255Z" fill="#E0DDCA"/>
<path d="M44.4037 96.2056C43.7621 96.0448 43.511 97.0417 44.1541 97.204C44.7973 97.3663 45.0469 96.3664 44.4037 96.2056Z" fill="#E0DDCA"/>
<path d="M46.3271 93.0497C45.6855 92.8889 45.4343 93.8858 46.0775 94.0481C46.7206 94.2104 46.9702 93.2105 46.3271 93.0497Z" fill="#E0DDCA"/>
<path d="M44.5616 88.6703C43.92 88.5095 43.6688 89.5064 44.312 89.6687C44.9551 89.831 45.2047 88.8311 44.5616 88.6703Z" fill="#E0DDCA"/>
<path d="M56.4593 90.9351C55.8177 90.7743 55.5665 91.7712 56.2097 91.9335C56.8528 92.0958 57.1024 91.0959 56.4593 90.9351Z" fill="#E0DDCA"/>
<path d="M54.6127 96.1398C53.9711 95.979 53.72 96.9759 54.3631 97.1382C55.0062 97.3005 55.262 96.3021 54.6127 96.1398Z" fill="#E0DDCA"/>
<path d="M52.3311 96.469C51.6895 96.3082 51.4384 97.3051 52.0815 97.4674C52.7246 97.6297 52.9742 96.6221 52.3311 96.469Z" fill="#E0DDCA"/>
<path d="M52.4474 90.765C51.8058 90.6043 51.5547 91.6011 52.1978 91.7634C52.841 91.9257 53.0906 90.9258 52.4474 90.765Z" fill="#E0DDCA"/>
<path d="M56.3781 87.4545C55.7365 87.2937 55.4854 88.2905 56.1285 88.4529C56.7717 88.6152 57.0213 87.6168 56.3781 87.4545Z" fill="#E0DDCA"/>
<path d="M61.4282 90.3899C60.7867 90.2291 60.5355 91.226 61.1787 91.3883C61.8218 91.5506 62.0714 90.5507 61.4282 90.3899Z" fill="#E0DDCA"/>
<path d="M61.1587 96.7047C60.5171 96.544 60.266 97.5408 60.9091 97.7031C61.5523 97.8654 61.8019 96.8655 61.1587 96.7047Z" fill="#E0DDCA"/>
<path d="M59.4882 96.2271C58.8466 96.0663 58.5955 97.0632 59.2386 97.2255C59.8817 97.3878 60.1252 96.3879 59.4882 96.2271Z" fill="#E0DDCA"/>
<path d="M59.0533 91.2873C58.4117 91.1265 58.1605 92.1233 58.8037 92.2856C59.4468 92.448 59.6995 91.448 59.0533 91.2873Z" fill="#E0DDCA"/>
<path d="M60.0823 87.1896C59.4407 87.0288 59.1896 88.0256 59.8327 88.188C60.4758 88.3503 60.7254 87.3519 60.0823 87.1896Z" fill="#E0DDCA"/>
<path d="M65.0772 87.7255C64.4356 87.5647 64.1845 88.5615 64.8276 88.7239C65.4707 88.8862 65.7203 87.8939 65.0772 87.7255Z" fill="#E0DDCA"/>
<path d="M64.5551 94.3344C63.9135 94.1736 63.6624 95.1704 64.3055 95.3327C64.9486 95.4951 65.1982 94.4967 64.5551 94.3344Z" fill="#E0DDCA"/>
<path d="M63.3409 95.1062C62.6993 94.9454 62.4481 95.9423 63.0913 96.1046C63.7344 96.2669 63.9917 95.267 63.3409 95.1062Z" fill="#E0DDCA"/>
<path d="M62.3531 92.4112C61.7115 92.2504 61.4603 93.2472 62.1035 93.4095C62.7466 93.5719 62.9962 92.5719 62.3531 92.4112Z" fill="#E0DDCA"/>
<path d="M66.2686 91.0668C65.627 90.906 65.3759 91.9029 66.019 92.0652C66.6621 92.2275 66.9117 91.2276 66.2686 91.0668Z" fill="#E0DDCA"/>
<path d="M67.9269 87.3061C67.2853 87.1453 67.0342 88.1421 67.6773 88.3044C68.3204 88.4668 68.57 87.4668 67.9269 87.3061Z" fill="#E0DDCA"/>
<path d="M71.2635 92.3178C70.6219 92.157 70.3707 93.1538 71.0139 93.3162C71.657 93.4785 71.9066 92.4786 71.2635 92.3178Z" fill="#E0DDCA"/>
<path d="M69.5087 95.7538C68.8671 95.593 68.616 96.5899 69.2591 96.7522C69.9022 96.9145 70.1518 95.9161 69.5087 95.7538Z" fill="#E0DDCA"/>
<path d="M67.6283 95.1643C66.9867 95.0036 66.7356 96.0004 67.3787 96.1627C68.0219 96.325 68.2714 95.3251 67.6283 95.1643Z" fill="#E0DDCA"/>
<path d="M69.5959 88.2615C68.9543 88.1007 68.7031 89.0976 69.3463 89.2599C69.9894 89.4222 70.2313 88.4223 69.5959 88.2615Z" fill="#E0DDCA"/>
<path d="M71.4074 86.7471C70.7658 86.5863 70.5147 87.5832 71.1578 87.7455C71.8009 87.9078 72.0505 86.9079 71.4074 86.7471Z" fill="#E0DDCA"/>
<path d="M72.3461 89.4252C71.7045 89.2644 71.4534 90.2613 72.0965 90.4236C72.7396 90.5859 72.9877 89.589 72.3461 89.4252Z" fill="#E0DDCA"/>
<path d="M71.8653 95.3971C71.2237 95.2363 70.9725 96.2332 71.6157 96.3955C72.2588 96.5578 72.5084 95.5502 71.8653 95.3971Z" fill="#E0DDCA"/>
<path d="M68.5976 92.9624C67.956 92.8016 67.7049 93.7985 68.348 93.9608C68.9911 94.1231 69.2407 93.1232 68.5976 92.9624Z" fill="#E0DDCA"/>
<path d="M58.3535 93.14C57.7118 92.9793 57.4607 93.9761 58.1038 94.1384C58.747 94.3007 58.9966 93.3008 58.3535 93.14Z" fill="#E0DDCA"/>
<path d="M53.7643 93.8383C53.1227 93.6775 52.8716 94.6744 53.5147 94.8367C54.1578 94.999 54.4074 94.0006 53.7643 93.8383Z" fill="#E0DDCA"/>
<path d="M54.2866 88.6596C53.6449 88.4988 53.3938 89.4957 54.037 89.658C54.6801 89.8203 54.9297 88.8219 54.2866 88.6596Z" fill="#E0DDCA"/>
<path d="M51.1429 87.1575C50.5013 86.9967 50.2501 87.9936 50.8933 88.1559C51.5364 88.3182 51.786 87.3198 51.1429 87.1575Z" fill="#E0DDCA"/>
<path d="M49.065 91.6471C48.4234 91.4863 48.1723 92.4832 48.8154 92.6455C49.4585 92.8078 49.7127 91.8079 49.065 91.6471Z" fill="#E0DDCA"/>
<path d="M50.4446 85.0903C47.33 85.1424 44.2165 85.1562 41.1039 85.1317C41.0633 85.1317 41.0244 85.1478 40.9957 85.1765C40.9669 85.2052 40.9508 85.2442 40.9508 85.2848C40.9508 85.3254 40.9669 85.3644 40.9957 85.3931C41.0244 85.4218 41.0633 85.4379 41.1039 85.4379C44.2185 85.4624 47.3321 85.4487 50.4446 85.3966C50.4852 85.3966 50.5241 85.3805 50.5529 85.3517C50.5816 85.323 50.5977 85.2841 50.5977 85.2435C50.5977 85.2028 50.5816 85.1639 50.5529 85.1352C50.5241 85.1065 50.4852 85.0903 50.4446 85.0903Z" fill="#FFFDF0"/>
<path d="M71.7366 85.1377L52.1519 85.0918C52.1113 85.0918 52.0723 85.1079 52.0436 85.1366C52.0149 85.1654 51.9988 85.2043 51.9988 85.2449C51.9988 85.2855 52.0149 85.3245 52.0436 85.3532C52.0723 85.3819 52.1113 85.398 52.1519 85.398L71.7366 85.444C71.7772 85.444 71.8162 85.4278 71.8449 85.3991C71.8736 85.3704 71.8897 85.3315 71.8897 85.2909C71.8897 85.2502 71.8736 85.2113 71.8449 85.1826C71.8162 85.1539 71.7772 85.1377 71.7366 85.1377Z" fill="#FFFDF0"/>
</g>
</g>
<defs>
<linearGradient id="paint0_linear" x1="41943.8" y1="11212.4" x2="69105.7" y2="11212.4" gradientUnits="userSpaceOnUse">
<stop stop-color="#D1E332"/>
<stop offset="1" stop-color="#AEB500"/>
</linearGradient>
<linearGradient id="paint1_linear" x1="38057.7" y1="10568.4" x2="62707.7" y2="10568.4" gradientUnits="userSpaceOnUse">
<stop stop-color="#D1E332"/>
<stop offset="1" stop-color="#AEB500"/>
</linearGradient>
<linearGradient id="paint2_linear" x1="49400.3" y1="1200.47" x2="81400.5" y2="1200.47" gradientUnits="userSpaceOnUse">
<stop stop-color="#D1E332"/>
<stop offset="1" stop-color="#AEB500"/>
</linearGradient>
<linearGradient id="paint3_linear" x1="42452.4" y1="1043.74" x2="69946.6" y2="1043.74" gradientUnits="userSpaceOnUse">
<stop stop-color="#D1E332"/>
<stop offset="1" stop-color="#AEB500"/>
</linearGradient>
<clipPath id="clip0">
<rect width="100" height="100" fill="white"/>
</clipPath>
<clipPath id="clip1">
<rect width="91.327" height="100" fill="white" transform="translate(5)"/>
</clipPath>
</defs>
</svg>
